<svg width="72" height="72" viewBox="0 0 72 72" fill="none" xmlns="http://www.w3.org/2000/svg">
<path d="M56.0146 0.881666C57.7106 0.647834 59.4301 1.09734 60.7948 2.1313C62.1594 3.16526 63.0574 4.69898 63.2913 6.39506L67.9935 40.502C68.2273 42.1981 67.7778 43.9176 66.7438 45.2822C65.7099 46.6469 64.1761 47.5449 62.4801 47.7787C60.784 48.0125 59.0645 47.563 57.6999 46.5291C56.3352 45.4951 55.4372 43.9614 55.2034 42.2653L52.6295 23.596L19.1926 67.7269C18.1465 69.0576 16.6195 69.9242 14.9406 70.14C13.2618 70.3558 11.5653 69.9036 10.2166 68.8807C8.86792 67.8579 7.97494 66.3462 7.72999 64.6713C7.48504 62.9964 7.90773 61.2924 8.90702 59.9261L42.3317 15.8013L23.6709 18.374C21.9749 18.6078 20.2554 18.1583 18.8907 17.1243C17.5261 16.0904 16.628 14.5567 16.3942 12.8606C16.1604 11.1645 16.6099 9.44501 17.6438 8.08036C18.6778 6.71571 20.2115 5.8177 21.9076 5.58387L56.0146 0.881666Z" fill="#A6F400"/>
</svg>
