<svg width="80" height="80" viewBox="0 0 80 80" fill="none" xmlns="http://www.w3.org/2000/svg">
<rect width="80" height="80" rx="12" fill="white"/>
<path d="M56 50.6657C56.0001 52.0263 55.4803 53.3355 54.5471 54.3255C53.6138 55.3154 52.3376 55.9113 50.9796 55.9911L50.6667 56H48.8889C47.5285 56.0001 46.2195 55.4802 45.2298 54.5468C44.24 53.6134 43.6443 52.3369 43.5644 50.9786L43.5556 50.6657V45.3314C43.5555 43.9708 44.0752 42.6615 45.0085 41.6716C45.9418 40.6816 47.218 40.0858 48.576 40.006L48.8889 39.9971H50.6667C51.2907 39.9971 51.8898 40.1038 52.4444 40.3011V39.9971C52.446 36.7319 51.1648 33.5969 48.8768 31.2678C46.5888 28.9387 43.4775 27.6021 40.2134 27.5461C36.9493 27.4902 33.7939 28.7193 31.4275 30.9685C29.061 33.2178 27.673 36.307 27.5627 39.5703L27.5556 39.9971V40.2994C28.0024 40.1417 28.4711 40.0451 28.9618 40.0095L29.3333 39.9971H31.1111C32.4715 39.997 33.7805 40.5169 34.7702 41.4503C35.76 42.3837 36.3557 43.6602 36.4356 45.0184L36.4444 45.3314V50.6657C36.4445 52.0263 35.9248 53.3355 34.9915 54.3255C34.0582 55.3154 32.782 55.9113 31.424 55.9911L31.1111 56H29.3333C27.973 56.0001 26.664 55.4802 25.6742 54.5468C24.6844 53.6134 24.0887 52.3369 24.0089 50.9786L24 50.6657V39.9971C24.0015 35.7947 25.6557 31.7615 28.6053 28.7687C31.555 25.7759 35.5632 24.0636 39.7644 24.0017C43.9656 23.9399 48.0225 25.5333 51.059 28.438C54.0954 31.3426 55.8676 35.3253 55.9929 39.5259L56 39.9971V50.6657Z" fill="#005DB4"/>
</svg>
