<svg width="39" height="27" fill="none" xmlns="http://www.w3.org/2000/svg"><path d="M1.235.596a1.368 1.368 0 00-.797.659l-.146.273v23.663l.167.323c.118.229.257.379.482.518l.316.195 18.108.02c13.461.015 18.197.001 18.455-.055.238-.051.427-.146.598-.3.494-.446.457.601.437-12.632l-.018-11.863-.151-.244a1.575 1.575 0 00-.455-.422l-.303-.179-18.233-.01C7.725.535 1.384.554 1.235.596m29.96 3.101c.335 2.449 2.197 4.265 4.642 4.527l.433.046v10.236l-.439.041c-.657.062-1.154.207-1.803.528-1.622.8-2.667 2.316-2.858 4.146l-.045.439H7.995v-.347c0-.512-.22-1.296-.552-1.972-.219-.445-.42-.73-.793-1.127-.96-1.02-2-1.541-3.322-1.664l-.468-.044V8.272l.454-.045a5.278 5.278 0 003.898-2.38c.452-.7.783-1.733.783-2.446V3.12h23.122l.078.577M18.266 5.201c-2.245.605-3.978 2.633-4.744 5.55-.33 1.258-.436 2.357-.33 3.42.25 2.502 1.194 4.607 2.713 6.051.63.6 1.214.956 2.035 1.241.595.206.654.214 1.625.214.876 0 1.071-.019 1.492-.152 2.352-.738 4.039-2.922 4.763-6.165.121-.542.142-.837.142-1.97 0-1.135-.021-1.431-.145-1.999-.666-3.063-2.348-5.313-4.549-6.081-.515-.18-.652-.2-1.541-.219-.819-.018-1.052-.001-1.461.11m2.599 6.889v4.485h2.6v1.95H15.73v-1.95h2.6v-2.86c0-1.573-.014-2.86-.032-2.86-.017 0-.255.234-.528.52-.274.286-.53.52-.571.52-.04 0-.418-.346-.839-.768l-.766-.768 1.482-1.373 1.482-1.374 1.153-.004 1.154-.003v4.485" fill="#fff" fill-rule="evenodd"/></svg>