<svg width="800" height="800" viewBox="0 0 24 24" fill="none" xmlns="http://www.w3.org/2000/svg"><g clip-path="url(#clip0_443_3628)" stroke="#000" stroke-width="2" stroke-linecap="round" stroke-linejoin="round"><path d="M2 6h20v12H2z"/><path d="M22 10a4 4 0 01-4-4h4v4zm-4 8a4 4 0 014-4v4h-4zM2 14a4 4 0 014 4H2v-4zm4-8a4 4 0 01-4 4V6h4zm8.074 3.5h-2.74c-.737 0-1.334.56-1.334 1.25S10.597 12 11.333 12h1.778c.736 0 1.333.56 1.333 1.25s-.597 1.25-1.333 1.25H10m2-4.983V8.5m0 7.017V14.5"/></g><defs><clipPath id="clip0_443_3628"><path fill="#fff" d="M0 0h24v24H0z"/></clipPath></defs></svg>