<svg width="59" height="72" viewBox="0 0 59 72" fill="none" xmlns="http://www.w3.org/2000/svg">
<path fill-rule="evenodd" clip-rule="evenodd" d="M29.25 0V23.4C29.25 24.8322 29.8278 26.2057 30.8563 27.2184C31.8849 28.2311 33.2798 28.8 34.7344 28.8H58.5V64.8C58.5 66.7096 57.7296 68.5409 56.3582 69.8912C54.9869 71.2414 53.1269 72 51.1875 72H7.3125C5.3731 72 3.51314 71.2414 2.14178 69.8912C0.770422 68.5409 0 66.7096 0 64.8V7.2C0 5.29044 0.770422 3.45909 2.14178 2.10883C3.51314 0.758569 5.3731 0 7.3125 0H29.25ZM29.25 32.4C28.2803 32.4 27.3503 32.7793 26.6646 33.4544C25.979 34.1295 25.5938 35.0452 25.5938 36V45.7488L24.0801 44.2584C23.3905 43.6026 22.4669 43.2398 21.5083 43.248C20.5496 43.2562 19.6326 43.6348 18.9547 44.3022C18.2768 44.9697 17.8922 45.8726 17.8839 46.8166C17.8756 47.7605 18.2441 48.6698 18.9101 49.3488L26.6614 56.988C27.0009 57.3227 27.4042 57.5882 27.848 57.7694C28.2919 57.9506 28.7677 58.0438 29.2482 58.0438C29.7287 58.0438 30.2044 57.9506 30.6483 57.7694C31.0922 57.5882 31.4954 57.3227 31.835 56.988L39.5899 49.3488C39.9391 49.0167 40.2176 48.6195 40.4092 48.1803C40.6009 47.741 40.7017 47.2687 40.7059 46.7906C40.7102 46.3126 40.6177 45.8386 40.4338 45.3962C40.25 44.9537 39.9785 44.5518 39.6352 44.2138C39.2919 43.8758 38.8837 43.6085 38.4343 43.4274C37.985 43.2464 37.5035 43.1553 37.0181 43.1595C36.5326 43.1637 36.0528 43.263 35.6067 43.4516C35.1607 43.6403 34.7572 43.9146 34.4199 44.2584L32.9062 45.7488V36C32.9062 35.0452 32.521 34.1295 31.8354 33.4544C31.1497 32.7793 30.2197 32.4 29.25 32.4ZM36.5625 0.1548C37.9478 0.444079 39.2179 1.12317 40.2188 2.1096L56.3574 18C57.3593 18.9854 58.049 20.236 58.3428 21.6H36.5625V0.1548Z" fill="#A6F400"/>
</svg>
