<svg width="80" height="80" viewBox="0 0 80 80" fill="none" xmlns="http://www.w3.org/2000/svg">
<rect width="80" height="80" rx="12" fill="#006CFF"/>
<path fill-rule="evenodd" clip-rule="evenodd" d="M40 24V34.4C40 35.0365 40.2766 35.647 40.7688 36.0971C41.2611 36.5471 41.9288 36.8 42.625 36.8H54V52.8C54 53.6487 53.6313 54.4626 52.9749 55.0627C52.3185 55.6629 51.4283 56 50.5 56H29.5C28.5717 56 27.6815 55.6629 27.0251 55.0627C26.3687 54.4626 26 53.6487 26 52.8V27.2C26 26.3513 26.3687 25.5374 27.0251 24.9373C27.6815 24.3371 28.5717 24 29.5 24H40ZM40 38.4C39.5359 38.4 39.0908 38.5686 38.7626 38.8686C38.4344 39.1687 38.25 39.5757 38.25 40V44.3328L37.5255 43.6704C37.1954 43.3789 36.7534 43.2177 36.2945 43.2213C35.8357 43.225 35.3968 43.3932 35.0723 43.6899C34.7479 43.9865 34.5638 44.3878 34.5598 44.8074C34.5558 45.2269 34.7322 45.631 35.051 45.9328L38.761 49.328C38.9235 49.4768 39.1165 49.5948 39.329 49.6753C39.5414 49.7558 39.7691 49.7973 39.9991 49.7973C40.2291 49.7973 40.4568 49.7558 40.6693 49.6753C40.8817 49.5948 41.0747 49.4768 41.2372 49.328L44.949 45.9328C45.1161 45.7852 45.2495 45.6087 45.3412 45.4134C45.4329 45.2182 45.4812 45.0083 45.4832 44.7958C45.4852 44.5834 45.4409 44.3727 45.3529 44.1761C45.2649 43.9794 45.135 43.8008 44.9707 43.6506C44.8064 43.5003 44.611 43.3815 44.3959 43.3011C44.1809 43.2206 43.9504 43.1802 43.718 43.182C43.4857 43.1838 43.2561 43.228 43.0425 43.3118C42.829 43.3957 42.6359 43.5176 42.4745 43.6704L41.75 44.3328V40C41.75 39.5757 41.5656 39.1687 41.2374 38.8686C40.9092 38.5686 40.4641 38.4 40 38.4ZM43.5 24.0688C44.163 24.1974 44.771 24.4992 45.25 24.9376L52.9745 32C53.454 32.438 53.7841 32.9938 53.9248 33.6H43.5V24.0688Z" fill="white"/>
</svg>
