<svg width="80" height="80" viewBox="0 0 80 80" fill="none" xmlns="http://www.w3.org/2000/svg">
<rect width="80" height="80" rx="12" fill="#006CFF"/>
<path d="M40 26C46.9901 26 55.5078 30.834 58.487 37.802C58.7644 38.458 59 39.222 59 40C59 40.776 58.7663 41.542 58.487 42.198C55.5059 49.166 46.9882 54 40 54C33.0099 54 24.4922 49.166 21.513 42.198C21.2356 41.54 21 40.778 21 40C21 39.224 21.2337 38.458 21.513 37.802C24.4941 30.834 33.0118 26 40 26ZM40 32C37.9844 32 36.0513 32.8429 34.626 34.3431C33.2007 35.8434 32.4 37.8783 32.4 40C32.4 42.1217 33.2007 44.1566 34.626 45.6569C36.0513 47.1571 37.9844 48 40 48C42.0156 48 43.9487 47.1571 45.374 45.6569C46.7993 44.1566 47.6 42.1217 47.6 40C47.6 37.8783 46.7993 35.8434 45.374 34.3431C43.9487 32.8429 42.0156 32 40 32ZM40 36C41.0078 36 41.9744 36.4214 42.687 37.1716C43.3996 37.9217 43.8 38.9391 43.8 40C43.8 41.0609 43.3996 42.0783 42.687 42.8284C41.9744 43.5786 41.0078 44 40 44C38.9922 44 38.0256 43.5786 37.313 42.8284C36.6004 42.0783 36.2 41.0609 36.2 40C36.2 38.9391 36.6004 37.9217 37.313 37.1716C38.0256 36.4214 38.9922 36 40 36Z" fill="white"/>
</svg>
