<svg width="72" height="72" viewBox="0 0 72 72" fill="none" xmlns="http://www.w3.org/2000/svg">
<path d="M32.4 0C27.6261 0 23.0477 1.89642 19.6721 5.27208C16.2964 8.64773 14.4 13.2261 14.4 18C14.4 22.7739 16.2964 27.3523 19.6721 30.7279C23.0477 34.1036 27.6261 36 32.4 36C37.1739 36 41.7523 34.1036 45.1279 30.7279C48.5036 27.3523 50.4 22.7739 50.4 18C50.4 13.2261 48.5036 8.64773 45.1279 5.27208C41.7523 1.89642 37.1739 0 32.4 0ZM32.4 39.6C23.778 39.6 15.93 42.0984 10.1592 45.6192C7.2792 47.376 4.8168 49.4496 3.0384 51.7032C1.2888 53.9136 0 56.5668 0 59.4C0 62.442 1.4796 64.8396 3.6108 66.5496C5.6268 68.1696 8.2872 69.2424 11.1132 69.9912C16.794 71.4924 24.3756 72 32.4 72L34.866 71.982C35.4689 71.9737 36.0601 71.8141 36.5853 71.5179C37.1105 71.2216 37.5528 70.7982 37.8718 70.2865C38.1907 69.7748 38.376 69.1911 38.4106 68.5891C38.4453 67.9872 38.3281 67.3861 38.07 66.8412C36.7018 63.9529 35.9947 60.796 36 57.6C36 53.0928 37.3788 48.9168 39.7332 45.4572C40.0832 44.9431 40.294 44.3471 40.3451 43.7273C40.3962 43.1074 40.2858 42.4849 40.0248 41.9205C39.7637 41.356 39.3609 40.8687 38.8556 40.5062C38.3502 40.1437 37.7596 39.9183 37.1412 39.852C35.5932 39.6864 34.0092 39.6 32.4 39.6ZM48.6 45.6876C51.3108 44.1072 54.6444 43.902 57.6 45.522C60.5556 43.902 63.8892 44.1072 66.6 45.6876C69.8976 47.61 72.0936 51.4116 72 55.7244C71.8704 61.3764 67.5072 65.7972 61.6104 69.3C60.3756 70.0308 59.0796 70.8012 57.6 70.8012C56.124 70.8012 54.8244 70.0308 53.5896 69.3C47.6928 65.7972 43.3296 61.3728 43.2036 55.728C43.1064 51.4152 45.3024 47.61 48.6 45.6876Z" fill="#A6F400"/>
</svg>
