<svg width="37" height="29" fill="none" xmlns="http://www.w3.org/2000/svg"><path d="M2.72.159a3.718 3.718 0 00-.648.257C1.633.65.921 1.373.722 1.788.349 2.565.37 1.812.37 14.172c0 12.492-.027 11.644.389 12.437.249.475.833 1.059 1.313 1.311.79.415-.401.388 16.471.37l15.281-.016.37-.14a3.373 3.373 0 002.015-2.049l.143-.401V2.683l-.142-.413A3.289 3.289 0 0033.947.146C33.468.017 3.199.03 2.72.159m30.703 2.51c.305.152.382.425.35 1.247-.018.432-.073.881-.133 1.079-.162.532-.677 1.521-1.098 2.109-.731 1.02-1.157 1.419-3.411 3.192-3.646 2.87-6.312 4.992-7.054 5.615-1.1.923-1.764 1.394-2.45 1.738-.56.281-.683.319-1.11.343-.383.022-.56 0-.88-.108-.76-.257-1.671-.86-2.991-1.982-.654-.555-4.618-3.705-7.246-5.758-.914-.713-1.86-1.513-2.259-1.909-1.362-1.352-2.068-2.832-2.162-4.536-.035-.636-.033-.651.129-.844.09-.107.226-.207.301-.222.075-.014 6.825-.03 14.998-.034 11.773-.006 14.894.009 15.016.07m.275 22.715a.667.667 0 01-.253.262c-.11.05-4.226.069-15.138.069H3.321l-.181-.18-.18-.181V9.721l.57.555c.314.305 1.07.94 1.681 1.41a273.422 273.422 0 017.523 5.979c2.158 1.774 3.165 2.408 4.38 2.758.651.187 1.826.198 2.434.021 1.376-.399 2.195-.92 4.742-3.016a265.185 265.185 0 016.358-5.065c1.135-.881 2.301-1.838 2.59-2.126l.525-.524.018 7.739c.016 7.069.009 7.756-.083 7.932" fill="#fff" fill-rule="evenodd"/></svg>