<svg width="40" height="41" viewBox="0 0 40 41" fill="none" xmlns="http://www.w3.org/2000/svg">
<rect y="0.325684" width="40" height="40" rx="20" fill="#005DB4"/>
<path d="M20 8.32568C17.5909 8.32568 15.6364 10.3413 15.6364 12.8257V20.3257C15.6364 22.8101 17.5909 24.8257 20 24.8257C22.4091 24.8257 24.3636 22.8101 24.3636 20.3257V12.8257C24.3636 10.3413 22.4091 8.32568 20 8.32568ZM14.1818 18.4507C14.1818 17.8272 13.6955 17.3257 13.0909 17.3257C12.4864 17.3257 12 17.8272 12 18.4507V20.3257C12 24.5022 15.0091 27.9522 18.9091 28.5007V30.0757H16.7273C16.1227 30.0757 15.6364 30.5772 15.6364 31.2007C15.6364 31.8241 16.1227 32.3257 16.7273 32.3257H23.2727C23.8773 32.3257 24.3636 31.8241 24.3636 31.2007C24.3636 30.5772 23.8773 30.0757 23.2727 30.0757H21.0909V28.5007C24.9909 27.9522 28 24.5022 28 20.3257V18.4507C28 17.8272 27.5136 17.3257 26.9091 17.3257C26.3045 17.3257 25.8182 17.8272 25.8182 18.4507V20.3257C25.8182 23.6397 23.2136 26.3257 20 26.3257C16.7864 26.3257 14.1818 23.6397 14.1818 20.3257V18.4507Z" fill="#F4F4F4"/>
</svg>
