<svg width="33" height="32" viewBox="0 0 33 32" fill="none" xmlns="http://www.w3.org/2000/svg">
<rect x="0.5" width="32" height="32" rx="16" fill="white"/>
<path d="M16.5 8C14.6932 8 13.2273 9.34375 13.2273 11V16C13.2273 17.6562 14.6932 19 16.5 19C18.3068 19 19.7727 17.6562 19.7727 16V11C19.7727 9.34375 18.3068 8 16.5 8ZM12.1364 14.75C12.1364 14.3344 11.7716 14 11.3182 14C10.8648 14 10.5 14.3344 10.5 14.75V16C10.5 18.7844 12.7568 21.0844 15.6818 21.45V22.5H14.0455C13.592 22.5 13.2273 22.8344 13.2273 23.25C13.2273 23.6656 13.592 24 14.0455 24H18.9545C19.408 24 19.7727 23.6656 19.7727 23.25C19.7727 22.8344 19.408 22.5 18.9545 22.5H17.3182V21.45C20.2432 21.0844 22.5 18.7844 22.5 16V14.75C22.5 14.3344 22.1352 14 21.6818 14C21.2284 14 20.8636 14.3344 20.8636 14.75V16C20.8636 18.2094 18.9102 20 16.5 20C14.0898 20 12.1364 18.2094 12.1364 16V14.75Z" fill="#005DB4"/>
</svg>
