<svg width="37" height="32" viewBox="0 0 37 32" fill="none" xmlns="http://www.w3.org/2000/svg">
<path d="M4.11111 32C2.98056 32 2.01307 31.6521 1.20867 30.9564C0.404259 30.2607 0.00137037 29.4234 0 28.4444V3.55556C0 2.57778 0.402889 1.74104 1.20867 1.04533C2.01444 0.34963 2.98193 0.00118519 4.11111 0H32.8889C34.0194 0 34.9876 0.348445 35.7934 1.04533C36.5992 1.74222 37.0014 2.57896 37 3.55556V28.4444C37 29.4222 36.5978 30.2596 35.7934 30.9564C34.989 31.6533 34.0208 32.0012 32.8889 32H4.11111ZM6.16667 24.8889H30.8333L23.125 16L16.9583 23.1111L12.3333 17.7778L6.16667 24.8889Z" fill="white"/>
</svg>
