<svg width="31" height="32" fill="none" xmlns="http://www.w3.org/2000/svg"><path d="M7.001.859A7.755 7.755 0 00.936 5.005a7.652 7.652 0 00-.47 5.953c.85 2.598 3.07 4.556 5.837 5.146.622.132 2.319.133 2.945.001 1.067-.225 2.13-.677 2.955-1.257.751-.527 1.615-1.433 2.119-2.221.44-.687.828-1.659 1.032-2.586.165-.753.165-2.247-.002-3.014-.517-2.388-2.004-4.33-4.114-5.374-1.127-.557-1.981-.768-3.23-.797-.44-.011-.894-.009-1.007.003m17.083.038c-.096.035-.265.14-.377.233-.244.206-21.41 28.388-21.575 28.728-.327.673.055 1.52.784 1.738.202.06.613.076 2 .076 1.617 0 1.765-.008 2.02-.103.159-.06.354-.186.46-.297.346-.364 21.451-28.547 21.518-28.734a1.286 1.286 0 00-.675-1.589c-.26-.121-.273-.121-2.122-.118-1.323.003-1.91.022-2.033.066M8.855 6.216a2.601 2.601 0 011.383 1.602c.089.293.104.447.084.869-.023.472-.041.546-.238.943-.827 1.668-3.007 1.97-4.218.585a2.517 2.517 0 01-.357-2.84c.617-1.224 2.122-1.745 3.346-1.159m13.738 10.065c-3.028.219-5.658 2.258-6.675 5.177-.299.855-.384 1.401-.388 2.464-.004 1.056.059 1.49.342 2.374a7.733 7.733 0 004.882 4.959c.868.29 1.449.382 2.418.383 1.032.002 1.565-.08 2.462-.379 1.264-.42 2.209-1.021 3.149-2.001 1.539-1.605 2.323-3.812 2.115-5.959-.185-1.92-.985-3.591-2.341-4.887-1.637-1.565-3.682-2.296-5.964-2.131m1.249 5.188c.872.227 1.621.969 1.845 1.828.357 1.367-.442 2.729-1.837 3.132-.413.119-1.132.084-1.542-.074-.639-.248-1.243-.852-1.491-1.492-.172-.442-.196-1.186-.054-1.649.398-1.302 1.779-2.084 3.079-1.745" fill="#fff" fill-rule="evenodd"/></svg>