<svg width="800" height="800" viewBox="0 0 256 256" xmlns="http://www.w3.org/2000/svg"><path d="M239.428 133.03l-32-80c-.012-.031-.031-.058-.044-.09a7.946 7.946 0 00-.48-.98c-.015-.025-.032-.047-.047-.072a7.93 7.93 0 00-.57-.823c-.045-.056-.087-.113-.133-.168a7.964 7.964 0 00-.712-.756c-.046-.042-.094-.08-.141-.121a8 8 0 00-.692-.547c-.068-.048-.134-.098-.204-.144a8.168 8.168 0 00-.872-.501c-.068-.034-.138-.062-.207-.093a7.926 7.926 0 00-.826-.325c-.065-.022-.128-.046-.194-.066a8.043 8.043 0 00-1.025-.236c-.065-.01-.13-.017-.194-.026a7.978 7.978 0 00-.994-.075c-.031 0-.061-.007-.093-.007l-.036.003a7.871 7.871 0 00-1.07.08c-.088.013-.174.03-.261.045-.123.021-.245.035-.368.062L136 62.027V40a8 8 0 00-16 0v25.583L54.265 80.19c-.166.037-.324.088-.485.134-.07.02-.14.036-.209.058a7.952 7.952 0 00-.976.384c-.058.027-.113.057-.17.086a7.93 7.93 0 00-.818.47c-.044.03-.089.055-.132.085a7.97 7.97 0 00-.828.654c-.048.044-.093.09-.14.135a8.087 8.087 0 00-.632.67c-.04.048-.083.094-.123.143a8.006 8.006 0 00-.589.85l-.118.206a8.005 8.005 0 00-.457.933c-.004.01-.011.02-.016.031l-.01.025-.014.035-31.976 79.94A7.997 7.997 0 0016 168c0 23.313 24.535 32 40 32s40-8.688 40-32a7.997 7.997 0 00-.572-2.97L66.923 93.767 120 81.973V208h-16a8 8 0 000 16h48a8 8 0 000-16h-16V78.417l50.945-11.32-26.373 65.932A7.997 7.997 0 00160 136c0 23.313 24.535 32 40 32s40-8.688 40-32a7.997 7.997 0 00-.572-2.97zM79.384 168H32.616L56 109.541zm97.232-32L200 77.541 223.384 136z"/></svg>