<svg width="37" height="32" viewBox="0 0 37 32" fill="none" xmlns="http://www.w3.org/2000/svg">
<path d="M34.1538 0H2.84615C2.09131 0 1.36738 0.306493 0.833619 0.852053C0.299862 1.39761 0 2.13755 0 2.90909V29.0909C0 29.8624 0.299862 30.6024 0.833619 31.1479C1.36738 31.6935 2.09131 32 2.84615 32H34.1538C34.9087 32 35.6326 31.6935 36.1664 31.1479C36.7001 30.6024 37 29.8624 37 29.0909V2.90909C37 2.13755 36.7001 1.39761 36.1664 0.852053C35.6326 0.306493 34.9087 0 34.1538 0ZM12.2385 19.2C12.5404 19.4315 12.74 19.776 12.7934 20.1579C12.8468 20.5398 12.7495 20.9277 12.5231 21.2364C12.2966 21.545 11.9595 21.749 11.5859 21.8036C11.2122 21.8581 10.8327 21.7587 10.5308 21.5273L4.83846 17.1636C4.66172 17.0281 4.51827 16.8525 4.41947 16.6505C4.32067 16.4485 4.26923 16.2258 4.26923 16C4.26923 15.7742 4.32067 15.5515 4.41947 15.3495C4.51827 15.1475 4.66172 14.9719 4.83846 14.8364L10.5308 10.4727C10.8327 10.2413 11.2122 10.1419 11.5859 10.1964C11.9595 10.251 12.2966 10.455 12.5231 10.7636C12.7495 11.0723 12.8468 11.4602 12.7934 11.8421C12.74 12.224 12.5404 12.5685 12.2385 12.8L8.06351 16L12.2385 19.2ZM22.7141 6.21818L17.0218 26.5818C16.9733 26.7687 16.8888 26.9439 16.7732 27.097C16.6577 27.2502 16.5135 27.3782 16.349 27.4737C16.1844 27.5692 16.0029 27.6302 15.8151 27.6531C15.6272 27.6761 15.4368 27.6605 15.2549 27.6073C15.073 27.5541 14.9033 27.4644 14.7557 27.3433C14.6081 27.2223 14.4857 27.0725 14.3954 26.9025C14.3052 26.7325 14.2491 26.5458 14.2303 26.3534C14.2114 26.161 14.2304 25.9667 14.2859 25.7818L19.9782 5.41818C20.0876 5.05407 20.3324 4.74834 20.66 4.5667C20.9875 4.38506 21.3717 4.342 21.73 4.44676C22.0883 4.55153 22.3921 4.79577 22.5761 5.127C22.7601 5.45823 22.8096 5.85002 22.7141 6.21818ZM32.1615 17.1636L26.4692 21.5273C26.1673 21.7587 25.7878 21.8581 25.4141 21.8036C25.0405 21.749 24.7034 21.545 24.4769 21.2364C24.2505 20.9277 24.1532 20.5398 24.2066 20.1579C24.26 19.776 24.4596 19.4315 24.7615 19.2L28.9365 16L24.7615 12.8C24.612 12.6854 24.4861 12.5418 24.3909 12.3774C24.2956 12.2131 24.233 12.0312 24.2066 11.8421C24.1802 11.653 24.1904 11.4604 24.2368 11.2754C24.2832 11.0903 24.3648 10.9164 24.4769 10.7636C24.5891 10.6108 24.7295 10.4821 24.8903 10.3848C25.0511 10.2874 25.2291 10.2235 25.4141 10.1964C25.5991 10.1694 25.7875 10.1799 25.9686 10.2273C26.1496 10.2747 26.3197 10.3581 26.4692 10.4727L32.1615 14.8364C32.3383 14.9719 32.4817 15.1475 32.5805 15.3495C32.6793 15.5515 32.7308 15.7742 32.7308 16C32.7308 16.2258 32.6793 16.4485 32.5805 16.6505C32.4817 16.8525 32.3383 17.0281 32.1615 17.1636Z" fill="white"/>
</svg>
