<svg width="35" height="35" fill="none" xmlns="http://www.w3.org/2000/svg"><path d="M13.563.856c-1.506.188-2.587.442-3.676.863-7.788 3.013-11.31 11.962-7.646 19.427a13.22 13.22 0 002.541 3.609 14.103 14.103 0 008.676 4.239c.965.104 2.887.045 3.801-.117 1.884-.334 3.65-1.004 5.178-1.962l.506-.318 3.593 3.58c3.275 3.262 3.627 3.596 3.974 3.761 1.607.764 3.385-.189 3.677-1.97.071-.428-.023-.981-.247-1.458-.164-.349-.476-.678-3.762-3.972l-3.584-3.592.319-.508c.96-1.529 1.63-3.294 1.964-5.179.162-.914.221-2.836.117-3.801-.599-5.53-4.374-10.219-9.613-11.939-1.568-.515-2.822-.707-4.533-.694-.611.005-1.189.019-1.285.031m3.208 5.266c3.655.838 6.331 3.59 7.007 7.207.152.812.152 2.397 0 3.209-.544 2.911-2.563 5.468-5.233 6.626-2.833 1.228-6.081.942-8.607-.758-1.994-1.343-3.322-3.337-3.85-5.781-.085-.393-.107-.749-.106-1.721.001-1.137.013-1.275.165-1.925.701-2.989 2.706-5.317 5.558-6.449.465-.185 1.382-.425 1.982-.52.599-.094 2.484-.026 3.084.112" fill="#fff" fill-rule="evenodd"/></svg>