<svg width="80" height="80" viewBox="0 0 80 80" fill="none" xmlns="http://www.w3.org/2000/svg">
<rect width="80" height="80" rx="12" fill="white"/>
<path d="M37.0745 25.0182C37.6223 23.8027 39.3093 23.7435 39.9705 24.8358L40.0661 25.0182L41.7548 28.7686C43.2294 32.0423 45.6815 34.7938 48.7834 36.655L49.3053 36.9573L52.3034 38.6206C52.5417 38.7522 52.7429 38.9407 52.8885 39.1688C53.0342 39.3968 53.1197 39.6572 53.1372 39.9262C53.1548 40.1952 53.1039 40.4643 52.9891 40.7089C52.8743 40.9535 52.6993 41.1659 52.48 41.3267L52.305 41.4386L49.3053 43.1019C46.1408 44.8586 43.5953 47.5269 42.0093 50.75L41.7548 51.2906L40.0661 55.041C39.5184 56.2565 37.8313 56.3157 37.1701 55.2233L37.0745 55.041L35.3858 51.2906C33.9113 48.0168 31.4591 45.2654 28.3572 43.4042L27.8354 43.1019L24.8372 41.4386C24.5989 41.3069 24.3977 41.1185 24.2521 40.8904C24.1064 40.6624 24.0209 40.402 24.0034 40.133C23.9858 39.864 24.0368 39.5949 24.1516 39.3503C24.2663 39.1057 24.4413 38.8933 24.6606 38.7325L24.8356 38.6206L27.8354 36.9573C30.9998 35.2006 33.5453 32.5323 35.1314 29.3092L35.3858 28.7686L37.0745 25.0182ZM51.8934 24.2297C52.6978 26.0331 54.0696 27.5327 55.8055 28.5063C56.0648 28.6503 56.0648 29.0181 55.8055 29.1621C54.0688 30.1358 52.6963 31.636 51.8917 33.4403C51.861 33.5082 51.8109 33.5659 51.7477 33.6064C51.6844 33.6468 51.6106 33.6684 51.5352 33.6684C51.4598 33.6684 51.386 33.6468 51.3228 33.6064C51.2595 33.5659 51.2095 33.5082 51.1787 33.4403C50.3738 31.6366 49.0014 30.137 47.2649 29.1637C47.2063 29.1307 47.1576 29.083 47.1237 29.0254C47.0898 28.9678 47.0719 28.9024 47.0719 28.8358C47.0719 28.7692 47.0898 28.7038 47.1237 28.6462C47.1576 28.5886 47.2063 28.5409 47.2649 28.5079C49.0019 27.5338 50.3744 26.0329 51.1787 24.2281C51.2095 24.1602 51.2595 24.1025 51.3228 24.062C51.386 24.0215 51.4598 24 51.5352 24C51.6106 24 51.6844 24.0215 51.7477 24.062C51.8109 24.1025 51.861 24.1602 51.8917 24.2281L51.8934 24.2297Z" fill="#005DB4"/>
</svg>
