<svg width="72" height="72" viewBox="0 0 72 72" fill="none" xmlns="http://www.w3.org/2000/svg">
<path d="M29.4176 2.29085C30.6501 -0.444029 34.446 -0.577174 35.9337 1.88062L36.1488 2.29085L39.9483 10.7294C43.2661 18.0953 48.7835 24.286 55.7627 28.4737L56.9368 29.1538L63.6826 32.8963C64.2189 33.1926 64.6715 33.6166 64.9992 34.1297C65.3269 34.6428 65.5193 35.2287 65.5588 35.834C65.5983 36.4393 65.4837 37.0447 65.2254 37.595C64.9671 38.1454 64.5734 38.6232 64.0801 38.985L63.6863 39.2369L56.9368 42.9793C49.8168 46.9318 44.0895 52.9355 40.5208 60.1875L39.9483 61.4038L36.1488 69.8423C34.9163 72.5772 31.1205 72.7103 29.6327 70.2525L29.4176 69.8423L25.6181 61.4038C22.3003 54.0379 16.783 47.8472 9.80374 43.6595L8.62961 42.9793L1.88381 39.2369C1.34753 38.9406 0.894914 38.5166 0.567209 38.0035C0.239504 37.4903 0.0471299 36.9044 0.00761905 36.2992C-0.0318918 35.6939 0.0827166 35.0885 0.341 34.5381C0.599284 33.9877 0.993029 33.5099 1.48635 33.1482L1.88016 32.8963L8.62961 29.1538C15.7496 25.2014 21.4769 19.1976 25.0456 11.9457L25.6181 10.7294L29.4176 2.29085ZM62.7601 0.516776C64.5701 4.57447 67.6567 7.94866 71.5624 10.1392C72.1459 10.4631 72.1459 11.2908 71.5624 11.6146C67.6548 13.8055 64.5667 17.1811 62.7564 21.2407C62.6872 21.3935 62.5746 21.5233 62.4322 21.6143C62.2899 21.7054 62.1239 21.7538 61.9542 21.7538C61.7846 21.7538 61.6186 21.7054 61.4762 21.6143C61.3339 21.5233 61.2213 21.3935 61.152 21.2407C59.3411 17.1824 56.2531 13.8082 52.346 11.6182C52.2141 11.544 52.1045 11.4366 52.0283 11.3071C51.952 11.1775 51.9118 11.0304 51.9118 10.8805C51.9118 10.7307 51.952 10.5835 52.0283 10.454C52.1045 10.3244 52.2141 10.2171 52.346 10.1428C56.2543 7.951 59.3424 4.57408 61.152 0.513177C61.2213 0.360353 61.3339 0.230578 61.4762 0.139517C61.6186 0.0484552 61.7846 0 61.9542 0C62.1239 0 62.2899 0.0484552 62.4322 0.139517C62.5746 0.230578 62.6872 0.360353 62.7564 0.513177L62.7601 0.516776Z" fill="#A6F400"/>
</svg>
