<svg width="80" height="80" viewBox="0 0 80 80" fill="none" xmlns="http://www.w3.org/2000/svg">
<rect width="80" height="80" rx="12" fill="white"/>
<path d="M56 32.8889V52.4444C56 53.3874 55.6254 54.2918 54.9586 54.9586C54.2918 55.6254 53.3874 56 52.4444 56H27.5556C26.6126 56 25.7082 55.6254 25.0414 54.9586C24.3746 54.2918 24 53.3874 24 52.4444V32.8889H56ZM33.7778 45.3333H32C31.5469 45.3338 31.1111 45.5073 30.7816 45.8184C30.4521 46.1295 30.2538 46.5546 30.2273 47.0069C30.2007 47.4593 30.3479 47.9047 30.6387 48.2521C30.9295 48.5996 31.3421 48.8229 31.792 48.8764L32 48.8889H33.7778C34.2309 48.8884 34.6667 48.7149 34.9962 48.4038C35.3257 48.0928 35.524 47.6676 35.5505 47.2153C35.5771 46.763 35.4299 46.3175 35.1391 45.9701C34.8483 45.6226 34.4357 45.3993 33.9858 45.3458L33.7778 45.3333ZM40.8889 45.3333H39.1111C38.6396 45.3333 38.1874 45.5206 37.854 45.854C37.5206 46.1874 37.3333 46.6396 37.3333 47.1111C37.3333 47.5826 37.5206 48.0348 37.854 48.3682C38.1874 48.7016 38.6396 48.8889 39.1111 48.8889H40.8889C41.3604 48.8889 41.8126 48.7016 42.146 48.3682C42.4794 48.0348 42.6667 47.5826 42.6667 47.1111C42.6667 46.6396 42.4794 46.1874 42.146 45.854C41.8126 45.5206 41.3604 45.3333 40.8889 45.3333ZM33.7778 38.2222H32C31.5285 38.2222 31.0763 38.4095 30.7429 38.7429C30.4095 39.0763 30.2222 39.5285 30.2222 40C30.2222 40.4715 30.4095 40.9237 30.7429 41.2571C31.0763 41.5905 31.5285 41.7778 32 41.7778H33.7778C34.2493 41.7778 34.7015 41.5905 35.0349 41.2571C35.3683 40.9237 35.5556 40.4715 35.5556 40C35.5556 39.5285 35.3683 39.0763 35.0349 38.7429C34.7015 38.4095 34.2493 38.2222 33.7778 38.2222ZM40.8889 38.2222H39.1111C38.658 38.2227 38.2222 38.3962 37.8927 38.7073C37.5632 39.0183 37.3649 39.4435 37.3384 39.8958C37.3118 40.3482 37.459 40.7936 37.7498 41.141C38.0406 41.4885 38.4532 41.7118 38.9031 41.7653L39.1111 41.7778H40.8889C41.342 41.7773 41.7778 41.6038 42.1073 41.2927C42.4368 40.9817 42.6351 40.5565 42.6616 40.1042C42.6882 39.6518 42.541 39.2064 42.2502 38.859C41.9594 38.5115 41.5468 38.2882 41.0969 38.2347L40.8889 38.2222ZM48 38.2222H46.2222C45.7507 38.2222 45.2985 38.4095 44.9651 38.7429C44.6317 39.0763 44.4444 39.5285 44.4444 40C44.4444 40.4715 44.6317 40.9237 44.9651 41.2571C45.2985 41.5905 45.7507 41.7778 46.2222 41.7778H48C48.4715 41.7778 48.9237 41.5905 49.2571 41.2571C49.5905 40.9237 49.7778 40.4715 49.7778 40C49.7778 39.5285 49.5905 39.0763 49.2571 38.7429C48.9237 38.4095 48.4715 38.2222 48 38.2222ZM52.4444 24C53.3874 24 54.2918 24.3746 54.9586 25.0414C55.6254 25.7082 56 26.6126 56 27.5556V29.3333H24V27.5556C24 26.6126 24.3746 25.7082 25.0414 25.0414C25.7082 24.3746 26.6126 24 27.5556 24H52.4444Z" fill="#005DB4"/>
</svg>
