<svg width="800" height="800" viewBox="0 0 24 24" xmlns="http://www.w3.org/2000/svg"><path fill="none" d="M0 0h24v24H0z" data-name="24x24/user--dark"/><path data-name="Combined Shape" d="M6 20.106c0-3.783 4.5-3.026 4.5-4.539a2.237 2.237 0 00-.41-1.513A3.5 3.5 0 019 11.4 3.222 3.222 0 0112 8a3.222 3.222 0 013 3.4 3.44 3.44 0 01-1.105 2.653 2.333 2.333 0 00-.395 1.514c0 1.513 4.5.757 4.5 4.54 0 0-1.195.894-6 .894s-6-.895-6-.895zm-.514-4.139a23.453 23.453 0 01-1.512-.114A6.835 6.835 0 011 15.106c0-3.783 4.5-3.026 4.5-4.539a2.237 2.237 0 00-.41-1.513A3.5 3.5 0 014 6.4 3.222 3.222 0 017 3a3.222 3.222 0 013 3.4m8.514 9.567a23.453 23.453 0 001.512-.114A6.835 6.835 0 0023 15.106c0-3.783-4.5-3.026-4.5-4.539a2.237 2.237 0 01.41-1.513A3.5 3.5 0 0020 6.4 3.222 3.222 0 0017 3a3.222 3.222 0 00-3 3.4" fill="none" stroke="#000" stroke-miterlimit="10" stroke-width="1.5"/></svg>