<svg width="52" height="52" viewBox="0 0 52 52" fill="none" xmlns="http://www.w3.org/2000/svg">
<path d="M26 52C40.3594 52 52 40.3594 52 26C52 11.6406 40.3594 0 26 0C11.6406 0 0 11.6406 0 26C0 40.3594 11.6406 52 26 52Z" fill="#006CFF"/>
<path d="M9.6831 27.2715C12.7225 25.5974 16.1153 24.2001 19.2853 22.7956C24.739 20.4953 30.2144 18.2348 35.7451 16.1303C36.8211 15.7718 38.7546 15.4211 38.9441 17.0157C38.8403 19.273 38.4132 21.517 38.1204 23.761C37.3769 28.6958 36.5176 33.6137 35.6796 38.5323C35.3909 40.1707 33.3385 41.0187 32.0253 39.9703C28.8693 37.8386 25.6891 35.7275 22.5734 33.5463C21.5528 32.5093 22.4993 31.02 23.4107 30.2794C26.0101 27.7178 28.7667 25.5413 31.2302 22.8473C31.8948 21.2427 29.9313 22.595 29.2837 23.0094C25.7251 25.4616 22.2537 28.0636 18.5019 30.2188C16.5855 31.2737 14.3519 30.3722 12.4363 29.7836C10.7188 29.0724 8.20201 28.356 9.68292 27.2717L9.6831 27.2715Z" fill="white"/>
</svg>
