<svg width="72" height="73" viewBox="0 0 72 73" fill="none" xmlns="http://www.w3.org/2000/svg">
<path fill-rule="evenodd" clip-rule="evenodd" d="M24.6326 0C26.0456 6.78265e-05 27.408 0.526433 28.454 1.47645C29.5 2.42647 30.1546 3.73203 30.2903 5.13853L30.3168 5.68422V7.57895H43.58C45.0397 7.57968 46.4433 8.14198 47.4997 9.14935C48.5562 10.1567 49.1846 11.5319 49.2548 12.99C49.3249 14.4481 48.8315 15.8773 47.8766 16.9814C46.9217 18.0856 45.5786 18.78 44.1256 18.9209L43.58 18.9474H41.2419C40.1656 25.867 37.1568 32.4796 32.5867 38.3495C33.644 39.1908 34.7581 40.0055 35.929 40.7861L37.1227 41.5554L44.0802 26.0868C44.51 25.1305 45.196 24.3118 46.0622 23.7212C46.9284 23.1305 47.941 22.7909 48.9882 22.7399C50.0353 22.689 51.0762 22.9286 51.9956 23.4323C52.9151 23.936 53.6773 24.6842 54.1981 25.5941L54.4482 26.0868L71.5008 63.9815C72.0989 65.3128 72.162 66.8231 71.677 68.1997C71.192 69.5762 70.1962 70.7134 68.8957 71.3758C67.5952 72.0382 66.0898 72.175 64.6912 71.7579C63.2927 71.3408 62.1081 70.4018 61.3829 69.1352L61.1328 68.6502L57.5252 60.6316H41.0031L37.3955 68.6502C36.7994 69.9867 35.7107 71.0418 34.3562 71.5958C33.0016 72.1498 31.4856 72.16 30.1237 71.6244C28.7618 71.0887 27.659 70.0484 27.0449 68.72C26.4307 67.3917 26.3526 65.8776 26.8267 64.4931L27.0275 63.9853L32.42 51.9992C29.6798 50.3847 27.0731 48.5536 24.625 46.5234C19.5669 50.6856 13.8885 54.0305 7.79593 56.4367C6.39592 56.9965 4.83087 56.9772 3.44507 56.3831C2.05928 55.789 0.966252 54.6687 0.406449 53.2687C-0.153354 51.8687 -0.134078 50.3036 0.460038 48.9178C1.05415 47.532 2.17444 46.439 3.57445 45.8792C8.28898 44.0266 12.7055 41.4908 16.6823 38.3533C14.3965 35.4181 12.4727 32.2182 10.9526 28.8228C10.651 28.1397 10.4869 27.404 10.4697 26.6576C10.4524 25.9112 10.5824 25.1687 10.8521 24.4725C11.1218 23.7762 11.526 23.14 12.0416 22.6C12.5573 22.06 13.1742 21.6269 13.8572 21.3253C14.5402 21.0237 15.2759 20.8596 16.0224 20.8424C16.7688 20.8252 17.5113 20.9551 18.2075 21.2248C18.9037 21.4945 19.54 21.8987 20.08 22.4144C20.62 22.93 21.0531 23.5469 21.3547 24.2299C22.2585 26.2514 23.3563 28.1804 24.6326 29.9899C26.8418 26.8409 28.4221 23.5251 29.3467 20.1979L29.6612 18.9474H5.68519C4.22509 18.9476 2.82089 18.386 1.76368 17.379C0.706464 16.3719 0.0773181 14.9966 0.00666461 13.5382C-0.0639889 12.0798 0.429268 10.6502 1.38418 9.54565C2.3391 8.4411 3.68243 7.74637 5.13572 7.60548L5.68519 7.57895H18.9484V5.68422C18.9484 4.17667 19.5472 2.73087 20.6132 1.66487C21.6792 0.598871 23.125 0 24.6326 0ZM49.2642 42.2716L46.1189 49.2632H52.4094L49.2642 42.2716Z" fill="#A6F400"/>
</svg>
