<svg width="80" height="80" viewBox="0 0 80 80" fill="none" xmlns="http://www.w3.org/2000/svg">
<rect width="80" height="80" rx="12" fill="#006DFF"/>
<path d="M38.2222 29.5556C38.2222 28.6126 37.8476 27.7082 37.1808 27.0414C36.514 26.3746 35.6097 26 34.6667 26H27.5556C26.6126 26 25.7082 26.3746 25.0414 27.0414C24.3746 27.7082 24 28.6126 24 29.5556V36.6667C24 37.6097 24.3746 38.514 25.0414 39.1808C25.7082 39.8476 26.6126 40.2222 27.5556 40.2222H34.6667C35.6097 40.2222 36.514 39.8476 37.1808 39.1808C37.8476 38.514 38.2222 37.6097 38.2222 36.6667V29.5556ZM56 29.5556C56 28.6126 55.6254 27.7082 54.9586 27.0414C54.2918 26.3746 53.3874 26 52.4444 26H45.3333C44.3903 26 43.486 26.3746 42.8192 27.0414C42.1524 27.7082 41.7778 28.6126 41.7778 29.5556V36.6667C41.7778 37.6097 42.1524 38.514 42.8192 39.1808C43.486 39.8476 44.3903 40.2222 45.3333 40.2222H52.4444C53.3874 40.2222 54.2918 39.8476 54.9586 39.1808C55.6254 38.514 56 37.6097 56 36.6667V29.5556ZM34.6667 43.7778C35.6097 43.7778 36.514 44.1524 37.1808 44.8192C37.8476 45.486 38.2222 46.3903 38.2222 47.3333V54.4444C38.2222 55.3874 37.8476 56.2918 37.1808 56.9586C36.514 57.6254 35.6097 58 34.6667 58H27.5556C26.6126 58 25.7082 57.6254 25.0414 56.9586C24.3746 56.2918 24 55.3874 24 54.4444V47.3333C24 46.3903 24.3746 45.486 25.0414 44.8192C25.7082 44.1524 26.6126 43.7778 27.5556 43.7778H34.6667ZM41.7778 50.8889C41.7778 50.4174 41.9651 49.9652 42.2985 49.6318C42.6319 49.2984 43.0841 49.1111 43.5556 49.1111H47.1111V45.5556C47.1111 45.0841 47.2984 44.6319 47.6318 44.2985C47.9652 43.9651 48.4174 43.7778 48.8889 43.7778C49.3604 43.7778 49.8126 43.9651 50.146 44.2985C50.4794 44.6319 50.6667 45.0841 50.6667 45.5556V49.1111H54.2222C54.6937 49.1111 55.1459 49.2984 55.4793 49.6318C55.8127 49.9652 56 50.4174 56 50.8889C56 51.3604 55.8127 51.8126 55.4793 52.146C55.1459 52.4794 54.6937 52.6667 54.2222 52.6667H50.6667V56.2222C50.6667 56.6937 50.4794 57.1459 50.146 57.4793C49.8126 57.8127 49.3604 58 48.8889 58C48.4174 58 47.9652 57.8127 47.6318 57.4793C47.2984 57.1459 47.1111 56.6937 47.1111 56.2222V52.6667H43.5556C43.0841 52.6667 42.6319 52.4794 42.2985 52.146C41.9651 51.8126 41.7778 51.3604 41.7778 50.8889Z" fill="white"/>
</svg>
