<svg width="53" height="53" viewBox="0 0 53 53" fill="none" xmlns="http://www.w3.org/2000/svg">
<path fill-rule="evenodd" clip-rule="evenodd" d="M18.909 0.891602H34.8723C49.4411 0.891602 52.8906 4.34114 52.8906 18.9099V34.8732C52.8906 49.4421 49.4411 52.8916 34.8723 52.8916H18.909C4.34017 52.8916 0.890625 49.4421 0.890625 34.8732V18.9099C0.890625 4.34114 4.34017 0.891602 18.909 0.891602Z" fill="#006CFF"/>
<path fill-rule="evenodd" clip-rule="evenodd" d="M43.4599 18.7998C43.7167 17.9925 43.4599 17.4053 42.3222 17.4053H38.5424C37.5883 17.4053 37.1479 17.9191 36.8911 18.4696C36.8911 18.4696 34.9461 23.1668 32.2305 26.2127C31.3498 27.0934 30.9461 27.387 30.469 27.387C30.2122 27.387 29.8819 27.0934 29.8819 26.2861V18.7631C29.8819 17.809 29.5883 17.3687 28.781 17.3687H22.836C22.2489 17.3687 21.8819 17.809 21.8819 18.2494C21.8819 19.1668 23.2397 19.387 23.3865 21.9558V27.5338C23.3865 28.7448 23.1663 28.965 22.6892 28.965C21.4048 28.965 18.2856 24.231 16.414 18.8365C16.047 17.7723 15.68 17.3687 14.7259 17.3687H10.9094C9.80849 17.3687 9.625 17.8824 9.625 18.4329C9.625 19.4237 10.9094 24.4145 15.6067 31.02C18.7259 35.5338 23.1663 37.9558 27.1663 37.9558C29.5883 37.9558 29.8819 37.4053 29.8819 36.4879V33.0751C29.8819 31.9742 30.1021 31.7907 30.8727 31.7907C31.4232 31.7907 32.414 32.0842 34.6525 34.2494C37.2213 36.8182 37.6617 37.9925 39.0929 37.9925H42.8727C43.9736 37.9925 44.4874 37.442 44.1938 36.3778C43.8635 35.3136 42.6158 33.7723 41.0011 31.9375C40.1204 30.9099 38.7993 29.7723 38.3956 29.2219C37.8452 28.4879 37.992 28.1943 38.3956 27.5338C38.3589 27.5338 42.9828 21.0017 43.4599 18.7998Z" fill="white"/>
</svg>
