<svg width="52" height="52" viewBox="0 0 52 52" fill="none" xmlns="http://www.w3.org/2000/svg">
<path d="M26 52C40.3594 52 52 40.3594 52 26C52 11.6406 40.3594 0 26 0C11.6406 0 0 11.6406 0 26C0 40.3594 11.6406 52 26 52Z" fill="#006CFF"/>
<path fill-rule="evenodd" clip-rule="evenodd" d="M26.8579 40.4651H26.8515C24.264 40.4642 21.7215 39.815 19.4634 38.5833L11.2676 40.7332L13.4609 32.7218C12.108 30.3771 11.396 27.7175 11.3972 24.9926C11.4006 16.4684 18.3361 9.5332 26.8578 9.5332C30.9936 9.53499 34.8754 11.1451 37.7943 14.0674C40.7132 16.9896 42.3199 20.8739 42.3182 25.0048C42.3148 33.5272 35.382 40.4616 26.8579 40.4651ZM19.8434 35.7844L20.3126 36.0629C22.2856 37.2337 24.5471 37.8532 26.853 37.8541H26.8582C33.9408 37.8541 39.7053 32.0895 39.7081 25.004C39.7095 21.5704 38.3741 18.3419 35.948 15.913C33.5219 13.484 30.2955 12.1457 26.8633 12.1445C19.7752 12.1445 14.0106 17.9086 14.0078 24.9936C14.0068 27.4216 14.6862 29.7863 15.9725 31.8322L16.278 32.3184L14.9799 37.0602L19.8434 35.7844ZM34.1177 28.3334C34.3871 28.4636 34.5691 28.5516 34.6468 28.6813C34.7433 28.8423 34.7433 29.6158 34.4215 30.5183C34.0995 31.4206 32.5562 32.2442 31.814 32.3551C31.1485 32.4546 30.3062 32.4961 29.3809 32.202C28.8198 32.024 28.1003 31.7863 27.1786 31.3882C23.5571 29.8245 21.1097 26.3145 20.6471 25.6511C20.6147 25.6046 20.5921 25.5721 20.5794 25.5552L20.5763 25.551C20.3719 25.2783 19.0021 23.4506 19.0021 21.559C19.0021 19.7796 19.8761 18.8469 20.2785 18.4176C20.306 18.3882 20.3314 18.3612 20.3541 18.3364C20.7082 17.9496 21.1267 17.8529 21.3842 17.8529C21.6417 17.8529 21.8995 17.8553 22.1246 17.8666C22.1524 17.868 22.1813 17.8678 22.2111 17.8677C22.4363 17.8664 22.7169 17.8647 22.9938 18.5297C23.1003 18.7857 23.2561 19.1651 23.4205 19.5653C23.7529 20.3745 24.1202 21.2687 24.1848 21.3981C24.2814 21.5915 24.3458 21.817 24.217 22.0749C24.1977 22.1136 24.1798 22.1501 24.1627 22.1849C24.066 22.3824 23.9949 22.5276 23.8307 22.7193C23.7662 22.7947 23.6995 22.8759 23.6328 22.9571C23.4999 23.119 23.367 23.2808 23.2513 23.3961C23.0579 23.5887 22.8566 23.7977 23.0819 24.1845C23.3072 24.5712 24.0825 25.8362 25.2309 26.8606C26.4654 27.9617 27.5383 28.4271 28.0822 28.663C28.1884 28.709 28.2744 28.7463 28.3375 28.7779C28.7237 28.9714 28.949 28.939 29.1744 28.6813C29.3997 28.4234 30.1401 27.5532 30.3976 27.1665C30.655 26.7799 30.9127 26.8443 31.2667 26.9732C31.6209 27.1022 33.5201 28.0367 33.9064 28.23C33.9818 28.2678 34.0523 28.3018 34.1177 28.3334Z" fill="#FDFDFD"/>
</svg>
