<svg width="267" height="150" viewBox="0 0 267 150" fill="none" xmlns="http://www.w3.org/2000/svg">
<path d="M312.579 -37.7613C362.092 7.74512 309.38 48.4461 258.448 57.1779C229.449 63.4208 230.491 99.6808 194.554 107.395C158.617 115.109 172.916 59.777 117.356 70.6631C61.7952 81.5491 35.8228 -8.78051 74.4802 -34.1516C113.138 -59.5227 94.3115 -65.6871 115.099 -119.67C135.887 -173.653 227.533 -173.933 238.132 -120.403C248.732 -66.8735 258.98 -87.0227 312.579 -37.7613Z" stroke="white" stroke-opacity="0.54" stroke-width="1.2494"/>
<path d="M201.469 -27.8486C206.491 -23.7052 203.567 -10.1355 194.722 -9.62288C186.622 -9.15346 181.864 -3.08664 176.882 -2.02151C163.768 0.782602 166.421 -3.72533 158.766 -5.34177C149.451 -7.30876 137.516 -20.2396 150.89 -28.5922C161.889 -35.4619 155.262 -38.7486 162.02 -46.2598C168.778 -53.771 180.635 -55.5754 187.26 -44.9672C189.748 -40.9835 193.106 -34.7495 201.469 -27.8486Z" stroke="white" stroke-opacity="0.54" stroke-width="1.2494"/>
<path d="M302.644 -36.5923C348.112 5.15383 299.927 43.3883 252.821 51.3729C225.722 57.0909 226.236 90.6061 193.114 97.7156C159.252 104.983 172.492 54.2719 121.286 64.0214C69.93 73.7389 45.2338 -9.55439 81.5926 -33.3784C117.736 -57.0675 100.019 -62.9703 119.531 -112.729C139.043 -162.487 223.435 -162.905 233.674 -113.277C243.536 -64.252 253.158 -82.0027 302.644 -36.5923Z" stroke="white" stroke-opacity="0.54" stroke-width="1.2494"/>
<path d="M292.717 -35.426C334.141 2.55985 290.481 38.3279 247.202 45.5652C222.002 50.7584 221.989 81.5288 191.681 88.0338C159.894 94.855 172.075 48.7641 125.225 57.377C78.0725 65.9261 54.6524 -10.331 88.7127 -32.6079C122.341 -54.6151 105.733 -60.2562 123.97 -105.79C142.207 -151.323 219.346 -151.88 229.223 -106.155C238.348 -61.6333 247.343 -76.9855 292.717 -35.426Z" stroke="white" stroke-opacity="0.54" stroke-width="1.2494"/>
<path d="M282.776 -34.2548C320.155 -0.0291997 281.022 33.2723 241.568 39.7625C218.269 44.4308 217.729 72.4563 190.234 78.3569C160.522 84.7318 171.644 43.2612 129.149 50.7375C86.2012 58.1182 64.0572 -11.1027 95.8191 -31.8324C126.933 -52.1576 111.434 -57.5372 128.396 -98.8461C145.357 -140.155 215.242 -140.85 224.758 -99.0266C233.145 -59.0096 241.515 -71.9633 282.776 -34.2548Z" stroke="white" stroke-opacity="0.54" stroke-width="1.2494"/>
<path d="M272.845 -33.0938C306.179 -2.62856 271.572 28.2065 235.944 33.9495C214.545 38.0929 213.478 63.3736 188.797 68.6698C161.16 74.5983 171.223 37.7481 133.083 44.0878C94.3393 50.3 73.4716 -11.8846 102.935 -31.0672C131.535 -49.7105 117.145 -54.8285 132.831 -91.9126C148.517 -128.997 211.148 -129.831 220.303 -91.909C227.953 -56.3962 235.696 -66.9514 272.845 -33.0938Z" stroke="white" stroke-opacity="0.54" stroke-width="1.2494"/>
<path d="M262.801 -32.108C292.09 -5.403 262.009 22.9656 230.208 27.9613C210.708 31.5799 209.114 54.1158 187.247 58.8075C161.685 64.2897 170.69 32.0598 136.904 37.2629C102.365 42.3066 82.7731 -12.8417 109.938 -30.4771C136.023 -47.4385 122.742 -52.2949 137.153 -85.1543C151.563 -118.014 206.941 -118.986 215.735 -84.9666C222.647 -53.9579 229.764 -62.1147 262.801 -32.108Z" stroke="white" stroke-opacity="0.54" stroke-width="1.2494"/>
<path d="M252.607 -31.3421C277.852 -8.39736 252.297 17.5047 224.322 21.7533C206.722 24.847 204.6 44.638 185.548 48.7253C162.06 53.7612 170.006 26.1516 140.576 30.2181C110.241 34.0934 91.9253 -14.0187 116.792 -30.107C140.363 -45.3864 128.19 -49.9812 141.326 -78.6159C154.461 -107.251 202.585 -108.362 211.017 -78.244C217.192 -51.7395 223.682 -57.4978 252.607 -31.3421Z" stroke="white" stroke-opacity="0.54" stroke-width="1.2494"/>
<path d="M242.421 -30.5881C263.622 -11.4037 242.593 12.0319 218.444 15.5333C202.744 18.1022 200.095 35.1484 183.857 38.6312C162.444 43.2207 169.331 20.2315 144.256 23.1614C118.125 25.8682 101.085 -15.2076 123.653 -29.7488C144.71 -43.3462 133.647 -47.6794 145.506 -72.0894C157.366 -96.4994 198.237 -97.7493 206.308 -71.5334C211.745 -49.533 217.609 -52.8929 242.421 -30.5881Z" stroke="white" stroke-opacity="0.54" stroke-width="1.2494"/>
<path d="M232.217 -29.8515C249.372 -14.4273 232.87 6.54182 212.546 9.29603C198.747 11.34 195.57 25.6414 182.147 28.5198C162.808 32.6629 168.637 14.294 147.917 16.0874C125.99 17.6257 110.226 -16.4138 130.496 -29.4079C149.038 -41.3234 139.084 -45.3949 149.668 -65.5802C160.252 -85.7655 193.87 -87.1541 201.579 -64.8401C206.279 -47.3439 211.517 -48.3053 232.217 -29.8515Z" stroke="white" stroke-opacity="0.54" stroke-width="1.2494"/>
<path d="M221.996 -29.1379C235.106 -17.4739 223.13 1.02871 206.633 3.03572C194.733 4.55487 191.029 16.1114 180.42 18.3854C163.156 22.0822 167.926 8.33358 151.561 8.99032C133.838 9.36024 119.351 -17.6431 137.322 -29.09C153.35 -39.3235 144.504 -43.1335 153.813 -59.0941C163.122 -75.0547 189.486 -76.5819 196.834 -58.1698C200.797 -45.1778 205.408 -43.7407 221.996 -29.1379Z" stroke="white" stroke-opacity="0.54" stroke-width="1.2494"/>
<path d="M211.759 -28.4551C220.825 -20.5514 213.375 -4.51527 200.703 -3.25545C190.703 -2.26116 186.473 6.55049 178.677 8.22006C163.488 11.4705 167.2 2.34226 155.19 1.86241C141.671 1.06387 128.46 -18.9032 144.132 -28.803C157.646 -37.3546 149.909 -40.9029 157.943 -52.6388C165.976 -64.3747 185.087 -66.0405 192.073 -51.5304C195.299 -43.0425 199.283 -39.207 211.759 -28.4551Z" stroke="white" stroke-opacity="0.54" stroke-width="1.2494"/>
</svg>
