<svg width="267" height="364" viewBox="0 0 267 364" fill="none" xmlns="http://www.w3.org/2000/svg">
<path d="M572.931 273.815C658.822 350.812 556.993 425.174 462.167 443.373C408.028 455.964 405.721 519.493 338.632 535.057C271.544 550.621 304.328 452.778 200.726 475.017C97.1249 497.255 59.8146 340.32 133.972 293.637C208.129 246.954 174.173 237.211 218.751 141.365C263.33 45.5191 432.158 39.8357 445.443 133.108C458.728 226.38 479.952 190.464 572.931 273.815Z" stroke="white" stroke-opacity="0.54" stroke-width="1.2494"/>
<path d="M367.129 297.494C375.895 304.476 368.929 328.438 352.577 329.838C337.603 331.121 328.133 342.029 318.834 344.18C294.353 349.84 299.764 341.784 285.853 339.384C268.926 336.462 248.451 314.462 274.057 299.056C295.116 286.386 283.292 280.998 296.615 267.443C309.937 253.888 331.986 250.052 342.953 268.279C347.071 275.124 352.53 285.866 367.129 297.494Z" stroke="white" stroke-opacity="0.54" stroke-width="1.2494"/>
<path d="M554.496 276.428C633.376 347.06 540.17 416.841 452.479 433.512C401.9 445.075 398.942 503.821 337.107 518.165C273.892 532.829 304.187 443.148 208.74 463.147C113.018 483.099 77.2378 338.43 146.981 294.59C216.311 251 184.367 241.652 226.104 153.287C267.841 64.9225 423.326 59.407 436.4 145.857C448.852 231.272 468.643 199.598 554.496 276.428Z" stroke="white" stroke-opacity="0.54" stroke-width="1.2494"/>
<path d="M536.077 279.036C607.945 343.303 523.364 408.502 442.806 423.646C395.788 434.181 392.178 488.143 335.597 501.268C276.255 515.031 304.062 433.513 216.768 451.272C128.926 468.936 94.6764 336.534 160.006 295.538C224.509 255.039 194.577 246.088 233.472 165.204C272.368 84.3202 414.51 78.9726 427.373 158.6C438.991 236.158 457.349 208.726 536.077 279.036Z" stroke="white" stroke-opacity="0.54" stroke-width="1.2494"/>
<path d="M517.63 281.652C582.487 339.554 506.529 400.171 433.106 413.788C389.648 423.295 385.387 472.473 334.059 484.379C278.591 497.242 303.91 423.886 224.769 439.405C144.806 454.782 112.087 334.647 173.003 296.494C232.679 259.087 204.759 250.532 240.813 177.129C276.867 103.726 405.665 98.5466 418.318 171.352C429.103 241.053 446.027 217.862 517.63 281.652Z" stroke="white" stroke-opacity="0.54" stroke-width="1.2494"/>
<path d="M499.204 284.251C557.049 335.787 489.716 391.823 423.426 403.913C383.529 412.392 378.617 456.786 332.543 467.472C280.948 479.435 303.778 414.242 232.791 427.521C160.708 440.61 129.52 332.742 186.022 297.433C240.87 263.118 214.962 254.958 248.175 189.037C281.388 123.115 396.842 118.103 409.284 184.086C419.235 245.93 434.726 226.981 499.204 284.251Z" stroke="white" stroke-opacity="0.54" stroke-width="1.2494"/>
<path d="M480.588 286.55C531.422 331.721 472.712 383.175 413.557 393.738C377.22 401.188 371.657 440.799 330.836 450.266C283.115 461.328 303.457 404.298 240.624 415.337C176.419 426.139 146.762 330.538 198.85 298.072C248.872 266.849 224.976 259.085 255.347 200.644C285.718 142.204 387.829 137.36 400.06 196.521C409.178 250.508 423.236 235.8 480.588 286.55Z" stroke="white" stroke-opacity="0.54" stroke-width="1.2494"/>
<path d="M461.724 288.47C505.547 327.276 455.461 374.148 403.439 383.184C370.663 389.606 364.449 424.433 328.882 432.681C285.034 442.843 302.887 393.975 248.208 402.774C191.883 411.289 163.756 327.954 211.43 298.332C256.625 270.201 234.741 262.833 262.271 211.873C289.8 160.914 378.567 156.238 390.588 208.576C398.873 254.706 411.497 244.241 461.724 288.47Z" stroke="white" stroke-opacity="0.54" stroke-width="1.2494"/>
<path d="M442.876 290.37C479.688 322.812 438.226 365.102 393.338 372.61C364.122 378.005 357.257 408.048 326.944 415.076C286.969 424.338 302.334 383.632 255.808 390.191C207.363 396.419 180.766 325.351 224.027 298.572C264.395 273.534 244.523 266.562 269.211 223.083C293.899 179.604 369.323 175.096 381.132 220.613C388.584 258.886 399.775 252.661 442.876 290.37Z" stroke="white" stroke-opacity="0.54" stroke-width="1.2494"/>
<path d="M423.994 292.239C453.794 318.315 420.956 356.023 383.203 362.005C357.548 366.371 350.031 391.631 324.971 397.439C288.87 405.801 301.746 373.258 263.374 377.577C222.809 381.517 197.742 322.716 236.589 298.781C272.13 276.834 254.27 270.258 276.117 234.26C297.964 198.262 360.043 193.922 371.642 232.617C378.261 263.033 388.019 261.05 423.994 292.239Z" stroke="white" stroke-opacity="0.54" stroke-width="1.2494"/>
<path d="M405.087 294.07C427.876 313.781 403.661 346.907 373.042 351.362C350.947 354.7 342.779 375.176 322.973 379.765C290.745 387.226 301.133 362.846 270.915 364.925C238.229 366.578 214.693 320.044 249.126 298.952C279.84 280.097 263.992 273.917 282.997 245.4C302.002 216.883 350.739 212.711 362.127 244.583C367.912 267.142 376.237 269.401 405.087 294.07Z" stroke="white" stroke-opacity="0.54" stroke-width="1.2494"/>
<path d="M386.151 295.848C401.928 309.195 386.338 337.739 362.852 340.666C344.318 342.976 335.499 358.669 320.946 362.038C292.592 368.599 300.491 352.381 278.427 352.22C253.62 351.586 231.615 317.319 261.634 299.07C287.521 283.308 273.685 277.524 289.849 256.488C306.013 235.452 341.405 231.447 352.583 256.497C357.534 271.199 364.426 277.7 386.151 295.848Z" stroke="white" stroke-opacity="0.54" stroke-width="1.2494"/>
</svg>
