<svg width="201" height="122" viewBox="0 0 201 122" fill="none" xmlns="http://www.w3.org/2000/svg">
<path d="M267.765 205.924C286.996 277.301 216.981 284.891 166.333 263.541C136.788 252.577 117.575 287.176 80.9748 273.568C44.375 259.959 87.9805 216.376 31.9729 194.361C-24.0348 172.347 2.80929 72.5974 51.6679 71.2292C100.526 69.8611 87.0243 53.1641 135.715 14.6082C184.406 -23.9477 266.966 28.9376 246.75 85.2706C226.534 141.604 246.946 128.656 267.765 205.924Z" stroke="white" stroke-opacity="0.54" stroke-width="1.2494"/>
<path d="M162.35 150.782C164.563 157.579 154.393 168.605 146.154 163.956C138.61 159.699 130.961 162.628 125.89 160.738C112.539 155.761 117.43 153.073 111.445 147.119C104.162 139.872 100.617 120.828 117.284 120.753C130.992 120.691 126.859 113.766 137.11 110.643C147.36 107.52 159.025 112.705 159.087 126.493C159.11 131.67 158.665 139.462 162.35 150.782Z" stroke="white" stroke-opacity="0.54" stroke-width="1.2494"/>
<path d="M258.183 201.258C275.868 266.765 211.293 274.667 164.5 254.836C136.956 244.481 118.793 276.201 85.0598 263.658C50.5735 250.834 90.6595 210.969 39.1994 190.414C-12.3786 169.742 11.7027 77.3296 57.6348 76.0789C103.298 74.8295 90.6475 59.021 135.844 23.6863C181.04 -11.6485 257.155 36.9004 238.782 89.3657C220.406 141.048 238.922 129.986 258.183 201.258Z" stroke="white" stroke-opacity="0.54" stroke-width="1.2494"/>
<path d="M248.608 196.595C264.745 256.231 205.611 264.446 162.674 246.132C137.129 236.387 120.018 265.228 89.1507 253.75C56.778 241.711 93.3444 205.563 46.4318 186.469C-0.716699 167.139 20.602 82.0637 63.6075 80.9306C106.075 79.8 94.2765 64.8798 135.978 32.7662C177.68 0.652708 247.35 44.8651 230.821 93.4626C214.284 140.495 230.904 131.318 248.608 196.595Z" stroke="white" stroke-opacity="0.54" stroke-width="1.2494"/>
<path d="M239.017 191.927C253.607 245.692 199.913 254.219 160.831 237.424C137.287 228.289 121.227 254.251 93.2258 243.838C62.9667 232.584 96.0135 200.154 53.6485 182.519C10.9295 164.532 29.4856 86.7935 69.5646 85.7779C108.837 84.7661 97.8898 70.7342 136.097 41.8419C174.304 12.9495 237.529 52.8255 222.843 97.5553C208.147 139.937 222.871 132.646 239.017 191.927Z" stroke="white" stroke-opacity="0.54" stroke-width="1.2494"/>
<path d="M229.443 187.257C242.486 235.15 194.233 243.99 159.006 228.713C137.462 220.188 122.453 243.27 97.3184 233.923C69.173 223.454 98.7002 194.741 60.8827 178.567C22.5933 161.923 38.3866 91.5205 75.5392 90.6225C111.616 89.7293 101.521 76.5858 136.233 50.9147C170.946 25.2435 227.726 60.783 214.883 101.645C202.027 139.376 214.855 133.97 229.443 187.257Z" stroke="white" stroke-opacity="0.54" stroke-width="1.2494"/>
<path d="M219.864 182.356C231.36 224.379 188.547 233.531 157.176 219.772C137.632 211.857 123.675 232.06 101.406 223.778C75.3741 214.093 101.382 189.099 68.1119 174.384C34.252 159.083 47.2826 96.0173 81.5086 95.2368C114.39 94.4624 105.146 82.2073 136.364 59.7573C167.582 37.3073 217.917 68.5104 206.918 105.505C195.902 138.585 206.834 135.065 219.864 182.356Z" stroke="white" stroke-opacity="0.54" stroke-width="1.2494"/>
<path d="M210.272 177.163C220.221 213.314 182.849 222.779 155.333 210.538C137.789 203.232 124.883 220.557 105.48 213.34C81.5621 204.44 104.05 183.163 75.3278 169.909C45.8975 155.95 56.1655 100.221 87.465 99.5583C117.15 98.9027 108.759 87.5359 136.482 68.3071C164.206 49.0783 208.095 75.9449 198.94 109.071C189.764 137.502 198.799 135.867 210.272 177.163Z" stroke="white" stroke-opacity="0.54" stroke-width="1.2494"/>
<path d="M200.696 171.963C209.097 202.244 177.165 212.021 153.505 201.298C137.961 194.602 126.106 209.047 109.57 202.896C87.7654 194.781 106.734 177.222 82.5591 165.427C57.5583 152.811 65.0636 104.419 93.4366 103.874C119.927 103.337 112.387 92.8584 136.616 76.8508C160.844 60.8432 198.289 83.3734 190.977 112.632C183.641 136.412 190.78 136.662 200.696 171.963Z" stroke="white" stroke-opacity="0.54" stroke-width="1.2494"/>
<path d="M191.111 166.735C197.965 191.145 171.474 201.234 151.669 192.03C138.125 185.944 127.321 197.51 113.652 192.424C93.9604 185.093 109.409 171.252 89.7821 160.917C69.2109 149.643 73.9535 108.589 99.4 108.161C122.694 107.743 116.006 98.1527 136.741 85.3662C157.475 72.5798 188.474 90.7736 183.006 116.165C177.51 135.294 182.753 137.43 191.111 166.735Z" stroke="white" stroke-opacity="0.54" stroke-width="1.2494"/>
<path d="M181.521 161.477C186.828 180.015 165.777 190.417 149.828 182.732C138.284 177.255 128.532 185.942 117.728 181.921C100.151 175.375 112.08 165.252 97.0003 156.377C80.8586 146.446 82.8386 112.728 105.359 112.418C125.457 112.118 119.621 103.417 136.861 93.8513C154.101 84.286 178.655 98.1434 175.03 119.667C171.374 134.145 174.721 138.167 181.521 161.477Z" stroke="white" stroke-opacity="0.54" stroke-width="1.2494"/>
<path d="M171.938 156.18C175.697 168.848 160.087 179.562 147.993 173.395C138.449 168.528 129.748 174.336 121.811 171.38C106.347 165.619 114.757 159.213 104.225 151.799C92.5126 143.21 91.7299 116.829 111.323 116.636C128.227 116.456 123.242 108.642 136.987 102.298C150.732 95.954 168.842 105.475 167.061 123.13C165.244 132.959 166.695 138.865 171.938 156.18Z" stroke="white" stroke-opacity="0.54" stroke-width="1.2494"/>
</svg>
