<svg width="262" height="68" viewBox="0 0 262 68" fill="none" xmlns="http://www.w3.org/2000/svg">
<path d="M272.397 -2.09714C284.263 70.8673 213.84 71.2912 165.627 44.8966C137.352 30.9821 114.717 63.4458 79.692 46.1827C44.6674 28.9195 92.4827 -9.99892 39.0068 -37.6C-14.4692 -65.2011 22.3887 -161.7 71.1328 -158.088C119.877 -154.476 108.144 -172.46 160.507 -205.86C212.869 -239.259 289.618 -178.245 263.772 -124.263C237.927 -70.2799 259.551 -81.0823 272.397 -2.09714Z" stroke="white" stroke-opacity="0.54" stroke-width="1.2494"/>
<path d="M263.34 -7.71348C274.265 59.2529 209.222 60.5414 164.69 36.0497C138.343 22.9452 117.046 52.6518 84.7643 36.7402C51.7624 20.4728 95.698 -15.1054 46.5974 -40.7912C-2.60866 -66.6058 30.7541 -156.087 76.5749 -152.656C122.128 -149.251 111.152 -166.265 159.711 -196.816C208.269 -227.367 279.047 -171.323 255.429 -121C231.888 -71.4562 251.434 -80.576 263.34 -7.71348Z" stroke="white" stroke-opacity="0.54" stroke-width="1.2494"/>
<path d="M254.289 -13.3273C264.272 47.6411 204.609 49.7942 163.759 27.2053C139.339 14.911 119.381 41.8604 89.8424 27.3003C58.8633 12.0287 98.9191 -20.2094 54.1938 -43.9799C9.25769 -68.008 39.1253 -150.472 82.0228 -147.222C124.385 -144.024 114.166 -160.067 158.92 -187.77C203.674 -215.472 268.482 -164.397 247.092 -117.735C225.854 -72.63 243.322 -80.0672 254.289 -13.3273Z" stroke="white" stroke-opacity="0.54" stroke-width="1.2494"/>
<path d="M245.224 -18.9469C254.266 36.0235 199.984 39.0412 162.814 18.3551C140.322 6.87091 121.703 31.0632 94.9068 17.8545C65.9504 3.57874 102.127 -25.3191 61.7766 -47.1743C21.1103 -69.416 47.4828 -144.862 87.457 -141.793C126.628 -138.802 117.166 -153.876 158.116 -178.729C199.066 -203.582 257.903 -157.478 238.741 -114.475C219.807 -73.8096 235.196 -79.5642 245.224 -18.9469Z" stroke="white" stroke-opacity="0.54" stroke-width="1.2494"/>
<path d="M236.175 -24.5677C244.275 24.4048 195.373 28.287 161.884 9.5037C141.32 -1.17033 124.04 20.2647 99.9868 8.4076C73.0532 -4.87236 105.35 -30.43 69.3749 -50.37C32.9785 -70.8251 55.8559 -139.254 92.9069 -136.366C128.887 -133.582 120.182 -147.685 157.327 -169.689C194.473 -191.694 247.34 -150.559 230.405 -111.217C213.775 -74.9903 227.087 -79.0623 236.175 -24.5677Z" stroke="white" stroke-opacity="0.54" stroke-width="1.2494"/>
<path d="M227.145 -30.4179C234.304 12.5566 190.782 17.3034 160.974 0.422916C142.337 -9.44097 126.396 9.23693 105.086 -1.26871C80.1751 -13.5529 108.592 -35.7703 76.9925 -53.795C44.866 -72.4636 64.2482 -133.875 98.3759 -131.168C131.165 -128.591 123.217 -141.723 156.558 -160.879C189.899 -180.035 236.796 -143.871 222.089 -108.188C207.763 -76.4005 218.996 -78.7899 227.145 -30.4179Z" stroke="white" stroke-opacity="0.54" stroke-width="1.2494"/>
<path d="M218.131 -36.5608C224.348 0.415659 186.207 6.02699 160.08 -8.95063C143.37 -18.0044 128.768 -2.08365 110.201 -11.2378C87.3126 -22.5261 111.85 -41.4034 84.6256 -57.5128C56.769 -74.3949 72.6561 -128.789 103.861 -126.262C133.458 -123.893 126.267 -136.055 155.804 -152.362C185.341 -168.669 226.268 -137.474 213.788 -105.452C201.766 -78.1034 210.921 -78.8102 218.131 -36.5608Z" stroke="white" stroke-opacity="0.54" stroke-width="1.2494"/>
</svg>
