<svg width="234" height="122" viewBox="0 0 234 122" fill="none" xmlns="http://www.w3.org/2000/svg">
<path d="M336.045 -104.692C396.694 -62.4272 347.981 -11.567 295.472 4.67852C265.801 15.2952 273.355 54.1437 236.582 67.2761C199.808 80.4085 205.145 18.9881 148.106 38.1732C91.0676 57.3582 47.4345 -36.2725 83.9555 -68.7571C120.476 -101.242 99.3972 -105.336 111.862 -166.179C124.327 -227.023 221.555 -239.662 242.326 -183.531C263.097 -127.4 270.392 -150.445 336.045 -104.692Z" stroke="white" stroke-opacity="0.54" stroke-width="1.2494"/>
<path d="M325.707 -102.099C381.394 -63.332 337.047 -15.7333 288.466 -0.806233C260.719 8.99035 267.225 44.9584 233.331 57.062C198.681 69.4351 203.716 13.1253 151.098 30.502C98.3134 47.8647 57.2862 -38.372 91.6426 -68.8837C125.794 -99.2213 105.938 -103.183 117.8 -159.313C129.663 -215.442 219.167 -227.253 238.86 -175.269C258.048 -123.882 265.104 -144.264 325.707 -102.099Z" stroke="white" stroke-opacity="0.54" stroke-width="1.2494"/>
<path d="M315.378 -99.5069C366.103 -64.2391 326.121 -19.9018 281.469 -6.29324C255.644 2.6832 261.103 35.7709 230.089 46.8457C197.561 58.4596 202.294 7.26031 154.096 22.8285C105.567 38.3689 67.1456 -40.4739 99.3373 -69.0126C131.119 -97.2032 112.487 -101.033 123.746 -152.448C135.006 -203.863 216.787 -214.847 235.403 -167.01C253.006 -120.367 259.824 -138.085 315.378 -99.5069Z" stroke="white" stroke-opacity="0.54" stroke-width="1.2494"/>
<path d="M305.034 -96.9098C350.797 -65.1408 315.181 -24.0649 274.457 -11.7749C250.556 -3.61855 254.967 26.5887 226.832 36.6348C196.428 47.4894 200.858 1.40069 157.081 15.1605C112.806 28.8785 76.9911 -42.5704 107.018 -69.136C136.43 -95.1796 119.021 -98.8774 129.679 -145.578C140.336 -192.279 214.392 -202.435 231.931 -158.745C247.951 -116.846 254.531 -131.901 305.034 -96.9098Z" stroke="white" stroke-opacity="0.54" stroke-width="1.2494"/>
<path d="M294.7 -94.3248C335.501 -66.0545 304.251 -28.2401 267.455 -17.2685C245.477 -9.93236 248.84 17.3945 223.585 26.4118C195.303 36.5071 199.432 -4.471 160.075 7.48039C120.055 19.376 86.8461 -44.6789 114.709 -69.2715C141.75 -93.1681 125.566 -96.7339 135.621 -138.72C145.675 -180.707 212.008 -190.036 228.469 -150.493C242.905 -113.337 249.246 -125.729 294.7 -94.3248Z" stroke="white" stroke-opacity="0.54" stroke-width="1.2494"/>
<path d="M284.213 -91.9127C320.052 -67.1412 293.168 -32.5881 260.3 -22.9351C240.246 -16.4191 242.561 8.02733 220.186 16.0159C194.027 25.352 197.853 -10.5156 162.917 -0.372638C127.152 9.70058 96.5485 -46.9603 122.246 -69.5799C146.919 -91.3295 131.957 -94.7633 141.41 -132.036C150.862 -169.308 209.471 -177.809 224.854 -142.413C237.707 -110.001 243.81 -119.73 284.213 -91.9127Z" stroke="white" stroke-opacity="0.54" stroke-width="1.2494"/>
<path d="M273.529 -89.7164C304.405 -68.4435 281.887 -37.1519 252.947 -28.8174C234.816 -23.1215 236.084 -1.55552 216.588 5.40424C192.552 13.9811 196.076 -16.7759 165.561 -8.44137C134.05 -0.190525 106.053 -49.4575 129.586 -70.1041C151.888 -89.7066 138.151 -93.0085 147.001 -125.566C155.851 -158.124 206.735 -165.798 221.042 -134.549C232.31 -106.881 238.175 -113.946 273.529 -89.7164Z" stroke="white" stroke-opacity="0.54" stroke-width="1.2494"/>
<path d="M262.851 -87.5346C288.766 -69.7605 270.613 -41.7303 245.602 -34.7143C229.394 -29.8385 229.614 -11.153 212.997 -5.22198C191.084 2.59565 194.307 -23.0508 168.212 -16.5247C140.956 -10.0962 115.564 -51.9692 136.933 -70.6429C156.865 -88.0984 144.352 -91.2682 152.599 -119.112C160.846 -146.955 204.007 -153.802 217.236 -126.699C226.92 -103.775 232.547 -108.177 262.851 -87.5346Z" stroke="white" stroke-opacity="0.54" stroke-width="1.2494"/>
<path d="M252.15 -85.3691C273.103 -71.0937 259.316 -46.325 238.233 -40.6274C223.949 -36.5718 223.121 -20.7667 209.384 -15.8644C189.594 -8.80606 192.514 -29.342 170.84 -24.6243C147.838 -20.0182 125.053 -54.4972 144.257 -71.1979C161.82 -86.5063 150.529 -89.5442 158.174 -112.673C165.819 -135.803 201.256 -141.821 213.407 -118.866C221.508 -100.686 226.896 -102.425 252.15 -85.3691Z" stroke="white" stroke-opacity="0.54" stroke-width="1.2494"/>
</svg>
