<svg width="327" height="100" viewBox="0 0 327 100" fill="none" xmlns="http://www.w3.org/2000/svg">
<path d="M312.522 -139.058C376.474 -101.98 332.158 -47.247 281.181 -26.6931C252.495 -13.6468 263.252 24.4394 227.698 40.5829C192.143 56.7265 192.356 -4.92492 137.11 18.9349C81.8628 42.7947 30.598 -46.8851 64.2924 -82.293C97.9869 -117.701 76.6403 -120.028 84.0044 -181.698C91.3685 -243.367 187.21 -264.044 212.574 -209.834C237.939 -155.624 243.293 -179.195 312.522 -139.058Z" stroke="white" stroke-opacity="0.54" stroke-width="1.2494"/>
<path d="M302.438 -135.614C361.154 -101.61 320.917 -50.4901 273.745 -31.5766C246.908 -19.5075 256.381 15.7953 223.611 30.6743C190.109 45.8848 190.446 -10.6487 139.454 11.0416C88.2957 32.7317 40.2423 -49.7964 71.9436 -83.0582C103.455 -116.13 83.3387 -118.427 90.4943 -175.349C97.6499 -232.27 185.863 -251.48 209.809 -201.313C233.201 -151.698 238.539 -172.596 302.438 -135.614Z" stroke="white" stroke-opacity="0.54" stroke-width="1.2494"/>
<path d="M292.357 -132.173C345.837 -101.243 309.68 -53.7359 266.313 -36.4629C241.324 -25.371 249.514 7.14846 219.528 20.7629C188.078 35.0403 188.539 -16.3751 141.802 3.14547C94.7322 22.6659 49.8904 -52.7104 79.5986 -83.8261C108.927 -114.561 90.0409 -116.829 96.988 -169.002C103.935 -221.175 184.519 -238.918 207.047 -192.794C228.467 -147.776 233.789 -166 292.357 -132.173Z" stroke="white" stroke-opacity="0.54" stroke-width="1.2494"/>
<path d="M282.266 -128.725C330.511 -100.869 298.433 -56.9752 258.871 -41.3426C235.731 -31.2279 242.637 -1.49178 215.435 10.8581C186.038 24.2025 186.622 -22.095 144.14 -4.74402C101.159 12.6067 59.5285 -55.6179 87.2435 -84.5875C114.389 -112.986 96.7331 -115.224 103.472 -162.649C110.21 -210.074 183.166 -226.351 204.276 -184.27C223.723 -143.847 229.028 -159.397 282.266 -128.725Z" stroke="white" stroke-opacity="0.54" stroke-width="1.2494"/>
<path d="M272.182 -125.29C315.192 -100.509 287.193 -60.2274 251.436 -46.2353C230.145 -37.0977 235.767 -10.145 211.349 0.940345C184.004 13.3516 184.713 -27.8279 146.486 -12.6465C107.593 2.53447 69.1741 -58.5383 94.896 -85.3618C119.858 -111.423 103.433 -113.632 109.963 -156.309C116.493 -198.986 181.82 -213.796 201.512 -175.758C218.986 -139.931 224.275 -152.807 272.182 -125.29Z" stroke="white" stroke-opacity="0.54" stroke-width="1.2494"/>
<path d="M261.932 -122.014C299.705 -100.307 275.786 -63.6393 243.835 -51.2876C224.391 -43.1272 228.731 -18.9578 207.097 -9.13705C181.804 2.34113 182.636 -33.7204 148.664 -20.7086C113.86 -7.69737 78.6526 -61.6184 102.381 -86.2958C125.16 -110.021 109.966 -112.199 116.287 -150.128C122.609 -188.057 180.308 -201.4 198.58 -167.406C214.082 -136.174 219.355 -146.377 261.932 -122.014Z" stroke="white" stroke-opacity="0.54" stroke-width="1.2494"/>
<path d="M251.467 -118.937C284.006 -100.305 264.166 -67.2496 236.02 -56.5384C218.425 -49.3552 221.481 -27.9692 202.631 -19.413C179.391 -8.86784 180.346 -39.8114 150.629 -28.9692C119.913 -18.1277 87.9176 -64.897 109.653 -87.4283C130.249 -108.817 116.285 -110.965 122.398 -144.146C128.511 -177.327 178.581 -189.204 195.436 -159.252C208.965 -132.616 214.222 -140.145 251.467 -118.937Z" stroke="white" stroke-opacity="0.54" stroke-width="1.2494"/>
<path d="M241.01 -115.876C268.312 -100.317 252.552 -70.8751 228.211 -61.8043C212.464 -55.5983 214.237 -36.9956 198.171 -29.704C176.983 -20.0919 178.063 -45.9175 152.6 -37.2449C125.973 -28.5731 97.1888 -68.1906 116.931 -88.5759C135.344 -107.628 122.61 -109.746 128.514 -138.179C134.419 -166.612 176.861 -177.022 192.297 -151.113C203.853 -129.074 209.095 -133.928 241.01 -115.876Z" stroke="white" stroke-opacity="0.54" stroke-width="1.2494"/>
</svg>
