<svg width="258" height="65" viewBox="0 0 258 65" fill="none" xmlns="http://www.w3.org/2000/svg">
<path d="M267.765 -7.07631C286.996 64.3013 216.981 71.8913 166.333 50.5412C136.788 39.5769 117.575 74.1761 80.9748 60.5677C44.375 46.9592 87.9805 3.37595 31.9729 -18.6386C-24.0348 -40.6532 2.80929 -140.403 51.6679 -141.771C100.526 -143.139 87.0243 -159.836 135.715 -198.392C184.406 -236.948 266.966 -184.062 246.75 -127.729C226.534 -71.3963 246.946 -84.3437 267.765 -7.07631Z" stroke="white" stroke-opacity="0.54" stroke-width="1.2494"/>
<path d="M258.183 -11.7416C275.868 53.765 211.293 61.6674 164.5 41.8356C136.956 31.481 118.793 63.2011 85.0598 50.6579C50.5735 37.8342 90.6595 -2.03129 39.1994 -22.5859C-12.3786 -43.2579 11.7027 -135.67 57.6348 -136.921C103.298 -138.17 90.6475 -153.979 135.844 -189.314C181.04 -224.648 257.155 -176.1 238.782 -123.634C220.406 -71.9518 238.922 -83.0138 258.183 -11.7416Z" stroke="white" stroke-opacity="0.54" stroke-width="1.2494"/>
<path d="M248.608 -16.4049C264.745 43.2307 205.611 51.4455 162.674 33.132C137.129 23.3871 120.018 52.2281 89.1507 40.7502C56.778 28.7112 93.3444 -7.43654 46.4318 -26.5311C-0.716699 -45.8605 20.602 -130.936 63.6075 -132.069C106.075 -133.2 94.2765 -148.12 135.978 -180.234C177.68 -212.347 247.35 -168.135 230.821 -119.537C214.284 -72.5053 230.904 -81.6819 248.608 -16.4049Z" stroke="white" stroke-opacity="0.54" stroke-width="1.2494"/>
<path d="M239.017 -21.0726C253.607 32.692 199.913 41.2192 160.831 24.424C137.287 15.2889 121.227 41.2506 93.2258 30.8381C62.9667 19.5838 96.0135 -12.8462 53.6485 -30.4808C10.9295 -48.4676 29.4856 -126.207 69.5646 -127.222C108.837 -128.234 97.8898 -142.266 136.097 -171.158C174.304 -200.051 237.529 -160.175 222.843 -115.445C208.147 -73.0632 222.871 -80.3543 239.017 -21.0726Z" stroke="white" stroke-opacity="0.54" stroke-width="1.2494"/>
<path d="M229.443 -25.7432C242.486 22.1504 194.233 30.9901 159.006 15.7131C137.462 7.18771 122.453 30.2704 97.3184 20.9231C69.173 10.4536 98.7002 -18.2587 60.8827 -34.4333C22.5933 -51.0775 38.3866 -121.48 75.5392 -122.378C111.616 -123.271 101.521 -136.414 136.233 -162.085C170.946 -187.757 227.726 -152.217 214.883 -111.355C202.027 -73.6239 214.855 -79.0297 229.443 -25.7432Z" stroke="white" stroke-opacity="0.54" stroke-width="1.2494"/>
<path d="M219.864 -30.6438C231.36 11.3788 188.547 20.5309 157.176 6.77215C137.632 -1.14348 123.675 19.06 101.406 10.778C75.3741 1.09329 101.382 -23.9012 68.1119 -38.6159C34.252 -53.9175 47.2826 -116.983 81.5086 -117.763C114.39 -118.538 105.146 -130.793 136.364 -153.243C167.582 -175.693 217.917 -144.49 206.918 -107.495C195.902 -74.4147 206.834 -77.9351 219.864 -30.6438Z" stroke="white" stroke-opacity="0.54" stroke-width="1.2494"/>
<path d="M210.272 -35.8373C220.221 0.314249 182.849 9.77875 155.333 -2.46169C137.789 -9.7676 124.883 7.55678 105.48 0.340078C81.5621 -8.55993 104.05 -29.8367 75.3278 -43.0913C45.8975 -57.0504 56.1655 -112.779 87.465 -113.442C117.15 -114.097 108.759 -125.464 136.482 -144.693C164.206 -163.922 208.095 -137.055 198.94 -103.929C189.764 -75.4984 198.799 -77.1334 210.272 -35.8373Z" stroke="white" stroke-opacity="0.54" stroke-width="1.2494"/>
</svg>
