<svg width="1920" height="431" viewBox="0 0 1920 431" fill="none" xmlns="http://www.w3.org/2000/svg">
<path d="M-299.823 -145.313C-342.778 -300.969 -183.656 -316.813 -68.8226 -269.813C-1.82263 -245.642 42.1773 -320.813 125.177 -290.813C208.177 -260.813 108.678 -166.313 235.678 -117.813C362.678 -69.3133 300.677 147.687 189.677 150.187C78.6773 152.687 109.177 189.187 -1.82269 272.687C-112.823 356.187 -299.823 240.187 -253.323 117.687C-206.823 -4.81345 -253.323 23.1866 -299.823 -145.313Z" stroke="#005DB4" stroke-width="3"/>
<path d="M-60.9253 -24.1746C-65.8816 -39 -42.6673 -62.917 -24.0007 -52.71C-6.90724 -43.3632 10.4993 -49.667 21.9993 -45.5C52.2744 -34.53 41.1382 -28.7232 54.6719 -15.6946C71.1407 0.159607 78.9992 41.6747 41.1382 41.6747C9.99922 41.6747 19.3163 56.7985 -4.00077 63.4998C-27.3179 70.201 -53.7611 58.7942 -53.7611 28.7625C-53.7611 17.4848 -52.6706 0.51741 -60.9253 -24.1746Z" stroke="#005DB4" stroke-width="3"/>
<path d="M-278.108 -135.057C-317.609 -277.91 -170.842 -294.488 -64.7511 -250.833C-2.28806 -228.009 39.2943 -296.92 115.794 -269.268C194.001 -240.998 102.534 -154.561 219.219 -109.286C336.171 -63.7538 280.522 137.293 176.171 139.566C72.4306 141.838 101.005 176.395 -2.0239 252.913C-105.053 329.432 -277.457 222.94 -235.184 108.846C-192.911 -3.54254 -235.085 20.3696 -278.108 -135.057Z" stroke="#005DB4" stroke-width="3"/>
<path d="M-256.393 -124.8C-292.44 -254.851 -158.028 -272.162 -60.6795 -231.852C-2.75342 -210.376 36.4114 -273.026 106.411 -247.723C179.825 -221.183 96.3914 -142.809 202.761 -100.758C309.665 -58.1938 260.366 126.9 162.664 128.945C66.1841 130.991 92.8326 163.604 -2.22501 233.141C-97.2827 302.677 -255.09 205.694 -217.045 100.007C-179 -2.27118 -216.847 17.553 -256.393 -124.8Z" stroke="#005DB4" stroke-width="3"/>
<path d="M-234.678 -114.543C-267.27 -231.79 -145.214 -249.836 -56.6077 -212.87C-3.21861 -192.742 33.5286 -249.132 97.0286 -226.177C165.649 -201.367 90.2484 -131.056 186.303 -92.2299C283.158 -52.6333 240.21 116.507 149.157 118.325C59.9376 120.143 84.6605 150.814 -2.42599 213.368C-89.5125 275.923 -232.724 188.449 -198.906 91.1674C-165.088 -0.999298 -198.609 14.7369 -234.678 -114.543Z" stroke="#005DB4" stroke-width="3"/>
<path d="M-212.963 -104.285C-242.1 -208.729 -132.399 -227.509 -52.5358 -193.888C-3.68362 -175.108 30.646 -225.236 87.646 -204.63C151.473 -181.55 84.1057 -119.302 169.845 -83.7008C256.652 -47.072 220.055 106.115 135.651 107.706C53.6914 109.297 76.4885 138.024 -2.62679 193.597C-81.7421 249.17 -210.358 171.204 -180.767 82.3289C-151.176 0.273376 -180.371 11.9216 -212.963 -104.285Z" stroke="#005DB4" stroke-width="3"/>
<path d="M-191.246 -93.5068C-216.929 -185.149 -119.583 -204.662 -48.4617 -174.386C-4.14647 -156.953 27.7656 -200.821 78.2656 -182.564C137.3 -161.214 77.9652 -107.029 153.39 -74.6521C230.148 -40.9911 199.902 96.2429 122.147 97.6066C47.4474 98.9702 68.3188 125.754 -2.82538 174.345C-73.9695 222.937 -187.989 154.479 -162.626 74.0102C-137.262 2.06573 -162.13 9.62604 -191.246 -93.5068Z" stroke="#005DB4" stroke-width="3"/>
<path d="M-169.53 -82.1142C-191.758 -160.953 -106.768 -181.201 -44.3891 -154.27C-4.61089 -138.184 24.8835 -175.792 68.8835 -159.882C123.125 -140.262 71.8231 -94.1406 136.932 -64.9886C203.643 -34.2954 179.747 86.9855 108.641 88.1218C41.2017 89.2582 60.1474 114.099 -3.02557 155.708C-66.1985 197.318 -165.622 138.369 -144.486 66.3061C-123.349 4.47282 -143.891 7.94518 -169.53 -82.1142Z" stroke="#005DB4" stroke-width="3"/>
<path d="M-147.814 -70.6873C-166.588 -136.724 -93.9524 -157.705 -40.3161 -134.119C-5.07478 -119.381 22.0021 -150.728 59.5021 -137.167C108.95 -119.277 65.6814 -81.2182 120.476 -55.2908C177.138 -27.5655 159.593 77.7622 95.1359 78.6713C34.9566 79.5804 51.9766 102.477 -3.22523 137.106C-58.427 171.734 -143.255 122.293 -126.345 58.6363C-109.436 6.91414 -125.652 6.29855 -147.814 -70.6873Z" stroke="#005DB4" stroke-width="3"/>
<path d="M-126.096 -59.2113C-141.416 -112.445 -81.136 -134.16 -36.2421 -113.919C-5.5378 -100.529 19.1215 -125.615 50.1215 -114.402C94.7761 -98.2424 59.5407 -68.2466 104.02 -45.5439C150.633 -20.7864 139.44 68.5882 81.6316 69.27C28.7123 69.9518 43.8066 90.9056 -3.42403 118.552C-50.6547 146.198 -120.886 106.266 -108.204 51.0157C-95.5225 9.40466 -107.411 4.70111 -126.096 -59.2113Z" stroke="#005DB4" stroke-width="3"/>
<path d="M-104.378 -47.6628C-116.243 -88.0937 -68.3181 -110.543 -32.1666 -93.6462C-5.99926 -81.604 16.2424 -100.429 40.7424 -91.5654C80.6039 -77.1353 53.4016 -55.2025 87.5655 -35.7245C124.131 -13.9348 119.288 59.4866 68.1288 59.9412C22.4697 60.3957 35.6382 79.4062 -3.62125 100.071C-42.8807 120.735 -98.5161 90.3117 -90.0615 43.4676C-81.607 11.9676 -89.1694 3.17616 -104.378 -47.6628Z" stroke="#005DB4" stroke-width="3"/>
<path d="M-82.6558 -36.0042C-91.0665 -63.6323 -55.497 -86.8154 -28.0879 -73.2636C-6.45751 -62.5691 13.3666 -75.1336 31.3666 -68.6181C66.4349 -55.9181 47.2656 -42.0484 71.1145 -25.795C97.6315 -6.97304 99.1393 50.4952 54.6292 50.7225C16.2302 50.9497 27.473 68.0169 -3.81528 81.6998C-35.1036 95.3828 -76.1429 74.4675 -71.9156 36.0296C-67.6883 14.6408 -70.9243 1.76131 -82.6558 -36.0042Z" stroke="#005DB4" stroke-width="3"/>
<path d="M2201.02 -246.195C2227.69 -285.849 2197.02 -367.942 2132.34 -305.477C2121.73 -295.235 2101.34 -280.645 2074.9 -265.185C2050.67 -251.022 2012.14 -279.322 1974.57 -269.958C1915.66 -255.273 1930.15 -165.841 1898.31 -159.359C1856.61 -150.869 1812.88 -183.751 1778.87 -195.058C1746.86 -205.703 1710.56 -201.319 1679.62 -187.71C1625.33 -163.835 1587.56 -111.567 1618.45 -62.2449C1633.92 -37.5543 1666.59 -13.6018 1723.01 5.68151C1748.24 14.3031 1769.74 22.4255 1788 30.2399C1835.01 50.3527 1776.15 77.3684 1803.91 121.014C1819.73 145.884 1882.41 139.48 1871.77 175.384C1864.19 200.914 1854.38 230.999 1848.66 268.15C1838.61 333.393 1867.3 386.021 1925.53 355.468C1953.02 341.046 1987.09 308.088 2026.77 249.171C2052.16 211.467 2074.2 245.49 2121.4 218.081C2168.61 190.672 2167.22 145.024 2201.51 154.717L2202.2 154.911C2228.34 162.301 2256.21 170.182 2292.03 160.044C2322.88 151.311 2346.84 133.268 2360.22 112.215C2374.53 89.6843 2376.71 63.7057 2362.21 42.0028C2347.66 20.2267 2316.32 2.75526 2263.6 -2.61002C2228.84 -6.14743 2270.29 -54.1314 2241.63 -84.047C2212.96 -113.963 2161.12 -84.5513 2161.12 -114.517C2161.13 -166.57 2169.77 -199.754 2201.02 -246.195Z" stroke="#005DB4" stroke-width="3"/>
<path d="M2124.57 -282.707C2183.64 -339.31 2211.65 -264.276 2187.19 -227.923C2157.31 -183.457 2150.35 -152.583 2151.59 -104.622C2151.76 -77.2762 2199.22 -103.956 2225.57 -76.6399C2251.92 -49.3239 2214.47 -5.55287 2246.19 -2.18267C2294.36 3.0008 2322.85 19.2579 2335.89 39.3835C2348.99 59.2761 2346.82 83.0925 2333.54 103.67C2321.12 122.902 2298.99 139.294 2270.54 146.976C2236.07 155.15 2208.42 151.42 2183.66 145.303C2152.18 136.715 2153.14 178.172 2109.98 202.862C2066.82 227.551 2046.64 196.177 2023.61 230.029C1987.59 283.119 1956.73 312.689 1931.83 325.457C1878.89 353.011 1852.78 304.735 1861.76 244.987C1866.81 210.799 1875.43 183.045 1881.74 159.596C1891.18 126.82 1833.85 132.533 1819.1 109.786C1793.45 69.9399 1846.7 45.2115 1803.69 26.7515C1786.84 19.4821 1767.11 11.923 1744.05 3.90699C1692.29 -14.3223 1663.08 -36.8405 1649.76 -59.6366C1621.87 -104.608 1656.47 -152.225 1706.09 -173.967C1734.48 -186.369 1767.75 -190.335 1797.09 -180.575C1829.27 -169.876 1869.71 -139.769 1908.9 -148.269C1938.2 -154.367 1925.32 -236.06 1979.23 -249.74C2013.72 -258.579 2049.1 -233.148 2071.47 -246.227C2095.81 -260.462 2114.71 -273.618 2124.57 -282.707Z" stroke="#005DB4" stroke-width="3"/>
<path d="M2116.5 -258.946C2169.74 -309.519 2195.08 -241.675 2172.95 -208.719C2144.55 -166.349 2139.31 -137.854 2141.84 -94.0813C2142.2 -69.4115 2185.12 -93.2638 2209.12 -68.5811C2233.11 -43.8984 2199.79 -4.46217 2228.4 -1.23906C2271.89 3.7931 2297.46 18.8264 2308.97 37.2706C2320.65 55.3231 2318.52 76.9261 2306.33 95.4956C2294.91 112.857 2274.69 127.544 2248.74 134.135C2216.01 140.209 2188.84 140.839 2165.73 136.039C2137.13 128.546 2137.7 165.727 2098.72 187.61C2059.74 209.492 2041.45 180.813 2020.87 210.725C1988.65 257.849 1961.11 283.944 1938.86 295.01C1891.39 319.464 1867.89 275.616 1875.73 221.494C1880.06 190.344 1887.43 164.986 1892.46 143.671C1900.62 114.099 1848.81 119.059 1835.16 98.4683C1811.65 62.4827 1859.12 40.1378 1820.22 23.3318C1804.81 16.6079 1786.9 9.61067 1766.06 2.19708C1719.08 -14.985 1693.4 -36.0462 1682.24 -56.9113C1657.38 -97.4626 1688.67 -140.302 1733.48 -159.823C1759.23 -170.967 1789.37 -174.479 1815.98 -165.599C1846.25 -155.502 1883.31 -128.195 1919.89 -136.652C1946.55 -142.328 1935.25 -216.125 1984.01 -228.726C2015.32 -236.992 2047.46 -214.452 2067.9 -226.399C2090.08 -239.359 2107.41 -251.037 2116.5 -258.946Z" stroke="#005DB4" stroke-width="3"/>
<path d="M2108.74 -236.178C2156.36 -280.888 2179.03 -220.107 2159.12 -190.453C2132.08 -150.058 2128.53 -123.873 2132.3 -84.1916C2132.83 -62.1428 2171.37 -83.2633 2193.05 -61.1821C2214.74 -39.1008 2185.41 -3.87802 2210.99 -0.823065C2249.93 4.026 2272.64 17.8435 2282.64 34.6359C2292.92 50.8767 2290.8 70.3164 2279.65 86.9312C2269.17 102.471 2250.78 115.506 2227.24 121.046C2196.16 125.064 2169.4 130.078 2147.87 126.606C2122.09 120.221 2122.23 153.208 2087.29 172.37C2052.36 191.533 2035.93 165.504 2017.7 191.563C1989.14 232.859 1964.8 255.563 1945.15 264.975C1902.97 286.43 1882.05 246.937 1888.83 198.312C1892.48 170.125 1898.65 147.099 1902.42 127.864C1909.38 101.422 1862.92 105.693 1850.35 87.2246C1828.96 55.0417 1870.8 34.9828 1835.9 19.8316C1821.9 13.6531 1805.76 7.21979 1787.09 0.412665C1744.77 -15.7142 1722.56 -35.3392 1713.55 -54.3076C1691.69 -90.5044 1719.81 -128.692 1759.96 -146.08C1783.15 -156.017 1810.25 -159.112 1834.2 -151.118C1862.64 -141.629 1896.4 -117.098 1930.48 -125.565C1954.59 -130.858 1944.92 -196.911 1988.67 -208.509C2016.9 -216.252 2045.88 -196.582 2064.47 -207.445C2084.55 -219.18 2100.38 -229.423 2108.74 -236.178Z" stroke="#005DB4" stroke-width="3"/>
<path d="M2101.33 -212.893C2143.35 -251.725 2163.29 -198.098 2145.59 -171.764C2119.89 -133.367 2118 -109.521 2122.99 -73.9826C2123.67 -54.5818 2157.82 -72.9767 2177.16 -53.5415C2196.5 -34.1063 2171.16 -3.11545 2193.68 -0.253181C2228.04 4.37529 2247.87 16.9422 2256.34 32.0548C2265.2 46.4563 2263.08 63.7112 2252.95 78.3608C2243.42 92.0696 2226.86 103.452 2205.74 107.954C2176.31 109.936 2149.97 119.357 2130.04 117.236C2107.09 111.986 2106.78 140.739 2075.89 157.188C2045 173.636 2030.47 150.301 2014.59 172.49C1989.67 207.93 1968.54 227.238 1951.47 234.999C1914.6 253.464 1896.3 218.389 1902.05 175.315C1905.05 150.122 1910.04 129.449 1912.57 112.316C1918.33 89.03 1877.25 92.6429 1865.78 76.3309C1846.54 48.0071 1882.76 30.2244 1851.89 16.7748C1839.32 11.1606 1824.97 5.31216 1808.48 -0.865132C1770.86 -15.8832 1752.15 -34.0313 1745.31 -51.0738C1726.49 -82.8549 1751.45 -116.368 1786.93 -131.635C1807.56 -140.372 1831.61 -143.068 1852.87 -135.99C1879.46 -127.144 1909.88 -105.446 1941.44 -113.944C1963.01 -118.867 1955.01 -177.09 1993.74 -187.706C2018.89 -194.94 2044.67 -178.19 2061.4 -187.971C2079.39 -198.484 2093.71 -207.293 2101.33 -212.893Z" stroke="#005DB4" stroke-width="3"/>
<path d="M2093.17 -189.087C2129.49 -221.968 2146.72 -175.516 2131.28 -152.541C2107 -116.201 2106.81 -94.7146 2113.03 -63.343C2113.88 -46.6042 2143.56 -62.2246 2160.56 -45.43C2177.55 -28.6354 2156.26 -1.92654 2175.7 0.764047C2205.43 5.2036 2222.36 16.5306 2229.31 29.9607C2236.75 42.5211 2234.64 57.5762 2225.57 70.2392C2217.01 82.0967 2202.33 91.801 2183.66 95.2407C2155.94 95.159 2130.06 108.945 2111.75 108.156C2091.66 104.022 2090.93 128.52 2064.15 142.21C2037.38 155.901 2024.73 135.262 2011.26 153.55C1990.05 183.083 1972.18 198.957 1957.73 205.046C1926.24 220.469 1910.56 189.82 1915.23 152.334C1917.55 130.158 1921.33 111.862 1922.59 96.8455C1927.12 76.7393 1891.49 79.6499 1881.12 65.4945C1864.03 41.0313 1894.55 25.5764 1867.75 13.8068C1856.61 8.74847 1844.06 3.47467 1829.78 -2.08498C1796.9 -16.0205 1781.7 -32.697 1777.02 -47.8082C1761.24 -75.1696 1782.97 -103.957 1813.71 -117.055C1831.74 -124.565 1852.69 -126.835 1871.24 -120.657C1895.95 -112.434 1923.01 -93.5551 1952 -102.043C1970.97 -106.57 1964.6 -156.928 1998.25 -166.514C2020.26 -173.207 2042.83 -159.361 2057.67 -168.035C2073.52 -177.299 2086.31 -184.653 2093.17 -189.087Z" stroke="#005DB4" stroke-width="3"/>
<path d="M2085.4 -166.331C2116.09 -193.343 2130.65 -153.966 2117.43 -134.295C2094.51 -99.9258 2096 -80.7522 2103.47 -53.4781C2104.49 -39.3643 2129.79 -52.251 2144.47 -38.0632C2159.15 -23.8754 2141.86 -1.38448 2158.26 1.13642C2183.43 5.39079 2197.5 15.4996 2202.93 27.2754C2208.97 38.0212 2206.87 50.9103 2198.83 61.6166C2191.22 71.651 2178.37 79.7019 2162.11 82.0903C2136.04 79.95 2110.56 98.1375 2093.83 98.6811C2076.56 95.6578 2075.39 115.956 2052.67 126.924C2029.94 137.892 2019.16 119.907 2008.04 134.337C1990.5 158.033 1975.83 170.513 1963.97 174.945C1937.78 187.367 1924.7 161.079 1928.3 129.098C1929.94 109.889 1932.52 93.9267 1932.53 80.9941C1935.85 64.0217 1905.57 66.2439 1896.28 54.2157C1881.31 33.5622 1906.21 20.3943 1883.41 10.2838C1873.69 5.77244 1862.91 1.06414 1850.8 -3.88731C1822.59 -16.7647 1810.86 -32.0032 1808.34 -45.2155C1795.57 -68.2148 1814.12 -92.3454 1840.19 -103.31C1855.66 -109.612 1873.58 -111.467 1889.46 -106.177C1912.34 -98.5647 1936.1 -82.4677 1962.59 -90.9708C1979.01 -95.1155 1974.27 -137.718 2002.91 -146.304C2021.85 -152.474 2041.24 -141.507 2054.23 -149.097C2067.98 -157.135 2079.27 -163.053 2085.4 -166.331Z" stroke="#005DB4" stroke-width="3"/>
<path d="M2077.98 -143.066C2103.06 -164.195 2114.88 -131.981 2103.87 -115.635C2082.28 -83.2649 2085.44 -66.4421 2094.11 -43.3272C2095.28 -31.8655 2116.19 -42.0254 2128.52 -30.4879C2140.85 -18.9504 2127.56 -0.699026 2140.9 1.62839C2161.49 5.66035 2172.67 14.5168 2176.56 24.6117C2181.18 33.5168 2179.07 44.2196 2172.06 52.9601C2165.4 61.1628 2154.38 67.5617 2140.54 68.9142C2116.14 64.7534 2091.05 87.3498 2075.91 89.2483C2061.47 87.3625 2059.85 103.426 2041.18 111.678C2022.51 119.931 2013.63 104.645 2004.87 115.202C1990.97 133.037 1979.52 142.117 1970.25 144.897C1949.38 154.326 1938.93 132.462 1941.5 106.039C1942.49 89.8305 1943.89 76.2287 1942.66 65.4047C1944.77 51.5939 1919.89 53.1596 1911.69 43.2922C1898.88 26.5043 1918.14 15.6192 1899.39 7.2134C1891.09 3.26898 1882.1 -0.852418 1872.18 -5.17246C1848.67 -16.9349 1840.46 -30.6967 1840.11 -41.986C1830.39 -60.5674 1845.78 -80.0196 1867.17 -88.8618C1880.08 -93.9639 1894.94 -95.4205 1908.13 -91.0483C1929.16 -84.0904 1949.57 -70.8341 1973.55 -79.3724C1987.42 -83.1479 1984.35 -117.914 2007.97 -125.517C2023.82 -131.178 2040.03 -123.133 2051.15 -129.641C2062.81 -136.457 2072.59 -140.942 2077.98 -143.066Z" stroke="#005DB4" stroke-width="3"/>
<path d="M2070.33 -120.142C2089.77 -135.392 2098.97 -110.196 2090.19 -97.1441C2069.96 -66.6996 2074.84 -52.1565 2084.81 -33.094C2086.16 -24.2414 2102.68 -31.6537 2112.72 -22.6934C2122.77 -13.7331 2113.49 0.307252 2123.81 2.48583C2139.84 6.36622 2148.18 14.0336 2150.57 22.4955C2153.79 29.6042 2151.7 38.1539 2145.73 44.941C2140.02 51.3236 2130.84 56.0634 2119.4 56.3461C2096.61 50.0776 2071.9 77.1267 2058.32 80.3527C2046.69 79.5616 2044.65 91.4409 2030.03 96.9552C2015.41 102.47 2008.37 89.8031 2001.98 96.4968C1991.76 108.492 1983.53 114.168 1976.86 115.278C1961.28 121.688 1953.39 104.142 1954.87 83.1903C1955.17 69.9254 1955.35 58.6382 1952.84 49.8808C1953.72 39.1889 1934.18 40.0367 1927.05 32.2737C1916.32 19.2587 1929.95 10.669 1915.18 3.88794L1914.78 3.69066C1908 0.33613 1900.91 -3.17191 1893.3 -6.8313C1874.43 -17.5871 1869.69 -29.9481 1871.48 -39.3577C1864.74 -53.6121 1876.95 -68.413 1893.68 -75.1069C1904.03 -78.9926 1915.86 -80.017 1926.39 -76.5119C1945.62 -70.1262 1962.77 -59.6096 1984.27 -68.1566C1995.59 -71.5411 1994.11 -98.6024 2012.73 -105.189C2025.5 -110.321 2038.56 -105.13 2047.83 -110.551C2057.39 -116.138 2065.68 -119.179 2070.33 -120.142Z" stroke="#005DB4" stroke-width="3"/>
<path d="M2062.12 -96.3654C2075.85 -105.665 2082.33 -87.6701 2075.81 -77.9861C2057.02 -49.6373 2063.56 -37.4747 2074.75 -22.6036C2076.26 -16.4209 2088.31 -21.0616 2095.99 -14.754C2103.67 -8.44635 2098.44 1.30485 2105.67 3.30382C2117.07 6.98184 2122.5 13.3958 2123.36 20.1643C2125.16 25.4236 2123.09 31.766 2118.18 36.5632C2113.44 41.0916 2106.14 44.1543 2097.16 43.3822C2076.11 35.0772 2051.89 66.4406 2039.95 70.9938C2031.18 71.3216 2028.73 78.9391 2018.22 81.7006C2007.72 84.4621 2002.58 74.5099 1998.59 77.305C1992.08 83.3948 1987.11 85.6425 1983.05 85.0858C1972.86 88.4591 1967.6 75.3603 1968.01 60.0159C1967.63 49.7818 1966.61 40.8827 1962.84 34.2525C1962.51 26.7487 1948.42 26.9037 1942.4 21.3074C1933.84 12.1687 1941.77 5.90845 1931.09 0.820622C1925.63 -2.03034 1920.22 -5.02178 1914.66 -8.1272C1900.55 -17.7765 1899.32 -28.646 1903.27 -36.1142C1899.58 -45.9344 1908.55 -56.0039 1920.54 -60.5311C1928.28 -63.1906 1937.01 -63.7944 1944.82 -61.1963C1962.15 -55.452 1975.91 -47.7712 1994.82 -56.3027C2003.54 -59.2914 2003.7 -78.4632 2017.22 -84.0201C2026.86 -88.6089 2036.68 -86.328 2044.06 -90.6398C2051.48 -94.9765 2058.23 -96.5657 2062.12 -96.3654Z" stroke="#005DB4" stroke-width="3"/>
<path d="M2054.79 -72.9364C2062.85 -76.3256 2066.62 -65.4737 2062.35 -59.1281C2044.94 -32.8177 2053.16 -23.0112 2065.57 -12.2963C2067.25 -8.76368 2074.87 -10.6522 2080.21 -6.97735C2085.55 -3.30255 2084.35 2.19089 2088.51 4.01395C2095.31 7.49568 2097.85 12.6717 2097.19 17.7649C2097.58 21.1912 2095.51 25.3459 2091.65 28.1699C2087.87 30.8596 2082.43 32.2581 2075.89 30.4356C2056.54 20.0967 2032.75 55.8118 2022.42 61.6966C2016.49 63.1397 2013.61 66.5262 2007.19 66.5511C2000.77 66.5761 1997.52 59.312 1995.91 58.2286C1993.1 58.4467 1991.36 57.2827 1989.91 55.0646C1985.07 55.4184 1982.42 46.7278 1981.76 36.9452C1980.71 29.7144 1978.49 23.1813 1973.47 18.6617C1971.92 14.3224 1963.25 13.7883 1958.32 10.3424C1951.9 5.05113 1954.17 1.10297 1947.53 -2.30595C1943.5 -4.59954 1939.89 -7.01508 1936.53 -9.50185C1927.13 -18.0627 1929.4 -27.466 1935.51 -33.0154C1934.84 -38.4361 1940.61 -43.81 1947.88 -46.187C1953.04 -47.6301 1958.7 -47.8166 1963.82 -46.1183C1979.27 -41.0089 1989.69 -36.1427 2006.05 -44.6763C2012.2 -47.2765 2013.99 -58.6223 2022.46 -63.1628C2028.99 -67.2187 2035.62 -67.8332 2041.12 -71.0485C2046.42 -74.1472 2051.64 -74.294 2054.79 -72.9364Z" stroke="#005DB4" stroke-width="3"/>
</svg>
