<svg width="768" height="212" viewBox="0 0 768 212" fill="none" xmlns="http://www.w3.org/2000/svg">
<path d="M838.382 -124.938C845.947 -145.766 822.958 -179.273 800.845 -143.928C797.219 -138.132 789.673 -129.285 779.506 -119.369C770.192 -110.286 749.684 -118.707 733.829 -110.29C708.964 -97.0894 725.492 -58.469 711.892 -51.9895C694.079 -43.503 670.718 -53.4038 654.152 -54.6867C638.558 -55.8944 622.712 -49.859 610.312 -40.2728C588.558 -23.4551 577.409 4.29111 596.83 23.0277C606.552 32.4072 623.934 39.5288 651.481 41.8916C663.797 42.948 674.382 44.1964 683.474 45.669C706.875 49.4592 683.412 68.2025 700.789 84.7351C710.69 94.1553 738.179 84.2592 737.406 101.607C736.857 113.941 735.809 128.577 737.391 145.934C740.169 176.416 758.971 196.886 781.753 176.622C792.508 167.056 804.149 148.414 815.41 117.462C822.617 97.6553 836.341 110.498 854.514 92.8827C872.687 75.267 866.956 54.8814 883.471 55.4055L883.802 55.416C896.39 55.8161 909.815 56.2429 924.796 47.6734C937.7 40.2916 946.465 29.4909 950.126 18.5212C954.044 6.78118 952.118 -5.1523 943.165 -13.2954C934.182 -21.466 918.125 -25.8205 893.8 -22.3347C877.763 -20.0364 891.046 -46.2667 874.801 -56.5204C858.556 -66.7741 838.52 -47.7384 835.167 -61.2222C829.343 -84.6446 829.521 -100.545 838.382 -124.938Z" stroke="#005DB4" stroke-width="2"/>
<path d="M793.329 -14.6133C794.499 -17.8038 789.696 -20.8728 787.223 -18.4623C784.408 -15.7176 782.554 -10.5642 779.805 -7.74957C774.498 -2.31509 771.06 -2.44279 764.411 -2.92441C762.03 -3.09885 759.605 -2.16532 757.705 -0.691002C754.371 1.8955 752.649 6.14647 755.604 8.99933C757.082 10.4274 759.733 11.5052 763.939 11.8484C765.82 12.0019 767.436 12.1858 768.824 12.4051C775.036 13.1635 776.88 18.4009 777.026 20.9248C776.934 22.8118 776.764 25.0508 776.994 27.7045C777.399 32.3647 781.521 35.3821 783.751 32.3688C786.901 28.1118 793.022 7.32379 802.393 10.9136C806.746 12.5811 809.009 9.75739 809.575 8.07723C810.182 6.27909 809.895 4.4552 808.533 3.21567C807.166 1.97194 802.869 2.25054 800.998 1.8657C794.09 0.445026 788.777 -1.8026 793.329 -14.6133Z" stroke="#005DB4" stroke-width="2"/>
<path d="M799.899 -132.813C820.142 -164.892 841.142 -134.263 834.207 -115.169C825.738 -91.8169 826.059 -77.1449 831.985 -55.7029C835.121 -43.4169 853.49 -60.7329 868.405 -51.3905C883.32 -42.0482 871.363 -18.1607 886.017 -20.1948C908.272 -23.2529 922.909 -19.1253 931.028 -11.5285C939.149 -4.04332 940.838 6.91602 937.167 17.6611C933.729 27.7053 925.605 37.5576 913.667 44.1973C899.067 51.7337 886.21 53.1493 874.385 53.167C859.258 52.8257 864.329 71.3729 847.671 87.3125C831.013 103.252 818.423 91.3923 811.848 109.202C801.581 137.123 791.004 153.882 781.227 162.414C760.492 180.736 743.338 161.935 740.695 134.045C739.141 118.096 739.911 104.644 740.129 93.3857C740.706 77.5819 715.549 86.5679 706.369 77.9821C690.368 62.9233 711.559 45.8377 690.143 42.3436C681.746 40.9586 672.022 39.7653 660.748 38.7389C635.416 36.329 619.755 29.4646 611.211 20.6975C593.626 3.58318 603.867 -21.7153 623.763 -37.0516C635.148 -45.8086 649.674 -51.3162 663.971 -50.2086C679.645 -48.9949 701.213 -39.9733 717.899 -48.1843C730.397 -54.2062 715.461 -89.5251 738.189 -101.714C752.719 -109.551 771.483 -102.067 780.084 -110.454C789.446 -119.584 796.476 -127.619 799.899 -132.813Z" stroke="#005DB4" stroke-width="2"/>
<path d="M798.926 -121.218C817.224 -149.933 836.217 -122.24 829.944 -104.933C821.908 -82.6901 822.74 -69.2822 828.775 -49.8683C831.698 -38.8079 848.343 -54.3442 861.902 -45.923C875.462 -37.5017 864.88 -16.0274 878.116 -17.779C898.249 -20.3818 911.436 -16.4784 918.68 -9.46728C925.957 -2.65157 927.416 7.30761 924.009 17.0274C920.812 26.1178 913.356 34.9896 902.416 40.8596C888.368 47.2553 876.216 50.5788 865.278 51.0054C851.573 50.8339 855.99 67.5007 840.898 81.7094C825.807 95.918 814.368 85.0599 808.455 100.823C799.23 125.633 789.756 140.457 780.986 147.926C762.361 164.242 746.877 147.142 744.35 121.911C742.813 107.409 743.291 95.1744 743.167 85.0208C743.532 70.8006 720.772 78.8311 712.327 71.0928C697.723 57.5308 716.581 42.1645 697.194 38.9559C689.51 37.6543 680.666 36.5103 670.46 35.5063C647.397 33.0325 633.486 26.4291 626.13 18.2891C610.405 2.82422 619.692 -19.954 637.671 -33.7526C648.008 -41.6481 661.177 -46.6009 674.144 -45.5833C688.894 -44.4271 708.627 -36.2874 724.14 -44.1864C735.502 -49.7241 722.161 -81.6664 742.689 -92.7923C755.853 -100.016 772.839 -93.4705 780.7 -101.134C789.227 -109.447 795.719 -116.641 798.926 -121.218Z" stroke="#005DB4" stroke-width="2"/>
<path d="M797.978 -110.104C814.406 -135.552 831.408 -110.739 825.766 -95.1667C818.122 -73.9646 819.453 -61.7845 825.59 -44.351C828.296 -34.4888 843.274 -48.3053 855.502 -40.7961C867.731 -33.2868 858.476 -14.1556 870.327 -15.6433C888.391 -17.8189 900.156 -14.1428 906.536 -7.70603C912.981 -1.5488 914.202 7.43579 911.042 16.1604C908.068 24.325 901.252 32.2481 891.278 37.3758C877.741 42.6621 866.263 47.9125 856.186 48.7598C843.87 48.7716 847.625 63.599 834.049 76.1314C820.473 88.6637 810.168 78.7895 804.885 92.5547C796.653 114.333 788.243 127.273 780.451 133.708C763.873 148.082 750.04 132.653 747.648 110.014C746.139 96.9218 746.339 85.8699 745.884 76.7929C746.053 64.1167 725.625 71.2374 717.903 64.3339C704.675 52.2465 721.261 38.5374 703.86 35.6257C696.871 34.4118 688.888 33.3232 679.726 32.3495C658.877 29.829 646.688 23.4836 640.51 15.9568C626.623 2.11554 635.002 -18.2144 651.123 -30.5316C660.445 -37.598 672.293 -42.0232 683.963 -41.1061C697.822 -40.0188 715.76 -32.759 730.146 -40.3826C740.405 -45.4629 728.658 -74.102 747.048 -84.2166C758.887 -90.8605 774.128 -85.2529 781.276 -92.2209C788.998 -99.7483 794.974 -106.129 797.978 -110.104Z" stroke="#005DB4" stroke-width="2"/>
<path d="M797.253 -98.7974C811.815 -120.973 826.788 -99.0741 821.768 -85.2431C814.504 -65.0903 816.323 -54.1488 822.541 -38.7151C825.018 -30.0613 838.326 -42.16 849.205 -35.5794C860.084 -28.9987 852.148 -12.2177 862.605 -13.4506C878.582 -15.2127 888.911 -11.7769 894.414 -5.92462C900.013 -0.436143 900.988 7.56595 898.07 15.2913C895.315 22.5265 889.14 29.5007 880.138 33.8908C867.119 38.0754 856.321 45.2619 847.113 46.5386C836.199 46.7447 839.276 59.7179 827.218 70.5757C815.16 81.4335 806.009 72.5597 801.349 84.3208C794.101 103.057 786.753 114.109 779.941 119.512C765.415 131.947 753.259 118.212 751.026 98.1857C749.557 86.5137 749.489 76.6535 748.709 68.6608C748.694 57.5386 730.613 63.7615 723.627 57.7051C711.799 47.1133 726.108 35.0582 710.713 32.4606C704.427 31.3414 697.314 30.316 689.205 29.3812C670.595 26.8338 660.147 20.7611 655.161 13.8582C643.138 1.66321 650.618 -16.2098 664.874 -27.05C673.178 -33.2898 683.698 -37.1943 694.056 -36.3885C707.011 -35.3835 723.129 -29.025 736.381 -36.3807C745.532 -41.0087 735.416 -66.3122 751.657 -75.4239C762.164 -81.4933 775.64 -76.8415 782.075 -83.115C788.99 -89.8578 794.45 -95.4248 797.253 -98.7974Z" stroke="#005DB4" stroke-width="2"/>
<path d="M796.248 -87.1725C808.907 -106.032 821.86 -87.0581 817.482 -74.9918C810.627 -55.9233 812.942 -46.2332 819.252 -32.8129C821.507 -25.3759 833.118 -35.7271 842.644 -30.0715C852.169 -24.416 845.579 -10.0155 854.629 -10.9806C868.503 -12.3098 877.388 -9.10743 882.016 -3.84135C886.771 0.977463 887.507 7.98783 884.842 14.7009C882.317 20.9944 876.796 27.0042 868.78 30.6414C856.3 33.7061 846.199 42.8053 837.87 44.4993C828.368 44.8873 830.779 55.9932 820.263 65.1497C809.747 74.3061 801.749 66.4343 797.731 76.1714C791.494 91.8335 785.227 100.977 779.407 105.333C766.962 115.798 756.48 103.76 754.385 86.3705C752.946 76.1326 752.599 67.4769 751.489 60.5783C751.276 51.0243 735.567 56.3219 729.317 51.1128C718.89 42.0173 730.894 31.6474 717.518 29.3506C711.94 28.3208 705.703 27.3522 698.655 26.4487C682.299 23.8578 673.595 18.0546 669.797 11.7789C659.636 1.23251 666.191 -14.1525 678.557 -23.4863C685.828 -28.8825 695.005 -32.2497 704.043 -31.5451C716.08 -30.6099 730.37 -25.1434 742.465 -32.2072C750.494 -36.3668 741.991 -58.3134 756.059 -66.3924C765.217 -71.8678 776.92 -68.1628 782.627 -73.7267C788.722 -79.6686 793.655 -84.4092 796.248 -87.1725Z" stroke="#005DB4" stroke-width="2"/>
<path d="M795.295 -76.0631C806.084 -91.6522 817.042 -75.563 813.293 -65.2323C806.828 -47.2024 809.644 -38.7415 816.056 -27.3046C818.093 -21.0676 828.036 -29.6977 836.228 -24.9561C844.421 -20.2146 839.159 -8.15967 846.822 -8.86117C858.624 -9.76347 866.086 -6.78914 869.847 -2.09802C873.767 2.06131 874.265 8.09607 871.846 13.8131C869.544 19.18 864.664 24.2406 857.614 27.1351C845.643 29.0895 836.215 40.1243 828.746 42.2414C820.635 42.8142 822.383 52.0782 813.383 59.5568C804.384 67.0355 797.521 60.1491 794.134 67.8859C788.89 80.5119 783.689 87.7686 778.847 91.0902C768.452 99.6108 759.623 89.2464 757.666 74.4524C756.255 65.6251 755.63 58.1538 754.187 52.3333C753.779 44.3253 740.405 48.7132 734.878 44.3406C725.83 36.7225 735.56 28.011 724.172 26.0124C719.291 25.0709 713.915 24.1581 707.912 23.2854C693.774 20.6485 686.795 15.1033 684.178 9.44112C675.859 0.521041 681.507 -12.4133 692.013 -20.265C698.267 -24.8317 706.123 -27.6715 713.861 -27.0683C725.007 -26.2034 737.5 -21.6191 748.468 -28.4097C755.394 -32.1124 748.49 -50.7513 760.417 -57.8195C768.248 -62.7156 778.204 -59.9514 783.198 -64.8197C788.488 -69.9759 792.905 -73.9022 795.295 -76.0631Z" stroke="#005DB4" stroke-width="2"/>
<path d="M794.561 -64.7644C803.481 -77.0779 812.407 -63.906 809.281 -55.3183C803.188 -38.3366 806.49 -31.1197 812.982 -21.6898C814.79 -16.663 823.06 -23.5742 829.901 -19.7629C836.742 -15.9516 832.801 -6.25089 839.067 -6.69738C848.779 -7.18624 854.801 -4.4523 857.684 -0.345828C860.758 3.1444 861.008 8.19608 858.832 12.9135C856.75 17.3507 852.511 21.4623 846.435 23.6197C834.99 24.478 826.228 37.4536 819.627 40.0023C812.918 40.7699 813.988 48.1789 806.51 53.9819C799.031 59.7848 793.325 53.9005 790.565 59.631C786.308 69.2114 782.172 74.5784 778.313 76.8664C769.973 83.4455 762.824 74.7769 761.026 62.5992C759.657 55.195 758.764 48.9182 756.998 44.1855C756.405 37.7342 745.382 41.2239 740.592 37.7004C732.946 31.5807 740.396 24.5268 731.017 22.8431C726.84 21.9972 722.336 21.1482 717.388 20.3146C705.494 17.6525 700.259 12.379 698.836 7.33875C692.382 0.0656005 697.131 -10.4096 705.77 -16.7829C711.005 -20.5227 717.53 -22.8416 723.955 -22.3504C734.194 -21.5722 744.865 -17.8922 754.7 -24.4177C760.516 -27.6681 755.246 -42.969 765.023 -49.0332C771.522 -53.3544 779.713 -51.5473 783.992 -55.7211C788.474 -60.0924 792.375 -63.2055 794.561 -64.7644Z" stroke="#005DB4" stroke-width="2"/>
<path d="M793.683 -53.5925C800.726 -62.6307 807.684 -52.3223 805.194 -45.467C799.5 -29.5043 803.321 -23.5058 809.942 -16.0444C811.541 -12.2123 818.144 -17.396 823.665 -14.4878C829.186 -11.5797 826.583 -4.22375 831.47 -4.39821C839.119 -4.44665 843.727 -1.9291 845.75 1.61088C847.997 4.44863 848.014 8.52949 846.086 12.2518C844.229 15.7634 840.63 18.9232 835.514 20.3305C824.557 20.0605 816.466 34.9967 810.718 37.9676C805.393 38.914 805.808 44.4868 799.845 48.6047C793.881 52.7225 789.297 47.8105 787.172 51.5373C783.917 58.0781 780.849 61.5533 777.968 62.8002C771.678 67.4272 766.165 60.4148 764.485 50.8216C763.133 44.8198 761.951 39.7208 759.841 36.0611C759.042 31.1512 750.345 33.7192 746.268 31.0241C739.983 26.3686 745.155 20.9782 737.751 19.5794L737.551 19.5355C734.124 18.7849 730.54 17.9998 726.705 17.2049C717.011 14.4767 713.492 9.44555 713.248 5.01045C708.621 -0.649744 712.455 -8.67504 719.235 -13.5597C723.456 -16.4661 728.665 -18.2509 733.798 -17.8528C743.166 -17.1314 752.058 -14.3181 760.774 -20.5696C765.491 -23.3596 761.797 -35.3709 769.437 -40.4181C774.611 -44.157 781.066 -43.282 784.633 -46.7592C788.31 -50.3434 791.697 -52.6389 793.683 -53.5925Z" stroke="#005DB4" stroke-width="2"/>
<path d="M792.65 -41.9753C797.788 -47.6966 802.715 -40.3238 800.867 -35.2371C795.582 -20.3778 799.889 -15.6377 806.587 -10.1978C807.96 -7.58532 812.863 -11.0219 817.024 -9.04307C821.186 -7.06424 819.925 -2.09145 823.402 -2.00098C828.941 -1.62133 832.101 0.657341 833.247 3.60651C834.647 5.77121 834.424 8.85709 832.75 11.5654C831.123 14.1337 828.181 16.3288 824.056 16.9858C813.654 15.6047 806.266 32.4276 801.403 35.8126C797.494 36.9413 797.241 40.6438 792.823 43.062C788.405 45.4803 784.98 41.5769 783.496 43.2813C781.251 46.7494 779.265 48.3174 777.378 48.5208C773.17 51.1791 769.338 45.8733 767.803 38.9234C766.486 34.3611 765.03 30.4713 762.596 27.9087C761.604 24.57 755.285 26.2156 751.95 24.3712C747.073 21.2175 749.942 17.5128 744.564 16.4194C741.788 15.7474 739.019 15.0068 736.173 14.2308C728.744 11.4679 726.973 6.71502 727.915 2.9123C725.155 -1.09344 728.064 -6.62796 732.951 -10.0065C736.136 -12.0694 739.998 -13.3183 743.806 -13.024C752.243 -12.3776 759.296 -10.4619 766.848 -16.4164C770.439 -18.7374 768.365 -27.3819 773.827 -31.3955C777.65 -34.5389 782.327 -34.6121 785.165 -37.3781C788.019 -40.16 790.875 -41.6297 792.65 -41.9753Z" stroke="#005DB4" stroke-width="2"/>
<path d="M791.974 -30.6124C795.221 -33.0394 798.134 -28.5788 796.921 -25.2452C792.032 -11.4581 796.83 -7.96561 803.614 -4.53315C804.765 -3.13151 807.982 -4.83389 810.796 -3.77787C813.609 -2.72186 813.683 -0.115425 815.761 0.239002C819.207 1.04547 820.93 3.09009 821.202 5.45601C821.761 6.9541 821.298 9.0543 819.875 10.7575C818.475 12.3908 816.182 13.6293 813.037 13.5406C803.173 11.0539 796.465 29.7871 792.474 33.5913C789.969 34.9038 789.051 36.7501 786.165 37.4797C783.28 38.2093 781.004 35.3044 780.159 34.997C778.918 35.4099 778.006 35.0805 777.106 34.2444C774.966 34.9458 772.803 31.3312 771.411 27.0032C770.127 23.8677 768.396 21.1766 765.635 19.7039C764.45 17.9254 760.489 18.6553 757.887 17.6558C754.406 15.9934 754.986 13.9627 751.616 13.172C749.546 12.5909 747.648 11.9087 745.858 11.1657C740.674 8.36466 740.641 3.87998 742.768 0.699364C741.863 -1.66558 743.854 -4.72848 746.864 -6.61256C749.022 -7.83898 751.549 -8.55647 754.044 -8.36541C761.567 -7.79508 766.8 -6.77151 773.206 -12.4421C775.682 -14.3002 775.219 -19.6061 778.522 -22.5969C781.005 -25.1526 783.919 -26.1707 786.035 -28.2334C788.075 -30.2212 790.407 -30.8715 791.974 -30.6124Z" stroke="#005DB4" stroke-width="2"/>
<path d="M-149.489 -46.3167C-170.5 -122.452 -92.6689 -130.202 -36.5007 -107.213C-3.72902 -95.3901 17.7926 -132.159 58.3903 -117.485C98.9879 -102.811 50.3198 -56.5883 112.439 -32.8655C174.558 -9.1428 144.232 96.998 89.9391 98.2208C35.6458 99.4436 50.5642 117.297 -3.72906 158.139C-58.0223 198.981 -149.489 142.242 -126.745 82.3242C-104 22.4059 -126.745 36.1015 -149.489 -46.3167Z" stroke="#005DB4" stroke-width="2"/>
<path d="M-32.637 12.9358C-35.0613 5.68429 -23.7065 -6.01421 -14.5761 -1.02165C-6.21524 3.55014 2.29878 0.466771 7.92376 2.50495C22.7322 7.87071 17.2851 10.7109 23.9049 17.0836C31.9602 24.8384 35.8041 45.1446 17.2851 45.1446C2.0542 45.1446 6.61147 52.5421 -4.7936 55.8199C-16.1987 59.0976 -29.1328 53.5182 -29.1328 38.8289C-29.1328 33.3126 -28.5994 25.0134 -32.637 12.9358Z" stroke="#005DB4" stroke-width="2"/>
<path d="M-138.868 -41.2999C-158.189 -111.174 -86.4009 -119.282 -34.5088 -97.9292C-3.95636 -86.7654 16.3828 -120.472 53.8011 -106.947C92.0543 -93.1189 47.3153 -50.84 104.389 -28.6946C161.594 -6.42347 134.374 91.9142 83.3328 93.0258C32.5907 94.1375 46.5672 111.04 -3.82715 148.467C-54.2215 185.895 -138.549 133.807 -117.872 78.0002C-97.1956 23.0276 -117.824 34.7236 -138.868 -41.2999Z" stroke="#005DB4" stroke-width="2"/>
<path d="M-128.246 -36.283C-145.877 -99.8944 -80.1329 -108.362 -32.5169 -88.6451C-4.18362 -78.1405 14.973 -108.784 49.212 -96.408C85.1207 -83.4266 44.3109 -45.0916 96.3394 -24.5234C148.629 -3.70395 124.516 86.8306 76.7267 87.8311C29.5357 88.8316 42.5703 104.784 -3.92517 138.796C-50.4206 172.808 -127.609 125.371 -109 73.6764C-90.3907 23.6494 -108.903 33.346 -128.246 -36.283Z" stroke="#005DB4" stroke-width="2"/>
<path d="M-117.626 -31.2658C-133.568 -88.615 -73.8667 -97.4416 -30.5269 -79.3607C-4.41278 -69.5154 13.5613 -97.097 44.621 -85.8693C78.1852 -73.734 41.3046 -39.3429 88.2877 -20.352C135.662 -0.984146 114.655 81.7472 70.1187 82.6366C26.4787 83.5259 38.5714 98.5276 -4.02509 129.125C-46.6216 159.722 -116.671 116.936 -100.129 69.3529C-83.5877 24.2715 -99.9838 31.9686 -117.626 -31.2658Z" stroke="#005DB4" stroke-width="2"/>
<path d="M-107.004 -26.2483C-121.256 -77.3352 -67.5985 -86.5208 -28.5349 -70.076C-4.6399 -60.8898 12.1517 -85.4092 40.032 -75.3301C71.2518 -64.041 38.3004 -33.5938 80.2381 -16.1801C122.698 1.73604 104.797 76.6643 63.5126 77.4424C23.4239 78.2206 34.5746 92.2717 -4.12296 119.454C-42.8205 146.637 -105.73 108.501 -91.2564 65.0297C-76.7826 24.894 -91.0626 30.5915 -107.004 -26.2483Z" stroke="#005DB4" stroke-width="2"/>
<path d="M-96.3805 -20.9765C-108.943 -65.8012 -61.3282 -75.3459 -26.5408 -60.537C-4.86494 -52.0101 10.7441 -73.4672 35.4451 -64.5368C64.3204 -54.0939 35.2982 -27.5905 72.1904 -11.7541C109.735 4.71041 94.9409 71.8355 56.9087 72.5025C20.3711 73.1695 30.5799 86.2701 -4.21877 110.038C-39.0174 133.805 -94.7877 100.32 -82.3816 60.9608C-69.9755 25.7707 -82.1393 29.4687 -96.3805 -20.9765Z" stroke="#005DB4" stroke-width="2"/>
<path d="M-85.7604 -15.4041C-96.6329 -53.9666 -55.0616 -63.8702 -24.5504 -50.6974C-5.09373 -42.8296 9.33285 -61.2244 30.8545 -53.4428C57.3853 -43.8461 32.2923 -21.2865 64.1391 -7.02745C96.769 7.98546 85.0811 67.3074 50.3011 67.8632C17.3145 68.419 26.5814 80.5692 -4.3183 100.922C-35.218 121.274 -83.8489 92.4405 -73.5105 57.1925C-63.1721 26.9481 -73.2197 28.6465 -85.7604 -15.4041Z" stroke="#005DB4" stroke-width="2"/>
<path d="M-75.138 -9.81487C-84.3209 -42.1152 -48.7929 -52.3778 -22.5578 -40.841C-5.32029 -33.6325 7.92377 -48.965 26.2661 -42.332C50.4524 -33.5815 29.2886 -14.9658 56.09 -2.28401C83.805 11.2773 75.2234 62.7961 43.6956 63.2407C14.2602 63.6854 22.5852 74.885 -4.41562 91.8225C-31.4164 108.76 -72.9079 84.5772 -64.6372 53.441C-56.3665 28.1422 -64.2979 27.8411 -75.138 -9.81487Z" stroke="#005DB4" stroke-width="2"/>
<path d="M-64.5151 -4.20162C-72.0084 -30.2397 -42.5237 -40.8613 -20.5648 -30.9606C-5.54642 -24.4112 6.51513 -36.6815 21.6781 -31.1972C43.52 -23.2928 26.2853 -8.62104 48.0413 2.48349C70.8414 14.5931 65.3662 58.3088 37.0906 58.6423C11.2063 58.9758 18.5893 69.2248 -4.51252 82.7475C-27.6144 96.2701 -61.9666 76.7381 -55.7635 49.7136C-49.5605 29.3604 -55.3757 27.0598 -64.5151 -4.20162Z" stroke="#005DB4" stroke-width="2"/>
<path d="M-53.8915 1.44706C-59.6951 -18.3289 -36.2537 -29.3094 -18.571 -21.0447C-5.7718 -15.1546 5.10724 -24.3625 17.0909 -20.0269C36.5883 -12.9688 23.2828 -2.24084 39.9934 7.28641C57.8786 17.9444 55.5097 53.8569 30.4863 54.0792C8.15316 54.3016 14.5943 63.6001 -4.60865 73.7078C-23.8116 83.8155 -51.0244 68.9343 -46.8891 46.0216C-42.7537 30.614 -46.4527 26.3138 -53.8915 1.44706Z" stroke="#005DB4" stroke-width="2"/>
<path d="M-43.2664 7.14962C-47.3803 -6.36409 -29.9822 -17.7036 -16.5756 -11.075C-5.99561 -5.84401 3.70092 -11.9897 12.5052 -8.80279C29.6581 -2.59085 20.2819 4.19325 31.9471 12.1432C44.9173 21.3496 45.6548 49.4589 23.8837 49.5701C5.10159 49.6813 10.6008 58.0293 -4.70321 64.722C-20.0072 71.4147 -40.0807 61.1845 -38.013 42.3834C-35.9453 31.9215 -37.5281 25.6218 -43.2664 7.14962Z" stroke="#005DB4" stroke-width="2"/>
</svg>
