<svg width="217" height="161" viewBox="0 0 217 161" fill="none" xmlns="http://www.w3.org/2000/svg">
<path d="M312.579 -26.7612C362.092 18.7452 309.38 59.4461 258.448 68.1779C229.449 74.4208 230.491 110.681 194.554 118.395C158.617 126.109 172.916 70.7771 117.356 81.6631C61.7952 92.5491 35.8228 2.21952 74.4802 -23.1516C113.138 -48.5227 94.3115 -54.6871 115.099 -108.67C135.887 -162.653 227.533 -162.933 238.132 -109.403C248.732 -55.8735 258.98 -76.0226 312.579 -26.7612Z" stroke="white" stroke-opacity="0.54" stroke-width="1.2494"/>
<path d="M201.469 -16.8486C206.491 -12.7052 203.567 0.864487 194.722 1.37712C186.622 1.84654 181.864 7.91336 176.882 8.97849C163.768 11.7826 166.421 7.27467 158.766 5.65823C149.451 3.69124 137.516 -9.23957 150.89 -17.5922C161.889 -24.4619 155.262 -27.7486 162.02 -35.2598C168.778 -42.771 180.635 -44.5754 187.26 -33.9672C189.748 -29.9835 193.106 -23.7495 201.469 -16.8486Z" stroke="white" stroke-opacity="0.54" stroke-width="1.2494"/>
<path d="M302.644 -25.5922C348.112 16.1539 299.927 54.3884 252.821 62.3729C225.722 68.091 226.236 101.606 193.114 108.716C159.252 115.983 172.492 65.272 121.286 75.0214C69.93 84.739 45.2338 1.44564 81.5926 -22.3784C117.736 -46.0675 100.019 -51.9703 119.531 -101.729C139.043 -151.487 223.435 -151.905 233.674 -102.277C243.536 -53.252 253.158 -71.0027 302.644 -25.5922Z" stroke="white" stroke-opacity="0.54" stroke-width="1.2494"/>
<path d="M292.717 -24.426C334.141 13.5599 290.481 49.3279 247.202 56.5653C222.002 61.7584 221.989 92.5288 191.681 99.0338C159.894 105.855 172.075 59.7641 125.225 68.377C78.0725 76.9261 54.6524 0.669014 88.7127 -21.6078C122.341 -43.615 105.733 -49.2562 123.97 -94.7898C142.207 -140.323 219.346 -140.88 229.223 -95.1545C238.348 -50.6333 247.343 -65.9855 292.717 -24.426Z" stroke="white" stroke-opacity="0.54" stroke-width="1.2494"/>
<path d="M282.776 -23.2547C320.155 10.9709 281.022 44.2724 241.568 50.7626C218.269 55.4309 217.729 83.4564 190.234 89.357C160.522 95.7318 171.644 54.2613 129.149 61.7376C86.2012 69.1182 64.0572 -0.102603 95.8191 -20.8323C126.933 -41.1576 111.434 -46.5371 128.396 -87.846C145.357 -129.155 215.242 -129.85 224.758 -88.0266C233.145 -48.0095 241.515 -60.9633 282.776 -23.2547Z" stroke="white" stroke-opacity="0.54" stroke-width="1.2494"/>
<path d="M272.845 -22.0938C306.179 8.37147 271.572 39.2065 235.944 44.9495C214.545 49.093 213.478 74.3736 188.797 79.6698C161.16 85.5983 171.223 48.7481 133.083 55.0878C94.3393 61.3 73.4716 -0.884589 102.935 -20.0672C131.535 -38.7105 117.145 -43.8284 132.831 -80.9126C148.517 -117.997 211.148 -118.831 220.303 -80.909C227.953 -45.3961 235.696 -55.9514 272.845 -22.0938Z" stroke="white" stroke-opacity="0.54" stroke-width="1.2494"/>
<path d="M262.801 -21.108C292.09 5.597 262.009 33.9656 230.208 38.9613C210.708 42.5799 209.114 65.1158 187.247 69.8075C161.685 75.2897 170.69 43.0598 136.904 48.2629C102.365 53.3066 82.7731 -1.84169 109.938 -19.4771C136.023 -36.4385 122.742 -41.2949 137.153 -74.1543C151.563 -107.014 206.941 -107.986 215.735 -73.9666C222.647 -42.9579 229.764 -51.1147 262.801 -21.108Z" stroke="white" stroke-opacity="0.54" stroke-width="1.2494"/>
<path d="M252.607 -20.3421C277.852 2.60267 252.297 28.5047 224.322 32.7533C206.722 35.8471 204.6 55.6381 185.548 59.7254C162.06 64.7612 170.006 37.1516 140.576 41.2181C110.241 45.0934 91.9253 -3.01864 116.792 -19.107C140.363 -34.3864 128.19 -38.9811 141.326 -67.6159C154.461 -96.2506 202.585 -97.3619 211.017 -67.244C217.192 -40.7395 223.682 -46.4978 252.607 -20.3421Z" stroke="white" stroke-opacity="0.54" stroke-width="1.2494"/>
<path d="M242.421 -19.5881C263.622 -0.403651 242.593 23.0319 218.444 26.5333C202.744 29.1022 200.095 46.1484 183.857 49.6312C162.444 54.2207 169.331 31.2315 144.256 34.1614C118.125 36.8682 101.085 -4.20758 123.653 -18.7488C144.71 -32.3462 133.647 -36.6794 145.506 -61.0894C157.366 -85.4994 198.237 -86.7493 206.308 -60.5334C211.745 -38.533 217.609 -41.8929 242.421 -19.5881Z" stroke="white" stroke-opacity="0.54" stroke-width="1.2494"/>
<path d="M232.217 -18.8515C249.372 -3.42728 232.87 17.5418 212.546 20.296C198.747 22.34 195.57 36.6414 182.147 39.5198C162.808 43.6629 168.637 25.294 147.917 27.0874C125.99 28.6257 110.226 -5.41383 130.496 -18.4079C149.038 -30.3234 139.084 -34.3949 149.668 -54.5802C160.252 -74.7655 193.87 -76.1541 201.579 -53.8401C206.279 -36.3439 211.517 -37.3053 232.217 -18.8515Z" stroke="white" stroke-opacity="0.54" stroke-width="1.2494"/>
<path d="M221.996 -18.1378C235.106 -6.47385 223.13 12.0288 206.633 14.0358C194.733 15.5549 191.029 27.1114 180.42 29.3854C163.156 33.0822 167.926 19.3336 151.561 19.9904C133.838 20.3603 119.351 -6.64301 137.322 -18.0899C153.35 -28.3235 144.504 -32.1334 153.813 -48.094C163.122 -64.0546 189.486 -65.5818 196.834 -47.1697C200.797 -34.1777 205.408 -32.7406 221.996 -18.1378Z" stroke="white" stroke-opacity="0.54" stroke-width="1.2494"/>
<path d="M211.759 -17.4551C220.825 -9.55141 213.375 6.48473 200.703 7.74455C190.703 8.73884 186.473 17.5505 178.677 19.2201C163.488 22.4705 167.2 13.3423 155.19 12.8624C141.671 12.0639 128.46 -7.9032 144.132 -17.803C157.646 -26.3546 149.909 -29.9029 157.943 -41.6388C165.976 -53.3747 185.087 -55.0405 192.073 -40.5304C195.299 -32.0425 199.283 -28.207 211.759 -17.4551Z" stroke="white" stroke-opacity="0.54" stroke-width="1.2494"/>
</svg>
