<svg width="203" height="99" viewBox="0 0 203 99" fill="none" xmlns="http://www.w3.org/2000/svg">
<path d="M246.828 44.0098C213.918 110.203 156.461 69.4789 132.688 19.9216C117.833 -7.87089 80.5134 5.30101 62.1281 -29.1479C43.7428 -63.5967 105.282 -67.3283 77.936 -120.935C50.5904 -174.542 136.807 -231.44 174.298 -200.08C211.789 -168.72 212.746 -190.172 274.76 -186.768C336.774 -183.365 363.54 -89.0428 311.064 -60.2615C258.588 -31.4803 282.454 -27.6454 246.828 44.0098Z" stroke="white" stroke-opacity="0.54" stroke-width="1.2494"/>
<path d="M242.745 34.1656C212.568 94.9373 158.978 58.0531 137.085 12.1881C123.324 -13.8221 88.6995 -2.10927 71.7543 -33.8606C54.4315 -66.321 110.871 -69.6016 85.9625 -119.101C61.0437 -168.767 140.328 -222.002 175.55 -192.494C210.57 -163.163 211.576 -183.385 268.838 -179.886C326.101 -176.387 350.915 -89.5836 302.383 -62.4766C254.367 -35.9579 275.563 -31.9681 242.745 34.1656Z" stroke="white" stroke-opacity="0.54" stroke-width="1.2494"/>
<path d="M238.666 24.3268C211.222 79.6768 161.499 46.6327 141.486 4.45999C128.818 -19.768 96.8896 -9.51419 81.3845 -38.5681C65.1242 -69.0399 116.464 -71.8696 93.993 -117.262C71.5011 -162.986 143.854 -212.559 176.807 -184.902C209.355 -157.6 210.41 -176.593 262.921 -172.998C315.431 -169.403 338.294 -90.1191 293.706 -64.6863C250.15 -40.4303 268.677 -36.2854 238.666 24.3268Z" stroke="white" stroke-opacity="0.54" stroke-width="1.2494"/>
<path d="M234.58 14.4755C209.868 64.4039 164.012 35.1998 145.88 -3.28058C134.305 -25.7264 105.072 -16.9316 91.0071 -43.288C75.8092 -71.7712 122.049 -74.1501 102.016 -115.435C81.9508 -157.218 147.372 -203.128 178.056 -177.323C208.132 -152.051 209.236 -169.813 256.995 -166.123C304.754 -162.432 325.665 -90.6671 285.021 -66.9084C245.925 -44.915 261.783 -40.6152 234.58 14.4755Z" stroke="white" stroke-opacity="0.54" stroke-width="1.2494"/>
<path d="M230.507 4.63247C208.528 49.1393 166.538 23.7752 150.287 -11.0129C139.806 -31.6765 113.268 -24.3407 100.643 -47.9996C86.5081 -74.4944 127.649 -76.4222 110.053 -113.6C92.4143 -151.441 150.904 -193.689 179.318 -169.736C206.923 -146.492 208.076 -163.025 251.084 -159.239C294.091 -155.453 313.05 -91.2067 276.35 -69.1222C241.715 -49.3915 254.903 -44.9367 230.507 4.63247Z" stroke="white" stroke-opacity="0.54" stroke-width="1.2494"/>
<path d="M226.582 -5.38625C207.336 33.699 169.213 12.1748 154.842 -18.9209C145.454 -37.8023 121.612 -31.9255 110.427 -52.887C97.3545 -77.3932 133.395 -78.8701 118.237 -111.94C103.025 -145.841 154.583 -184.426 180.728 -162.324C205.862 -141.11 207.064 -156.413 245.32 -152.531C283.575 -148.649 300.583 -91.9221 267.827 -71.5118C237.651 -54.0437 248.17 -49.4339 226.582 -5.38625Z" stroke="white" stroke-opacity="0.54" stroke-width="1.2494"/>
<path d="M222.842 -15.633C206.329 18.0306 172.073 0.346482 159.583 -27.0569C151.289 -44.1561 130.142 -39.7383 120.397 -58.0023C108.387 -80.52 139.328 -81.546 126.607 -110.509C113.822 -140.468 158.449 -175.39 182.324 -155.141C204.987 -135.955 206.238 -150.029 239.742 -146.051C273.245 -142.074 288.301 -92.8655 259.489 -74.1294C233.774 -58.9239 241.623 -54.1591 222.842 -15.633Z" stroke="white" stroke-opacity="0.54" stroke-width="1.2494"/>
<path d="M219.117 -25.8742C205.337 2.36787 174.947 -11.4763 164.338 -35.1874C157.137 -50.5043 138.686 -47.5456 130.381 -63.1121C119.433 -83.6412 145.275 -84.2163 134.991 -109.071C124.633 -135.089 162.328 -166.349 183.935 -147.952C204.126 -130.795 205.425 -143.639 234.178 -139.566C262.93 -135.493 276.034 -93.8034 251.166 -76.7414C229.911 -63.7985 235.091 -58.8788 219.117 -25.8742Z" stroke="white" stroke-opacity="0.54" stroke-width="1.2494"/>
</svg>
