<svg width="375" height="98" viewBox="0 0 375 98" fill="none" xmlns="http://www.w3.org/2000/svg">
<path d="M-124.66 -63.0398C-138.667 -113.972 -86.7793 -119.156 -49.3338 -103.777C-27.486 -95.868 -13.1383 -120.465 13.9268 -110.648C40.992 -100.832 8.54651 -69.9111 49.9594 -54.0415C91.3723 -38.1719 71.1549 32.8322 34.9594 33.6502C-1.23614 34.4682 8.70947 46.4113 -27.486 73.7332C-63.6816 101.055 -124.66 63.0989 -109.497 23.0159C-94.3336 -17.067 -109.497 -7.90519 -124.66 -63.0398Z" stroke="#005DB4"/>
<path d="M-117.58 -59.6838C-130.46 -106.426 -82.6019 -111.851 -48.0072 -97.5665C-27.6389 -90.0984 -14.0795 -112.647 10.8661 -103.599C36.3682 -94.3486 6.54224 -66.0657 44.5915 -51.2513C82.7278 -36.3528 64.5813 29.4313 30.5539 30.175C-3.27418 30.9186 6.0435 42.2259 -27.5527 67.2633C-61.149 92.3007 -117.367 57.4558 -103.583 20.1234C-89.7984 -16.6512 -103.551 -8.82693 -117.58 -59.6838Z" stroke="#005DB4"/>
<path d="M-110.498 -56.3276C-122.252 -98.8812 -78.4226 -104.546 -46.6786 -91.3558C-27.7897 -84.3287 -15.0187 -104.828 7.80734 -96.5489C31.7465 -87.8648 4.53996 -62.2202 39.2256 -48.4609C74.0853 -34.5335 58.0097 26.0306 26.1505 26.6999C-5.3102 27.3692 3.37952 38.0405 -27.6174 60.7935C-58.6144 83.5464 -110.073 51.8127 -97.6672 17.2309C-85.2611 -16.2352 -97.6027 -9.74854 -110.498 -56.3276Z" stroke="#005DB4"/>
<path d="M-103.416 -52.9714C-114.044 -91.3357 -74.2432 -97.2404 -45.35 -85.145C-27.9406 -78.5588 -15.9578 -97.0099 4.74863 -89.4989C27.1248 -81.3809 2.53772 -58.3746 33.8598 -45.6704C65.4428 -32.7141 51.4382 22.63 21.7471 23.2249C-7.3462 23.8198 0.715569 33.8554 -27.6821 54.3238C-56.0798 74.7923 -102.779 46.1699 -91.7514 14.3386C-80.7238 -15.819 -91.6546 -10.67 -103.416 -52.9714Z" stroke="#005DB4"/>
<path d="M-96.3363 -49.6148C-105.838 -83.79 -70.0656 -89.9348 -44.0233 -78.9338C-28.0933 -72.7886 -16.8989 -89.1911 1.688 -82.4486C22.5012 -74.8967 0.533585 -54.5286 28.492 -42.8796C56.7985 -30.8944 44.8647 19.2297 17.3418 19.7502C-9.3841 20.2708 -1.95027 29.6705 -27.7486 47.8545C-53.547 66.0385 -95.4868 40.5273 -85.8376 11.4466C-76.1884 -15.4026 -85.7084 -11.5912 -96.3363 -49.6148Z" stroke="#005DB4"/>
<path d="M-89.2543 -46.0882C-97.6292 -76.0742 -65.8861 -82.4592 -42.6945 -72.5526C-28.2439 -66.8484 -17.8379 -81.2024 -1.37056 -75.2283C17.8796 -68.2424 -1.46851 -50.5127 23.1263 -39.9188C48.1562 -28.9046 38.2933 15.9994 12.9385 16.4456C-11.4199 16.8918 -4.61407 25.6556 -27.8132 41.5551C-51.0122 57.4547 -88.1924 35.0548 -79.9217 8.72469C-71.651 -14.8161 -79.7602 -12.3423 -89.2543 -46.0882Z" stroke="#005DB4"/>
<path d="M-82.1723 -42.3604C-89.4207 -68.1573 -61.7065 -74.7824 -41.3656 -65.9703C-28.3945 -60.7071 -18.7768 -73.0125 -4.42903 -67.8069C13.2582 -61.387 -3.4705 -46.2956 17.7607 -36.7568C39.514 -26.7138 31.722 12.9703 8.53534 13.3421C-13.4557 13.714 -7.27776 21.8419 -27.8776 35.457C-48.4774 49.072 -80.898 29.7834 -74.0057 6.20386C-67.1135 -14.0285 -73.8118 -12.8923 -82.1723 -42.3604Z" stroke="#005DB4"/>
<path d="M-75.092 -38.6215C-81.2139 -60.2291 -57.5286 -67.0944 -40.0385 -59.3768C-28.5469 -54.5545 -19.7175 -64.8114 -7.48927 -60.3742C8.63496 -54.5204 -5.47427 -42.0673 12.3933 -33.5836C30.87 -24.5117 25.1489 9.95238 4.13042 10.2498C-15.4932 10.5473 -9.94323 18.0394 -27.9437 29.37C-45.9443 40.7006 -73.6053 24.5232 -68.0915 3.69424C-62.5777 -13.2297 -67.8653 -13.4311 -75.092 -38.6215Z" stroke="#005DB4"/>
<path d="M-68.0114 -34.8664C-73.0069 -52.2849 -53.3504 -59.3903 -38.7112 -52.7672C-28.6989 -48.3859 -20.6579 -56.5942 -10.5492 -52.9254C4.01202 -47.6377 -7.47774 -37.8229 7.02626 -30.3944C22.2263 -22.2935 18.5761 6.95057 -0.274231 7.17367C-17.5304 7.39677 -12.6084 14.253 -28.0096 23.2991C-43.4109 32.3452 -66.3123 19.2791 -62.177 1.20073C-58.0416 -12.4147 -61.9184 -13.9538 -68.0114 -34.8664Z" stroke="#005DB4"/>
<path d="M-60.9264 -31.0877C-64.7954 -44.317 -49.1678 -51.6626 -37.3794 -46.1338C-28.8466 -42.1935 -21.5939 -48.3533 -13.6048 -45.453C-0.606518 -40.7313 -9.47681 -33.5548 1.66357 -27.1814C13.587 -20.0516 12.0078 3.97245 -4.67447 4.12118C-19.5633 4.26991 -15.2692 10.4903 -28.0711 17.2519C-40.8731 24.0136 -59.015 14.0587 -56.2581 -1.26909C-53.5012 -11.5761 -55.9672 -14.4528 -60.9264 -31.0877Z" stroke="#005DB4"/>
<path d="M-53.8442 -27.2729C-56.5868 -36.313 -44.9881 -43.8987 -36.0504 -39.4645C-28.9971 -35.9651 -22.5327 -40.0763 -16.6632 -37.9444C-5.2279 -33.7889 -11.4787 -29.2506 -3.70196 -23.9324C4.94488 -17.7737 5.43652 1.03039 -9.07756 1.10475C-21.5989 1.17912 -17.9328 6.76363 -28.1355 11.2408C-38.3381 15.718 -51.7205 8.87431 -50.342 -3.70286C-48.9636 -10.7015 -50.0188 -14.9157 -53.8442 -27.2729Z" stroke="#005DB4"/>
<path d="M387.478 -137.15C430.834 -167.324 453.008 -120.127 450.981 -79.6975C450.802 -56.4629 478.774 -51.1285 478.534 -22.3393C478.295 6.44999 438.331 -13.8416 437.164 30.4925C435.996 74.8265 362.313 79.4173 349.484 45.5618C336.655 11.7062 328.707 25.0623 290.888 0.0358742C253.069 -24.9906 268.544 -95.1298 311.389 -94.1857C354.233 -93.2415 340.544 -104.487 387.478 -137.15Z" stroke="#005DB4"/>
<path d="M376.056 -50.4941C380.091 -53.634 389.992 -49.1035 388.871 -42.2517C387.844 -35.9773 391.68 -31.3126 391.643 -27.3226C391.547 -16.8184 388.546 -19.6095 385.997 -14.0282C382.895 -7.23657 370.94 -0.295169 366.827 -11.9359C363.445 -21.5099 359.791 -16.9968 355.19 -23.4354C350.59 -29.874 351.237 -39.2476 360.502 -42.5211C363.982 -43.7504 369.335 -45.2646 376.056 -50.4941Z" stroke="#005DB4"/>
<path d="M386.673 -129.356C426.455 -157.072 447.512 -113.754 445.568 -76.3769C445.312 -54.6841 471.089 -49.4106 470.868 -22.8758C470.642 4.25112 434.039 -14.4494 432.746 26.3616C431.402 67.2827 363.331 72.0872 351.294 40.2512C339.324 8.60298 331.766 21.1552 296.967 -2.18142C262.168 -25.518 276.295 -90.1332 316.087 -89.5725C355.353 -88.8259 343.394 -99.1863 386.673 -129.356Z" stroke="#005DB4"/>
<path d="M385.866 -121.562C422.073 -146.82 442.015 -107.381 440.153 -73.0561C439.82 -52.9052 463.403 -47.6926 463.201 -23.4123C462.987 2.0524 429.744 -15.0572 428.326 22.2309C426.806 59.739 364.346 64.7572 353.102 34.9407C341.991 5.49992 334.824 17.2482 303.044 -4.39859C271.265 -26.0454 284.044 -85.1364 320.783 -84.9591C356.471 -84.4101 346.243 -93.8859 385.866 -121.562Z" stroke="#005DB4"/>
<path d="M385.061 -113.767C417.693 -136.568 436.52 -101.007 434.74 -69.7353C434.33 -51.1263 455.719 -45.9745 455.535 -23.9487C455.334 -0.146274 425.452 -15.6649 423.907 18.1002C422.212 52.1954 365.364 57.4272 354.912 29.6302C344.659 2.39692 337.883 13.3413 309.123 -6.6157C280.364 -26.5727 291.795 -80.1396 325.481 -80.3457C357.59 -79.9943 349.094 -88.5854 385.061 -113.767Z" stroke="#005DB4"/>
<path d="M384.256 -105.971C413.314 -126.315 431.024 -94.6331 429.327 -66.4134C428.839 -49.3462 448.034 -44.2553 447.869 -24.484C447.681 -2.34386 421.159 -16.2716 419.489 13.9706C417.618 44.6528 366.381 50.0984 356.722 24.3209C347.328 -0.70501 340.941 9.43551 315.202 -8.83173C289.462 -27.099 299.545 -75.1416 330.179 -75.7312C358.709 -75.5774 351.944 -83.2839 384.256 -105.971Z" stroke="#005DB4"/>
<path d="M383.288 -98.1201C408.771 -116.006 425.366 -88.2028 423.751 -63.0358C423.187 -47.5104 440.187 -42.4804 440.04 -24.9635C439.866 -4.48566 416.704 -16.8224 414.908 9.89673C412.861 37.1661 367.236 42.8253 358.369 19.0674C349.834 -3.75113 343.838 5.58546 321.118 -10.992C298.399 -27.5694 307.133 -70.0879 334.715 -71.0609C359.666 -71.1047 354.632 -77.9266 383.288 -98.1201Z" stroke="#005DB4"/>
<path d="M382.133 -90.2017C404.041 -105.63 419.521 -81.7055 417.988 -59.591C417.346 -45.6074 432.153 -40.6383 432.024 -25.3759C431.863 -6.56035 412.061 -17.3061 410.14 5.89001C407.917 29.7464 367.904 35.6193 359.829 13.8809C352.153 -6.73016 346.547 1.80254 326.847 -13.0851C307.147 -27.9727 314.534 -64.9671 339.063 -66.3235C360.436 -66.5649 357.133 -72.5021 382.133 -90.2017Z" stroke="#005DB4"/>
<path d="M380.967 -82.2784C399.301 -95.2488 413.664 -75.2033 412.214 -56.1413C411.495 -43.6996 424.108 -38.7914 423.997 -25.7835C423.85 -8.63019 407.407 -17.785 405.361 1.88814C402.962 22.3316 368.561 28.4182 361.278 8.69932C354.461 -9.70434 349.245 -1.97555 332.565 -15.1734C315.886 -28.3712 321.924 -59.8414 343.4 -61.5813C361.194 -62.0202 359.623 -67.0729 380.967 -82.2784Z" stroke="#005DB4"/>
<path d="M379.784 -74.3514C394.544 -84.8641 407.791 -68.6974 406.423 -52.6879C405.627 -41.788 416.046 -36.9407 415.954 -26.1873C415.819 -10.6963 402.737 -18.2601 400.565 -2.10996C397.99 14.9205 369.2 21.2208 362.71 3.52149C356.752 -12.6748 351.927 -5.74986 338.267 -17.2579C324.607 -28.7659 329.297 -54.712 347.721 -56.8352C361.936 -57.4718 362.096 -61.6398 379.784 -74.3514Z" stroke="#005DB4"/>
<path d="M378.581 -66.4141C389.766 -74.4692 401.898 -62.1812 400.612 -49.2243C399.739 -39.8662 407.963 -35.0798 407.89 -26.5808C407.768 -12.7521 398.047 -18.725 395.748 -6.09783C392.998 7.5197 369.82 14.0337 364.122 -1.64611C359.022 -15.6349 354.588 -9.51394 343.948 -19.3322C333.307 -29.1504 336.65 -49.5723 352.021 -52.079C362.658 -52.9131 364.548 -56.1965 378.581 -66.4141Z" stroke="#005DB4"/>
<path d="M377.344 -58.4647C384.955 -64.0622 395.971 -55.653 394.767 -45.7486C393.817 -37.9324 399.847 -33.2068 399.792 -26.9623C399.684 -14.7959 393.322 -19.1779 390.899 -10.0736C387.972 0.130935 370.406 6.85865 365.501 -6.80165C361.259 -18.5831 357.215 -13.266 349.595 -21.3944C341.975 -29.5228 343.969 -44.4206 356.287 -47.3107C363.345 -48.3424 366.967 -50.7412 377.344 -58.4647Z" stroke="#005DB4"/>
</svg>
