<svg width="269" height="214" viewBox="0 0 269 214" fill="none" xmlns="http://www.w3.org/2000/svg">
<path d="M524.185 158.479C540.13 310.23 405.614 307.308 315.98 250.043C263.268 219.701 217.057 285.712 151.765 248.07C86.4726 210.429 181.359 132.408 81.7849 72.3603C-17.7894 12.313 61.4725 -185.549 154.219 -175.439C246.965 -165.328 226.217 -203.207 329.278 -269.553C432.34 -335.899 573.279 -205.397 518.959 -94.9926C464.639 15.412 506.925 -5.79334 524.185 158.479Z" stroke="white" stroke-opacity="0.54" stroke-width="1.2494"/>
<path d="M340.691 17.297C342.93 31.8476 320.554 51.815 306.311 40.0834C293.267 29.3405 277.971 33.3352 268.925 28.11C245.113 14.354 255.125 10.1241 245.515 -3.69421C233.821 -20.5093 232.564 -60.5785 264.091 -56.325C290.019 -52.8266 284.187 -68.1489 304.456 -71.8547C324.726 -75.5604 345.292 -61.8227 341.467 -33.4756C340.031 -22.8305 336.962 -6.93733 340.691 17.297Z" stroke="white" stroke-opacity="0.54" stroke-width="1.2494"/>
<path d="M507.405 146.359C522.104 285.637 397.783 284.796 315.002 231.671C265.897 203.11 222.496 263.484 162.317 228.789C100.795 193.318 187.966 122.006 96.5705 66.1609C4.98523 10.0437 76.9273 -173.474 164.108 -163.895C250.78 -154.386 231.388 -190.215 326.923 -250.866C422.458 -311.517 552.454 -191.63 502.724 -88.6855C453.212 12.65 491.375 -5.18273 507.405 146.359Z" stroke="white" stroke-opacity="0.54" stroke-width="1.2494"/>
<path d="M490.641 134.243C504.094 261.048 389.967 262.288 314.04 213.303C268.54 186.523 227.95 241.259 172.884 209.511C115.134 176.212 194.589 111.608 111.372 59.9659C27.7756 7.77893 92.3977 -161.394 174.013 -152.348C254.611 -143.44 236.574 -177.218 324.583 -232.174C412.592 -287.131 531.645 -177.859 486.505 -82.374C441.8 9.89245 475.84 -4.56768 490.641 134.243Z" stroke="white" stroke-opacity="0.54" stroke-width="1.2494"/>
<path d="M473.849 122.119C486.056 236.451 382.123 239.772 313.05 194.926C271.157 169.928 233.377 219.026 183.425 190.225C129.445 159.098 201.184 101.202 126.146 53.7622C50.5385 5.50548 107.841 -149.322 183.891 -140.809C258.414 -132.502 241.734 -164.229 322.216 -213.491C402.698 -262.753 510.808 -164.096 470.259 -76.0711C430.362 7.12627 460.278 -3.9613 473.849 122.119Z" stroke="white" stroke-opacity="0.54" stroke-width="1.2494"/>
<path d="M457.086 109.988C468.047 211.848 374.309 217.249 312.089 176.542C273.803 153.327 238.833 196.787 193.994 170.933C143.785 141.976 207.809 90.7887 140.949 47.5519C73.3307 3.22538 123.313 -137.257 193.798 -129.277C262.247 -121.571 246.922 -151.247 319.878 -194.815C392.833 -238.383 490 -150.34 454.042 -69.7749C418.952 4.35343 444.746 -3.36155 457.086 109.988Z" stroke="white" stroke-opacity="0.54" stroke-width="1.2494"/>
<path d="M440.379 97.3856C450.094 186.773 366.551 194.255 311.185 157.687C276.505 136.254 244.345 174.076 204.62 151.169C158.182 124.384 214.49 79.9045 155.808 40.8703C96.1792 0.474006 138.842 -125.664 203.761 -118.216C266.136 -111.111 252.167 -138.737 317.596 -176.61C383.025 -214.483 469.249 -137.056 437.881 -63.9501C407.599 1.10929 429.269 -3.2331 440.379 97.3856Z" stroke="white" stroke-opacity="0.54" stroke-width="1.2494"/>
<path d="M423.735 84.1787C432.204 161.093 358.855 170.656 310.343 138.228C279.269 118.576 249.92 150.76 215.308 130.8C172.641 106.187 221.233 68.4155 170.73 33.584C119.09 -2.8821 154.433 -114.675 213.786 -107.76C270.087 -101.256 257.474 -126.831 315.377 -159.01C373.279 -191.188 448.56 -124.376 421.783 -58.7299C396.308 -2.73956 413.855 -3.70937 423.735 84.1787Z" stroke="white" stroke-opacity="0.54" stroke-width="1.2494"/>
<path d="M407.118 70.9597C414.341 135.401 351.187 147.045 309.529 118.756C282.061 100.886 255.522 127.432 226.023 110.419C187.127 87.9776 228.003 56.9146 185.679 26.2857C142.028 -6.25017 170.051 -103.699 223.839 -97.3153C274.065 -91.4125 262.809 -114.937 313.184 -141.421C363.56 -167.905 427.898 -111.708 405.712 -53.5217C385.045 -6.60037 398.469 -4.1976 407.118 70.9597Z" stroke="white" stroke-opacity="0.54" stroke-width="1.2494"/>
<path d="M390.493 57.684C396.47 109.653 343.51 123.378 308.706 99.228C284.844 83.1397 261.116 104.048 236.731 89.9819C201.605 69.7116 234.765 45.3569 200.62 18.9307C164.958 -9.675 185.661 -92.7786 233.884 -86.9277C278.035 -81.6261 268.135 -103.1 310.984 -123.89C353.833 -144.679 407.228 -99.0966 389.632 -48.3702C373.773 -10.518 383.074 -4.74259 390.493 57.684Z" stroke="white" stroke-opacity="0.54" stroke-width="1.2494"/>
<path d="M373.876 44.3438C378.607 83.8398 335.842 99.6456 307.891 79.6352C287.635 65.3287 266.718 80.5992 247.446 69.4801C216.092 51.3812 241.536 33.7348 215.568 11.5112C187.896 -13.1643 201.279 -81.9231 243.936 -76.6047C282.014 -71.9041 273.47 -91.3276 308.792 -106.423C344.114 -121.517 386.567 -86.5498 373.561 -43.2832C362.509 -14.5 367.687 -5.35204 373.876 44.3438Z" stroke="white" stroke-opacity="0.54" stroke-width="1.2494"/>
<path d="M357.27 30.9243C360.755 57.9476 328.185 75.8342 307.088 59.9632C290.438 47.4385 272.331 57.0711 258.172 48.8989C230.589 32.9715 248.317 22.0334 230.529 4.0124C210.845 -16.7329 216.908 -71.1469 254 -66.3609C286.003 -62.2615 278.815 -79.6344 306.611 -89.0347C334.407 -98.435 365.916 -74.0823 357.501 -38.2755C351.257 -18.5613 352.311 -6.04078 357.27 30.9243Z" stroke="white" stroke-opacity="0.54" stroke-width="1.2494"/>
</svg>
