<svg width="533" height="474" viewBox="0 0 533 474" fill="none" xmlns="http://www.w3.org/2000/svg">
<path d="M359.135 96.2554C569.815 -49.3624 674.095 153.682 662.089 333.389C659.939 436.395 794.487 452.347 791.74 579.983C788.992 707.618 597.462 628.684 589.381 825.456C581.3 1022.23 225.837 1062.82 165.866 916.321C105.894 769.826 66.8407 831.193 -114.09 730.688C-295.02 630.183 -216.539 315.133 -10.0485 307.544C196.442 299.956 131.07 253.889 359.135 96.2554Z" stroke="white" stroke-opacity="0.54" stroke-width="2"/>
<path d="M299.275 483.374C318.902 468.353 366.38 485.708 360.595 516.377C355.298 544.462 373.53 564.078 373.134 581.769C372.091 628.34 357.778 616.798 345.179 642.23C329.847 673.177 271.834 707.22 252.651 656.768C236.875 615.273 219.011 636.276 197.19 609.009C175.369 581.743 179.006 540.029 223.852 522.978C240.694 516.574 266.584 508.394 299.275 483.374Z" stroke="white" stroke-opacity="0.54" stroke-width="2"/>
<path d="M354.825 131.023C548.137 -2.72241 647.253 183.441 635.813 349.6C633.377 445.794 757.35 462.079 754.817 579.72C752.224 699.986 576.805 627.178 568.313 808.374C559.573 990.071 231.151 1030.06 174.888 892.3C118.934 755.351 81.8067 813.048 -84.6593 719.201C-251.125 625.354 -179.448 335.153 12.3476 326.704C201.597 319.223 144.521 276.601 354.825 131.023Z" stroke="white" stroke-opacity="0.54" stroke-width="2"/>
<path d="M350.509 165.76C526.453 43.8865 620.405 213.169 609.53 365.779C606.808 455.162 720.208 471.781 717.888 579.426C715.45 692.323 556.141 625.641 547.239 791.261C537.839 957.883 236.459 997.281 183.903 868.248C131.967 740.845 96.7661 794.873 -55.2353 707.684C-207.237 620.495 -142.364 355.142 34.737 345.833C206.746 338.46 157.967 299.281 350.509 165.76Z" stroke="white" stroke-opacity="0.54" stroke-width="2"/>
<path d="M346.204 200.549C504.779 90.5478 593.567 242.949 583.259 382.01C580.25 464.583 683.076 481.534 680.969 579.185C678.687 684.712 535.488 624.157 526.175 774.2C516.117 925.747 241.777 964.55 192.929 844.249C145.011 726.391 111.737 776.749 -25.8004 696.218C-163.337 615.687 -105.268 375.183 57.1376 365.014C211.906 357.749 171.423 322.015 346.204 200.549Z" stroke="white" stroke-opacity="0.54" stroke-width="2"/>
<path d="M341.861 235.297C483.068 137.169 566.692 272.69 556.949 398.202C553.654 473.963 645.905 491.248 644.013 578.903C641.885 677.061 514.798 622.633 505.074 757.099C494.356 893.572 247.057 931.779 201.918 820.209C158.017 711.896 126.669 758.585 3.59646 684.712C-119.476 610.84 -68.2111 395.184 79.5 384.155C217.027 376.998 184.841 344.707 341.861 235.297Z" stroke="white" stroke-opacity="0.54" stroke-width="2"/>
<path d="M336.785 270.341C460.623 184.085 539.083 302.724 529.906 414.688C526.325 483.638 608.002 501.256 606.324 578.916C604.351 669.705 493.374 621.403 483.239 740.293C471.862 861.69 251.604 899.303 210.173 796.464C170.29 697.697 140.868 740.716 32.2602 673.502C-76.3477 606.287 -31.8869 415.48 101.129 403.591C221.416 396.541 197.526 367.695 336.785 270.341Z" stroke="white" stroke-opacity="0.54" stroke-width="2"/>
<path d="M330.762 305.779C437.232 231.396 510.528 333.155 501.916 431.569C498.049 493.709 569.152 511.659 567.687 579.325C565.87 662.744 471.003 620.568 460.458 723.882C448.422 830.204 255.205 867.222 217.482 773.114C181.616 683.893 154.121 723.243 59.9773 662.686C-34.1661 602.129 3.49065 436.171 121.812 423.421C224.858 416.479 209.265 391.078 330.762 305.779Z" stroke="white" stroke-opacity="0.54" stroke-width="2"/>
<path d="M324.707 341.186C413.809 278.675 481.942 363.553 473.895 448.418C469.742 503.747 530.271 522.031 529.02 579.701C527.357 655.751 448.601 619.702 437.645 707.439C424.95 798.687 258.773 835.11 224.758 749.733C192.911 670.056 167.341 705.737 87.6626 651.838C7.98377 597.939 38.8365 456.83 142.463 443.22C228.268 436.386 220.971 414.429 324.707 341.186Z" stroke="white" stroke-opacity="0.54" stroke-width="2"/>
<path d="M318.566 376.644C390.299 326.005 453.268 394.003 445.787 465.319C441.348 513.837 491.303 532.454 490.265 580.129C488.758 648.809 426.112 618.887 414.745 691.048C401.391 767.22 262.255 803.048 231.949 726.403C204.119 656.272 180.476 688.283 115.261 641.042C50.0471 593.801 74.0957 477.541 163.027 463.071C231.591 456.344 232.591 437.831 318.566 376.644Z" stroke="white" stroke-opacity="0.54" stroke-width="2"/>
<path d="M312.327 412.151C366.692 373.384 424.497 424.501 417.581 482.268C412.856 523.975 452.237 542.925 451.413 580.605C450.06 641.916 403.526 618.12 391.748 674.705C377.735 735.802 265.64 771.035 239.041 703.121C215.229 642.535 193.512 670.877 142.762 630.294C92.0126 589.712 109.257 498.3 183.494 482.97C234.817 476.351 244.114 461.282 312.327 412.151Z" stroke="white" stroke-opacity="0.54" stroke-width="2"/>
<path d="M305.962 447.692C342.959 420.798 395.6 455.033 389.249 499.252C384.238 534.148 413.045 553.431 412.435 581.116C411.237 635.058 380.813 617.388 368.625 658.397C353.953 704.419 268.898 739.057 246.008 679.874C226.213 628.834 206.423 653.506 170.138 619.581C133.852 585.656 144.293 519.094 203.835 502.903C237.917 496.392 255.51 484.767 305.962 447.692Z" stroke="white" stroke-opacity="0.54" stroke-width="2"/>
</svg>
