<svg width="154" height="96" viewBox="0 0 154 96" fill="none" xmlns="http://www.w3.org/2000/svg">
<path d="M254.281 30.889C272.462 95.633 206.224 102.53 158.312 83.1723C130.364 73.2317 112.181 104.62 77.5579 92.2824C42.9352 79.9445 84.1956 40.4019 31.2138 20.4421C-21.7679 0.482259 3.64522 -90.0063 49.8678 -91.2559C96.0903 -92.5056 83.3197 -107.649 129.39 -142.632C175.46 -177.615 253.557 -129.657 234.421 -78.5531C215.286 -27.4492 234.599 -39.1975 254.281 30.889Z" stroke="white" stroke-opacity="0.54" stroke-width="1.2494"/>
<path d="M245.216 26.6588C261.935 86.0775 200.844 93.2572 156.579 75.2757C130.523 65.8878 113.334 94.6647 81.4232 83.2925C48.8 71.6661 86.73 35.4966 38.0502 16.8603C-10.7412 -1.88242 12.057 -85.7152 55.5109 -86.8577C98.7103 -87.999 86.7453 -102.337 129.509 -134.397C172.273 -166.458 244.273 -122.432 226.882 -74.8369C209.488 -27.9519 227.007 -37.9896 245.216 26.6588Z" stroke="white" stroke-opacity="0.54" stroke-width="1.2494"/>
<path d="M236.16 22.4303C251.416 76.5235 195.471 83.9857 154.853 67.3808C130.689 58.5457 114.496 84.7106 85.2964 74.3043C54.6725 63.3893 89.2723 30.5928 44.8943 13.2802C0.293224 -4.24547 20.4765 -81.4224 61.1618 -82.4578C101.338 -83.4909 90.1788 -97.0231 129.636 -126.161C169.093 -155.299 234.996 -115.206 219.35 -71.1192C203.698 -28.453 219.423 -36.7801 236.16 22.4303Z" stroke="white" stroke-opacity="0.54" stroke-width="1.2494"/>
<path d="M227.087 18.1978C240.881 66.9657 190.083 74.7103 153.112 59.482C130.84 51.1996 115.642 74.7527 89.1538 65.3122C60.5294 55.1087 91.7988 25.6852 51.7228 9.69613C11.312 -6.6124 28.8804 -77.1335 66.7971 -78.0618C103.95 -78.9865 93.5965 -91.7131 129.747 -117.928C165.898 -144.144 225.704 -107.983 211.803 -67.4054C197.892 -28.958 211.823 -35.5744 227.087 18.1978Z" stroke="white" stroke-opacity="0.54" stroke-width="1.2494"/>
<path d="M218.03 13.9629C230.361 57.4054 184.71 65.4324 151.387 51.5807C131.007 43.851 116.804 64.7922 93.0268 56.3176C66.4018 46.8255 94.3409 20.7751 58.5668 6.10959C22.3463 -8.98184 37.2998 -72.8471 72.4479 -73.6682C106.578 -74.4847 97.0298 -86.4056 129.874 -109.698C162.718 -132.991 216.428 -100.763 204.271 -63.694C192.102 -29.4654 204.239 -34.3713 218.03 13.9629Z" stroke="white" stroke-opacity="0.54" stroke-width="1.2494"/>
<path d="M208.969 9.51907C219.837 47.6362 179.333 55.9457 149.656 43.4705C131.168 36.2936 117.96 54.6229 96.8948 47.1141C72.2692 38.3335 96.878 15.6561 65.4058 2.31417C33.3756 -11.5602 45.7142 -68.7697 78.0937 -69.4836C109.201 -70.1918 100.458 -81.307 129.996 -101.677C159.533 -122.047 207.147 -93.7514 196.735 -60.1915C186.307 -30.1818 196.649 -33.3771 208.969 9.51907Z" stroke="white" stroke-opacity="0.54" stroke-width="1.2494"/>
<path d="M199.896 4.8097C209.301 37.6015 173.944 46.1934 147.915 35.0948C131.319 28.4706 119.106 44.188 100.752 37.645C78.1256 29.576 99.4041 10.2716 72.2338 -1.74679C44.3939 -14.404 54.1176 -64.9577 83.7284 -65.5645C111.812 -66.1645 103.875 -76.4739 130.106 -93.9215C156.337 -111.369 197.854 -87.0057 189.187 -56.9546C180.501 -31.1637 189.049 -32.6484 199.896 4.8097Z" stroke="white" stroke-opacity="0.54" stroke-width="1.2494"/>
<path d="M190.836 0.0946451C198.779 27.561 168.569 36.4354 146.187 26.7134C131.482 20.6419 120.265 33.7474 104.622 28.1703C83.9954 20.8127 101.944 4.88137 79.0751 -5.81345C55.4255 -17.2536 62.5343 -61.1515 89.3765 -61.6511C114.437 -62.1428 107.306 -71.6466 130.23 -86.1715C153.155 -100.696 188.575 -80.2656 181.653 -53.7234C174.708 -32.1513 181.462 -31.9254 190.836 0.0946451Z" stroke="white" stroke-opacity="0.54" stroke-width="1.2494"/>
<path d="M181.768 -4.6459C188.248 17.4951 163.185 26.6519 144.45 18.3064C131.638 12.7877 121.415 23.2814 108.484 18.6701C89.8568 12.0239 104.475 -0.534352 85.9082 -9.90559C66.4489 -20.1286 70.9428 -57.3707 95.0164 -57.7632C117.054 -58.1466 110.728 -66.8447 130.346 -78.447C149.964 -90.0494 179.288 -73.5511 174.11 -50.5176C168.907 -33.1644 173.867 -31.2279 181.768 -4.6459Z" stroke="white" stroke-opacity="0.54" stroke-width="1.2494"/>
<path d="M172.7 -9.41394C177.717 7.40169 157.801 16.8409 142.713 9.87202C131.793 4.90606 122.565 12.7878 112.345 9.14237C95.7175 3.20769 107.005 -5.97757 92.7405 -14.0252C77.4715 -23.0312 79.3505 -53.6174 100.655 -53.9028C119.67 -54.1779 114.15 -62.0703 130.461 -70.7501C146.772 -79.4298 170 -66.864 166.567 -47.3394C163.105 -34.205 166.271 -30.5578 172.7 -9.41394Z" stroke="white" stroke-opacity="0.54" stroke-width="1.2494"/>
<path d="M163.634 -14.2169C167.188 -2.7266 152.419 6.99509 140.978 1.40274C131.95 -3.01048 123.718 2.25939 116.209 -0.420222C101.581 -5.64342 109.538 -11.4557 99.5751 -18.1797C88.4964 -25.9686 87.7606 -49.899 106.297 -50.0773C122.288 -50.2441 117.574 -57.3308 130.579 -63.088C143.583 -68.8452 160.714 -60.2118 159.026 -44.196C157.305 -35.2804 158.677 -29.9227 163.634 -14.2169Z" stroke="white" stroke-opacity="0.54" stroke-width="1.2494"/>
</svg>
