<svg width="768" height="225" viewBox="0 0 768 225" fill="none" xmlns="http://www.w3.org/2000/svg">
<path d="M-82.2618 -142.769C-29.4759 -201.521 19.0225 -140.156 29.9527 -80.4573C37.669 -46.4835 80.239 -48.1876 89.7748 -6.08586C99.3107 36.0159 34.1397 19.9575 47.6612 85.0631C61.1827 150.169 -44.5558 181.869 -74.8644 136.806C-105.173 91.7436 -112.163 113.935 -175.836 90.2376C-239.509 66.5406 -241.053 -41.0844 -178.329 -54.2428C-115.604 -67.4012 -139.403 -79.1695 -82.2618 -142.769Z" stroke="#075AAA" stroke-width="2"/>
<path d="M-80.7591 -131.119C-32.3355 -185.071 13.2062 -128.989 23.2081 -73.7735C30.2828 -42.024 69.6362 -43.0726 78.4249 -4.26769C87.409 35.4034 27.6782 20.5271 39.8072 80.5332C51.9007 140.717 -45.5914 170.825 -74.0526 128.441C-102.353 86.3093 -109.05 107.194 -167.745 84.9393C-226.44 62.6841 -228.05 -36.4206 -169.903 -49.1029C-112.459 -61.3355 -133.433 -72.4 -80.7591 -131.119Z" stroke="#075AAA" stroke-width="2"/>
<path d="M-79.2564 -119.469C-35.1953 -168.621 7.38972 -117.822 16.4634 -67.09C22.8965 -37.5648 59.0334 -37.9579 67.0749 -2.44984C75.5073 34.7906 21.2166 21.0963 31.953 76.003C42.6185 131.265 -46.6271 159.781 -73.2409 120.076C-99.5322 80.8746 -105.937 100.454 -159.653 79.6406C-213.37 58.8272 -215.047 -31.7571 -161.478 -43.9633C-109.313 -55.2701 -127.462 -65.6309 -79.2564 -119.469Z" stroke="#075AAA" stroke-width="2"/>
<path d="M-77.754 -107.819C-38.0553 -152.171 1.57305 -106.654 9.71844 -60.4059C15.51 -33.105 48.4303 -32.8425 55.7246 -0.631306C63.6054 34.1784 14.7548 21.6662 24.0986 71.4734C33.3362 121.814 -47.6631 148.738 -72.4293 111.711C-96.712 75.4405 -102.824 93.7141 -151.562 74.3425C-200.3 54.971 -202.044 -27.0929 -153.052 -38.8231C-106.168 -49.2041 -121.492 -58.861 -77.754 -107.819Z" stroke="#075AAA" stroke-width="2"/>
<path d="M-76.2499 -96.1682C-40.9137 -135.72 -4.24194 -95.4864 2.97519 -53.7215C8.12511 -28.6449 37.8289 -27.7268 44.3761 1.1875C51.7051 33.5666 8.29474 22.2365 16.246 66.9442C24.0555 112.363 -48.6973 137.694 -71.6161 103.347C-93.8902 70.0068 -99.7098 86.9746 -143.47 69.0448C-187.229 51.1151 -189.039 -22.4285 -144.626 -33.6826C-103.021 -43.1378 -115.52 -52.0909 -76.2499 -96.1682Z" stroke="#075AAA" stroke-width="2"/>
<path d="M-74.9618 -84.3798C-43.9879 -119.132 -10.2729 -84.1809 -3.984 -46.8994C0.52432 -24.0471 27.0116 -22.4734 32.8116 3.14398C39.5889 33.0923 1.61868 22.9443 8.17732 62.5526C14.5588 103.049 -49.9475 126.789 -71.0189 95.1206C-91.2843 64.7107 -96.8114 80.3727 -135.593 63.8848C-174.374 47.3968 -176.251 -17.6264 -136.415 -28.4044C-100.09 -36.9338 -109.763 -45.1831 -74.9618 -84.3798Z" stroke="#075AAA" stroke-width="2"/>
<path d="M-73.9267 -72.4297C-47.3152 -102.382 -16.5568 -72.7137 -11.1962 -39.9155C-7.32949 -19.2876 15.9412 -17.0583 20.994 5.26219C27.2196 32.7799 -5.3104 23.814 -0.144332 58.3227C4.80919 93.8974 -51.4507 116.045 -70.6746 87.0557C-88.9314 59.5764 -94.1661 73.9325 -127.969 58.8864C-161.772 43.8403 -163.715 -12.6625 -128.457 -22.9644C-97.4116 -30.5681 -104.26 -38.1136 -73.9267 -72.4297Z" stroke="#075AAA" stroke-width="2"/>
<path d="M-72.9056 -60.4703C-50.6565 -85.6222 -22.8549 -61.2372 -18.4225 -32.9224C-15.1974 -14.5187 4.85678 -11.6339 9.16244 7.38974C14.8364 32.4767 -12.2535 24.6929 -8.48006 54.1022C-4.95454 84.755 -52.968 105.311 -70.3445 79.0001C-86.5926 54.4513 -91.5347 67.5017 -120.359 53.8974C-149.184 40.2932 -151.194 -7.68934 -120.513 -17.5152C-94.7476 -24.1931 -98.7712 -31.0347 -72.9056 -60.4703Z" stroke="#075AAA" stroke-width="2"/>
<path d="M-71.9046 -48.498C-54.0179 -68.8499 -29.1729 -49.7478 -25.6688 -25.9164C-23.0853 -9.73706 -6.24767 -6.19663 -2.68918 9.53012C2.43303 32.1864 -19.2167 25.5847 -16.8358 49.8945C-14.7383 75.6255 -54.5053 94.5892 -70.0343 70.9573C-84.2738 49.3392 -88.9235 61.0837 -112.769 48.9213C-136.615 36.7588 -138.692 -2.70331 -112.589 -12.0531C-92.1036 -17.8052 -93.3021 -23.943 -71.9046 -48.498Z" stroke="#075AAA" stroke-width="2"/>
<path d="M-70.931 -36.5055C-57.4068 -52.0575 -35.5185 -38.2382 -32.9426 -18.8901C-31.0007 -4.93512 -17.3796 -0.739122 -14.5683 11.6907C-9.99779 31.9164 -26.2074 26.4967 -25.2191 45.707C-24.5495 66.5162 -56.0701 83.8879 -69.7517 62.9348C-81.9826 44.2472 -86.3397 54.686 -105.207 43.9654C-124.075 33.2447 -126.218 2.30296 -104.692 -6.57074C-89.4871 -11.3971 -87.8606 -16.8311 -70.931 -36.5055Z" stroke="#075AAA" stroke-width="2"/>
<path d="M836.38 -170.334C909.758 -199.554 925.983 -123.039 909.281 -64.6915C901.117 -30.8225 940.021 -13.4558 929.88 28.5044C919.74 70.4646 868.466 27.1496 851.687 91.4928C834.908 155.836 726.085 137.313 718.926 83.48C711.766 29.647 695.653 46.4304 649.112 -3.06488C602.571 -52.5602 648.955 -149.689 711.003 -133.642C773.051 -117.594 756.948 -138.703 836.38 -170.334Z" stroke="#075AAA" stroke-width="2"/>
<path d="M790.277 -47.6974C797.22 -50.901 810.091 -40.8953 806.128 -31.2732C802.499 -22.4621 806.496 -14.3368 805.086 -8.52248C801.374 6.7844 797.955 1.68106 792.345 8.95872C785.519 17.8147 765.755 23.8586 763.728 5.45102C762.06 -9.68837 755.206 -4.34858 750.7 -15.3262C746.193 -26.3039 750.323 -39.7711 764.924 -41.3794C770.407 -41.9833 778.714 -42.3618 790.277 -47.6974Z" stroke="#075AAA" stroke-width="2"/>
<path d="M832.556 -159.227C899.894 -186.082 915.814 -115.614 900.27 -61.6956C892.519 -30.1045 928.249 -13.578 918.902 25.0962C909.346 64.6333 862.423 24.7922 846.659 83.9476C830.785 143.246 730.058 126.957 723.365 76.3443C716.705 26.0289 701.434 41.772 658.714 -4.22165C615.994 -50.2153 658.537 -139.739 716.272 -125.296C773.178 -110.763 759.293 -129.987 832.556 -159.227Z" stroke="#075AAA" stroke-width="2"/>
<path d="M828.733 -148.12C890.032 -172.61 905.646 -108.188 891.261 -58.6996C883.922 -29.3865 916.479 -13.7001 907.926 21.6881C898.954 58.8022 856.381 22.4348 841.633 76.4025C826.663 130.657 734.033 116.601 727.806 69.2088C721.645 22.411 707.216 37.1137 668.318 -5.37834C629.419 -47.8704 668.12 -129.788 721.542 -116.951C773.305 -103.931 761.64 -121.27 828.733 -148.12Z" stroke="#075AAA" stroke-width="2"/>
<path d="M824.908 -137.014C880.167 -159.138 895.477 -100.762 882.25 -55.7035C875.323 -28.6684 904.706 -13.8221 896.947 18.2801C888.559 52.9712 850.337 20.0776 836.604 68.8575C822.54 118.068 738.006 106.245 732.246 62.0733C726.584 18.7931 712.996 32.4555 677.919 -6.53494C642.842 -45.5254 677.702 -119.838 726.81 -108.605C773.431 -97.0991 763.985 -112.554 824.908 -137.014Z" stroke="#075AAA" stroke-width="2"/>
<path d="M821.084 -125.907C870.304 -145.666 885.309 -93.3365 873.24 -52.7073C866.725 -27.9502 892.936 -13.944 885.97 14.8722C878.166 47.1403 844.294 17.7205 831.577 61.3126C818.417 105.479 741.98 95.889 736.686 54.938C731.524 15.1754 718.778 27.7975 687.522 -7.69141C656.266 -43.1803 687.285 -109.887 732.079 -100.26C773.558 -90.2672 766.332 -103.838 821.084 -125.907Z" stroke="#075AAA" stroke-width="2"/>
<path d="M817.006 -114.771C860.186 -132.165 874.887 -85.8818 863.975 -49.6821C857.873 -27.203 880.91 -14.037 874.738 11.4932C867.519 41.3383 837.997 15.3923 826.295 53.7966C814.04 92.9183 745.699 85.5621 740.872 47.8316C736.209 11.5866 724.305 23.1683 696.87 -8.81895C669.436 -40.8062 696.613 -99.9073 737.094 -91.8851C773.431 -83.4064 768.424 -95.0921 817.006 -114.771Z" stroke="#075AAA" stroke-width="2"/>
<path d="M812.632 -103.603C849.772 -118.632 864.167 -78.3949 854.414 -46.6249C848.724 -26.4238 868.588 -14.0979 863.209 8.14639C856.575 35.5684 831.404 13.0962 820.717 46.3127C809.367 80.3901 749.122 75.2673 744.761 40.7572C740.597 8.02983 729.535 18.5713 705.922 -9.91439C682.308 -38.4 705.645 -89.8955 741.812 -83.4783C773.007 -76.5134 770.219 -86.3146 812.632 -103.603Z" stroke="#075AAA" stroke-width="2"/>
<path d="M808.238 -92.4322C839.339 -105.096 853.429 -70.9055 844.834 -43.565C839.556 -25.6419 856.247 -14.1561 851.662 4.80214C845.612 29.8011 824.791 10.8027 815.12 38.8314C804.674 67.8645 752.526 64.9751 748.632 33.6855C744.967 4.47571 734.746 13.9768 714.955 -11.0072C695.163 -35.9913 714.657 -79.8811 746.512 -75.069C772.564 -69.6179 771.995 -77.5345 808.238 -92.4322Z" stroke="#075AAA" stroke-width="2"/>
<path d="M803.822 -81.259C828.884 -91.558 842.67 -63.4135 835.233 -40.5026C830.367 -24.8575 843.884 -14.2118 840.093 1.46045C834.627 24.0364 818.157 8.51173 809.501 31.3527C799.96 55.3416 755.908 54.6854 752.481 26.6164C749.315 0.924162 739.936 9.38493 723.965 -12.0975C707.995 -33.58 723.648 -69.8641 751.19 -66.6571C772.1 -62.7198 773.75 -68.7519 803.822 -81.259Z" stroke="#075AAA" stroke-width="2"/>
<path d="M799.37 -70.0812C818.392 -78.0151 831.873 -55.9168 825.594 -37.4355C821.14 -24.0684 831.484 -14.2629 828.486 -1.8766C823.605 18.2763 811.485 6.22543 803.845 23.8786C795.209 42.8232 759.253 44.4004 756.292 19.5518C753.626 -2.62276 745.089 4.7977 732.939 -13.1832C720.79 -31.164 732.602 -59.8425 755.83 -58.2406C771.598 -55.817 775.467 -59.9646 799.37 -70.0812Z" stroke="#075AAA" stroke-width="2"/>
<path d="M794.866 -58.896C807.848 -64.4647 821.024 -48.4127 815.903 -34.361C811.862 -23.2719 819.032 -14.3065 816.829 -5.20619C812.532 12.5237 804.762 3.9466 798.137 16.412C790.406 30.3123 762.546 34.1229 760.052 12.4948C757.886 -6.16222 750.19 0.217905 741.862 -14.2613C733.534 -28.7406 741.505 -49.8135 760.419 -49.8166C771.044 -48.9068 777.133 -51.1698 794.866 -58.896Z" stroke="#075AAA" stroke-width="2"/>
</svg>
