<svg width="1920" height="461" viewBox="0 0 1920 461" fill="none" xmlns="http://www.w3.org/2000/svg">
<path d="M1665.61 -20.0409C1705.92 -176.402 1851.78 -110.854 1927.93 -12.8859C1973.97 41.4552 2049.58 -1.79668 2106.59 65.5701C2163.61 132.937 2030.25 165.293 2116.2 270.624C2202.14 375.954 2040.27 533.206 1942.78 480.066C1845.29 426.926 1853.55 473.77 1715.71 490.859C1577.86 507.948 1473.53 314.197 1574.88 231.156C1676.24 148.115 1621.97 149.222 1665.61 -20.0409Z" stroke="#005DB4" stroke-width="3"/>
<path d="M1812.38 204.024C1815.47 188.701 1847.51 179.531 1858.61 197.682C1868.78 214.303 1887.01 217.51 1894.9 226.853C1915.69 251.449 1903.14 250.935 1908.38 268.975C1914.76 290.926 1900.89 330.837 1868.06 311.972C1841.06 296.456 1841.61 314.211 1818.05 308.403C1794.49 302.596 1777.25 279.53 1792.22 253.492C1797.83 243.714 1807.23 229.546 1812.38 204.024Z" stroke="#005DB4" stroke-width="3"/>
<path d="M1679.33 -0.328585C1716.26 -143.868 1851.77 -85.1122 1922 5.59941C1964.78 56.5114 2035.17 17.4831 2087.72 79.575C2141.44 143.054 2019.07 172.422 2097.68 269.817C2176.39 367.567 2027.97 514.151 1936.36 464.127C1845.29 414.408 1852.84 458.607 1725.39 473.615C1597.93 488.622 1501.51 310.388 1595.01 232.529C1687.67 156.148 1639.19 155.867 1679.33 -0.328585Z" stroke="#005DB4" stroke-width="3"/>
<path d="M1693.04 19.3842C1726.59 -111.333 1851.75 -59.3704 1916.07 24.0851C1955.59 71.568 2020.77 36.7633 2068.85 93.5803C2119.28 153.171 2007.89 179.551 2079.16 269.01C2150.64 359.181 2015.67 495.097 1929.94 448.189C1845.27 401.89 1852.13 443.445 1735.06 456.371C1618 469.297 1529.5 306.58 1615.15 233.903C1699.09 164.182 1656.4 162.512 1693.04 19.3842Z" stroke="#005DB4" stroke-width="3"/>
<path d="M1706.76 39.0978C1736.92 -78.7982 1851.74 -33.6278 1910.15 42.5716C1946.41 86.6254 2006.36 56.0443 2049.98 107.586C2097.12 163.288 1996.71 186.68 2060.64 268.204C2124.89 350.795 2003.38 476.044 1923.53 432.252C1845.26 389.373 1851.42 428.284 1744.74 439.128C1638.07 449.973 1557.48 302.772 1635.28 235.278C1710.52 172.217 1673.62 169.158 1706.76 39.0978Z" stroke="#005DB4" stroke-width="3"/>
<path d="M1720.48 58.8118C1747.25 -46.2625 1851.73 -7.88463 1904.22 61.0587C1937.21 101.683 1991.96 75.3258 2031.11 121.593C2074.95 173.407 1985.52 193.81 2042.12 267.399C2099.14 342.41 1991.08 456.992 1917.11 416.315C1845.25 376.857 1850.7 413.123 1754.42 421.886C1658.13 430.649 1585.47 298.965 1655.41 236.653C1721.95 180.253 1690.83 175.805 1720.48 58.8118Z" stroke="#005DB4" stroke-width="3"/>
<path d="M1733.93 78.9766C1757.33 -13.2762 1851.45 18.3092 1898.03 79.9964C1927.77 117.192 1977.29 95.058 2011.98 136.05C2052.53 183.976 1974.08 201.391 2023.35 267.044C2073.13 334.475 1978.52 438.39 1910.43 400.829C1844.98 364.791 1849.73 398.413 1763.84 405.094C1677.94 411.776 1613.2 295.609 1675.28 238.478C1733.12 188.739 1707.79 182.903 1733.93 78.9766Z" stroke="#005DB4" stroke-width="3"/>
<path d="M1747.09 99.6746C1767.1 20.2433 1850.87 45.0362 1891.54 99.4673C1918.01 133.234 1962.32 115.323 1992.54 151.041C2029.8 195.078 1962.34 209.505 2004.26 267.223C2046.81 327.074 1965.66 420.321 1903.44 385.876C1844.41 353.259 1848.46 384.236 1772.95 388.836C1697.44 393.436 1640.61 292.786 1694.85 240.837C1743.98 197.758 1724.44 190.533 1747.09 99.6746Z" stroke="#005DB4" stroke-width="3"/>
<path d="M1760.22 120.402C1776.85 53.7925 1850.28 71.7929 1885.03 118.968C1908.24 149.305 1947.34 135.618 1973.09 166.061C2007.05 206.21 1950.57 217.649 1985.16 267.431C2020.48 319.702 1952.78 402.282 1896.44 370.953C1843.81 341.756 1847.16 370.089 1782.05 372.607C1716.93 375.125 1668.02 289.992 1714.4 243.226C1754.83 206.807 1741.08 198.193 1760.22 120.402Z" stroke="#005DB4" stroke-width="3"/>
<path d="M1773.33 141.174C1786.57 87.3858 1849.66 98.5936 1878.5 138.513C1898.45 165.421 1932.33 155.958 1953.62 181.125C1984.28 217.386 1938.79 225.837 1966.04 267.683C1994.12 312.374 1939.88 384.287 1889.42 356.074C1843.2 330.297 1845.84 355.986 1791.12 356.422C1736.39 356.859 1695.4 287.243 1733.92 245.659C1765.65 215.9 1757.69 205.898 1773.33 141.174Z" stroke="#005DB4" stroke-width="3"/>
<path d="M1786.41 162.008C1796.27 121.042 1849 125.457 1871.93 158.12C1888.62 181.599 1917.28 176.359 1934.11 196.252C1961.48 228.625 1926.96 234.087 1946.88 267.998C1967.73 305.109 1926.94 366.354 1882.36 341.258C1842.55 318.901 1844.49 341.945 1800.16 340.3C1755.82 338.656 1722.74 284.556 1753.41 248.154C1776.44 225.055 1774.26 213.665 1786.41 162.008Z" stroke="#005DB4" stroke-width="3"/>
<path d="M1799.43 182.94C1805.91 154.795 1848.3 152.417 1865.31 177.824C1878.73 197.874 1902.18 196.858 1914.54 211.476C1938.62 239.961 1915.09 242.435 1927.67 268.41C1941.28 297.941 1913.95 348.519 1875.25 326.538C1841.84 307.602 1843.09 328.002 1809.14 324.276C1775.2 320.549 1750.04 281.967 1772.85 250.746C1787.18 234.308 1790.79 221.529 1799.43 182.94Z" stroke="#005DB4" stroke-width="3"/>
<path d="M-84.3909 -45.0409C-44.0761 -201.402 101.781 -135.854 177.926 -37.8859C223.973 16.4552 299.577 -26.7967 356.592 40.5701C413.607 107.937 280.252 140.293 366.199 245.624C452.145 350.954 290.266 508.206 192.78 455.066C95.2949 401.926 103.552 448.77 -34.2925 465.859C-172.137 482.948 -276.472 289.197 -175.118 206.156C-73.7638 123.115 -128.032 124.222 -84.3909 -45.0409Z" stroke="#005DB4" stroke-width="3"/>
<path d="M62.3804 179.024C65.4702 163.701 97.5146 154.531 108.613 172.682C118.776 189.303 137.009 192.51 144.904 201.853C165.687 226.449 153.138 225.935 158.381 243.975C164.76 265.926 150.888 305.837 118.062 286.972C91.0633 271.456 91.6058 289.211 68.0503 283.403C44.4948 277.596 27.2515 254.53 42.2152 228.492C47.8345 218.714 57.2343 204.546 62.3804 179.024Z" stroke="#005DB4" stroke-width="3"/>
<path d="M-70.673 -25.3286C-33.7423 -168.868 101.768 -110.112 172 -19.4006C214.785 31.5114 285.173 -7.51691 337.723 54.575C391.444 118.054 269.072 147.422 347.681 244.817C426.394 342.567 277.97 489.151 186.363 439.127C95.2853 389.408 102.841 433.607 -24.6135 448.615C-152.068 463.622 -248.486 285.388 -154.985 207.529C-62.3343 131.148 -110.815 130.867 -70.673 -25.3286Z" stroke="#005DB4" stroke-width="3"/>
<path d="M-56.9572 -5.61581C-23.4105 -136.333 101.753 -84.3704 166.072 -0.914874C205.594 46.568 270.767 11.7633 318.851 68.5803C369.279 128.171 257.889 154.551 329.162 244.01C400.641 334.181 265.672 470.097 179.943 423.189C95.2736 376.89 102.128 418.445 -14.9367 431.371C-132.002 444.297 -220.502 281.58 -134.855 208.903C-50.907 139.182 -93.5995 137.512 -56.9572 -5.61581Z" stroke="#005DB4" stroke-width="3"/>
<path d="M-43.2396 14.0978C-13.077 -103.798 101.74 -58.6278 160.145 17.5716C196.406 61.6254 256.363 31.0443 299.982 82.5864C347.116 138.288 246.708 161.68 310.644 243.204C374.89 325.795 253.376 451.044 173.525 407.252C95.2636 364.373 101.417 403.284 -5.25805 414.128C-111.933 424.973 -192.516 277.772 -114.722 210.278C-39.4778 147.217 -76.3823 144.158 -43.2396 14.0978Z" stroke="#005DB4" stroke-width="3"/>
<path d="M-29.5241 33.8118C-2.74571 -71.2625 101.725 -32.8846 154.217 36.0587C187.215 76.6834 241.957 50.3258 281.11 96.593C324.95 148.407 235.525 168.81 292.124 242.399C349.137 317.41 241.078 431.992 167.105 391.315C95.2515 351.857 100.704 388.123 4.41841 396.886C-91.8667 405.649 -164.532 273.965 -94.5923 211.653C-28.0509 155.253 -59.1673 150.805 -29.5241 33.8118Z" stroke="#005DB4" stroke-width="3"/>
<path d="M-16.0655 53.9766C7.32885 -38.2762 101.453 -6.69083 148.031 54.9964C177.767 92.192 227.294 70.058 261.981 111.05C302.527 158.976 224.084 176.391 273.347 242.044C323.127 309.475 228.523 413.39 160.428 375.829C94.9826 339.791 99.7333 373.413 13.8381 380.094C-72.0571 386.776 -136.805 270.609 -74.719 213.478C-16.8807 163.739 -42.2091 157.903 -16.0655 53.9766Z" stroke="#005DB4" stroke-width="3"/>
<path d="M-2.91468 74.6746C17.0956 -4.75667 100.873 20.0362 141.538 74.4673C168.012 108.234 212.323 90.3234 242.545 126.041C279.797 170.078 212.337 184.505 254.263 242.223C296.809 302.074 215.661 395.321 153.444 360.876C94.4059 328.259 98.4552 359.236 22.95 363.836C-52.5553 368.436 -109.386 267.786 -55.1535 215.837C-6.01832 172.758 -25.5587 165.533 -2.91468 74.6746Z" stroke="#005DB4" stroke-width="3"/>
<path d="M10.2214 95.4025C26.8475 28.7928 100.278 46.7931 135.03 93.9682C158.242 124.306 197.337 110.619 223.094 141.061C257.052 181.21 200.574 192.649 235.163 242.431C270.476 294.702 202.783 377.282 146.444 345.953C93.8144 316.756 97.1623 345.089 32.0471 347.607C-33.0682 350.126 -81.9811 264.993 -35.6027 218.226C4.82928 181.807 -8.92306 173.194 10.2214 95.4025Z" stroke="#005DB4" stroke-width="3"/>
<path d="M23.3317 116.174C36.5738 62.3858 99.658 73.5936 128.497 113.513C148.446 140.421 182.326 130.958 203.617 156.125C234.282 192.386 188.786 200.837 216.038 242.683C244.118 287.374 189.88 359.287 139.419 331.074C93.1972 305.297 95.8438 330.986 41.1184 331.422C-13.6069 331.859 -54.6024 262.243 -16.0776 220.659C15.6512 190.9 7.68686 180.898 23.3317 116.174Z" stroke="#005DB4" stroke-width="3"/>
<path d="M36.4093 137.008C46.2672 96.0417 99.0049 100.457 121.93 133.12C138.618 156.599 167.282 151.359 184.107 171.252C211.478 203.625 176.965 209.087 196.88 242.998C217.726 280.109 176.944 341.354 132.361 316.258C92.5472 293.901 94.4924 316.945 50.157 315.3C5.82163 313.656 -27.2565 259.556 3.41462 223.154C26.4403 200.055 24.264 188.665 36.4093 137.008Z" stroke="#005DB4" stroke-width="3"/>
<path d="M49.4328 157.94C55.9067 129.795 98.2976 127.417 115.31 152.824C128.735 172.874 152.183 171.858 164.543 186.476C188.62 214.961 165.089 217.435 177.668 243.41C191.281 272.941 163.954 323.519 125.249 301.538C91.8432 282.602 93.087 303.002 59.1416 299.276C25.1961 295.549 0.0354248 256.967 22.8528 225.746C37.1753 209.308 40.787 196.529 49.4328 157.94Z" stroke="#005DB4" stroke-width="3"/>
</svg>
