<svg width="768" height="259" viewBox="0 0 768 259" fill="none" xmlns="http://www.w3.org/2000/svg">
<path d="M982.899 90.0272C1004.27 99.8165 1054.53 74.7028 1022.45 47.3121C1017.19 42.8209 1010.07 33.6281 1002.86 21.3376C996.257 10.0788 1015.54 -13.3519 1012.68 -32.1807C1008.2 -61.7097 954.777 -44.3503 953.207 -60.4661C951.152 -81.5737 973.486 -108.249 982.494 -127.439C990.975 -145.505 990.948 -164.209 985.14 -179.079C974.949 -205.166 946.963 -219.45 915.893 -197.777C900.34 -186.928 884.013 -167.068 868.76 -135.167C861.941 -120.904 855.675 -108.662 849.816 -98.1666C834.736 -71.1524 823.026 -99.3169 795.502 -79.9134C779.819 -68.8574 779.182 -36.4372 758.885 -38.1658C744.454 -39.3949 727.509 -41.3135 706.137 -40.3057C668.605 -38.5359 635.751 -17.6645 649.579 9.78195C656.106 22.7383 673.036 37.1598 704.786 51.7287C725.104 61.0519 703.621 76.3861 716.379 98.3492C729.136 120.312 755.986 114.628 747.903 133.796L747.741 134.18C741.58 148.79 735.009 164.373 738.442 182.192C741.399 197.542 750.295 208.245 761.697 213.025C773.899 218.141 788.972 216.473 802.707 206.458C816.488 196.409 828.922 177.957 835.759 149.521C840.267 130.773 865.485 147.466 885.025 129.077C904.565 110.689 890.959 86.493 908.521 83.2418C939.027 77.5941 957.869 78.5623 982.899 90.0272Z" stroke="#A6F400" stroke-width="2"/>
<path d="M1009.65 45.6807C1038.69 70.7411 992.749 93.6815 973.156 84.7076C949.189 73.7474 931.583 73.4178 903.387 79.2791C887.349 82.3356 899.661 104.512 881.807 121.398C863.952 138.284 840.923 123.246 836.726 140.373C830.314 166.384 818.792 183.196 806.083 192.268C793.508 201.348 779.701 202.787 768.572 198.005C758.17 193.529 750.114 183.616 747.604 169.424C745.228 152.096 749.35 137.087 754.669 123.344C761.907 105.78 737.543 110.786 726.096 90.6637C714.65 70.5416 734.45 56.4777 716.224 47.9835C687.632 34.7151 672.463 21.621 666.725 9.85014C654.284 -15.124 684.406 -34.1594 718.793 -35.8962C738.475 -36.9392 754.138 -35.4004 767.438 -34.6081C785.986 -33.1813 786.653 -62.8479 801.017 -73.1051C826.166 -90.9807 836.929 -65.535 850.76 -90.2568C856.2 -99.9491 862.012 -111.193 868.325 -124.246C882.634 -153.571 897.877 -171.443 912.17 -180.953C940.48 -200.57 965.963 -187.458 975.23 -163.601C980.51 -149.951 980.504 -132.806 972.729 -116.244C964.205 -98.085 943.728 -73.4524 945.964 -53.6676C947.487 -38.8547 996.266 -54.5214 1000.51 -27.525C1003.27 -10.2641 985.891 11.1853 991.989 21.5825C998.626 32.8996 1005.01 41.4543 1009.65 45.6807Z" stroke="#A6F400" stroke-width="2"/>
<path d="M996.291 43.9963C1022.2 66.6355 980.666 87.3826 962.902 79.2649C940.059 68.8611 923.726 69.1861 897.895 75.2701C883.412 78.1376 894.385 98.2256 878.239 113.581C862.092 128.936 841.314 115.611 837.421 131.076C831.426 154.599 820.825 169.737 809.209 177.821C797.811 185.952 785.299 187.17 775.27 182.746C765.895 178.595 758.704 169.505 756.659 156.511C755.392 139.878 756.925 125.596 761.357 112.865C767.75 96.9455 745.92 101.28 735.826 83.0621C725.731 64.8438 743.82 52.0697 727.731 44.4423C702.37 32.5339 689.006 20.8144 684.078 10.2645C673.072 -12.1612 700.415 -29.3371 731.585 -31.0665C749.538 -32.1593 763.883 -31.0179 776.023 -30.676C792.782 -29.5707 793.504 -56.4066 806.528 -65.8504C829.264 -82.1732 839.035 -59.5223 851.609 -81.8987C856.629 -90.767 861.984 -100.99 867.788 -112.803C881.149 -139.488 895.29 -155.338 908.3 -163.498C933.807 -181.032 956.722 -169.149 965.024 -147.594C969.752 -135.203 969.699 -119.662 962.632 -104.64C954.594 -87.5538 935.995 -65.011 938.389 -46.6039C939.848 -33.1342 983.889 -47.11 987.86 -22.7211C990.511 -7.07604 975.05 12.3507 980.62 21.8533C986.662 32.1614 992.293 40.0499 996.291 43.9963Z" stroke="#A6F400" stroke-width="2"/>
<path d="M983.49 42.3628C1006.36 62.6725 969.148 81.2442 953.163 73.9416C931.382 64.0432 916.285 65.0072 892.766 71.3048C879.807 73.9769 889.485 92.0453 875.026 105.897C860.566 119.75 841.977 108.078 838.395 121.922C832.826 143.02 823.138 156.517 812.596 163.623C802.357 170.818 791.113 171.807 782.157 167.717C773.783 163.87 767.432 155.57 765.833 143.733C765.656 127.747 764.591 114.157 768.134 102.405C773.682 88.0916 754.34 91.7462 745.556 75.3688C736.772 58.9915 753.178 47.4883 739.182 40.6891C716.98 30.0802 705.378 19.6876 701.239 10.323C691.619 -9.63044 716.23 -24.9689 744.252 -26.6643C760.516 -27.7921 773.578 -27.0303 784.587 -27.1253C799.597 -26.3213 800.348 -50.403 812.052 -59.0473C832.411 -73.8411 841.236 -53.9097 852.56 -73.9927C857.161 -82.0572 862.062 -91.2824 867.359 -101.884C879.775 -125.993 892.832 -139.855 904.579 -146.674C927.324 -162.15 947.735 -151.44 955.114 -132.115C959.313 -120.944 959.229 -106.962 952.867 -93.4443C945.314 -77.3894 928.573 -56.8904 931.148 -39.8068C932.561 -27.6403 971.95 -39.9213 975.683 -18.0658C978.243 -3.98916 964.686 13.4548 969.751 22.0957C975.222 31.4303 980.116 38.6809 983.49 42.3628Z" stroke="#A6F400" stroke-width="2"/>
<path d="M970.362 40.9776C990.177 58.9633 957.352 75.3161 943.159 68.8198C922.455 59.4134 908.612 61.0035 887.435 67.4916C876.018 69.9558 884.406 86.0007 871.661 98.3286C858.916 110.657 842.529 100.631 839.274 112.842C834.155 131.495 825.401 143.334 815.951 149.449C806.89 155.694 796.926 156.444 789.05 152.683C781.683 149.135 776.172 141.624 775.013 130.952C775.912 115.623 772.236 102.73 774.875 91.9673C779.559 79.2731 762.73 82.2285 755.253 67.6957C747.777 53.1629 762.471 42.9522 750.578 36.9743C731.553 27.6537 721.718 18.5855 718.365 10.4093C710.125 -7.06636 731.963 -20.5364 756.805 -22.1734C771.359 -23.3217 783.125 -22.9293 792.989 -23.4523C806.233 -22.9377 806.993 -44.2487 817.356 -52.0781C835.303 -65.3163 843.188 -48.1105 853.232 -65.8772C857.403 -73.129 861.836 -81.3463 866.611 -90.7255C878.047 -112.231 889.993 -124.084 900.461 -129.548C920.404 -142.937 938.297 -133.388 944.76 -116.301C948.436 -106.352 948.331 -93.9393 942.694 -81.9399C935.647 -66.9328 920.8 -48.5049 923.57 -32.7528C924.945 -21.8961 959.628 -32.4408 963.137 -13.1299C965.615 -0.628608 953.993 14.8099 958.553 22.5879C963.455 30.9475 967.614 37.5598 970.362 40.9776Z" stroke="#A6F400" stroke-width="2"/>
<path d="M956.982 39.2529C973.709 54.8674 945.279 69.0127 932.896 63.3472C913.297 54.4678 900.719 56.6954 881.898 63.3859C872.028 65.6507 879.103 79.6401 868.071 90.4395C857.038 101.239 842.876 92.8913 839.937 103.455C835.253 119.642 827.429 129.815 819.072 134.94C811.189 140.236 802.514 140.756 795.728 137.338C789.378 134.102 784.719 127.398 784.011 117.908C786 103.257 779.732 91.0831 781.478 81.3225C785.307 70.2609 771.001 72.5313 764.853 59.872C758.705 47.2128 771.686 38.2938 761.912 33.1587C746.089 25.1603 738.037 17.4402 735.481 10.4677C728.648 -4.49625 747.708 -16.1017 769.35 -17.704C782.184 -18.8864 792.643 -18.876 801.354 -19.8361C812.821 -19.6257 813.611 -38.1359 822.633 -45.1501C838.167 -56.8325 845.087 -42.385 853.861 -57.8205C857.606 -64.2533 861.576 -71.4557 865.834 -79.6037C876.304 -98.4873 887.142 -108.326 896.326 -112.439C913.467 -123.743 928.816 -115.388 934.34 -100.57C937.478 -91.8626 937.341 -81.0363 932.421 -70.5666C925.872 -56.6224 912.912 -40.2768 915.856 -25.882C917.181 -16.3521 947.14 -25.1827 950.402 -8.44766C952.782 2.45781 943.087 15.8813 947.131 22.7802C951.45 30.1477 954.864 36.1073 956.982 39.2529Z" stroke="#A6F400" stroke-width="2"/>
<path d="M944.191 37.6143C957.871 50.898 933.774 62.8631 923.172 58.0124C904.634 49.6354 893.293 52.5032 876.786 59.4079C868.443 61.4765 874.223 73.4449 864.88 82.7389C855.537 92.0329 843.567 85.3403 840.941 94.2805C836.685 108.039 829.775 116.568 822.493 120.715C815.772 125.072 808.366 125.361 802.654 122.277C797.306 119.345 793.488 113.431 793.227 105.099C796.307 91.0935 787.432 79.6084 788.286 70.8274C791.267 61.3732 779.453 62.9609 774.617 52.144C769.781 41.3272 781.076 33.6815 773.398 29.3749C760.739 22.6764 754.452 16.2843 752.685 10.4985C747.24 -1.99059 763.562 -11.7549 782.053 -13.3218C793.195 -14.5383 802.37 -14.9077 809.948 -16.3054C819.663 -16.396 820.481 -32.1491 828.181 -38.3627C841.334 -48.5136 847.307 -36.7888 854.829 -49.9277C858.154 -55.5559 861.668 -61.7594 865.419 -68.6947C874.942 -84.9986 884.693 -92.8444 892.614 -95.614C906.987 -104.856 919.83 -97.6728 924.43 -85.0875C927.04 -77.6 926.872 -68.3348 922.659 -59.3711C916.596 -46.4583 905.498 -32.1591 908.626 -19.0873C909.905 -10.8616 935.205 -17.9924 938.231 -3.79317C940.521 5.54263 932.735 16.9807 936.273 23.0175C940.021 29.4111 942.699 34.7329 944.191 37.6143Z" stroke="#A6F400" stroke-width="2"/>
<path d="M931.076 36.2201C941.702 47.1753 921.994 56.9186 913.186 52.8745C895.727 44.9812 885.647 48.4728 871.492 55.5658C864.693 57.4263 869.184 67.3681 861.558 75.1361C853.932 82.9041 844.167 77.8594 841.868 85.1638C838.064 96.474 832.09 103.342 825.901 106.495C820.359 109.901 814.234 109.95 809.602 107.195C805.262 104.563 802.283 99.4398 802.46 92.2751C806.607 78.9327 795.122 68.1295 795.069 60.3362C797.186 52.5022 787.885 53.3911 784.356 44.4223C780.827 35.4536 790.408 29.1033 784.834 25.6214C775.355 20.2158 770.836 15.1519 769.855 10.5575C765.792 0.550421 779.337 -7.34241 794.643 -8.84985C804.073 -10.0857 811.946 -10.8234 818.376 -12.6487C826.322 -13.0291 827.147 -26.0077 833.504 -31.4053C844.24 -39.9987 849.27 -31.002 855.51 -41.8216C858.403 -46.6355 861.448 -51.8293 864.675 -57.54C873.215 -71.2353 881.855 -77.0664 888.496 -78.4787C900.067 -85.6311 910.389 -79.6117 914.073 -69.2666C916.159 -63.0035 915.972 -55.309 912.486 -47.8655C906.935 -36.0039 897.736 -23.7787 901.061 -12.0368C902.302 -5.12166 922.893 -10.5142 925.694 1.13879C927.902 8.89875 922.052 18.331 925.086 23.5045C928.265 28.9225 930.208 33.6044 931.076 36.2201Z" stroke="#A6F400" stroke-width="2"/>
<path d="M918.177 34.6658C925.753 43.2835 910.342 50.8759 903.308 47.6546C886.882 40.2728 878.017 44.4262 866.147 51.764C860.864 53.4389 864.051 61.3604 858.097 67.6377C852.142 73.9151 844.563 70.5375 842.564 76.2253C839.166 85.118 834.089 90.3524 828.963 92.5342C824.57 95.0096 819.706 94.8339 816.147 92.4153C812.806 90.0885 810.671 85.7544 811.307 79.7422C816.577 67.0207 802.455 56.9036 801.515 50.0813C802.794 43.8471 795.974 44.0625 793.766 36.935C791.559 29.8075 799.475 24.7149 796 22.0671C789.685 17.9709 786.935 14.2393 786.752 10.8314C784.086 3.3003 794.922 -2.77156 807.097 -4.26459C814.851 -5.54832 821.453 -6.6786 826.762 -8.95483C832.966 -9.64837 833.837 -19.8785 838.886 -24.4882C847.266 -31.5699 851.345 -25.3012 856.353 -33.8381L856.496 -34.0686C858.937 -38.0156 861.49 -42.1433 864.168 -46.5623C871.793 -57.6979 879.37 -61.5457 884.759 -61.6177C893.585 -66.7235 901.404 -61.8843 904.156 -53.7705C905.708 -48.7257 905.48 -42.5871 902.688 -36.6406C897.599 -25.7887 890.234 -15.5885 893.738 -5.15988C894.928 0.454602 910.892 -3.2635 913.448 5.85696C915.561 12.0497 911.604 19.5095 914.131 23.8217C916.736 28.2662 917.939 32.3124 918.177 34.6658Z" stroke="#A6F400" stroke-width="2"/>
<path d="M147.492 19.8935C170.902 22.0253 209.962 -18.3619 170.605 -33.5372C164.151 -36.0255 154.38 -42.3295 143.496 -51.5263C133.527 -59.9511 143.93 -88.4583 134.979 -105.268C120.941 -131.63 76.3174 -97.5046 69.4825 -112.183C60.5305 -131.409 72.7317 -163.989 74.8516 -185.083C76.8472 -204.94 70.6072 -222.572 60.1878 -234.667C41.9083 -255.885 10.7656 -260.059 -11.3374 -229.293C-22.4021 -213.892 -31.2014 -189.736 -34.9878 -154.58C-36.6807 -138.861 -38.5233 -125.233 -40.5617 -113.387C-45.808 -82.8969 -66.2116 -105.57 -85.7242 -78.1233C-96.8424 -62.4844 -86.6708 -31.6946 -106.388 -26.5808C-120.409 -22.9447 -137.028 -19.1239 -156.851 -11.072C-191.663 3.06858 -215.714 33.6705 -193.552 54.9629C-183.091 65.0142 -162.331 72.9909 -127.544 76.1821C-105.282 78.2243 -120.449 99.8254 -101.119 116.302C-81.7884 132.778 -58.3531 118.495 -59.6073 139.26L-59.6324 139.676C-60.589 155.503 -61.6093 172.383 -52.45 188.05C-44.5602 201.545 -32.6134 208.684 -20.2712 209.404C-7.06224 210.174 6.59965 203.593 16.2262 189.583C25.8853 175.526 31.4818 153.99 28.4818 124.899C26.5038 105.718 55.8359 113.082 68.1554 89.2463C80.475 65.4102 59.6022 47.1098 75.0857 38.2079C101.982 22.7445 120.076 17.3967 147.492 19.8935Z" stroke="#A6F400" stroke-width="2"/>
<path d="M23.6905 2.39748C27.2761 2.73714 30.9611 -4.32336 28.3153 -6.56017C25.3028 -9.107 19.51 -9.61209 16.4152 -12.0518C10.4398 -16.7623 10.722 -21.0916 11.535 -29.5453C11.8284 -32.5741 10.8621 -35.2685 9.25942 -37.1205C6.44764 -40.3695 1.67682 -41.0254 -1.6885 -36.3444C-3.37316 -34.0011 -4.70561 -30.3204 -5.26378 -24.9581C-5.51334 -22.5606 -5.7871 -20.4822 -6.09193 -18.6758C-7.20261 -10.6687 -13.2384 -6.53581 -16.1174 -5.47027C-18.2618 -4.92402 -20.8041 -4.35118 -23.8342 -3.13468C-29.1555 -0.998283 -32.7547 5.19608 -29.413 6.91924C-24.6922 9.35361 -1.27063 9.69986 -5.73032 22.6351C-7.8019 28.6437 -4.67746 30.4746 -2.78729 30.592C-0.764407 30.7177 1.32333 29.7218 2.78866 27.5899C4.25893 25.4508 4.11282 20.194 4.62542 17.7271C6.51774 8.62031 9.28794 1.21233 23.6905 2.39748Z" stroke="#A6F400" stroke-width="2"/>
<path d="M157.988 -30.8221C193.701 -16.8337 157.997 20.067 136.536 18.1132C110.289 15.7395 93.5737 21.2788 68.928 36.1759C54.8167 44.3878 73.7981 61.2133 62.5689 83.0726C51.3398 104.932 24.622 98.4002 26.3543 115.949C28.9498 142.612 23.6682 162.298 14.6967 175.077C5.85225 187.819 -6.69125 193.764 -18.7774 192.953C-30.075 192.187 -40.9676 185.514 -48.051 172.963C-56.0493 157.409 -57.149 141.882 -56.6985 127.153C-55.7078 108.182 -77.0239 120.999 -94.5066 105.824C-111.989 90.6485 -97.9868 70.8043 -118 68.849C-149.376 65.835 -168.034 58.525 -177.358 49.3298C-197.39 29.9086 -175.304 1.9458 -143.449 -11.1183C-125.231 -18.6423 -109.947 -22.3951 -97.1393 -26.0673C-79.1712 -30.8846 -88.3994 -59.0873 -78.2599 -73.5345C-60.4797 -98.7509 -41.8729 -78.3274 -37.0427 -106.24C-35.1317 -117.19 -33.3861 -129.726 -31.7689 -144.135C-28.017 -176.548 -19.5791 -198.469 -9.25842 -212.188C10.9247 -240.097 39.3171 -236.198 55.9841 -216.776C65.4999 -205.656 71.1916 -189.483 69.3616 -171.278C67.3559 -151.319 56.2271 -121.282 64.9103 -103.364C71.2681 -89.899 112.07 -120.884 125.041 -96.8308C133.384 -81.4693 124.117 -55.463 133.324 -47.6829C143.345 -39.2144 152.211 -33.2679 157.988 -30.8221Z" stroke="#A6F400" stroke-width="2"/>
<path d="M144.828 -27.9721C176.789 -15.2287 144.508 18.141 125.055 16.3872C100.053 14.1647 84.7566 19.8983 62.4153 34.2195C49.7077 41.7366 66.7318 57.0373 56.6052 76.8851C46.4786 96.7329 22.4532 91.0691 23.9204 106.949C26.082 131.128 21.1133 148.928 12.8435 160.412C4.79469 171.868 -6.601 177.175 -17.5305 176.334C-27.7519 175.535 -37.5548 169.351 -43.8018 157.774C-50.5234 142.508 -53.8232 128.528 -53.8734 115.047C-53.1326 97.9078 -72.2821 109.25 -87.8566 95.4212C-103.431 81.5923 -90.6148 63.5335 -108.324 61.6854C-136.201 58.8807 -152.7 52.2676 -160.853 43.9546C-178.686 26.4603 -158.603 1.17454 -129.779 -10.8136C-113.209 -17.8097 -99.2998 -21.4998 -87.7359 -25.2112C-71.5621 -29.7373 -79.798 -55.2884 -70.6525 -68.523C-54.632 -91.473 -37.8895 -73.3559 -33.4651 -98.6391C-31.6774 -108.671 -30.0231 -120.093 -28.4738 -133.163C-24.7395 -162.771 -16.6683 -182.42 -7.10889 -194.439C11.1225 -219.452 36.6838 -215.859 51.6765 -198.287C60.2533 -188.171 65.3675 -173.496 63.6927 -156.979C61.7893 -138.193 51.7376 -110.751 60.1123 -94.185C65.9641 -81.9654 102.859 -109.781 114.707 -88.0971C122.407 -74.2221 114.279 -50.7617 122.69 -43.6498C131.815 -35.9352 139.746 -30.3657 144.828 -27.9721Z" stroke="#A6F400" stroke-width="2"/>
<path d="M132.213 -25.2594C160.529 -13.7021 131.605 16.1783 114.102 14.602C90.2697 12.5034 76.3507 18.429 56.2599 32.1839C44.925 39.0102 60.0576 52.836 51.0222 70.7057C41.9868 88.5754 20.576 83.7438 21.7979 97.9917C23.5555 119.741 18.9023 135.69 11.3206 145.896C4.05463 156.084 -6.22212 160.753 -16.0285 159.871C-25.2048 159.025 -33.9532 153.307 -39.3936 142.674C-44.8726 127.655 -50.3929 115.192 -50.9563 102.93C-50.4795 87.5858 -67.5086 97.4599 -81.2351 84.9317C-94.9616 72.4036 -83.3105 56.1028 -98.7707 54.3406C-123.236 51.7115 -137.632 45.7646 -144.648 38.3074C-160.351 22.6843 -142.235 0.039621 -116.368 -10.8708C-101.404 -17.3385 -88.83 -20.9604 -78.4785 -24.7079C-64.0546 -28.937 -71.3476 -51.9001 -63.1813 -63.9421C-48.8942 -84.6604 -33.948 -68.7938 -29.9405 -91.4985C-28.2803 -100.634 -26.7234 -110.963 -25.2501 -122.723C-21.5508 -149.587 -13.8419 -167 -5.02746 -177.335C11.2824 -199.49 34.0927 -196.17 47.473 -180.395C55.1463 -171.254 59.7124 -158.038 58.2038 -143.175C56.4143 -125.522 47.4356 -100.625 55.5417 -85.3683C60.9167 -74.3623 93.9874 -99.0339 104.77 -79.6604C111.862 -67.2344 104.872 -46.2768 112.52 -39.8097C120.781 -32.8235 127.807 -27.6111 132.213 -25.2594Z" stroke="#A6F400" stroke-width="2"/>
<path d="M119.37 -22.2034C144.036 -11.8238 118.51 14.5069 102.964 13.0959C80.311 11.1034 67.7827 17.203 49.9653 30.3589C40.0151 36.477 53.2587 48.8229 45.3341 64.6852C37.4096 80.5475 18.6218 76.5372 19.6091 89.1359C20.9791 108.43 16.6565 122.505 9.77522 131.413C3.30417 140.313 -5.84429 144.331 -14.5228 143.401C-22.6497 142.503 -30.3434 137.25 -34.9828 127.57C-39.2283 112.812 -46.9797 101.874 -48.0665 90.8454C-47.8666 77.316 -62.7579 85.6957 -74.6386 74.4729C-86.5192 63.2501 -76.0529 48.737 -89.2564 47.0505C-110.297 44.5809 -122.587 39.2961 -128.466 32.6987C-142.044 18.9537 -125.924 -1.00703 -103.037 -10.8054C-89.6911 -16.7247 -78.4634 -20.2641 -69.3334 -24.035C-56.6711 -27.9504 -63.0356 -48.3029 -55.8629 -59.131C-43.3342 -77.5804 -30.1801 -63.9723 -26.6102 -84.067C-25.0858 -92.2926 -23.6354 -101.516 -22.2483 -111.949C-18.6075 -136.033 -11.2784 -151.181 -3.2216 -159.813C11.1399 -179.068 31.1889 -176.007 42.9621 -162.038C49.735 -153.876 53.761 -142.134 52.4314 -128.943C50.7716 -112.447 42.8913 -90.1333 50.7377 -76.1965C55.642 -66.4134 84.8504 -87.8835 94.5767 -70.8358C101.068 -59.8682 95.2358 -41.445 102.121 -35.6243C109.522 -29.3683 115.642 -24.5138 119.37 -22.2034Z" stroke="#A6F400" stroke-width="2"/>
<path d="M106.178 -19.3842C127.144 -10.2151 105.029 12.5734 91.4664 11.3445C70.0315 9.48166 58.908 15.7623 43.3791 28.3266C34.8229 33.7421 46.1446 44.5857 39.327 58.4374C32.5095 72.2892 16.3783 69.1217 17.1166 80.0613C18.0775 96.8851 14.0782 109.08 7.89906 116.691C2.22398 124.305 -5.78598 127.678 -13.3222 126.709C-20.3862 125.767 -27.0081 120.992 -30.8296 112.276C-33.8216 97.7975 -43.7781 88.3974 -45.3751 78.6114C-45.4386 66.9058 -58.1776 73.8009 -68.1828 63.9038C-78.188 54.0068 -68.9082 41.2813 -79.8331 39.6856C-97.4146 37.3993 -107.574 32.7932 -112.302 27.0663C-123.719 15.2231 -109.599 -2.05612 -89.7183 -10.7587C-78.0062 -16.1384 -68.1386 -19.6037 -60.2409 -23.404C-49.3561 -27.0156 -54.7615 -44.7366 -48.5827 -54.3501C-37.8132 -70.5303 -26.4859 -59.203 -23.3386 -76.6772C-21.9443 -83.9887 -20.5933 -92.1009 -19.2842 -101.201C-15.6836 -122.491 -8.73072 -135.371 -1.43521 -142.302C10.9754 -158.659 28.2289 -155.88 38.3623 -143.739C44.216 -136.569 47.6839 -126.313 46.522 -114.803C44.9783 -99.4747 38.1863 -79.7516 45.7462 -67.1529C50.1619 -58.6047 75.4846 -76.8882 84.1219 -62.1879C89.9905 -52.693 85.3069 -36.8108 91.4137 -31.6477C97.9354 -26.134 103.136 -21.6475 106.178 -19.3842Z" stroke="#A6F400" stroke-width="2"/>
<path d="M93.5679 -16.6795C110.885 -8.69629 92.133 10.596 80.5216 9.54369C60.2536 7.80242 50.5095 14.2757 37.2344 26.2732C30.053 30.9964 39.4818 40.364 33.7578 52.2344C28.0339 64.1049 14.5199 61.77 15.0134 71.0749C15.5708 85.4659 11.8878 95.8065 6.39764 102.137C1.50655 108.48 -5.38328 111.214 -11.7953 110.202C-17.8135 109.214 -23.3801 104.904 -26.3946 97.1327C-28.143 82.8998 -40.3298 75.0161 -42.4427 66.4505C-42.7719 56.5428 -53.3876 61.9659 -61.5432 53.3706C-69.6987 44.7753 -61.586 33.811 -70.2587 32.3003C-84.4236 30.1886 -92.4776 26.2488 -96.0662 21.3787C-105.352 11.4087 -93.202 -3.22436 -76.2824 -10.8463C-66.1772 -15.6962 -57.6469 -19.093 -50.9633 -22.9295C-41.8307 -26.243 -46.2936 -41.3729 -41.0957 -49.7919C-32.0631 -63.7365 -22.5331 -54.6627 -19.8045 -69.5544C-18.5384 -75.9677 -17.2853 -82.9864 -16.0528 -90.7737C-12.4882 -109.316 -5.89758 -119.956 0.652451 -125.2C11.1383 -138.692 25.6381 -136.185 34.1583 -125.843C39.1082 -119.648 42.0282 -110.854 41.0336 -101C39.6052 -86.8059 33.8891 -69.6315 41.183 -58.3418C45.1225 -51.0084 66.616 -66.1409 74.1878 -53.7538C79.4497 -45.7094 75.9066 -32.334 81.2499 -27.8159C86.9093 -23.0309 91.2031 -18.9013 93.5679 -16.6795Z" stroke="#A6F400" stroke-width="2"/>
<path d="M80.7348 -13.6367C94.3975 -6.8348 79.0472 8.90336 69.3953 8.01596C50.3057 6.37226 41.9585 13.0149 30.965 24.4082C25.1705 28.4221 32.709 36.307 28.0979 46.1675C23.4867 56.0279 12.6002 54.5147 12.859 62.1679C13.0289 74.0996 9.67686 82.5621 4.88726 87.5928C0.791559 92.647 -4.96928 94.7282 -10.253 93.6688C-15.2215 92.6281 -19.7334 88.7861 -21.9475 81.9698C-22.469 68.0074 -36.8918 61.6345 -39.5305 54.3013C-40.1372 46.2091 -48.6144 50.138 -54.9228 42.8514C-61.2313 35.5648 -54.3053 26.392 -60.7191 24.9599C-71.4561 23.0112 -77.4012 19.7367 -79.8523 15.729C-87.01 7.64073 -76.8571 -4.30442 -62.9223 -10.8118C-54.4387 -15.1109 -47.2576 -18.4229 -41.7996 -22.281C-34.4317 -25.2799 -37.9656 -37.7955 -33.7637 -44.9985C-26.4926 -56.6712 -18.759 -49.8571 -16.4689 -62.1353C-15.3397 -67.6369 -14.1938 -73.5474 -13.0479 -80.0058C-9.54386 -95.7605 -3.332 -104.131 2.46245 -107.67C10.9992 -118.261 22.7352 -116.013 29.6468 -107.48C33.6958 -102.266 36.0758 -94.9465 35.2609 -86.7675C33.9675 -73.7356 29.3533 -59.1484 36.3905 -49.1783C39.8593 -43.0686 57.4878 -54.9965 64.0021 -44.9365C68.6627 -38.3509 66.2794 -27.5109 70.8605 -23.6396C75.6584 -19.5854 79.0471 -15.8154 80.7348 -13.6367Z" stroke="#A6F400" stroke-width="2"/>
<path d="M68.0523 -10.8165C78.0611 -5.20565 66.0489 7.07593 58.3439 6.37506C40.3985 4.87064 33.4177 11.7335 24.66 22.5987C20.2338 25.9338 25.8721 32.3462 22.3417 40.2454C18.8112 48.1447 10.5408 47.4773 10.5448 53.5063C10.2954 63.0225 7.24602 69.6466 3.13553 73.4079C-0.184442 77.202 -4.8308 78.6527 -8.99161 77.5543C-12.9153 76.4696 -16.3692 73.0911 -17.7676 67.2094C-17.0241 53.4596 -33.7055 48.6099 -36.8588 42.4875C-37.7242 36.1826 -44.0849 38.6518 -48.5352 32.6628C-52.9856 26.6738 -47.2113 19.2401 -51.3693 17.8976C-58.6859 16.1323 -62.5199 13.5266 -63.8248 10.3731C-68.8417 4.15577 -60.6393 -5.17154 -49.6515 -10.6255C-42.7651 -14.4126 -36.9133 -17.6725 -32.6631 -21.5832C-27.0418 -24.2989 -29.619 -34.2373 -26.3885 -40.2629C-20.8385 -49.7264 -14.9079 -45.1694 -13.0207 -54.8855L-12.9629 -55.1502C-11.9719 -59.6841 -10.9355 -64.4255 -9.87793 -69.4834C-6.38616 -82.5199 -0.518607 -88.6667 4.54009 -90.5251C11.1679 -98.2735 20.1514 -96.3076 25.4422 -89.569C28.5828 -85.3267 30.4073 -79.4611 29.7498 -72.9247C28.5556 -60.9983 24.9989 -48.9307 31.7687 -40.2588C34.7571 -35.3589 48.578 -44.17 54.0197 -36.4172C58.0701 -31.2783 56.817 -22.9277 60.6335 -19.7002C64.5673 -16.3738 67.0458 -12.957 68.0523 -10.8165Z" stroke="#A6F400" stroke-width="2"/>
<path d="M54.8681 -8.03477C61.1767 -3.63632 52.5874 5.08685 46.8702 4.56541C30.1645 3.18558 24.5969 10.2135 18.1375 20.4657C15.1087 23.0925 18.8258 27.9982 16.4074 33.8774C13.989 39.7566 8.37814 39.927 8.13676 44.2913C7.48403 51.3279 4.76417 56.0644 1.36122 58.5247C-1.15884 61.0279 -4.66295 61.831 -7.67955 60.6942C-10.5385 59.5665 -12.9204 56.6687 -13.504 51.7583C-11.5177 38.3111 -30.3749 34.9974 -34.0348 30.1231C-35.1642 25.6474 -39.3691 26.6294 -41.9462 21.9707C-44.5232 17.312 -39.9433 11.6761 -41.8245 10.4247C-45.6833 8.84185 -47.3892 6.91557 -47.5456 4.63488C-50.4043 0.322298 -44.2117 -6.31155 -36.2387 -10.6585C-30.9925 -13.8981 -26.5063 -17.0757 -23.4921 -21.0067C-19.6519 -23.4122 -21.2737 -30.7107 -19.0412 -35.5132C-15.2569 -42.6952 -11.1536 -40.4175 -9.69477 -47.5029C-8.81932 -51.197 -7.866 -54.9076 -6.86925 -58.7258C-3.42828 -68.952 2.05302 -72.8246 6.34455 -72.982C11.0146 -77.8247 17.1994 -76.1392 20.851 -71.2325C23.0726 -67.9856 24.3407 -63.6105 23.854 -58.7618C22.7823 -48.0215 20.3207 -38.5601 26.7987 -31.235C29.298 -27.5735 39.2216 -33.1863 43.5733 -27.7852C46.9995 -24.1218 46.8967 -18.3199 49.9325 -15.7522C52.9859 -13.17 54.5453 -10.125 54.8681 -8.03477Z" stroke="#A6F400" stroke-width="2"/>
<path d="M41.9575 -4.89805C44.5911 -1.70102 39.3972 3.49165 35.6504 3.14767C20.1497 1.8848 15.9829 9.08673 11.8053 18.7432C10.1638 20.6687 11.9737 24.0813 10.6595 27.9579C9.34535 31.8345 6.37522 32.8395 5.88904 35.5525C4.83375 40.1298 2.43755 42.9932 -0.26667 44.161C-1.99436 45.3823 -4.36683 45.5415 -6.24917 44.3646C-8.05274 43.1923 -9.37135 40.7688 -9.14521 36.8187C-5.92162 23.6546 -26.9806 21.8568 -31.1526 18.2163C-32.547 15.5545 -34.6124 15.0574 -35.328 11.7171C-36.0437 8.37673 -32.6462 4.52324 -32.2626 3.36172C-32.6832 1.95974 -32.2719 0.708297 -31.2843 -0.705818C-31.9976 -3.1275 -27.7966 -7.08869 -22.8142 -10.3394C-19.1935 -13.038 -16.0611 -16.1379 -14.2746 -20.095C-12.2027 -22.1953 -12.876 -26.8757 -11.6345 -30.4677C-9.60353 -35.3886 -7.31483 -35.377 -6.28053 -39.8535C-5.53665 -42.6368 -4.68447 -45.2406 -3.76738 -47.7317C-0.372244 -55.1735 4.73448 -56.7859 8.27064 -55.2488C10.999 -57.2053 14.4065 -55.7967 16.4316 -52.7068C17.7418 -50.446 18.458 -47.5486 18.1412 -44.3732C17.1925 -34.7983 15.8189 -27.9178 22.0194 -21.9207C24.0361 -19.4864 30.0948 -21.9225 33.3681 -18.8543C36.1786 -16.6541 37.2217 -13.3804 39.4856 -11.4653C41.6674 -9.61991 42.3148 -6.94079 41.9575 -4.89805Z" stroke="#A6F400" stroke-width="2"/>
</svg>
