<svg width="1920" height="940" viewBox="0 0 1920 940" fill="none" xmlns="http://www.w3.org/2000/svg">
<path d="M1850 266.023C1898.75 220.824 1883.36 99.8937 1775.88 163.879C1758.26 174.37 1726 187.63 1685.27 200.144C1647.96 211.608 1604.79 161.015 1550.94 161.731C1466.49 162.854 1457.63 288.567 1412.46 287.205C1353.29 285.422 1304.54 226.968 1262.1 200.829C1222.14 176.221 1171.59 170.595 1125.35 179.168C1044.25 194.21 976.45 252.955 1002.57 329.58C1015.65 367.938 1052.26 410.777 1122.53 454.858C1153.94 474.566 1180.47 492.413 1202.71 508.81C1259.95 551.014 1171.64 568.85 1195.34 636.792C1208.84 675.505 1295.76 686.797 1269.91 732.024C1251.52 764.182 1228.66 801.795 1209.08 850.278C1174.69 935.422 1196.78 1015.82 1285.36 992.997C1327.17 982.222 1383.8 948.443 1456.29 881.3C1502.69 838.333 1521.69 891.421 1594.34 869.34C1666.99 847.259 1679.65 785.006 1723 809.053L1723.87 809.535C1756.9 827.865 1792.14 847.414 1843.86 845.092C1888.42 843.092 1926.62 826.292 1951.43 802.043C1977.98 776.092 1989.21 741.608 1976.49 707.603C1963.72 673.483 1926.85 639.845 1857.17 615.789C1811.22 599.929 1882.63 548.156 1853.35 498.519C1824.07 448.883 1744.5 472.199 1754.05 431.623C1770.63 361.14 1792.91 318.959 1850 266.023Z" stroke="#A6F400" stroke-width="3"/>
<path d="M1578.5 498.614C1585.99 491.705 1577.39 476.93 1567.49 479.971C1556.21 483.434 1544.2 494.642 1533 498.382C1511.39 505.604 1502.39 500.548 1485.31 490.146C1479.2 486.415 1471.45 485.581 1464.35 486.909C1451.91 489.238 1441.49 498.22 1445.46 509.883C1447.45 515.722 1453.04 522.233 1463.79 528.917C1468.6 531.905 1472.66 534.612 1476.06 537.101C1491.6 547.643 1489.34 564.147 1486.26 571.081C1483.43 575.989 1479.91 581.731 1476.88 589.127C1471.57 602.116 1478.43 615.82 1488.51 610.838C1502.76 603.799 1547.6 556.727 1567.68 579.155C1577.01 589.574 1586.92 585.143 1590.73 581.437C1594.81 577.47 1596.55 572.211 1594.62 567.035C1592.68 561.842 1580.83 556.694 1576.36 553.1C1559.88 539.836 1548.79 526.553 1578.5 498.614Z" stroke="#A6F400" stroke-width="3"/>
<path d="M1758.12 192.24C1856.12 134.404 1870.15 244.928 1825.46 286.365C1770.84 337.059 1751.58 376.647 1737.99 441.987C1729.51 479.069 1802.27 458.056 1829.25 503.437C1856.23 548.817 1791.58 596.159 1833.46 610.826C1897.04 633.186 1930.43 664.271 1941.68 695.675C1953.08 726.783 1942.56 758.342 1918.03 781.978C1895.08 804.064 1859.9 819.211 1818.94 820.556C1769.65 820.644 1733.4 806.789 1701.82 790.622C1661.93 768.966 1650.03 825.408 1583.72 845.095C1517.41 864.782 1500.09 815.872 1458.12 854.377C1392.43 914.794 1341.23 945.007 1303.44 954.365C1222.99 974.818 1203 901.13 1234.2 823.088C1251.92 778.402 1272.42 743.564 1288.44 713.823C1311.66 672.447 1232.21 661.924 1219.49 626.427C1197.44 564.303 1277.42 547.776 1225.07 509.084C1204.56 493.874 1180.25 477.354 1151.58 459.156C1087.29 417.986 1054.92 378.194 1044.14 343.085C1020.69 273.306 1082.71 219.846 1156.83 206.21C1199.21 198.457 1245.52 203.681 1282.15 226.242C1322.31 250.976 1367.49 304.624 1423.27 305.597C1464.87 306.668 1473.46 191.948 1550.81 190.593C1600.33 189.607 1640.14 235.31 1674.59 224.724C1712.09 213.201 1741.86 201.405 1758.12 192.24Z" stroke="#A6F400" stroke-width="3"/>
<path d="M1739.62 221.844C1827.82 170.319 1840.52 270.255 1800.06 307.831C1748.11 356.161 1731.94 393.077 1721.42 453.153C1714.05 486.673 1779.77 468.045 1804.4 509.109C1829.04 550.173 1771.35 592.961 1809.07 606.438C1866.36 627.103 1896.19 655.601 1905.91 684.243C1915.98 712.408 1906.21 740.982 1883.79 762.244C1862.8 782.115 1830.74 795.562 1793.5 796.223C1747.24 794.023 1710.26 786.226 1680.49 772.366C1644.16 753.114 1633.09 803.641 1573.33 820.858C1513.58 838.075 1497.95 793.416 1460.56 827.365C1401.92 880.914 1356.31 907.477 1322.67 915.378C1250.6 933.372 1232.74 866.512 1260.59 795.725C1276.38 754.923 1294.43 722.933 1308.02 695.671C1328.5 658.229 1256.76 648.444 1244.84 616.216C1224.47 560.002 1295.86 544.862 1248.53 509.715C1229.81 495.704 1207.78 480.525 1181.93 463.85C1123.78 425.622 1095.72 388.925 1087.25 357.118C1066.5 294.291 1122.52 246.249 1189.41 234.086C1227.82 227.194 1269.75 232.038 1302.96 252.536C1340.73 275.848 1382.22 324.627 1434.44 324.824C1472.35 325.63 1480.56 222.105 1550.59 220.569C1595.62 219.347 1631.97 260.106 1663.45 250.438C1697.6 239.951 1724.79 229.657 1739.62 221.844Z" stroke="#A6F400" stroke-width="3"/>
<path d="M1721.85 250.198C1800.58 204.825 1811.92 294.347 1775.51 328.16C1726.04 374.249 1712.89 408.574 1705.36 463.506C1699.05 493.531 1757.96 477.205 1780.3 514.011C1802.63 550.817 1751.7 589.172 1785.36 601.454C1836.54 620.421 1862.89 646.364 1871.09 672.288C1879.84 697.554 1870.78 723.201 1850.38 742.147C1831.25 759.854 1802.2 771.648 1768.55 771.653C1725.18 767.193 1687.36 765.463 1659.31 753.904C1626.43 737.046 1616.12 781.759 1562.71 796.581C1509.3 811.402 1495.34 770.924 1462.37 800.408C1410.54 847.229 1370.35 870.223 1340.74 876.707C1276.79 892.327 1261.04 832.187 1285.71 768.503C1299.63 731.5 1315.32 702.285 1326.55 677.441C1344.39 643.851 1280.12 634.837 1268.98 605.826C1250.26 555.435 1313.32 541.601 1270.88 509.97C1253.9 497.146 1234.09 483.294 1210.98 468.131C1158.8 432.816 1134.98 399.169 1128.82 370.614C1110.75 314.639 1160.98 271.885 1220.89 261.126C1255.45 255.055 1293.13 259.496 1323.01 277.945C1358.5 299.852 1396.41 343.822 1445.25 343.208C1479.59 343.722 1487.52 251.198 1550.46 249.428C1591.16 247.935 1624.13 283.798 1652.76 275.009C1683.69 265.513 1708.39 256.684 1721.85 250.198Z" stroke="#A6F400" stroke-width="3"/>
<path d="M1704.41 279.373C1773.68 240.174 1783.6 319.139 1751.24 349.158C1704.22 392.969 1694.07 424.658 1689.5 474.366C1684.24 500.853 1736.34 486.82 1756.34 519.298C1776.34 551.775 1732.16 585.668 1761.75 596.718C1806.8 613.927 1829.64 637.258 1836.3 660.42C1843.72 682.743 1835.34 705.431 1816.96 722.042C1799.69 737.57 1773.65 747.71 1743.61 747.079C1703.14 740.392 1664.47 744.76 1638.15 735.539C1608.74 721.121 1599.16 759.957 1552.1 772.392C1505.04 784.828 1492.79 748.601 1464.23 773.593C1419.19 813.644 1384.43 833.059 1358.84 838.132C1303.04 851.393 1289.44 798.073 1310.94 741.577C1323.03 708.419 1336.37 682.016 1345.25 659.621C1360.46 629.923 1303.68 621.733 1293.34 595.992C1276.31 551.512 1331.02 538.968 1293.51 510.925C1278.27 499.319 1260.7 486.829 1240.34 473.214C1194.18 440.897 1174.63 410.365 1170.79 385.108C1155.43 336.082 1199.9 298.651 1252.81 289.277C1283.52 284.015 1316.95 288.023 1343.48 304.378C1376.67 324.825 1410.95 363.894 1456.4 362.439C1487.16 362.64 1494.87 281.253 1550.7 279.213C1587.06 277.427 1616.64 308.319 1642.41 300.404C1670.11 291.896 1692.31 284.53 1704.41 279.373Z" stroke="#A6F400" stroke-width="3"/>
<path d="M1685.79 309.011C1745.43 276.051 1753.97 344.439 1725.74 370.631C1681.3 412.109 1674.19 441.141 1672.62 485.602C1668.44 508.538 1713.62 496.841 1731.28 524.994C1748.94 553.147 1711.61 582.534 1737.08 592.369C1775.92 607.848 1795.24 628.577 1800.36 648.974C1806.44 668.353 1798.79 688.067 1782.47 702.325C1767.11 715.655 1744.13 724.12 1717.76 722.831C1680.25 713.894 1640.83 724.321 1616.28 717.42C1590.39 705.424 1581.6 738.364 1540.98 748.375C1500.37 758.385 1489.82 726.413 1465.75 746.884C1427.63 780.121 1398.37 795.924 1376.86 799.566C1329.31 810.421 1317.85 763.929 1336.1 714.656C1346.3 685.366 1357.25 661.794 1363.74 641.864C1376.28 616.081 1327.1 608.673 1317.57 586.203C1302.22 547.636 1348.47 536.429 1315.93 511.956C1302.46 501.56 1287.14 490.422 1269.57 478.346C1229.49 449.004 1214.22 421.583 1212.69 399.63C1200.04 357.556 1238.63 325.494 1284.43 317.548C1311.23 313.119 1340.33 316.72 1363.48 330.994C1394.31 349.995 1424.95 384.178 1466.91 381.917C1494.03 381.828 1501.44 311.61 1550.06 309.345C1582 307.294 1608.15 333.229 1631.01 326.209C1655.42 318.713 1675.08 312.828 1685.79 309.011Z" stroke="#A6F400" stroke-width="3"/>
<path d="M1668.01 337.344C1718.17 310.543 1725.35 368.5 1701.18 390.925C1659.2 430.166 1655.11 456.603 1656.54 495.913C1653.42 515.348 1691.79 505.956 1707.14 529.842C1722.5 553.728 1691.93 578.677 1713.34 587.315C1746.07 601.092 1761.9 619.26 1765.5 636.935C1770.26 653.41 1763.31 670.193 1749.01 682.131C1735.51 693.295 1715.55 700.105 1692.77 698.16C1658.15 686.959 1617.86 703.473 1595.03 698.88C1572.6 689.285 1564.56 716.4 1530.29 724.014C1496.02 731.627 1487.16 703.842 1467.51 719.84C1436.2 746.338 1412.37 758.568 1394.9 760.791C1355.48 769.271 1346.13 729.509 1361.2 687.351C1369.54 661.863 1378.12 641.07 1382.25 623.562C1392.14 601.635 1350.44 595.003 1341.69 575.757C1327.99 543.022 1365.9 533.121 1338.26 512.171C1326.52 502.965 1313.43 493.158 1298.61 482.596C1264.5 456.173 1253.49 431.806 1254.27 413.11C1244.3 377.9 1277.11 351.134 1315.91 344.591C1338.86 340.983 1363.72 344.178 1383.54 356.399C1412.09 373.993 1439.14 403.356 1477.72 400.278C1501.27 399.896 1508.41 340.696 1549.93 338.192C1577.54 335.868 1600.31 356.897 1620.31 350.755C1641.5 344.25 1658.67 339.832 1668.01 337.344Z" stroke="#A6F400" stroke-width="3"/>
<path d="M1650.56 366.486C1691.24 345.862 1697 393.249 1676.88 411.876C1637.34 448.832 1636.25 472.616 1640.64 506.679C1638.57 522.571 1670.11 515.471 1683.14 535.022C1696.17 554.573 1672.35 575.052 1689.68 582.454C1716.26 594.468 1728.58 610.021 1730.64 624.931C1734.06 638.46 1727.8 652.282 1715.52 661.885C1703.88 670.869 1686.93 676.027 1667.76 673.45C1636.05 660.045 1594.88 682.652 1573.77 680.401C1554.81 673.248 1547.51 694.485 1519.6 699.713C1491.69 704.941 1484.53 681.415 1469.31 692.92C1444.81 712.645 1426.41 721.293 1412.98 722.106C1381.7 728.224 1374.52 695.291 1386.42 660.332C1392.92 638.699 1399.15 620.726 1400.92 605.677C1408.19 587.651 1373.99 581.844 1366.04 565.875C1354.03 539.06 1383.58 530.456 1360.87 513.102C1350.88 505.117 1340.03 496.675 1327.97 487.665C1299.88 464.251 1293.15 443.002 1296.26 427.602C1289.02 399.345 1316.05 377.906 1347.84 372.748C1366.94 369.948 1387.53 372.71 1404 382.831C1430.25 398.948 1453.68 423.401 1488.87 419.476C1508.85 418.779 1515.77 370.726 1550.17 367.953C1573.44 365.336 1592.81 381.389 1609.96 376.122C1627.91 370.604 1642.59 367.647 1650.56 366.486Z" stroke="#A6F400" stroke-width="3"/>
<path d="M1632.89 395.091C1664.08 380.634 1668.51 417.68 1652.47 432.557C1615.38 467.34 1617.35 488.586 1624.79 517.574C1623.8 529.992 1648.52 525.215 1659.27 540.546C1670.01 555.877 1652.98 571.935 1666.26 578.171C1686.73 588.532 1695.58 601.568 1696.12 613.788C1698.22 624.441 1692.67 635.353 1682.42 642.641C1672.65 649.464 1658.71 652.959 1643.14 649.699C1614.27 633.952 1572.2 662.711 1552.79 662.756C1537.28 657.978 1530.75 673.416 1509.19 676.226C1487.63 679.035 1482.13 659.643 1471.35 666.672C1453.7 679.661 1440.75 684.726 1431.35 684.103C1408.22 687.823 1403.13 661.552 1411.8 633.651C1416.42 615.783 1420.26 600.556 1419.65 587.899C1424.25 573.702 1397.53 568.628 1390.34 555.845C1379.96 534.804 1401.15 527.514 1383.31 513.629L1382.84 513.237C1374.72 506.535 1366.24 499.525 1357.09 492.145C1334.97 471.571 1332.48 453.323 1337.91 441.153C1333.33 419.706 1354.56 403.55 1379.35 399.815C1394.6 397.848 1410.95 400.229 1424.1 408.33C1448.1 423.101 1467.97 442.803 1499.8 438.075C1516.21 437.098 1522.83 399.983 1550.13 396.993C1569.07 394.113 1585.09 405.3 1599.38 400.914C1614.1 396.393 1626.29 394.912 1632.89 395.091Z" stroke="#A6F400" stroke-width="3"/>
<path d="M1614.21 424.672C1635.76 416.452 1638.8 442.881 1626.89 453.919C1592.42 486.321 1597.41 504.875 1607.82 528.574C1607.9 537.429 1625.69 534.982 1634.08 545.969C1642.47 556.956 1632.29 568.495 1641.44 573.504C1655.7 582.114 1661.01 592.527 1660.02 601.967C1660.79 609.663 1655.96 617.591 1647.78 622.522C1639.92 627.144 1629.06 628.966 1617.15 625.062C1591.29 607.112 1548.51 641.868 1530.89 644.231C1518.91 641.883 1513.16 651.415 1498.06 651.809C1482.95 652.203 1479.16 637.09 1472.87 639.604C1462.12 645.779 1454.67 647.238 1449.36 645.193C1434.49 646.516 1431.54 627.104 1436.97 606.456C1439.72 592.476 1441.16 580.1 1438.18 569.924C1440.12 559.656 1421 555.381 1414.63 545.886C1405.94 530.784 1418.68 524.833 1405.83 514.54C1399.34 508.941 1392.97 503.168 1386.44 497.195C1370.4 479.635 1372.2 464.524 1379.93 455.67C1378.05 441.197 1393.4 430.417 1411.08 428.105C1422.41 426.969 1434.42 428.932 1444.18 434.939C1465.8 448.234 1482 463.018 1510.31 457.486C1523.08 456.217 1529.4 430.308 1549.48 427.089C1563.99 423.945 1576.57 430.163 1587.93 426.674C1599.36 423.165 1609 423.161 1614.21 424.672Z" stroke="#A6F400" stroke-width="3"/>
<path d="M1596.82 454.064C1608.81 452.042 1610.47 467.939 1602.66 475.17C1570.71 505.253 1578.72 521.15 1592.11 539.612C1593.26 544.93 1604.18 544.799 1610.24 551.476C1616.3 558.152 1612.92 565.208 1617.98 569.003C1626.07 575.881 1627.86 583.699 1625.34 590.385C1624.78 595.148 1620.66 600.118 1614.53 602.711C1608.56 605.149 1600.74 605.309 1592.47 600.76C1569.56 580.597 1525.97 621.382 1510.11 626.06C1501.62 626.127 1496.64 629.795 1487.94 627.784C1479.24 625.774 1477.15 614.903 1475.32 612.923C1471.44 612.322 1469.46 610.193 1468.21 606.729C1461.53 605.665 1460.72 593.055 1462.94 579.598C1463.82 569.471 1462.89 559.917 1457.54 552.2C1456.81 545.829 1445.24 542.345 1439.67 536.111C1432.66 526.901 1437 522.278 1429.09 515.547C1424.36 511.158 1420.24 506.735 1416.48 502.298C1406.49 487.715 1412.55 475.703 1422.59 470.134C1423.41 462.582 1432.93 457.141 1443.54 456.24C1450.98 455.928 1458.71 457.479 1465.1 461.409C1484.39 473.248 1496.95 483.155 1521.82 476.81C1530.98 475.247 1537.02 460.455 1549.93 457.004C1560.06 453.591 1569.23 454.869 1577.71 452.268C1585.88 449.761 1592.99 451.225 1596.82 454.064Z" stroke="#A6F400" stroke-width="3"/>
<path d="M-43.3909 -327.041C-3.07605 -483.402 142.781 -417.854 218.926 -319.886C264.973 -265.545 340.577 -308.797 397.592 -241.43C454.607 -174.063 321.252 -141.707 407.199 -36.3762C493.145 68.9542 331.266 226.206 233.78 173.066C136.295 119.926 144.552 166.77 6.70754 183.859C-131.137 200.948 -235.472 7.19713 -134.118 -75.844C-32.7638 -158.885 -87.0323 -157.778 -43.3909 -327.041Z" stroke="#A6F400" stroke-width="3"/>
<path d="M103.38 -102.976C106.47 -118.299 138.515 -127.469 149.613 -109.318C159.776 -92.6975 178.009 -89.49 185.904 -80.1471C206.687 -55.5507 194.138 -56.0649 199.381 -38.0254C205.76 -16.0736 191.888 23.8366 159.062 4.97177C132.063 -10.5437 132.606 7.21147 109.05 1.4035C85.4948 -4.40447 68.2515 -27.4702 83.2152 -53.5084C88.8345 -63.2865 98.2343 -77.4543 103.38 -102.976Z" stroke="#A6F400" stroke-width="3"/>
<path d="M-29.673 -307.329C7.25774 -450.868 142.768 -392.112 213 -301.401C255.785 -250.489 326.173 -289.517 378.723 -227.425C432.444 -163.946 310.072 -134.578 388.681 -37.1833C467.394 60.5673 318.97 207.151 227.363 157.127C136.285 107.408 143.841 151.607 16.3865 166.615C-111.068 181.622 -207.486 3.38836 -113.985 -74.4707C-21.3343 -150.852 -69.8148 -151.133 -29.673 -307.329Z" stroke="#A6F400" stroke-width="3"/>
<path d="M-15.9572 -287.616C17.5895 -418.333 142.753 -366.37 207.072 -282.915C246.594 -235.432 311.767 -270.237 359.851 -213.42C410.279 -153.829 298.889 -127.449 370.162 -37.99C441.641 52.1807 306.672 188.097 220.943 141.189C136.274 94.8903 143.128 136.445 26.0633 149.371C-91.0017 162.297 -179.502 -0.419981 -93.8548 -73.097C-9.90698 -142.818 -52.5995 -144.488 -15.9572 -287.616Z" stroke="#A6F400" stroke-width="3"/>
<path d="M-2.23956 -267.902C27.923 -385.798 142.74 -340.628 201.145 -264.429C237.406 -220.375 297.363 -250.956 340.982 -199.414C388.116 -143.712 287.708 -120.32 351.644 -38.7961C415.89 43.7946 294.376 169.044 214.525 125.252C136.264 82.3731 142.417 121.284 35.7419 132.128C-70.9331 142.972 -151.516 -4.22778 -73.7225 -71.7227C1.52217 -134.783 -35.3823 -137.842 -2.23956 -267.902Z" stroke="#A6F400" stroke-width="3"/>
<path d="M11.4759 -248.188C38.2543 -353.263 142.725 -314.885 195.217 -245.941C228.215 -205.317 282.957 -231.674 322.11 -185.407C365.95 -133.593 276.525 -113.19 333.124 -39.6013C390.137 35.4096 282.078 149.992 208.105 109.315C136.251 69.857 141.704 106.123 45.4184 114.886C-50.8667 123.649 -123.532 -8.03459 -53.5923 -70.3474C12.9491 -126.747 -18.1673 -131.195 11.4759 -248.188Z" stroke="#A6F400" stroke-width="3"/>
<path d="M24.9345 -228.023C48.3288 -320.276 142.453 -288.691 189.031 -227.004C218.767 -189.808 268.294 -211.942 302.981 -170.95C343.527 -123.024 265.084 -105.609 314.347 -39.956C364.127 27.475 269.523 131.39 201.428 93.8293C135.983 57.7914 140.733 91.413 54.8381 98.0943C-31.0571 104.776 -95.8048 -11.3909 -33.719 -68.5217C24.1193 -118.261 -1.20907 -124.097 24.9345 -228.023Z" stroke="#A6F400" stroke-width="3"/>
<path d="M38.0853 -207.325C58.0956 -286.756 141.873 -261.964 182.538 -207.532C209.012 -173.766 253.323 -191.676 283.545 -155.959C320.797 -111.922 253.337 -97.4945 295.263 -39.7772C337.809 20.0739 256.661 113.321 194.444 78.8767C135.406 46.2592 139.455 77.2364 63.95 81.8361C-11.5553 86.4359 -68.3855 -14.2139 -14.1535 -66.1625C34.9817 -109.242 15.4413 -116.467 38.0853 -207.325Z" stroke="#A6F400" stroke-width="3"/>
<path d="M51.2214 -186.597C67.8475 -253.207 141.278 -235.207 176.03 -188.032C199.242 -157.694 238.337 -171.381 264.094 -140.939C298.052 -100.789 241.574 -89.3505 276.163 -39.5688C311.476 12.7025 243.783 95.2823 187.444 63.9537C134.814 34.7566 138.162 63.0894 73.0471 65.6077C7.93178 68.1259 -40.9811 -17.0071 5.39731 -63.7736C45.8293 -100.193 32.0769 -108.806 51.2214 -186.597Z" stroke="#A6F400" stroke-width="3"/>
<path d="M64.3317 -165.826C77.5738 -219.614 140.658 -208.407 169.497 -168.488C189.446 -141.579 223.326 -151.043 244.617 -125.875C275.282 -89.614 229.786 -81.1635 257.038 -39.3173C285.118 5.37409 230.88 77.2865 180.419 49.0739C134.197 23.2972 136.844 48.9856 82.1184 49.4222C27.3931 49.8589 -13.6024 -19.7572 24.9224 -61.3417C56.6512 -91.1006 48.6869 -101.102 64.3317 -165.826Z" stroke="#A6F400" stroke-width="3"/>
<path d="M77.4093 -144.992C87.2672 -185.958 140.005 -181.543 162.93 -148.88C179.618 -125.401 208.282 -130.641 225.107 -110.748C252.478 -78.3751 217.965 -72.9128 237.88 -39.0022C258.726 -1.89066 217.944 59.3543 173.361 34.2576C133.547 11.9014 135.492 34.9453 91.157 33.3005C46.8216 31.6556 13.7435 -22.4438 44.4146 -58.8461C67.4403 -81.9448 65.264 -93.3353 77.4093 -144.992Z" stroke="#A6F400" stroke-width="3"/>
<path d="M90.4328 -124.06C96.9067 -152.205 139.298 -154.582 156.31 -129.176C169.735 -109.125 193.183 -110.142 205.543 -95.5237C229.62 -67.0391 206.089 -64.5651 218.668 -38.59C232.281 -9.05834 204.954 41.5192 166.249 19.5385C132.843 0.602607 134.087 21.0022 100.142 17.2758C66.1961 13.5493 41.0354 -25.0332 63.8528 -56.2535C78.1753 -72.6919 81.787 -85.471 90.4328 -124.06Z" stroke="#A6F400" stroke-width="3"/>
</svg>
