<svg width="375" height="229" viewBox="0 0 375 229" fill="none" xmlns="http://www.w3.org/2000/svg">
<path d="M139.492 1.89346C162.902 4.0253 201.962 -36.3619 162.605 -51.5372C156.151 -54.0255 146.38 -60.3295 135.496 -69.5263C125.527 -77.9511 135.93 -106.458 126.979 -123.268C112.941 -149.63 68.3174 -115.505 61.4825 -130.183C52.5305 -149.409 64.7317 -181.989 66.8516 -203.083C68.8472 -222.94 62.6072 -240.572 52.1878 -252.667C33.9083 -273.885 2.76558 -278.059 -19.3374 -247.293C-30.4021 -231.892 -39.2014 -207.736 -42.9878 -172.58C-44.6807 -156.861 -46.5233 -143.233 -48.5617 -131.387C-53.808 -100.897 -74.2116 -123.57 -93.7242 -96.1233C-104.842 -80.4844 -94.6708 -49.6946 -114.388 -44.5808C-128.409 -40.9447 -145.028 -37.1239 -164.851 -29.072C-199.663 -14.9314 -223.714 15.6705 -201.552 36.9629C-191.091 47.0142 -170.331 54.9909 -135.544 58.1821C-113.282 60.2243 -128.449 81.8254 -109.119 98.3017C-89.7884 114.778 -66.3531 100.495 -67.6073 121.26L-67.6324 121.676C-68.589 137.503 -69.6093 154.383 -60.45 170.05C-52.5602 183.545 -40.6134 190.684 -28.2712 191.404C-15.0622 192.174 -1.40035 185.593 8.22622 171.583C17.8853 157.526 23.4818 135.99 20.4818 106.899C18.5038 87.7181 47.8359 95.0824 60.1554 71.2463C72.475 47.4102 51.6022 29.1098 67.0857 20.2079C93.9819 4.74454 112.076 -0.60329 139.492 1.89346Z" stroke="#A6F400"/>
<path d="M15.6905 -15.6025C19.2761 -15.2629 22.9611 -22.3234 20.3153 -24.5602C17.3028 -27.107 11.51 -27.6121 8.41519 -30.0518C2.43981 -34.7623 2.72204 -39.0916 3.53499 -47.5453C3.82836 -50.5741 2.86214 -53.2685 1.25942 -55.1205C-1.55236 -58.3695 -6.32318 -59.0254 -9.6885 -54.3444C-11.3732 -52.0011 -12.7056 -48.3204 -13.2638 -42.9581C-13.5133 -40.5606 -13.7871 -38.4822 -14.0919 -36.6758C-15.2026 -28.6687 -21.2384 -24.5358 -24.1174 -23.4703C-26.2618 -22.924 -28.8041 -22.3512 -31.8342 -21.1347C-37.1555 -18.9983 -40.7547 -12.8039 -37.413 -11.0808C-32.6922 -8.64639 -9.27063 -8.30014 -13.7303 4.63508C-15.8019 10.6437 -12.6775 12.4746 -10.7873 12.592C-8.76441 12.7177 -6.67667 11.7218 -5.21134 9.58991C-3.74107 7.45083 -3.88718 2.19399 -3.37458 -0.272912C-1.48226 -9.37969 1.28794 -16.7877 15.6905 -15.6025Z" stroke="#A6F400"/>
<path d="M149.988 -48.8221C185.701 -34.8337 149.997 2.06704 128.536 0.113175C102.289 -2.26052 85.5737 3.27879 60.928 18.1759C46.8167 26.3878 65.7981 43.2133 54.5689 65.0726C43.3398 86.9319 16.622 80.4002 18.3543 97.949C20.9498 124.612 15.6682 144.298 6.6967 157.077C-2.14775 169.819 -14.6913 175.764 -26.7774 174.953C-38.075 174.187 -48.9676 167.514 -56.051 154.963C-64.0493 139.409 -65.149 123.882 -64.6985 109.153C-63.7078 90.1819 -85.0239 102.999 -102.507 87.8237C-119.989 72.6485 -105.987 52.8043 -126 50.849C-157.376 47.835 -176.034 40.525 -185.358 31.3298C-205.39 11.9086 -183.304 -16.0542 -151.449 -29.1183C-133.231 -36.6423 -117.947 -40.3951 -105.139 -44.0673C-87.1712 -48.8846 -96.3994 -77.0873 -86.2599 -91.5345C-68.4797 -116.751 -49.8729 -96.3274 -45.0427 -124.24C-43.1317 -135.19 -41.3861 -147.726 -39.7689 -162.135C-36.017 -194.548 -27.5791 -216.469 -17.2584 -230.188C2.9247 -258.097 31.3171 -254.198 47.9841 -234.776C57.4999 -223.656 63.1916 -207.483 61.3616 -189.278C59.3559 -169.319 48.2271 -139.282 56.9103 -121.364C63.2681 -107.899 104.07 -138.884 117.041 -114.831C125.384 -99.4693 116.117 -73.463 125.324 -65.6829C135.345 -57.2144 144.211 -51.2679 149.988 -48.8221Z" stroke="#A6F400"/>
<path d="M136.828 -45.9721C168.789 -33.2287 136.508 0.140996 117.055 -1.61282C92.0533 -3.83528 76.7566 1.89834 54.4153 16.2195C41.7077 23.7366 58.7318 39.0373 48.6052 58.8851C38.4786 78.7329 14.4532 73.0691 15.9204 88.9493C18.082 113.128 13.1133 130.928 4.84346 142.412C-3.20531 153.868 -14.601 159.175 -25.5305 158.334C-35.7519 157.535 -45.5548 151.351 -51.8018 139.774C-58.5234 124.508 -61.8232 110.528 -61.8734 97.0472C-61.1326 79.9078 -80.2821 91.2502 -95.8566 77.4212C-111.431 63.5923 -98.6148 45.5335 -116.324 43.6854C-144.201 40.8807 -160.7 34.2676 -168.853 25.9546C-186.686 8.46027 -166.603 -16.8255 -137.779 -28.8136C-121.209 -35.8097 -107.3 -39.4998 -95.7359 -43.2112C-79.5621 -47.7373 -87.798 -73.2884 -78.6525 -86.523C-62.632 -109.473 -45.8895 -91.3559 -41.4651 -116.639C-39.6774 -126.671 -38.0231 -138.093 -36.4738 -151.163C-32.7395 -180.771 -24.6683 -200.42 -15.1089 -212.439C3.12249 -237.452 28.6838 -233.859 43.6765 -216.287C52.2533 -206.171 57.3675 -191.496 55.6927 -174.979C53.7893 -156.193 43.7376 -128.751 52.1123 -112.185C57.9641 -99.9654 94.8587 -127.781 106.707 -106.097C114.407 -92.2221 106.279 -68.7617 114.69 -61.6498C123.815 -53.9352 131.746 -48.3657 136.828 -45.9721Z" stroke="#A6F400"/>
<path d="M124.213 -43.2594C152.529 -31.7021 123.605 -1.82171 106.102 -3.39801C82.2697 -5.49664 68.3507 0.429037 48.2599 14.1839C36.925 21.0102 52.0576 34.836 43.0222 52.7057C33.9868 70.5754 12.576 65.7438 13.7979 79.9917C15.5555 101.741 10.9023 117.69 3.32062 127.896C-3.94537 138.084 -14.2221 142.753 -24.0285 141.871C-33.2048 141.025 -41.9532 135.307 -47.3936 124.674C-52.8726 109.655 -58.3929 97.1915 -58.9563 84.9299C-58.4795 69.5858 -75.5086 79.4599 -89.2351 66.9317C-102.962 54.4036 -91.3105 38.1028 -106.771 36.3406C-131.236 33.7115 -145.632 27.7646 -152.648 20.3074C-168.351 4.68427 -150.235 -17.9604 -124.368 -28.8708C-109.404 -35.3385 -96.83 -38.9604 -86.4785 -42.7079C-72.0546 -46.937 -79.3476 -69.9001 -71.1813 -81.9421C-56.8942 -102.66 -41.948 -86.7938 -37.9405 -109.498C-36.2803 -118.634 -34.7234 -128.963 -33.2501 -140.723C-29.5508 -167.587 -21.8419 -185 -13.0275 -195.335C3.28244 -217.49 26.0927 -214.17 39.473 -198.395C47.1463 -189.254 51.7124 -176.038 50.2038 -161.175C48.4143 -143.522 39.4356 -118.625 47.5417 -103.368C52.9167 -92.3623 85.9874 -117.034 96.77 -97.6604C103.862 -85.2344 96.8717 -64.2768 104.52 -57.8097C112.781 -50.8235 119.807 -45.6111 124.213 -43.2594Z" stroke="#A6F400"/>
<path d="M111.37 -40.2034C136.036 -29.8238 110.51 -3.49311 94.9641 -4.9041C72.311 -6.89663 59.7827 -0.796999 41.9653 12.3589C32.0151 18.477 45.2587 30.8229 37.3341 46.6852C29.4096 62.5475 10.6218 58.5372 11.6091 71.1359C12.9791 90.43 8.65652 104.505 1.77522 113.413C-4.69583 122.313 -13.8443 126.331 -22.5228 125.401C-30.6497 124.503 -38.3434 119.25 -42.9828 109.57C-47.2283 94.8124 -54.9797 83.8736 -56.0665 72.8454C-55.8666 59.316 -70.7579 67.6957 -82.6386 56.4729C-94.5192 45.2501 -84.0529 30.737 -97.2564 29.0505C-118.297 26.5809 -130.587 21.2961 -136.466 14.6987C-150.044 0.953729 -133.924 -19.007 -111.037 -28.8054C-97.6911 -34.7247 -86.4634 -38.2641 -77.3334 -42.035C-64.6711 -45.9504 -71.0356 -66.3029 -63.8629 -77.131C-51.3342 -95.5804 -38.1801 -81.9723 -34.6102 -102.067C-33.0858 -110.293 -31.6354 -119.516 -30.2483 -129.949C-26.6075 -154.033 -19.2784 -169.181 -11.2216 -177.813C3.13994 -197.068 23.1889 -194.007 34.9621 -180.038C41.735 -171.876 45.761 -160.134 44.4314 -146.943C42.7716 -130.447 34.8913 -108.133 42.7377 -94.1965C47.642 -84.4134 76.8504 -105.883 86.5767 -88.8358C93.0679 -77.8682 87.2358 -59.445 94.1215 -53.6243C101.522 -47.3683 107.642 -42.5138 111.37 -40.2034Z" stroke="#A6F400"/>
<path d="M98.1783 -37.3842C119.144 -28.2151 97.0286 -5.42658 83.4664 -6.6555C62.0315 -8.51834 50.908 -2.23775 35.3791 10.3266C26.8229 15.7421 38.1446 26.5857 31.327 40.4374C24.5095 54.2892 8.37825 51.1217 9.11665 62.0613C10.0775 78.8851 6.07822 91.0797 -0.100941 98.6911C-5.77602 106.305 -13.786 109.678 -21.3222 108.709C-28.3862 107.767 -35.0081 102.992 -38.8296 94.2762C-41.8216 79.7975 -51.7781 70.3974 -53.3751 60.6114C-53.4386 48.9058 -66.1776 55.8009 -76.1828 45.9038C-86.188 36.0068 -76.9082 23.2813 -87.8331 21.6856C-105.415 19.3993 -115.574 14.7932 -120.302 9.06625C-131.719 -2.77692 -117.599 -20.0561 -97.7183 -28.7587C-86.0062 -34.1384 -76.1386 -37.6037 -68.2409 -41.404C-57.3561 -45.0156 -62.7615 -62.7366 -56.5827 -72.3501C-45.8132 -88.5303 -34.4859 -77.203 -31.3386 -94.6772C-29.9443 -101.989 -28.5933 -110.101 -27.2842 -119.201C-23.6836 -140.491 -16.7307 -153.371 -9.43521 -160.302C2.9754 -176.659 20.2289 -173.88 30.3623 -161.739C36.216 -154.569 39.6839 -144.313 38.522 -132.803C36.9783 -117.475 30.1863 -97.7516 37.7462 -85.1529C42.1619 -76.6047 67.4846 -94.8882 76.1219 -80.1879C81.9905 -70.693 77.3069 -54.8108 83.4137 -49.6477C89.9354 -44.134 95.1358 -39.6475 98.1783 -37.3842Z" stroke="#A6F400"/>
<path d="M85.5679 -34.6795C102.885 -26.6963 84.133 -7.40403 72.5216 -8.45631C52.2536 -10.1976 42.5095 -3.72429 29.2344 8.27317C22.053 12.9964 31.4818 22.364 25.7578 34.2344C20.0339 46.1049 6.51992 43.77 7.01342 53.0749C7.57082 67.4659 3.88777 77.8065 -1.60236 84.1369C-6.49345 90.4799 -13.3833 93.2135 -19.7953 92.2022C-25.8135 91.2137 -31.3801 86.9045 -34.3946 79.1327C-36.143 64.8998 -48.3298 57.0161 -50.4427 48.4505C-50.7719 38.5428 -61.3876 43.9659 -69.5432 35.3706C-77.6987 26.7753 -69.586 15.811 -78.2587 14.3003C-92.4236 12.1886 -100.478 8.24882 -104.066 3.3787C-113.352 -6.59129 -101.202 -21.2244 -84.2824 -28.8463C-74.1772 -33.6962 -65.6469 -37.093 -58.9633 -40.9295C-49.8307 -44.243 -54.2936 -59.3729 -49.0957 -67.7919C-40.0631 -81.7365 -30.5331 -72.6627 -27.8045 -87.5544C-26.5384 -93.9677 -25.2853 -100.986 -24.0528 -108.774C-20.4882 -127.316 -13.8976 -137.956 -7.34755 -143.2C3.13835 -156.692 17.6381 -154.185 26.1583 -143.843C31.1082 -137.648 34.0282 -128.854 33.0336 -119C31.6052 -104.806 25.8891 -87.6315 33.183 -76.3418C37.1225 -69.0084 58.616 -84.1409 66.1878 -71.7538C71.4497 -63.7094 67.9066 -50.334 73.2499 -45.8159C78.9093 -41.0309 83.2031 -36.9013 85.5679 -34.6795Z" stroke="#A6F400"/>
<path d="M72.7348 -31.6367C86.3975 -24.8348 71.0472 -9.09664 61.3953 -9.98404C42.3057 -11.6277 33.9585 -4.98508 22.965 6.40817C17.1705 10.4221 24.709 18.307 20.0979 28.1675C15.4867 38.0279 4.6002 36.5147 4.85902 44.1679C5.02894 56.0996 1.67686 64.5621 -3.11274 69.5928C-7.20844 74.647 -12.9693 76.7282 -18.253 75.6688C-23.2215 74.6281 -27.7334 70.7861 -29.9475 63.9698C-30.469 50.0074 -44.8918 43.6345 -47.5305 36.3013C-48.1372 28.2091 -56.6144 32.138 -62.9228 24.8514C-69.2313 17.5648 -62.3053 8.39198 -68.7191 6.95989C-79.4561 5.01121 -85.4012 1.73671 -87.8523 -2.27096C-95.01 -10.3593 -84.8571 -22.3044 -70.9223 -28.8118C-62.4387 -33.1109 -55.2576 -36.4229 -49.7996 -40.281C-42.4317 -43.2799 -45.9656 -55.7955 -41.7637 -62.9985C-34.4926 -74.6712 -26.759 -67.8571 -24.4689 -80.1353C-23.3397 -85.6369 -22.1938 -91.5474 -21.0479 -98.0058C-17.5439 -113.761 -11.332 -122.131 -5.53755 -125.67C2.9992 -136.261 14.7352 -134.013 21.6468 -125.48C25.6958 -120.266 28.0758 -112.946 27.2609 -104.767C25.9675 -91.7356 21.3533 -77.1484 28.3905 -67.1783C31.8593 -61.0686 49.4878 -72.9965 56.0021 -62.9365C60.6627 -56.3509 58.2794 -45.5109 62.8605 -41.6396C67.6584 -37.5854 71.0471 -33.8154 72.7348 -31.6367Z" stroke="#A6F400"/>
<path d="M60.0523 -28.8165C70.0611 -23.2057 58.0489 -10.9241 50.3439 -11.6249C32.3985 -13.1294 25.4177 -6.26647 16.66 4.59874C12.2338 7.9338 17.8721 14.3462 14.3417 22.2454C10.8112 30.1447 2.54076 29.4773 2.54482 35.5063C2.29544 45.0225 -0.753979 51.6466 -4.86447 55.4079C-8.18444 59.202 -12.8308 60.6527 -16.9916 59.5543C-20.9153 58.4696 -24.3692 55.0911 -25.7676 49.2094C-25.0241 35.4596 -41.7055 30.6099 -44.8588 24.4875C-45.7242 18.1826 -52.0849 20.6518 -56.5352 14.6628C-60.9856 8.67381 -55.2113 1.24013 -59.3693 -0.102388C-66.6859 -1.86769 -70.5199 -4.47343 -71.8248 -7.62693C-76.8417 -13.8442 -68.6393 -23.1715 -57.6515 -28.6255C-50.7651 -32.4126 -44.9133 -35.6725 -40.6631 -39.5832C-35.0418 -42.2989 -37.619 -52.2373 -34.3885 -58.2629C-28.8385 -67.7264 -22.9079 -63.1694 -21.0207 -72.8855L-20.9629 -73.1502C-19.9719 -77.6841 -18.9355 -82.4255 -17.8779 -87.4834C-14.3862 -100.52 -8.51861 -106.667 -3.45991 -108.525C3.16788 -116.273 12.1514 -114.308 17.4422 -107.569C20.5828 -103.327 22.4073 -97.4611 21.7498 -90.9247C20.5556 -78.9983 16.9989 -66.9307 23.7687 -58.2588C26.7571 -53.3589 40.578 -62.17 46.0197 -54.4172C50.0701 -49.2783 48.817 -40.9277 52.6335 -37.7002C56.5673 -34.3738 59.0458 -30.957 60.0523 -28.8165Z" stroke="#A6F400"/>
<path d="M46.8681 -26.0348C53.1767 -21.6363 44.5874 -12.9131 38.8702 -13.4346C22.1645 -14.8144 16.5969 -7.78645 10.1375 2.46567C7.1087 5.09246 10.8258 9.99818 8.4074 15.8774C5.98902 21.7566 0.378142 21.927 0.136756 26.2913C-0.515967 33.3279 -3.23583 38.0644 -6.63878 40.5247C-9.15884 43.0279 -12.663 43.831 -15.6796 42.6942C-18.5385 41.5665 -20.9204 38.6687 -21.504 33.7583C-19.5177 20.3111 -38.3749 16.9974 -42.0348 12.1231C-43.1642 7.64735 -47.3691 8.62937 -49.9462 3.9707C-52.5232 -0.687973 -47.9433 -6.32386 -49.8245 -7.57535C-53.6833 -9.15815 -55.3892 -11.0844 -55.5456 -13.3651C-58.4043 -17.6777 -52.2117 -24.3116 -44.2387 -28.6585C-38.9925 -31.8981 -34.5063 -35.0757 -31.4921 -39.0067C-27.6519 -41.4122 -29.2737 -48.7107 -27.0412 -53.5132C-23.2569 -60.6952 -19.1536 -58.4175 -17.6948 -65.5029C-16.8193 -69.197 -15.866 -72.9076 -14.8693 -76.7258C-11.4283 -86.952 -5.94698 -90.8246 -1.65545 -90.982C3.01459 -95.8247 9.19937 -94.1392 12.851 -89.2325C15.0726 -85.9856 16.3407 -81.6105 15.854 -76.7618C14.7823 -66.0215 12.3207 -56.5601 18.7987 -49.235C21.298 -45.5735 31.2216 -51.1863 35.5733 -45.7852C38.9995 -42.1218 38.8967 -36.3199 41.9325 -33.7522C44.9859 -31.17 46.5453 -28.125 46.8681 -26.0348Z" stroke="#A6F400"/>
<path d="M33.9575 -22.898C36.5911 -19.701 31.3972 -14.5083 27.6504 -14.8523C12.1497 -16.1152 7.98286 -8.91327 3.80526 0.743185C2.16379 2.66869 3.97373 6.08129 2.65954 9.9579C1.34535 13.8345 -1.62478 14.8395 -2.11096 17.5525C-3.16625 22.1298 -5.56245 24.9932 -8.26667 26.161C-9.99436 27.3823 -12.3668 27.5415 -14.2492 26.3646C-16.0527 25.1923 -17.3713 22.7688 -17.1452 18.8187C-13.9216 5.65457 -34.9806 3.85683 -39.1526 0.216322C-40.547 -2.44551 -42.6124 -2.94258 -43.328 -6.28293C-44.0437 -9.62327 -40.6462 -13.4768 -40.2626 -14.6383C-40.6832 -16.0403 -40.2719 -17.2917 -39.2843 -18.7058C-39.9976 -21.1275 -35.7966 -25.0887 -30.8142 -28.3394C-27.1935 -31.038 -24.0611 -34.1379 -22.2746 -38.095C-20.2027 -40.1953 -20.876 -44.8757 -19.6345 -48.4677C-17.6035 -53.3886 -15.3148 -53.377 -14.2805 -57.8535C-13.5367 -60.6368 -12.6845 -63.2406 -11.7674 -65.7317C-8.37224 -73.1735 -3.26552 -74.7859 0.27064 -73.2488C2.99895 -75.2053 6.40651 -73.7967 8.43158 -70.7068C9.74181 -68.446 10.458 -65.5486 10.1412 -62.3732C9.19248 -52.7983 7.81891 -45.9178 14.0194 -39.9207C16.0361 -37.4864 22.0948 -39.9225 25.3681 -36.8543C28.1786 -34.6541 29.2217 -31.3804 31.4856 -29.4653C33.6674 -27.6199 34.3148 -24.9408 33.9575 -22.898Z" stroke="#A6F400"/>
<path d="M589.603 41.1993C611.859 48.7617 659.301 18.6611 624.601 -5.32101C618.911 -9.25327 610.89 -17.6732 602.467 -29.1658C594.751 -39.6937 611.55 -64.9662 606.791 -83.4062C599.327 -112.326 547.945 -89.6165 544.743 -105.489C540.549 -126.277 560.051 -155.088 567.058 -175.096C573.655 -193.931 571.724 -212.535 564.432 -226.736C551.638 -251.65 522.343 -263.01 493.641 -238.287C479.273 -225.91 465.054 -204.491 453.129 -171.203C447.797 -156.32 442.809 -143.504 438.05 -132.466C425.799 -104.057 411.282 -130.883 385.877 -108.778C371.401 -96.1823 374.068 -63.8658 353.701 -63.5188C339.219 -63.2721 322.167 -63.4555 301.009 -60.2769C263.852 -54.6947 233.294 -30.5867 249.845 -4.69084C257.657 7.53355 275.967 20.1563 309.036 31.4168C330.198 38.6228 310.388 56.0646 325.315 76.6147C340.242 97.1648 366.374 88.7758 360.285 108.668L360.163 109.066C355.521 124.228 350.571 140.398 355.8 157.776C360.305 172.745 370.245 182.486 382.074 186.081C394.734 189.927 409.558 186.733 422.202 175.372C434.888 163.972 445.379 144.35 449.285 115.366C451.861 96.2563 478.648 110.294 496.214 90.012C513.78 69.7298 497.781 47.0447 514.92 42.0222C544.693 33.2978 563.536 32.3424 589.603 41.1993Z" stroke="#A6F400"/>
<path d="M611.7 -5.64052C643.137 16.3333 599.775 43.8316 579.37 36.8992C554.412 28.4363 536.863 29.901 509.411 38.6027C493.768 43.2762 508.274 64.084 492.232 82.7002C476.189 101.316 451.748 88.7011 449.317 106.167C445.587 132.695 435.836 150.593 424.118 160.912C412.531 171.225 398.944 174.062 387.385 170.439C376.582 167.045 367.558 158.004 363.616 144.141C359.488 127.145 362.06 111.793 365.953 97.581C371.365 79.3712 347.637 86.8316 334.201 67.9796C320.765 49.1276 339.031 33.1207 320.034 26.5264C290.24 16.2381 273.817 4.75653 266.91 -6.36887C251.99 -29.9465 280.018 -51.9499 314.049 -57.1789C333.523 -60.2206 349.261 -60.2845 362.573 -60.8506C381.169 -61.3196 378.813 -90.9001 392.058 -102.566C415.256 -122.91 428.554 -98.6922 439.795 -124.694C444.221 -134.89 448.858 -146.667 453.809 -160.294C465.058 -190.924 478.401 -210.255 491.652 -221.171C517.817 -243.568 544.503 -233.119 556.151 -210.33C562.793 -197.288 564.533 -180.232 558.485 -162.964C551.854 -144.032 533.992 -117.443 538.231 -97.9883C541.253 -83.4073 588.184 -103.959 595.152 -77.5349C599.66 -60.6453 584.553 -37.5376 591.678 -27.8153C599.433 -17.2329 606.658 -9.37286 611.7 -5.64052Z" stroke="#A6F400"/>
<path d="M598.238 -5.9562C626.319 13.9272 587.112 38.7956 568.614 32.5288C544.83 24.5049 528.615 26.4912 503.539 35.1736C489.423 39.5008 502.384 58.3672 487.885 75.2866C473.386 92.206 451.359 81.0658 449.061 96.8472C445.492 120.858 436.487 136.997 425.755 146.221C415.244 155.47 402.921 157.957 392.494 154.576C382.745 151.402 374.666 143.091 371.308 130.373C368.354 113.956 368.425 99.5918 371.537 86.4751C376.277 69.9874 355.002 76.5226 343.105 59.4268C331.208 42.331 347.902 27.7814 331.12 21.8318C304.678 12.5676 290.19 2.26966 284.214 -7.72364C270.981 -28.9122 296.434 -48.7829 327.265 -53.6769C345.014 -56.592 359.401 -56.9171 371.513 -57.8131C388.297 -58.4199 386.283 -85.1899 398.277 -95.9106C419.233 -114.464 431.26 -92.9252 441.49 -116.466C445.581 -125.799 449.867 -136.514 454.439 -148.856C465.013 -176.763 477.467 -193.971 489.578 -203.413C513.167 -223.453 537.173 -213.965 547.627 -193.367C553.592 -181.522 555.122 -166.057 549.62 -150.393C543.364 -132.577 527.157 -108.258 531.413 -90.1901C534.236 -76.9389 576.625 -95.3263 583.058 -71.4684C587.289 -56.1746 573.886 -35.2746 580.395 -26.3885C587.455 -16.7492 593.859 -9.47497 598.238 -5.9562Z" stroke="#A6F400"/>
<path d="M585.339 -6.27792C610.156 11.5979 575.031 33.8617 558.385 28.2246C535.71 20.5953 520.789 23.0915 498.033 31.751C485.413 35.7287 496.882 52.7178 483.907 67.9702C470.933 83.2226 451.253 73.5045 449.099 87.6416C445.707 109.196 437.443 123.61 427.679 131.753C418.227 139.952 407.142 142.081 397.816 138.924C389.094 135.95 381.93 128.339 379.135 116.727C377.331 100.842 374.888 87.4316 377.216 75.3798C381.278 60.5755 362.408 66.1805 352.002 50.7826C341.597 35.3847 356.746 22.271 342.13 16.9321C318.964 8.63889 306.364 -0.518396 301.293 -9.41285C289.691 -28.2831 312.612 -46.0477 340.316 -50.5875C356.381 -53.3653 369.453 -53.9375 380.395 -55.1529C395.408 -55.8814 393.704 -79.9144 404.466 -89.7054C423.214 -106.495 434.022 -87.566 443.243 -108.698C446.999 -117.189 450.935 -126.865 455.125 -137.951C465.021 -163.198 476.599 -178.318 487.591 -186.298C508.642 -204.01 530.037 -195.433 539.345 -176.96C544.661 -166.274 546 -152.356 541.048 -138.261C535.168 -121.521 520.601 -99.4237 524.903 -82.6912C527.547 -70.7317 565.482 -86.9595 571.42 -65.5976C575.4 -51.8548 563.69 -33.1211 569.608 -25.0408C576.001 -16.3118 581.608 -9.59716 585.339 -6.27792Z" stroke="#A6F400"/>
<path d="M572.138 -6.31901C593.682 9.55566 562.692 29.1656 547.911 24.1483C526.357 16.8988 512.748 19.8901 492.342 28.5006C481.235 32.1146 491.213 47.222 479.79 60.7835C468.366 74.345 451.043 66.0404 449.048 78.5193C445.855 97.5966 438.352 110.265 429.574 117.311C421.196 124.446 411.36 126.206 403.142 123.266C395.452 120.487 389.205 113.577 386.965 103.078C386.299 87.737 381.329 75.2854 382.859 64.3099C386.226 51.2047 369.785 55.8583 360.868 42.1623C351.95 28.4663 365.528 16.8125 353.089 12.0765C333.214 4.74142 322.506 -3.27818 318.338 -11.0705C308.362 -27.6164 328.714 -43.2399 353.261 -47.3977C367.622 -50.022 379.367 -50.8296 389.127 -52.3542C402.354 -53.1908 400.94 -74.4684 410.452 -83.3123C426.958 -98.309 436.554 -81.9955 444.737 -100.693C448.148 -108.331 451.721 -116.957 455.516 -126.774C464.704 -149.332 475.381 -162.34 485.237 -168.841C503.714 -184.191 522.486 -176.513 530.655 -160.173C535.325 -150.65 536.485 -138.292 532.099 -125.781C526.617 -110.134 513.723 -90.2902 518.082 -74.9019C520.555 -64.2416 553.984 -78.2629 559.441 -59.4097C563.179 -47.2256 553.189 -30.684 558.518 -23.4108C564.245 -15.5937 569.056 -9.43925 572.138 -6.31901Z" stroke="#A6F400"/>
<path d="M558.651 -6.67218C576.881 7.15801 550.038 24.1245 537.143 19.7493C516.742 12.9115 504.456 16.4083 486.414 24.9804C476.826 28.2383 485.289 41.4346 475.413 53.3012C465.537 65.1678 450.599 58.3055 448.751 69.1132C445.74 85.6932 438.992 96.6098 431.2 102.56C423.898 108.63 415.32 110.031 408.221 107.321C401.575 104.749 396.258 98.5546 394.587 89.1854C395.074 74.4088 387.6 62.9359 388.342 53.0483C391.026 41.6542 377.025 45.3694 369.62 33.402C362.215 21.4346 374.22 11.2402 363.974 7.12695C347.419 0.781185 338.623 -6.079 335.37 -12.755C327.049 -26.9454 344.828 -40.4312 366.195 -44.2288C378.842 -46.7118 389.247 -47.7663 397.815 -49.6084C409.244 -50.5665 408.145 -69.061 416.406 -76.9574C430.67 -90.1607 439.025 -76.4929 446.182 -92.7416C449.252 -99.5222 452.468 -107.091 455.875 -115.631C464.368 -135.482 474.148 -146.373 482.865 -151.4C498.766 -164.39 514.886 -157.642 521.89 -143.463C525.899 -135.12 526.864 -124.337 523.036 -113.42C517.94 -98.8817 506.712 -81.3015 511.107 -67.2813C513.395 -57.9358 542.299 -69.7708 547.248 -53.4549C550.726 -42.8484 542.448 -28.5076 547.174 -22.0563C552.221 -15.1669 556.224 -9.58587 558.651 -6.67218Z" stroke="#A6F400"/>
<path d="M545.758 -6.99987C560.721 4.82191 537.967 19.1784 526.926 15.4323C507.632 8.98639 496.641 12.994 480.923 21.5436C472.834 24.4509 479.803 35.7685 471.455 45.9655C463.107 56.1625 450.517 50.7234 448.815 59.8846C445.982 74.005 439.976 83.1935 433.155 88.0598C426.912 93.0788 419.574 94.1204 413.577 91.6335C407.959 89.2612 403.558 83.7667 402.45 75.5047C404.089 61.2587 394.091 50.7369 394.045 41.9146C396.049 32.206 384.457 34.9883 378.545 24.7201C372.633 14.4519 383.091 5.69594 375.014 2.19346C361.739 -3.18137 354.834 -8.90006 352.488 -14.476C345.799 -26.3457 361.042 -37.7212 379.277 -41.1626C390.238 -43.5073 399.327 -44.8089 406.724 -46.9709C416.379 -48.0503 415.589 -63.8048 422.616 -70.7701C434.667 -82.2075 441.803 -71.1517 447.948 -84.9882C450.683 -90.9258 453.547 -97.4548 456.571 -104.736C464.385 -121.925 473.287 -130.723 480.884 -134.284C494.242 -144.941 507.749 -139.103 513.607 -127.052C516.966 -119.869 517.742 -110.635 514.464 -101.289C509.747 -87.8258 500.162 -72.471 504.605 -59.7855C506.715 -51.7328 531.158 -61.4026 535.613 -47.5853C538.842 -38.5312 532.261 -26.3598 536.396 -20.7146C540.775 -14.7358 543.981 -9.71432 545.758 -6.99987Z" stroke="#A6F400"/>
<path d="M532.57 -7.05168C544.256 2.76466 525.643 14.4639 516.468 11.3377C498.297 5.263 488.624 9.76283 475.265 18.2602C468.691 20.8032 474.17 30.2362 467.375 38.7402C460.58 47.2443 450.352 43.2201 448.809 50.7206C446.176 62.3594 440.933 69.7998 435.097 73.567C429.93 77.5197 423.842 78.1918 418.954 75.9228C414.368 73.7459 410.883 68.9529 410.329 61.8074C413.097 48.1122 400.571 38.5346 399.725 30.787C401.033 22.7783 391.871 24.6095 387.448 16.0467C383.024 7.48387 391.908 0.191109 386.009 -2.7052C376.028 -7.11756 371.017 -11.695 369.574 -16.1657C364.513 -25.7071 377.184 -34.938 392.256 -37.996C401.512 -40.1856 409.269 -41.7211 415.48 -44.1916C423.345 -45.379 422.845 -58.3743 428.619 -64.391C438.425 -74.0329 444.345 -65.5952 449.451 -76.9939C451.839 -82.0773 454.339 -87.5541 456.967 -93.5637C464.068 -108.057 472.07 -114.738 478.533 -116.819C489.315 -125.112 500.197 -120.175 504.914 -110.259C507.628 -104.241 508.225 -96.5673 505.514 -88.8075C501.201 -76.4424 493.294 -63.3441 497.797 -52.0017C499.736 -45.2489 519.67 -52.7099 523.644 -41.4027C526.63 -33.9079 521.771 -23.929 525.317 -19.0914C529.03 -14.0251 531.44 -9.56548 532.57 -7.05168Z" stroke="#A6F400"/>
<path d="M519.58 -7.28443C527.994 0.51716 513.437 9.63914 506.111 7.15085C489.019 1.47985 480.623 6.51419 469.562 15.0225C464.477 17.2266 468.454 24.7824 463.17 31.6334C457.885 38.4844 450.002 35.896 448.592 41.7579C446.118 50.9502 441.6 56.6744 436.722 59.3668C432.605 62.2765 427.748 62.5971 423.961 60.5535C420.401 58.5789 417.835 54.4847 417.855 48.439C421.803 35.247 406.724 26.6205 405.094 19.9293C405.732 13.5973 398.969 14.5059 396.048 7.64025C393.126 0.774567 400.482 -5.09761 396.755 -7.37781C390.057 -10.8098 386.941 -14.242 386.412 -17.6136C382.993 -24.834 393.154 -31.9776 405.114 -34.7026C412.697 -36.7691 419.15 -38.5658 424.199 -41.3706C430.3 -42.6923 430.126 -52.9579 434.679 -58.0578C442.294 -65.9559 446.99 -60.1351 451.103 -69.1376L451.222 -69.3814C453.248 -73.5565 455.368 -77.9226 457.582 -82.5914C464.034 -94.4454 471.179 -99.0447 476.533 -99.665C484.793 -105.643 493.065 -101.625 496.628 -93.8335C498.686 -88.9731 499.084 -82.8431 496.912 -76.6432C492.954 -65.3295 486.666 -54.4325 491.214 -44.4148C492.969 -38.9507 508.471 -44.2749 511.943 -35.4621C514.675 -29.5166 511.499 -21.6928 514.452 -17.6603C517.496 -13.5041 519.104 -9.60135 519.58 -7.28443Z" stroke="#A6F400"/>
</svg>
