<svg width="375" height="281" viewBox="0 0 375 281" fill="none" xmlns="http://www.w3.org/2000/svg">
<path d="M31.6245 103.821C77.8215 129.435 45.2336 170.144 8.05126 186.149C-12.8827 196.231 -5.33971 223.689 -31.286 236.166C-57.2323 248.642 -56.6367 203.826 -96.9448 222.323C-137.253 240.82 -173.857 176.707 -149.124 150.266C-124.391 123.826 -139.883 122.58 -134.092 77.6019C-128.302 32.6234 -58.5237 15.5926 -40.4833 54.4655C-22.4428 93.3384 -18.3846 76.0934 31.6245 103.821Z" stroke="#A6F400"/>
<path d="M24.2738 106.534C66.689 130.023 37.0907 168.021 2.68457 182.753C-16.8995 192.086 -10.2691 217.548 -34.1837 229.048C-58.6321 240.804 -57.9832 199.705 -95.1846 216.536C-132.507 233.37 -166.828 174.388 -143.559 149.549C-120.429 124.853 -135.028 123.603 -129.422 82.0803C-123.817 40.5574 -59.5915 24.752 -42.5527 60.7158C-25.9125 96.2895 -21.8851 80.9883 24.2738 106.534Z" stroke="#A6F400"/>
<path d="M16.9229 109.247C55.5564 130.611 28.9477 165.897 -2.68224 179.358C-20.9163 187.942 -15.1986 211.408 -37.0814 221.93C-60.0321 232.965 -59.3299 195.584 -93.4245 210.749C-127.761 225.92 -159.8 172.069 -137.994 148.832C-116.467 125.88 -130.172 124.626 -124.752 86.5588C-119.332 48.4913 -60.6594 33.9113 -44.6222 66.9661C-29.3823 99.2404 -25.3858 85.8831 16.9229 109.247Z" stroke="#A6F400"/>
<path d="M9.56999 111.96C44.4217 131.199 20.8027 163.774 -8.05117 175.963C-24.9353 183.798 -20.1302 205.267 -39.9813 214.812C-61.4342 225.126 -60.6787 191.462 -91.6664 204.961C-123.017 218.47 -152.774 169.751 -132.432 148.115C-112.508 126.907 -125.319 125.649 -120.084 91.0371C-114.849 56.4252 -61.7295 43.0705 -46.6938 73.2162C-32.8542 102.191 -28.8885 90.7779 9.56999 111.96Z" stroke="#A6F400"/>
<path d="M2.21877 114.674C33.2887 131.787 12.6593 161.651 -13.4184 172.568C-28.9525 179.654 -25.06 199.127 -42.8795 207.695C-62.8346 217.287 -62.0257 187.341 -89.9067 199.174C-118.271 211.021 -145.747 167.433 -126.868 147.399C-108.546 127.934 -120.463 126.672 -115.414 95.516C-110.365 64.3596 -62.7978 52.2303 -48.7637 79.4669C-36.3244 105.143 -32.3895 95.6732 2.21877 114.674Z" stroke="#A6F400"/>
<path d="M-5.25402 117.267C22.0341 132.256 4.39434 159.408 -18.9071 169.053C-33.0913 175.391 -30.1115 192.868 -45.8992 200.458C-64.3565 209.329 -63.4943 183.101 -88.2685 193.268C-113.647 203.452 -138.841 164.995 -121.425 146.562C-104.706 128.842 -115.73 127.576 -110.866 99.8753C-106.002 72.1744 -63.9876 61.2705 -50.9552 85.5981C-39.9162 107.975 -36.0121 100.449 -5.25402 117.267Z" stroke="#A6F400"/>
<path d="M-12.8726 119.721C10.6337 132.584 -4.01634 157.025 -24.5416 165.398C-37.3759 170.987 -35.3087 186.468 -49.0647 193.081C-66.0242 201.231 -65.1087 178.719 -86.7761 187.221C-109.169 195.743 -132.08 162.417 -116.128 145.586C-101.012 129.609 -111.142 128.339 -106.463 104.094C-101.785 79.8487 -65.3232 70.1701 -53.2924 91.5887C-43.6537 110.666 -39.7805 105.084 -12.8726 119.721Z" stroke="#A6F400"/>
<path d="M526.99 141.683C555.98 185.839 508.201 206.728 467.841 203.61C444.62 202.802 438.531 230.619 409.759 229.602C380.987 228.584 402.351 189.184 358.065 186.818C313.779 184.453 311.182 110.672 345.372 98.763C379.562 86.854 366.425 78.548 392.465 41.4195C418.505 4.29095 488.2 21.6563 486.098 64.4599C483.996 107.263 495.607 93.8826 526.99 141.683Z" stroke="#A6F400"/>
<path d="M519.221 140.667C545.851 181.184 501.98 201.062 464.669 198.109C442.991 197.266 437.022 222.891 410.503 221.953C383.392 220.993 403.076 184.909 362.314 182.513C321.445 180.064 318.482 111.887 350.632 100.715C382.592 89.6053 370.249 81.7112 394.518 47.5558C418.787 13.4003 482.996 29.2688 481.36 69.0312C479.552 108.263 490.232 96.5885 519.221 140.667Z" stroke="#A6F400"/>
<path d="M511.449 139.651C535.72 176.528 495.756 195.396 461.494 192.607C441.36 191.729 435.511 215.163 411.245 214.304C385.796 213.402 403.798 180.634 366.562 178.207C329.108 175.675 325.781 113.102 355.89 102.668C385.621 92.3564 374.071 84.8743 396.569 53.6919C419.067 22.5095 477.791 36.8812 476.62 73.6023C475.106 109.262 484.855 99.2943 511.449 139.651Z" stroke="#A6F400"/>
<path d="M503.68 138.635C525.591 171.872 489.534 189.73 458.321 187.105C439.73 186.192 434.002 207.434 411.989 206.654C388.201 205.811 404.522 176.358 370.811 173.902C336.774 171.285 333.081 114.316 361.151 104.62C388.651 95.1073 377.894 88.0372 398.621 59.8279C419.348 31.6186 472.587 44.4934 471.882 78.1734C470.663 110.261 479.48 102 503.68 138.635Z" stroke="#A6F400"/>
<path d="M495.909 137.619C515.459 167.216 483.31 184.063 455.147 181.604C438.099 180.655 432.491 199.705 412.731 199.005C390.604 198.219 405.244 172.083 375.058 169.596C344.438 166.896 340.379 115.531 366.409 106.572C391.679 97.8583 381.715 91.2001 400.672 65.9639C419.628 40.7277 467.381 52.1056 467.142 82.7444C466.217 111.26 474.103 104.706 495.909 137.619Z" stroke="#A6F400"/>
<path d="M488.087 136.44C505.277 162.398 477.036 178.235 451.922 175.94C436.417 174.956 430.929 191.814 413.423 191.194C392.957 190.466 405.916 167.646 379.255 165.128C352.051 162.345 347.627 116.584 371.616 108.362C394.657 100.447 385.486 94.2007 402.672 71.9376C419.857 49.6745 462.124 59.5556 462.351 87.1532C461.72 112.097 468.676 107.249 488.087 136.44Z" stroke="#A6F400"/>
<path d="M480.203 135.071C495.033 157.388 470.7 172.215 448.635 170.085C434.673 169.066 429.306 183.732 414.052 183.191C395.248 182.521 406.525 163.017 383.39 160.469C359.602 157.602 354.813 117.445 376.762 109.961C397.573 102.845 389.195 97.0103 404.61 77.7203C420.025 58.4303 456.806 66.8145 457.498 91.3709C457.162 112.742 463.186 109.601 480.203 135.071Z" stroke="#A6F400"/>
<path d="M472.314 133.691C484.784 152.369 464.358 166.185 445.342 164.22C432.924 163.165 427.677 175.64 414.676 175.178C397.533 174.566 407.13 158.378 387.519 155.8C367.148 152.849 361.993 118.296 381.902 111.549C400.483 105.232 392.898 99.8095 406.542 83.4926C420.186 67.1756 451.482 74.063 452.64 95.5782C452.598 113.378 457.691 111.943 472.314 133.691Z" stroke="#A6F400"/>
<path d="M464.422 132.295C474.531 147.333 458.013 160.139 442.046 158.339C431.172 157.249 426.044 167.532 415.297 167.149C399.816 166.596 407.73 153.723 391.645 151.115C374.69 148.081 369.171 119.131 387.039 113.122C403.39 107.603 396.598 102.593 408.472 89.2491C420.345 75.9053 446.154 81.2958 447.779 99.7698C448.031 113.997 452.193 114.269 464.422 132.295Z" stroke="#A6F400"/>
<path d="M456.519 130.878C464.269 142.276 451.658 154.071 438.74 152.436C429.409 151.31 424.402 159.402 415.908 159.099C402.088 158.603 408.321 149.047 395.761 146.408C382.223 143.29 376.338 119.945 392.166 114.673C406.288 109.953 400.289 105.354 410.391 94.9837C420.493 84.613 440.817 88.5066 442.908 103.939C443.454 114.595 446.685 116.574 456.519 130.878Z" stroke="#A6F400"/>
</svg>
