<svg width="1920" height="1189" viewBox="0 0 1920 1189" fill="none" xmlns="http://www.w3.org/2000/svg">
<path d="M199.769 720.916C266.223 722.746 339.859 625.593 218.312 596.085C198.382 591.246 166.054 578.136 128.206 558.574C93.5338 540.653 98.1026 474.301 59.1384 437.129C-1.96902 378.831 -96.2776 462.427 -127.593 429.84C-168.607 387.159 -162.526 311.284 -174.548 262.911C-185.866 217.373 -218.041 177.972 -257.065 151.742C-325.527 105.724 -415.066 100.239 -450.03 173.256C-467.534 209.807 -471.361 266.031 -452.022 346.689C-443.376 382.751 -436.914 414.067 -432.503 441.343C-421.151 511.549 -496.712 462.489 -527.336 527.603C-544.785 564.704 -490.601 633.597 -540.719 647.811C-576.355 657.918 -619.011 668.782 -666.928 689.71C-751.079 726.462 -791.562 799.358 -712.317 845.042C-674.908 866.608 -610.819 882.109 -512.049 884.882C-448.842 886.657 -472.419 937.878 -405.074 972.946C-337.729 1008.01 -285.116 972.409 -270.981 1019.92L-270.698 1020.88C-259.926 1057.09 -248.438 1095.71 -209.867 1130.25C-176.642 1160 -137.6 1174.74 -102.906 1174.78C-65.7765 1174.83 -33.6264 1158.05 -18.9156 1124.86C-4.15503 1091.55 -6.95164 1041.72 -39.8913 975.77C-61.609 932.288 25.6337 945.283 39.4537 889.335C53.2737 833.386 -19.877 794.357 15.337 772.054C76.5065 733.31 121.941 718.772 199.769 720.916Z" stroke="white" stroke-width="3"/>
<path d="M185.775 603.91C296.254 631.184 228.93 719.952 168.008 718.276C93.5142 716.261 52.0484 731.057 -3.38631 768.218C-35.3957 788.771 31.2818 824.68 18.7978 875.98C6.31372 927.281 -73.0039 915.845 -53.3476 955.638C-23.5832 1016.1 -21.485 1061.68 -35.4295 1091.98C-49.0548 1122.18 -78.656 1137.36 -112.72 1137.07C-144.567 1136.79 -180.303 1122.99 -210.501 1095.28C-245.771 1060.85 -261.967 1025.59 -273.205 991.94C-286.547 948.552 -334.55 980.538 -395.69 948.197C-456.83 915.857 -434.98 868.793 -491.905 866.925C-581.105 864.115 -638.823 849.862 -672.365 830.101C-744.145 788.408 -706.853 721.784 -629.954 687.87C-586.021 668.354 -546.995 657.817 -514.738 647.785C-469.201 634.474 -518.587 571.358 -502.83 537.101C-475.1 477.297 -406.408 521.46 -416.725 457.185C-420.728 431.969 -426.532 403.156 -434.277 370.091C-451.386 295.692 -446.663 244.613 -429.789 211.993C-397.705 145.738 -315.994 150.954 -253.508 193.083C-217.805 217.209 -188.381 253.352 -178.006 295.101C-166.629 340.873 -171.906 410.809 -132.741 450.542C-103.772 480.424 -17.3556 404.486 38.8492 457.655C74.9079 491.604 71.3569 552.106 103.374 568.656C138.225 586.669 167.749 599.081 185.775 603.91Z" stroke="white" stroke-width="3"/>
<path d="M151.844 612.114C250.905 637.034 190.039 717.308 134.835 715.827C63.9072 713.996 26.5238 729.051 -23.035 764.601C-51.7569 783.387 8.22308 816.073 -2.92099 862.644C-14.0651 909.214 -85.2119 899.41 -67.7018 935.432C-41.2412 990.287 -39.8766 1031.52 -52.9817 1058.78C-65.4994 1085.94 -92.4716 1099.52 -123.366 1099.02C-152.271 1098.52 -184.583 1085.69 -211.645 1060.1C-243.145 1026.16 -264.106 994.704 -275.669 963.97C-288.149 924.791 -331.418 953.134 -386.148 923.616C-440.878 894.099 -420.79 851.259 -471.26 849.338C-550.621 846.552 -601.787 833.608 -631.348 815.707C-695.42 778.124 -661.39 717.864 -591.952 686.795C-552.123 668.697 -516.839 658.481 -488.05 648.521C-447.222 636.106 -491.62 578.908 -477.58 547.544C-452.789 493.137 -391.2 532.282 -400.409 474.055C-403.975 450.947 -409.086 424.688 -415.885 394.683C-430.665 326.684 -425.029 280.833 -408.816 252.189C-379.668 192.79 -306.034 197.675 -249.74 235.803C-217.481 257.759 -190.921 290.562 -181.548 328.442C-170.883 371.527 -175.384 435.406 -138.218 472.096C-111.701 499.203 -33.3893 430.997 17.7082 478.91C50.7298 509.552 48.1673 564.102 77.4225 579.23C109.157 595.64 135.781 607.314 151.844 612.114Z" stroke="white" stroke-width="3"/>
<path d="M119.308 619.93C207.3 642.618 152.748 714.5 103.077 713.172C35.4849 711.472 2.06916 726.787 -41.7551 760.753C-67.2716 777.787 -13.7651 807.355 -23.5721 849.273C-33.3791 891.192 -96.6004 882.946 -81.1512 915.278C-57.8651 964.645 -57.198 1001.62 -69.486 1025.87C-80.9171 1050.04 -105.34 1062.02 -133.168 1061.28C-159.225 1060.54 -188.23 1048.63 -212.266 1025.09C-240.124 991.553 -265.932 963.846 -277.879 935.958C-289.567 900.907 -328.225 925.628 -376.749 898.837C-425.272 872.046 -406.912 833.367 -451.1 831.35C-520.889 828.523 -565.685 816.826 -591.378 800.729C-647.985 767.137 -617.148 713.154 -554.963 684.926C-519.118 668.24 -487.466 658.353 -462.056 648.467C-425.807 636.956 -465.409 585.537 -453.063 557.02C-431.167 507.926 -376.446 542.172 -384.621 489.879C-387.779 468.833 -392.233 445.077 -398.131 418.071C-410.682 356.333 -404.151 315.628 -388.569 290.918C-362.305 238.288 -296.5 242.905 -246.181 277.144C-217.243 296.996 -193.434 326.539 -185.003 360.628C-174.984 401.113 -178.679 459.049 -143.363 492.79C-119.193 517.191 -48.7761 456.65 -2.58065 499.432C27.5358 526.849 25.9928 575.544 52.5935 589.301C81.3299 604.162 105.149 615.138 119.308 619.93Z" stroke="white" stroke-width="3"/>
<path d="M86.433 628.565C163.344 649.041 115.168 712.388 71.0427 711.183C6.79687 709.572 -22.631 725.104 -60.685 757.41C-82.9777 772.65 -35.9419 799.087 -44.3826 836.285C-52.8233 873.482 -108.105 866.769 -94.7014 895.371C-74.5663 939.19 -74.5748 971.845 -86.0283 993.049C-96.355 1014.18 -118.214 1024.53 -142.968 1023.53C-166.172 1022.53 -191.87 1011.55 -212.886 990.08C-237.117 956.978 -267.793 933.038 -280.141 908.031C-291.055 877.154 -325.076 898.19 -367.396 874.137C-409.717 850.084 -393.113 815.634 -431.004 813.498C-491.202 810.591 -529.619 800.131 -551.447 785.848C-600.592 756.263 -572.991 708.659 -518.093 683.352C-486.254 668.127 -458.248 658.602 -436.231 648.821C-404.582 638.253 -439.407 592.667 -428.776 567.047C-409.813 523.354 -361.955 552.682 -369.126 506.398C-371.888 487.443 -375.699 466.223 -380.711 442.253C-391.068 386.863 -383.666 351.371 -368.733 330.644C-345.391 284.877 -287.431 289.262 -243.081 319.591C-217.46 337.326 -196.39 363.58 -188.883 393.831C-179.486 431.662 -182.337 483.566 -148.857 514.33C-127.023 536.004 -64.5586 483.263 -23.2512 520.878C3.96938 545.047 3.47762 587.813 27.4256 600.195C53.1652 613.502 74.1803 623.779 86.433 628.565Z" stroke="white" stroke-width="3"/>
<path d="M52.3875 636.701C118.055 654.895 76.2965 709.723 37.8026 708.676C-22.9695 707.204 -48.3645 722.966 -80.6 753.627C-99.6385 767.084 -59.1835 790.345 -66.2709 822.814C-73.3584 855.283 -120.59 850.149 -109.28 874.999C-92.368 913.238 -93.0772 941.563 -103.691 959.72C-112.91 977.817 -132.171 986.545 -153.804 985.311C-174.109 984.078 -196.443 974.048 -214.383 954.667C-234.916 922.038 -270.378 901.892 -283.082 879.784C-293.177 853.1 -322.513 870.472 -358.53 849.199C-394.548 827.926 -379.706 797.706 -411.228 795.482C-461.718 792.545 -493.677 783.357 -511.586 770.91C-553.152 745.382 -528.802 704.152 -481.278 681.733C-453.494 667.949 -429.181 658.77 -410.592 649.081C-383.594 639.436 -413.54 599.727 -404.624 577.005C-388.596 538.714 -347.716 563.078 -353.834 522.824C-356.18 505.97 -359.324 487.297 -363.421 466.377C-371.521 417.363 -363.237 387.091 -348.964 370.341C-328.554 331.436 -278.552 335.54 -240.279 361.912C-218.038 377.504 -199.768 400.444 -193.222 426.84C-184.495 461.993 -186.536 507.847 -154.982 535.597C-135.543 554.518 -81.1087 509.547 -44.7981 541.95C-20.5448 562.842 -20.0185 599.665 1.22109 610.647C23.9041 622.376 42.0674 631.933 52.3875 636.701Z" stroke="white" stroke-width="3"/>
<path d="M19.8597 644.498C74.4478 660.46 39.013 706.88 6.05587 705.984C-51.3907 704.638 -72.8131 720.661 -99.305 749.737C-115.134 761.438 -81.1569 781.578 -86.9036 809.387C-92.6502 837.197 -131.948 833.622 -122.7 854.776C-108.964 887.521 -110.371 911.577 -120.167 926.723C-128.299 941.821 -145.008 948.946 -163.573 947.47C-181.03 945.995 -200.054 936.89 -214.965 919.558C-231.856 887.329 -272.192 870.929 -285.286 851.671C-294.592 829.12 -319.311 842.861 -349.118 824.317C-378.924 805.773 -365.813 779.721 -391.043 777.399C-431.95 774.417 -457.53 766.476 -471.567 755.836C-505.661 734.303 -484.509 699.362 -444.244 679.791C-420.449 667.423 -399.771 658.573 -384.565 648.959C-362.153 640.221 -387.3 606.298 -380.081 586.427C-366.955 553.459 -332.948 572.916 -338.034 538.605C-339.972 523.817 -342.46 507.65 -345.656 489.733C-351.527 446.99 -342.344 421.874 -328.7 409.067C-311.178 376.942 -269.012 380.783 -236.718 403.262C-217.799 416.747 -202.281 436.424 -196.677 459.023C-188.592 491.575 -189.822 531.478 -160.112 556.277C-143.018 572.49 -96.4874 535.2 -65.0797 562.466C-43.731 580.129 -42.1799 611.087 -23.595 620.698C-3.91121 630.877 11.4463 639.738 19.8597 644.498Z" stroke="white" stroke-width="3"/>
<path d="M-13.0006 653.1C30.494 666.841 1.44155 704.717 -25.9645 703.943C-80.0741 702.666 -97.4955 718.894 -118.199 746.298C-130.799 756.201 -103.298 773.205 -107.675 796.287C-112.052 819.369 -143.399 817.328 -136.198 834.746C-125.616 861.933 -127.701 881.664 -136.664 893.756C-143.691 905.811 -157.836 911.303 -173.326 909.571C-187.928 907.841 -203.644 899.664 -215.535 884.408C-228.808 852.637 -274.038 839.972 -287.54 823.591C-296.074 805.217 -316.154 815.274 -339.75 799.475C-363.347 783.676 -351.994 761.862 -370.92 759.427C-402.222 756.374 -421.415 749.676 -431.58 740.855C-458.201 723.338 -440.287 694.785 -407.321 678.141C-387.536 667.24 -370.512 658.758 -358.71 649.253C-340.905 641.461 -361.27 613.379 -355.771 596.41C-345.585 568.851 -318.453 583.388 -322.534 555.093C-324.079 542.401 -325.923 528.775 -328.232 513.9C-331.908 477.52 -321.848 457.628 -308.845 448.808C-294.247 423.553 -259.932 427.158 -233.614 445.722C-218.014 457.087 -205.238 473.47 -200.556 492.226C-193.084 522.111 -193.464 555.971 -165.58 577.795C-150.823 591.278 -112.25 561.796 -85.735 583.893C-67.2834 598.307 -64.678 623.334 -48.7463 631.568C-32.0607 640.192 -19.5076 648.35 -13.0006 653.1Z" stroke="white" stroke-width="3"/>
<path d="M-45.6363 661.171C-13.2415 672.67 -36.005 702.231 -57.8765 701.63C-108.708 700.523 -122.17 717.077 -137.146 742.987C-146.543 751.165 -125.538 765.057 -128.593 783.527C-131.648 801.997 -155.053 801.546 -149.932 815.293C-142.555 837.026 -145.363 852.525 -153.526 861.635C-159.479 870.716 -171.081 874.626 -183.502 872.66C-195.256 870.694 -207.658 863.438 -216.504 850.207C-226.104 818.756 -276.28 809.857 -290.177 796.305C-297.91 782.04 -313.383 788.494 -330.748 775.413C-348.114 762.332 -338.468 744.634 -351.088 742.111C-372.789 739.033 -385.585 733.587 -391.861 726.565C-410.985 713.037 -396.239 690.706 -370.518 676.847C-354.71 667.319 -341.313 659.128 -332.89 649.66C-319.668 642.739 -335.208 620.41 -331.394 606.252C-324.088 583.953 -303.848 593.577 -306.871 571.177L-306.935 570.566C-308.041 560.099 -309.198 549.153 -310.563 537.482C-311.969 507.303 -300.975 492.527 -288.58 487.634C-276.844 469.107 -250.37 472.427 -230.048 487.108C-217.78 496.375 -207.77 509.514 -204.047 524.504C-197.237 551.855 -196.831 579.833 -170.787 598.731C-158.382 609.518 -127.682 587.636 -106.084 604.611C-90.5438 615.804 -86.9271 635.009 -73.6525 641.874C-59.97 648.95 -50.2299 656.421 -45.6363 661.171Z" stroke="white" stroke-width="3"/>
<path d="M2604.77 629.916C2671.22 631.746 2744.86 534.593 2623.31 505.085C2603.38 500.246 2571.05 487.136 2533.21 467.574C2498.53 449.653 2503.1 383.301 2464.14 346.129C2403.03 287.831 2308.72 371.427 2277.41 338.84C2236.39 296.159 2242.47 220.284 2230.45 171.911C2219.13 126.373 2186.96 86.9724 2147.94 60.7419C2079.47 14.7237 1989.93 9.23947 1954.97 82.2558C1937.47 118.807 1933.64 175.031 1952.98 255.689C1961.62 291.751 1968.09 323.067 1972.5 350.343C1983.85 420.549 1908.29 371.489 1877.66 436.603C1860.22 473.704 1914.4 542.597 1864.28 556.811C1828.65 566.918 1785.99 577.782 1738.07 598.71C1653.92 635.462 1613.44 708.358 1692.68 754.042C1730.09 775.608 1794.18 791.109 1892.95 793.882C1956.16 795.657 1932.58 846.878 1999.93 881.946C2067.27 917.014 2119.88 881.409 2134.02 928.924L2134.3 929.875C2145.07 966.09 2156.56 1004.71 2195.13 1039.25C2228.36 1069 2267.4 1083.74 2302.09 1083.78C2339.22 1083.83 2371.37 1067.05 2386.08 1033.86C2400.84 1000.55 2398.05 950.719 2365.11 884.77C2343.39 841.288 2430.63 854.283 2444.45 798.335C2458.27 742.386 2385.12 703.357 2420.34 681.054C2481.51 642.31 2526.94 627.772 2604.77 629.916Z" stroke="white" stroke-width="3"/>
<path d="M2590.77 512.91C2701.25 540.184 2633.93 628.952 2573.01 627.276C2498.51 625.261 2457.05 640.057 2401.61 677.218C2369.6 697.771 2436.28 733.68 2423.8 784.98C2411.31 836.281 2332 824.845 2351.65 864.638C2381.42 925.102 2383.51 970.675 2369.57 1000.98C2355.95 1031.18 2326.34 1046.36 2292.28 1046.07C2260.43 1045.79 2224.7 1031.99 2194.5 1004.28C2159.23 969.849 2143.03 934.585 2131.79 900.94C2118.45 857.552 2070.45 889.538 2009.31 857.197C1948.17 824.857 1970.02 777.793 1913.1 775.925C1823.9 773.115 1766.18 758.862 1732.64 739.101C1660.86 697.408 1698.15 630.784 1775.05 596.87C1818.98 577.354 1858 566.817 1890.26 556.785C1935.8 543.474 1886.41 480.358 1902.17 446.101C1929.9 386.297 1998.59 430.46 1988.27 366.185C1984.27 340.969 1978.47 312.156 1970.72 279.091C1953.61 204.692 1958.34 153.613 1975.21 120.993C2007.29 54.7382 2089.01 59.9536 2151.49 102.083C2187.2 126.209 2216.62 162.352 2226.99 204.101C2238.37 249.873 2233.09 319.809 2272.26 359.542C2301.23 389.424 2387.64 313.486 2443.85 366.655C2479.91 400.604 2476.36 461.106 2508.37 477.656C2543.23 495.669 2572.75 508.081 2590.77 512.91Z" stroke="white" stroke-width="3"/>
<path d="M2556.84 521.114C2655.91 546.034 2595.04 626.308 2539.83 624.827C2468.91 622.996 2431.52 638.051 2381.96 673.601C2353.24 692.387 2413.22 725.073 2402.08 771.644C2390.93 818.214 2319.79 808.41 2337.3 844.432C2363.76 899.287 2365.12 940.52 2352.02 967.778C2339.5 994.944 2312.53 1008.52 2281.63 1008.02C2252.73 1007.52 2220.42 994.686 2193.36 969.097C2161.85 935.155 2140.89 903.704 2129.33 872.97C2116.85 833.791 2073.58 862.134 2018.85 832.616C1964.12 803.099 1984.21 760.259 1933.74 758.338C1854.38 755.552 1803.21 742.608 1773.65 724.707C1709.58 687.124 1743.61 626.864 1813.05 595.795C1852.88 577.697 1888.16 567.481 1916.95 557.521C1957.78 545.106 1913.38 487.908 1927.42 456.544C1952.21 402.137 2013.8 441.282 2004.59 383.055C2001.02 359.947 1995.91 333.688 1989.12 303.683C1974.33 235.684 1979.97 189.833 1996.18 161.189C2025.33 101.79 2098.97 106.675 2155.26 144.803C2187.52 166.759 2214.08 199.562 2223.45 237.442C2234.12 280.527 2229.62 344.406 2266.78 381.096C2293.3 408.203 2371.61 339.997 2422.71 387.91C2455.73 418.552 2453.17 473.102 2482.42 488.23C2514.16 504.64 2540.78 516.314 2556.84 521.114Z" stroke="white" stroke-width="3"/>
<path d="M2524.31 528.93C2612.3 551.618 2557.75 623.5 2508.08 622.172C2440.48 620.472 2407.07 635.787 2363.24 669.753C2337.73 686.787 2391.23 716.355 2381.43 758.273C2371.62 800.192 2308.4 791.946 2323.85 824.278C2347.13 873.645 2347.8 910.618 2335.51 934.871C2324.08 959.043 2299.66 971.021 2271.83 970.279C2245.77 969.539 2216.77 957.632 2192.73 934.09C2164.88 900.553 2139.07 872.846 2127.12 844.958C2115.43 809.907 2076.78 834.628 2028.25 807.837C1979.73 781.046 1998.09 742.367 1953.9 740.35C1884.11 737.523 1839.32 725.826 1813.62 709.729C1757.02 676.137 1787.85 622.154 1850.04 593.926C1885.88 577.24 1917.53 567.353 1942.94 557.467C1979.19 545.956 1939.59 494.537 1951.94 466.02C1973.83 416.926 2028.55 451.172 2020.38 398.879C2017.22 377.833 2012.77 354.077 2006.87 327.071C1994.32 265.333 2000.85 224.628 2016.43 199.918C2042.7 147.288 2108.5 151.905 2158.82 186.144C2187.76 205.996 2211.57 235.539 2220 269.628C2230.02 310.113 2226.32 368.049 2261.64 401.79C2285.81 426.191 2356.22 365.65 2402.42 408.432C2432.54 435.849 2430.99 484.544 2457.59 498.301C2486.33 513.162 2510.15 524.138 2524.31 528.93Z" stroke="white" stroke-width="3"/>
<path d="M2491.43 537.565C2568.34 558.041 2520.17 621.388 2476.04 620.183C2411.8 618.572 2382.37 634.104 2344.32 666.41C2322.02 681.65 2369.06 708.087 2360.62 745.285C2352.18 782.482 2296.89 775.769 2310.3 804.371C2330.43 848.19 2330.43 880.845 2318.97 902.049C2308.64 923.183 2286.79 933.529 2262.03 932.531C2238.83 931.535 2213.13 920.554 2192.11 899.08C2167.88 865.978 2137.21 842.038 2124.86 817.031C2113.94 786.154 2079.92 807.19 2037.6 783.137C1995.28 759.084 2011.89 724.634 1974 722.498C1913.8 719.591 1875.38 709.131 1853.55 694.848C1804.41 665.263 1832.01 617.659 1886.91 592.352C1918.75 577.127 1946.75 567.602 1968.77 557.821C2000.42 547.253 1965.59 501.667 1976.22 476.047C1995.19 432.354 2043.05 461.682 2035.87 415.398C2033.11 396.443 2029.3 375.223 2024.29 351.253C2013.93 295.863 2021.33 260.371 2036.27 239.644C2059.61 193.877 2117.57 198.262 2161.92 228.591C2187.54 246.326 2208.61 272.58 2216.12 302.831C2225.51 340.662 2222.66 392.566 2256.14 423.33C2277.98 445.004 2340.44 392.263 2381.75 429.878C2408.97 454.047 2408.48 496.813 2432.43 509.195C2458.17 522.502 2479.18 532.779 2491.43 537.565Z" stroke="white" stroke-width="3"/>
<path d="M2457.39 545.701C2523.05 563.895 2481.3 618.723 2442.8 617.676C2382.03 616.204 2356.64 631.966 2324.4 662.627C2305.36 676.084 2345.82 699.345 2338.73 731.814C2331.64 764.283 2284.41 759.149 2295.72 783.999C2312.63 822.238 2311.92 850.563 2301.31 868.72C2292.09 886.817 2272.83 895.545 2251.2 894.311C2230.89 893.078 2208.56 883.048 2190.62 863.667C2170.08 831.038 2134.62 810.892 2121.92 788.784C2111.82 762.1 2082.49 779.472 2046.47 758.199C2010.45 736.926 2025.29 706.706 1993.77 704.482C1943.28 701.545 1911.32 692.357 1893.41 679.91C1851.85 654.382 1876.2 613.152 1923.72 590.733C1951.51 576.949 1975.82 567.77 1994.41 558.081C2021.41 548.436 1991.46 508.727 2000.38 486.005C2016.4 447.714 2057.28 472.078 2051.17 431.824C2048.82 414.97 2045.68 396.297 2041.58 375.377C2033.48 326.363 2041.76 296.091 2056.04 279.341C2076.45 240.436 2126.45 244.54 2164.72 270.912C2186.96 286.504 2205.23 309.444 2211.78 335.84C2220.5 370.993 2218.46 416.847 2250.02 444.597C2269.46 463.518 2323.89 418.547 2360.2 450.95C2384.46 471.842 2384.98 508.665 2406.22 519.647C2428.9 531.376 2447.07 540.933 2457.39 545.701Z" stroke="white" stroke-width="3"/>
<path d="M2424.86 553.498C2479.45 569.46 2444.01 615.88 2411.06 614.984C2353.61 613.638 2332.19 629.661 2305.69 658.737C2289.87 670.438 2323.84 690.578 2318.1 718.387C2312.35 746.197 2273.05 742.622 2282.3 763.776C2296.04 796.521 2294.63 820.577 2284.83 835.723C2276.7 850.821 2259.99 857.946 2241.43 856.47C2223.97 854.995 2204.95 845.89 2190.03 828.558C2173.14 796.329 2132.81 779.929 2119.71 760.671C2110.41 738.12 2085.69 751.861 2055.88 733.317C2026.08 714.773 2039.19 688.721 2013.96 686.399C1973.05 683.417 1947.47 675.476 1933.43 664.836C1899.34 643.303 1920.49 608.362 1960.76 588.791C1984.55 576.423 2005.23 567.573 2020.43 557.959C2042.85 549.221 2017.7 515.298 2024.92 495.427C2038.04 462.459 2072.05 481.916 2066.97 447.605C2065.03 432.817 2062.54 416.65 2059.34 398.733C2053.47 355.99 2062.66 330.874 2076.3 318.067C2093.82 285.942 2135.99 289.783 2168.28 312.262C2187.2 325.747 2202.72 345.424 2208.32 368.023C2216.41 400.575 2215.18 440.478 2244.89 465.277C2261.98 481.49 2308.51 444.2 2339.92 471.466C2361.27 489.129 2362.82 520.087 2381.41 529.698C2401.09 539.877 2416.45 548.738 2424.86 553.498Z" stroke="white" stroke-width="3"/>
</svg>
