<svg width="768" height="515" viewBox="0 0 768 515" fill="none" xmlns="http://www.w3.org/2000/svg">
<path d="M-42.9772 412.699C-25.6068 428.536 29.9165 419.937 7.71325 384.072C4.07265 378.191 0.0917018 367.265 -3.02811 353.362C-5.88604 340.626 19.6225 324.188 22.6407 305.385C27.3742 275.895 -28.8023 276.144 -25.3847 260.317C-20.9084 239.587 8.49347 220.988 22.9223 205.457C36.5055 190.836 42.1814 173.014 41.1815 157.081C39.4274 129.13 17.1265 106.995 -19.0709 118.166C-37.191 123.758 -58.7936 137.697 -83.0442 163.431C-93.8868 174.936 -103.586 184.685 -112.365 192.896C-134.961 214.029 -137.53 183.635 -169.658 193.726C-187.965 199.475 -198.453 230.159 -217.257 222.326C-230.628 216.756 -246.181 209.764 -266.843 204.21C-303.129 194.455 -340.781 204.32 -335.977 234.675C-333.71 249.004 -321.981 267.9 -296.183 291.453C-279.673 306.526 -304.807 314.582 -299.351 339.389C-293.896 364.195 -266.591 366.965 -280.132 382.758L-280.403 383.074C-290.724 395.111 -301.732 407.949 -303.894 425.967C-305.756 441.488 -300.546 454.393 -291.143 462.421C-281.081 471.013 -266.217 474.018 -250.083 468.666C-233.895 463.296 -216.428 449.512 -201.249 424.513C-191.242 408.031 -172.311 431.616 -148.096 420.059C-123.881 408.501 -129.465 381.309 -111.748 383.566C-80.972 387.485 -63.3211 394.15 -42.9772 412.699Z" stroke="#A6F400" stroke-width="2"/>
<path d="M-3.98254 378.616C16.0336 411.334 -34.7095 419.182 -50.6343 404.663C-70.1202 386.919 -86.7883 381.239 -115.429 378.227C-131.635 376.25 -126.668 401.124 -148.82 411.764C-170.972 422.405 -188.322 401.062 -197.54 416.095C-211.574 438.914 -227.673 451.414 -242.542 456.181C-257.287 460.995 -270.874 458.158 -280.017 450.211C-288.559 442.778 -293.211 430.881 -291.276 416.599C-288.257 399.372 -279.756 386.333 -270.501 374.865C-258.254 360.343 -282.984 357.685 -287.753 335.031C-292.522 312.377 -269.377 305.018 -284.147 291.372C-307.334 270.021 -317.79 252.926 -319.668 239.966C-323.904 212.388 -289.413 203.44 -256.134 212.267C-237.069 217.273 -222.622 223.513 -210.196 228.321C-192.965 235.334 -183.287 207.282 -166.48 201.891C-137.08 192.532 -134.585 220.047 -113.877 200.717C-105.741 193.145 -96.778 184.207 -86.787 173.7C-64.2206 150.132 -44.2561 137.756 -27.7446 133.055C5.1974 123.001 25.4718 143.256 27.0259 168.802C27.894 183.412 22.6627 199.74 10.2095 213.144C-3.44338 227.84 -30.4544 245.059 -34.355 264.584C-37.4202 279.156 13.8132 279.103 9.62445 306.108C6.99653 323.39 -16.096 338.521 -13.4572 350.282C-10.5847 363.084 -7.10956 373.178 -3.98254 378.616Z" stroke="#A6F400" stroke-width="2"/>
<path d="M-16.1924 372.94C1.58471 402.4 -44.2982 409.499 -58.7427 396.353C-77.3276 379.482 -92.9823 374.813 -119.438 372.734C-134.106 371.051 -129.779 393.528 -149.837 403.231C-169.895 412.934 -185.623 393.909 -194.045 407.452C-206.924 428.029 -221.635 439.215 -235.162 443.373C-248.496 447.643 -260.784 444.99 -268.987 437.719C-276.651 430.909 -280.729 420.059 -278.716 407.06C-274.854 390.833 -269.04 377.698 -260.939 366.923C-249.997 353.71 -272.11 351.185 -276.171 330.756C-280.232 310.328 -259.11 303.675 -272.109 291.507C-292.634 272.435 -301.789 257.2 -303.267 245.65C-306.914 220.936 -275.636 212.912 -245.423 220.766C-227.991 225.197 -214.676 230.657 -203.218 234.683C-187.594 240.844 -178.726 215.505 -163.444 210.48C-136.815 201.864 -134.413 226.415 -115.616 208.936C-108.133 202.02 -99.916 193.916 -90.7874 184.434C-69.9292 163.091 -51.629 152.305 -36.7513 148.5C-7.11381 139.575 11.0888 157.876 12.4258 180.936C13.1523 194.179 8.36507 208.964 -2.94511 221.117C-15.8082 234.94 -40.3934 250.741 -43.7233 269.002C-46.4394 282.276 -0.234302 282.389 -3.88679 306.828C-6.12992 322.536 -26.7769 336.326 -24.3682 347.074C-21.7553 358.734 -18.7975 367.963 -16.1924 372.94Z" stroke="#A6F400" stroke-width="2"/>
<path d="M-27.8858 367.483C-12.297 393.796 -53.3964 400.143 -66.3946 388.315C-84.122 372.249 -98.7946 368.566 -123.115 367.395C-136.272 365.99 -132.561 386.148 -150.555 394.934C-168.548 403.72 -182.695 386.938 -190.326 399.031C-202.061 417.427 -215.402 427.329 -227.609 430.884C-239.553 434.616 -250.564 432.131 -257.847 425.505C-264.65 419.289 -268.169 409.448 -266.083 397.687C-261.38 382.408 -258.252 369.14 -251.295 359.027C-241.648 347.086 -261.184 344.671 -264.558 326.395C-267.932 308.12 -248.801 302.165 -260.059 291.423C-277.97 274.552 -285.852 261.117 -286.94 250.937C-290.021 229.001 -261.906 221.893 -234.7 228.82C-218.867 232.703 -206.658 237.41 -196.144 240.675C-182.094 246.016 -174.038 223.309 -160.256 218.643C-136.356 210.759 -134.026 232.432 -117.12 216.756C-110.279 210.478 -102.8 203.186 -94.5236 194.703C-75.3505 175.526 -58.6897 166.303 -45.4223 163.389C-19.0427 155.582 -2.86774 172.004 -1.73039 192.658C-1.13561 204.578 -5.47772 217.869 -15.657 228.804C-27.7445 241.793 -49.9373 256.214 -52.6911 273.269C-55.0542 285.288 -13.7957 285.597 -16.9025 307.55C-18.7546 321.737 -36.9835 334.219 -34.7938 343.992C-32.4283 354.55 -29.9767 362.948 -27.8858 367.483Z" stroke="#A6F400" stroke-width="2"/>
<path d="M-39.9668 362.162C-26.5769 385.332 -62.8241 390.901 -74.362 380.388C-91.2136 365.119 -104.883 362.414 -127.029 362.138C-138.655 361.005 -135.556 378.844 -151.452 386.7C-167.348 394.557 -179.9 380.013 -186.722 390.651C-197.283 406.856 -209.229 415.464 -220.093 418.407C-230.626 421.593 -240.344 419.27 -246.699 413.287C-252.634 407.663 -255.594 398.83 -253.445 388.313C-247.916 373.987 -247.488 360.587 -241.693 351.141C-233.363 340.478 -250.293 338.163 -252.984 322.043C-255.675 305.923 -238.568 300.677 -248.073 291.359C-263.351 276.683 -269.954 265.048 -270.656 256.239C-273.176 237.084 -248.273 230.911 -224.114 236.923C-209.902 240.266 -198.815 244.226 -189.261 246.734C-176.804 251.261 -169.585 231.196 -157.329 226.898C-136.201 219.76 -133.935 238.55 -118.954 224.691C-112.771 219.055 -106.044 212.58 -98.6377 205.103C-81.1904 188.106 -66.2 180.459 -54.5653 178.445C-31.4898 171.772 -17.3592 186.321 -16.4121 204.564C-15.9435 215.16 -19.8263 226.95 -28.8526 236.661C-40.1383 248.806 -59.8957 261.831 -62.0591 277.678C-64.0588 288.437 -27.8122 288.966 -30.3562 308.427C-31.8065 321.089 -47.5815 332.25 -45.6089 341.048C-43.4886 350.504 -41.5426 358.069 -39.9668 362.162Z" stroke="#A6F400" stroke-width="2"/>
<path d="M-52.1835 356.441C-41.0114 376.412 -72.4007 381.218 -82.4678 372.048C-98.4268 357.617 -111.086 355.905 -131.051 356.54C-141.141 355.689 -138.666 371.169 -152.466 378.092C-166.265 385.015 -177.209 372.747 -183.228 381.913C-192.623 395.902 -203.175 403.206 -212.697 405.54C-221.819 408.181 -230.24 406.032 -235.661 400.708C-240.722 395.691 -243.116 387.886 -240.898 378.631C-234.538 365.284 -236.797 351.779 -232.159 343.015C-225.14 333.647 -239.458 331.449 -241.455 317.518C-243.452 303.587 -228.37 299.049 -236.114 291.179C-248.746 278.739 -254.061 268.932 -254.37 261.512C-256.317 245.177 -234.627 239.933 -213.526 245.004C-200.943 247.79 -190.985 250.987 -182.395 252.728C-171.539 256.424 -165.144 239.035 -154.413 235.105C-136.058 228.713 -133.871 244.582 -120.809 232.556C-115.282 227.57 -109.306 221.921 -102.766 215.458C-87.0385 200.665 -73.7175 194.598 -63.7169 193.48C-43.9466 187.938 -31.8738 200.574 -31.1297 216.37C-30.7945 225.62 -34.2251 235.89 -42.1025 244.361C-52.5903 255.646 -69.9155 267.263 -71.499 281.871C-73.1424 291.351 -41.9172 292.072 -43.9114 309.005C-44.9685 320.117 -58.2935 329.947 -56.5446 337.75C-54.6766 346.083 -53.2415 352.8 -52.1835 356.441Z" stroke="#A6F400" stroke-width="2"/>
<path d="M1003.02 325.699C1020.39 341.536 1075.92 332.937 1053.71 297.072C1050.07 291.191 1046.09 280.265 1042.97 266.362C1040.11 253.626 1065.62 237.188 1068.64 218.385C1073.37 188.895 1017.2 189.144 1020.62 173.317C1025.09 152.587 1054.49 133.988 1068.92 118.457C1082.51 103.836 1088.18 86.0137 1087.18 70.0812C1085.43 42.1297 1063.13 19.9947 1026.93 31.1661C1008.81 36.7584 987.206 50.6971 962.956 76.4308C952.113 87.9363 942.414 97.6855 933.635 105.896C911.039 127.029 908.47 96.6348 876.342 106.726C858.035 112.475 847.547 143.159 828.743 135.326C815.372 129.756 799.819 122.764 779.157 117.21C742.871 107.455 705.219 117.32 710.023 147.675C712.29 162.004 724.019 180.9 749.817 204.453C766.327 219.526 741.193 227.582 746.649 252.389C752.104 277.195 779.409 279.965 765.868 295.758L765.597 296.074C755.276 308.111 744.268 320.949 742.106 338.967C740.244 354.488 745.454 367.393 754.857 375.421C764.919 384.013 779.783 387.018 795.917 381.666C812.105 376.296 829.572 362.512 844.751 337.513C854.758 321.031 873.689 344.616 897.904 333.059C922.119 321.501 916.535 294.309 934.252 296.566C965.028 300.485 982.679 307.15 1003.02 325.699Z" stroke="#A6F400" stroke-width="2"/>
<path d="M1042.02 291.616C1062.03 324.334 1011.29 332.182 995.366 317.663C975.88 299.919 959.212 294.239 930.571 291.227C914.365 289.25 919.332 314.124 897.18 324.764C875.028 335.405 857.678 314.062 848.46 329.095C834.426 351.914 818.327 364.414 803.458 369.181C788.713 373.995 775.126 371.158 765.983 363.211C757.441 355.778 752.789 343.881 754.724 329.599C757.743 312.372 766.244 299.333 775.499 287.865C787.746 273.343 763.016 270.685 758.247 248.031C753.478 225.377 776.623 218.018 761.853 204.372C738.666 183.021 728.21 165.926 726.332 152.966C722.096 125.388 756.587 116.44 789.866 125.267C808.931 130.273 823.378 136.513 835.804 141.321C853.035 148.334 862.713 120.282 879.52 114.891C908.92 105.532 911.415 133.047 932.123 113.717C940.259 106.145 949.222 97.2068 959.213 86.6998C981.779 63.1317 1001.74 50.7562 1018.26 46.055C1051.2 36.0007 1071.47 56.2561 1073.03 81.8017C1073.89 96.412 1068.66 112.74 1056.21 126.144C1042.56 140.84 1015.55 158.059 1011.65 177.584C1008.58 192.156 1059.81 192.103 1055.62 219.108C1053 236.39 1029.9 251.521 1032.54 263.282C1035.42 276.084 1038.89 286.178 1042.02 291.616Z" stroke="#A6F400" stroke-width="2"/>
<path d="M1029.81 285.94C1047.58 315.4 1001.7 322.499 987.257 309.353C968.672 292.482 953.018 287.813 926.562 285.734C911.894 284.051 916.221 306.528 896.163 316.231C876.105 325.934 860.377 306.909 851.955 320.452C839.076 341.029 824.365 352.215 810.838 356.373C797.504 360.643 785.216 357.99 777.013 350.719C769.349 343.909 765.271 333.059 767.284 320.06C771.146 303.833 776.96 290.698 785.061 279.923C796.003 266.71 773.89 264.185 769.829 243.756C765.768 223.328 786.89 216.675 773.891 204.507C753.366 185.435 744.211 170.2 742.733 158.65C739.086 133.936 770.364 125.912 800.577 133.766C818.009 138.197 831.324 143.657 842.782 147.683C858.406 153.844 867.274 128.505 882.556 123.48C909.185 114.864 911.587 139.415 930.384 121.936C937.867 115.02 946.084 106.916 955.213 97.4344C976.071 76.0915 994.371 65.3052 1009.25 61.4996C1038.89 52.5745 1057.09 70.8763 1058.43 93.9362C1059.15 107.179 1054.37 121.964 1043.05 134.117C1030.19 147.94 1005.61 163.741 1002.28 182.002C999.561 195.276 1045.77 195.389 1042.11 219.828C1039.87 235.536 1019.22 249.326 1021.63 260.074C1024.24 271.734 1027.2 280.963 1029.81 285.94Z" stroke="#A6F400" stroke-width="2"/>
<path d="M1018.11 280.483C1033.7 306.796 992.604 313.143 979.605 301.315C961.878 285.249 947.205 281.566 922.885 280.395C909.728 278.99 913.439 299.148 895.445 307.934C877.452 316.72 863.305 299.938 855.674 312.031C843.939 330.427 830.598 340.329 818.391 343.884C806.447 347.616 795.436 345.131 788.153 338.505C781.35 332.289 777.831 322.448 779.917 310.687C784.62 295.408 787.748 282.14 794.705 272.027C804.352 260.086 784.816 257.671 781.442 239.395C778.068 221.12 797.199 215.165 785.941 204.423C768.03 187.552 760.148 174.117 759.06 163.937C755.979 142.001 784.094 134.893 811.3 141.82C827.133 145.703 839.342 150.41 849.856 153.675C863.906 159.016 871.962 136.309 885.744 131.643C909.644 123.759 911.974 145.432 928.88 129.756C935.721 123.478 943.2 116.186 951.476 107.703C970.65 88.5258 987.31 79.3031 1000.58 76.389C1026.96 68.5819 1043.13 85.0044 1044.27 105.658C1044.86 117.578 1040.52 130.869 1030.34 141.804C1018.26 154.793 996.063 169.214 993.309 186.269C990.946 198.288 1032.2 198.597 1029.1 220.55C1027.25 234.737 1009.02 247.219 1011.21 256.992C1013.57 267.55 1016.02 275.948 1018.11 280.483Z" stroke="#A6F400" stroke-width="2"/>
<path d="M1006.03 275.162C1019.42 298.332 983.176 303.901 971.638 293.388C954.786 278.119 941.117 275.414 918.971 275.138C907.345 274.005 910.444 291.844 894.548 299.7C878.652 307.557 866.1 293.013 859.278 303.651C848.717 319.856 836.771 328.464 825.907 331.407C815.374 334.593 805.656 332.27 799.301 326.287C793.366 320.663 790.406 311.83 792.555 301.313C798.084 286.987 798.512 273.587 804.307 264.141C812.637 253.478 795.707 251.163 793.016 235.043C790.325 218.923 807.432 213.677 797.927 204.359C782.649 189.683 776.046 178.048 775.344 169.239C772.824 150.084 797.727 143.911 821.886 149.923C836.098 153.266 847.185 157.226 856.739 159.734C869.196 164.261 876.415 144.196 888.671 139.898C909.799 132.76 912.065 151.55 927.046 137.691C933.229 132.055 939.956 125.58 947.362 118.103C964.81 101.106 979.8 93.4588 991.435 91.4449C1014.51 84.7721 1028.64 99.3206 1029.59 117.564C1030.06 128.16 1026.17 139.95 1017.15 149.661C1005.86 161.806 986.104 174.831 983.941 190.678C981.941 201.437 1018.19 201.966 1015.64 221.427C1014.19 234.089 998.419 245.25 1000.39 254.048C1002.51 263.504 1004.46 271.069 1006.03 275.162Z" stroke="#A6F400" stroke-width="2"/>
<path d="M993.816 269.441C1004.99 289.412 973.599 294.218 963.532 285.048C947.573 270.617 934.914 268.905 914.949 269.54C904.859 268.689 907.334 284.169 893.534 291.092C879.735 298.015 868.791 285.747 862.772 294.913C853.377 308.902 842.825 316.206 833.303 318.54C824.181 321.181 815.76 319.032 810.339 313.708C805.278 308.691 802.884 300.886 805.102 291.631C811.462 278.284 809.203 264.779 813.841 256.015C820.86 246.647 806.542 244.449 804.545 230.518C802.548 216.587 817.63 212.049 809.886 204.179C797.254 191.739 791.939 181.932 791.63 174.512C789.683 158.177 811.373 152.933 832.474 158.004C845.057 160.79 855.015 163.987 863.605 165.728C874.461 169.424 880.856 152.035 891.587 148.105C909.942 141.713 912.129 157.582 925.191 145.556C930.718 140.57 936.694 134.921 943.234 128.458C958.961 113.665 972.282 107.598 982.283 106.48C1002.05 100.938 1014.13 113.574 1014.87 129.37C1015.21 138.62 1011.77 148.89 1003.9 157.361C993.41 168.646 976.085 180.263 974.501 194.871C972.858 204.351 1004.08 205.072 1002.09 222.005C1001.03 233.117 987.706 242.947 989.455 250.75C991.323 259.083 992.758 265.8 993.816 269.441Z" stroke="#A6F400" stroke-width="2"/>
</svg>
