<svg width="375" height="672" viewBox="0 0 375 672" fill="none" xmlns="http://www.w3.org/2000/svg">
<path d="M498.749 368.734C541.171 350.736 419.503 528.45 391.249 368.734C352.773 151.234 33.5008 298.143 -64 298.143" stroke="#A6F400" stroke-width="4"/>
<path d="M40.4393 294.784C33.656 290.438 29.5955 288.167 25.9334 288.388C21.6355 288.64 17.9358 292.405 11.0871 300.371C16.7627 290.983 19.1813 286.244 17.9567 281.701C17.0157 278.163 13.8285 274.735 8.2465 269.328C15.0068 273.655 19.0902 275.945 22.7105 275.732C27.0503 275.472 30.7311 271.733 37.5987 263.741C32.5534 272.108 30.0848 276.766 30.4617 280.885C30.8385 285.003 34.0649 288.626 40.4393 294.784Z" fill="#005DB4"/>
<path d="M370.091 286.456C361.928 287.169 357.264 287.85 354.585 290.217C351.436 292.99 351.114 298.116 351.189 308.374C349.251 297.721 347.928 292.612 343.924 289.838C340.815 287.67 336.046 286.935 328.096 286.108C336.23 285.395 340.924 284.714 343.576 282.377C346.752 279.574 347.077 274.48 346.999 264.189C348.737 273.676 349.966 278.754 353.03 281.708C356.094 284.662 361.024 285.524 370.091 286.456Z" fill="#005DB4"/>
</svg>
