<svg width="746" height="198" viewBox="0 0 746 198" fill="none" xmlns="http://www.w3.org/2000/svg">
<path d="M257.548 -454.603C233.359 -495.82 146.08 -503.725 174.371 -418.374C179.009 -404.38 183.326 -379.676 185.81 -349.148C188.086 -321.183 145.887 -298.702 138.058 -260.789C125.781 -201.329 212.665 -175.657 204.719 -144.153C194.313 -102.892 145.732 -77.708 120.814 -51.9572C97.3566 -27.7156 85.5845 6.9069 84.4501 40.69C82.4601 99.9583 113.212 156.643 171.048 150.159C200 146.913 235.74 127.838 277.558 85.3318C296.254 66.3274 312.889 50.4629 327.841 37.3868C366.327 3.73102 365.185 68.486 416.549 62.3643C445.816 58.8763 467.192 -0.396284 494.943 24.7503C514.675 42.6309 537.543 64.5039 568.55 85.7525C623.004 123.068 682.868 119.995 680.548 54.279C679.453 23.2571 664.501 -21.724 628.581 -83.0055C605.594 -122.222 645.805 -127.35 641.543 -181.768C637.281 -236.186 595.537 -254.708 619.126 -281.42L619.599 -281.955C637.579 -302.313 656.756 -324.026 663.128 -360.697C668.618 -392.286 662.734 -421.701 649.549 -442.872C635.439 -465.53 612.967 -478.746 587.126 -475.076C561.197 -471.394 531.876 -450.713 504.207 -405.515C485.963 -375.715 460.666 -433.86 421.288 -420.982C381.911 -408.104 385.968 -348.638 358.959 -361.617C312.042 -384.162 285.877 -406.33 257.548 -454.603Z" stroke="#A6F400" stroke-width="3"/>
<path d="M191.532 -401.514C166.093 -479.265 245.856 -472.015 268.032 -434.23C295.17 -388.04 319.981 -368.39 363.75 -348.739C388.471 -337.047 384.977 -391.378 421.011 -403.301C457.045 -415.223 480.276 -362.505 497.054 -389.643C522.589 -430.816 549.578 -449.449 573.365 -452.485C596.969 -455.678 617.497 -443.409 630.294 -422.529C642.249 -403.003 647.439 -375.956 642.045 -346.993C634.48 -312.375 619.145 -289.072 602.91 -269.407C581.534 -244.75 619.317 -227.66 622.879 -178.065C626.44 -128.469 589.422 -123.871 609.96 -88.4501C642.213 -32.9897 655.501 7.63191 656.224 35.6085C658.135 95.253 603.31 97.8837 553.348 63.9086C524.719 44.5518 503.434 24.768 485.033 8.91916C459.577 -13.7783 439.897 40.369 413.009 43.806C365.984 49.6704 366.755 -9.03176 331.492 21.7345C317.641 33.7768 302.282 48.2881 285.069 65.6013C246.22 104.364 213.275 120.935 186.959 123.067C134.343 128.733 106.409 76.9233 108.303 22.7794C109.419 -8.1775 120.252 -39.8817 141.758 -62.1053C165.336 -86.472 209.989 -109.886 219.303 -148.896C226.492 -177.939 147.282 -201.715 158.3 -256.233C165.27 -291.147 203.513 -312.021 201.412 -337.845C199.125 -365.955 195.451 -388.684 191.532 -401.514Z" stroke="#A6F400" stroke-width="3"/>
<path d="M209.454 -383.949C186.928 -453.842 259.052 -447.295 279.17 -413.071C305.063 -369.125 328.478 -352.063 369.026 -335.382C391.418 -325.022 388.509 -374.042 421.149 -384.98C453.789 -395.919 474.902 -348.803 490.199 -373.197C513.571 -410.219 538.194 -426.753 559.805 -429.141C581.136 -431.853 599.685 -420.577 611.143 -401.548C621.845 -383.732 626.324 -359.144 621.027 -332.898C612.325 -300.766 601.129 -276.009 586.793 -257.255C567.655 -234.726 601.414 -219.136 604.256 -174.524C607.098 -129.912 573.327 -125.848 591.375 -94.3418C619.895 -44.8903 631.487 -8.7626 631.828 16.0787C633.31 69.4585 583.608 71.6548 538.222 41.1451C512.02 23.7512 492.355 6.12661 475.319 -7.63454C452.202 -27.8025 434.231 21.0501 409.761 24.4323C367.146 30.0338 367.562 -22.4265 335.565 5.36102C322.833 16.3345 308.768 29.4501 293.061 45.0212C257.226 79.9271 227.122 93.9503 203.482 94.9717C156.165 99.817 131.104 53.0586 132.916 4.21391C134.021 -23.8167 143.908 -52.503 163.437 -72.6428C185.647 -95.5523 226.311 -117.132 234.53 -153.765C240.962 -180.256 169.553 -202.035 179.31 -251.436C185.42 -283.24 219.657 -302.449 217.742 -326.048C215.664 -351.648 212.644 -372.326 209.454 -383.949Z" stroke="#A6F400" stroke-width="3"/>
<path d="M226.611 -367.087C206.938 -429.38 271.541 -423.489 289.646 -392.696C314.348 -350.834 336.41 -336.29 373.809 -322.502C393.912 -313.43 391.566 -357.315 420.861 -367.297C450.155 -377.279 469.202 -335.59 483.033 -357.322C504.268 -390.319 526.558 -404.805 546.025 -406.547C565.117 -408.782 581.721 -398.451 591.865 -381.201C601.336 -365.03 605.121 -342.81 599.919 -319.19C590.077 -289.432 583.01 -263.145 570.555 -245.241C553.633 -224.768 583.428 -210.609 585.569 -170.82C587.711 -131.03 557.134 -127.497 572.731 -99.7854C597.582 -56.1545 607.507 -24.3861 607.476 -2.58994C608.549 44.7179 563.89 46.4713 522.998 19.3023C499.175 3.80007 481.093 -11.7354 465.389 -23.4649C444.567 -41.1839 428.294 2.54293 406.205 5.8738C367.932 11.2175 367.976 -35.1896 339.203 -10.292C327.573 -0.352537 314.784 11.4096 300.562 25.2894C267.697 56.452 240.39 67.97 219.39 67.8779C177.296 71.9043 155.054 30.021 156.77 -13.6989C157.856 -38.9032 166.804 -64.6709 184.379 -82.7923C205.25 -104.318 241.983 -124.126 249.109 -158.508C254.784 -182.538 191.055 -202.421 199.551 -246.88C204.8 -275.684 235.08 -293.286 233.339 -314.744C231.458 -337.925 229.08 -356.629 226.611 -367.087Z" stroke="#A6F400" stroke-width="3"/>
<path d="M244.393 -350.329C227.591 -405.022 284.563 -399.769 300.63 -372.404C324.113 -332.617 344.789 -320.587 378.978 -309.686C396.76 -301.896 394.969 -340.643 420.864 -349.661C446.76 -358.679 463.718 -322.414 476.053 -341.478C495.105 -370.442 515.02 -382.871 532.31 -383.962C549.129 -385.713 563.761 -376.324 572.579 -360.85C580.808 -346.322 583.898 -326.471 578.806 -305.479C567.85 -278.099 564.933 -250.278 554.387 -233.227C539.715 -214.814 565.497 -202.08 566.946 -167.116C568.394 -132.152 541.066 -129.158 554.192 -105.24C575.342 -67.4274 583.594 -40.0191 583.196 -21.2707C583.871 19.9611 544.334 21.2584 507.998 -2.57913C486.59 -16.1952 470.118 -29.645 455.77 -39.3454C437.275 -54.6194 422.739 -16.0262 403.069 -12.7527C369.207 -7.67732 368.865 -48.0269 343.374 -26.0292C332.868 -17.1276 321.381 -6.72327 308.673 5.45996C278.843 32.8672 254.383 41.8694 236.058 40.6561C199.263 43.8511 179.866 6.83984 181.471 -31.7516C182.529 -54.1275 190.514 -76.9723 206.101 -93.0692C225.591 -113.204 258.325 -131.231 264.335 -163.36C269.236 -184.926 213.291 -202.931 220.498 -242.442C224.87 -268.243 251.133 -284.228 249.564 -303.545C247.877 -324.307 246.141 -341.035 244.393 -350.329Z" stroke="#A6F400" stroke-width="3"/>
<path d="M262.318 -332.667C248.407 -379.636 297.74 -375.052 311.76 -351.181C334.003 -313.565 353.285 -304.082 384.255 -296.102C399.71 -289.617 398.489 -323.142 420.986 -331.185C443.483 -339.227 458.338 -308.472 469.183 -324.831C486.06 -349.705 503.601 -360.058 518.714 -360.5C533.259 -361.77 545.916 -353.349 553.401 -339.689C560.381 -326.838 562.769 -309.4 557.783 -291.081C545.707 -266.136 546.926 -236.842 538.283 -220.677C525.856 -204.36 547.62 -193.088 548.364 -163.026C549.108 -132.963 525.03 -130.506 535.677 -110.438C553.112 -78.5333 559.679 -55.5475 558.909 -39.8873C559.171 -4.82145 524.759 -3.96891 492.992 -24.4103C474.007 -36.1031 459.152 -47.4325 446.166 -55.0779C430.004 -67.8674 417.194 -34.4867 399.945 -31.2708C370.494 -26.463 369.782 -60.6674 347.567 -41.6085C338.184 -33.7605 327.995 -24.7327 316.799 -14.2681C289.997 9.33472 268.384 15.8108 252.736 13.486C221.241 15.8559 204.703 -16.1958 206.21 -49.5753C207.248 -69.0744 214.279 -88.9493 227.881 -102.992C245.992 -121.7 274.73 -137.916 279.635 -167.723C283.77 -186.781 235.62 -202.848 241.552 -237.327C245.055 -260.071 267.307 -274.414 265.916 -291.547C264.43 -309.844 263.342 -324.559 262.318 -332.667Z" stroke="#A6F400" stroke-width="3"/>
<path d="M279.46 -315.803C268.406 -355.166 310.204 -351.236 322.207 -330.799C343.262 -295.258 361.189 -288.297 389.007 -283.216C402.168 -278.02 401.511 -306.406 420.656 -313.492C439.801 -320.577 452.586 -295.254 461.963 -308.949C476.698 -329.793 491.903 -338.095 504.869 -337.89C517.17 -338.68 527.878 -331.205 534.047 -319.323C539.796 -308.117 541.488 -293.05 536.598 -277.358C523.378 -254.786 528.737 -223.946 521.981 -208.629C511.774 -194.368 529.566 -184.527 529.608 -159.291C529.651 -134.055 508.773 -132.129 516.964 -115.861C530.723 -89.7826 535.622 -71.161 534.479 -58.5497C534.332 -29.5616 504.972 -29.154 477.706 -46.2528C461.104 -56.0529 447.833 -65.2913 436.181 -70.9021C422.319 -81.2403 411.21 -52.9893 396.344 -49.8243C371.244 -45.2742 370.158 -73.4194 351.174 -57.2531C342.895 -50.4396 333.984 -42.7665 324.276 -33.9949C300.449 -14.1393 281.637 -10.1743 268.633 -13.6173C242.373 -12.0686 228.658 -39.2421 230.068 -67.4932C231.086 -84.1643 237.175 -101.119 248.821 -113.142C265.591 -130.467 290.39 -144.911 294.198 -172.471C297.574 -189.068 257.119 -203.24 261.784 -232.774C264.425 -252.517 282.711 -265.252 281.495 -280.243C280.206 -296.122 279.761 -308.86 279.46 -315.803Z" stroke="#A6F400" stroke-width="3"/>
</svg>
