<svg width="768" height="124" viewBox="0 0 768 124" fill="none" xmlns="http://www.w3.org/2000/svg">
<path d="M569.511 -101.317C548.5 -177.452 626.331 -185.202 682.499 -162.213C715.271 -150.39 736.793 -187.159 777.39 -172.485C817.988 -157.811 769.32 -111.588 831.439 -87.8655C893.558 -64.1428 863.232 41.998 808.939 43.2208C754.646 44.4436 769.564 62.2969 715.271 103.139C660.978 143.981 569.511 87.2424 592.255 27.3242C615 -32.5941 592.255 -18.8985 569.511 -101.317Z" stroke="#A6F400" stroke-width="2"/>
<path d="M686.363 -42.0644C683.939 -49.3159 695.293 -61.0144 704.424 -56.0219C712.785 -51.4501 721.299 -54.5334 726.924 -52.4953C741.732 -47.1295 736.285 -44.2893 742.905 -37.9166C750.96 -30.1618 754.804 -9.85565 736.285 -9.85565C721.054 -9.85565 725.611 -2.45813 714.206 0.819637C702.801 4.09741 689.867 -1.482 689.867 -16.1713C689.867 -21.6876 690.401 -29.9868 686.363 -42.0644Z" stroke="#A6F400" stroke-width="2"/>
<path d="M580.132 -96.3001C560.811 -166.174 632.599 -174.282 684.491 -152.929C715.044 -141.766 735.383 -175.472 772.801 -161.947C811.054 -148.119 766.315 -105.84 823.389 -83.6947C880.594 -61.4236 853.374 36.9141 802.333 38.0257C751.591 39.1374 765.567 56.0401 715.173 93.4674C664.779 130.895 580.451 78.8066 601.128 23C621.804 -31.9726 601.176 -20.2765 580.132 -96.3001Z" stroke="#A6F400" stroke-width="2"/>
<path d="M590.754 -91.283C573.123 -154.894 638.867 -163.362 686.483 -143.645C714.816 -133.141 733.973 -163.784 768.212 -151.408C804.121 -138.427 763.311 -100.092 815.339 -79.5234C867.629 -58.7039 843.516 31.8306 795.727 32.8311C748.536 33.8316 761.57 49.7837 715.075 83.7961C668.579 117.808 591.391 70.3712 610 18.6764C628.609 -31.3506 610.097 -21.654 590.754 -91.283Z" stroke="#A6F400" stroke-width="2"/>
<path d="M601.374 -86.266C585.432 -143.615 645.133 -152.442 688.473 -134.361C714.587 -124.515 732.561 -152.097 763.621 -140.869C797.185 -128.734 760.305 -94.343 807.288 -75.3521C854.662 -55.9843 833.655 26.7471 789.119 27.6364C745.479 28.5258 757.571 43.5274 714.975 74.1248C672.378 104.722 602.329 61.9358 618.871 14.3527C635.412 -30.7286 619.016 -23.0316 601.374 -86.266Z" stroke="#A6F400" stroke-width="2"/>
<path d="M611.996 -81.2483C597.744 -132.335 651.402 -141.521 690.465 -125.076C714.36 -115.89 731.152 -140.409 759.032 -130.33C790.252 -119.041 757.3 -88.5938 799.238 -71.1801C841.698 -53.264 823.797 21.6643 782.513 22.4424C742.424 23.2206 753.575 37.2717 714.877 64.4542C676.179 91.6366 613.27 53.5011 627.744 10.0297C642.217 -30.106 627.937 -24.4085 611.996 -81.2483Z" stroke="#A6F400" stroke-width="2"/>
<path d="M622.619 -75.9766C610.057 -120.801 657.672 -130.346 692.459 -115.537C714.135 -107.01 729.744 -128.467 754.445 -119.537C783.32 -109.094 754.298 -82.5906 791.19 -66.7543C828.735 -50.2897 813.941 16.8354 775.909 17.5023C739.371 18.1694 749.58 31.27 714.781 55.0375C679.983 78.8049 624.212 45.3203 636.618 5.96068C649.024 -29.2294 636.861 -25.5314 622.619 -75.9766Z" stroke="#A6F400" stroke-width="2"/>
<path d="M633.24 -70.4042C622.367 -108.967 663.938 -118.87 694.45 -105.698C713.906 -97.8297 728.333 -116.225 749.854 -108.443C776.385 -98.8462 751.292 -76.2866 783.139 -62.0276C815.769 -47.0147 804.081 12.3073 769.301 12.8631C736.315 13.4189 745.581 25.569 714.682 45.9216C683.782 66.2741 635.151 37.4404 645.489 2.19242C655.828 -28.052 645.78 -26.3536 633.24 -70.4042Z" stroke="#A6F400" stroke-width="2"/>
<path d="M643.862 -64.8149C634.679 -97.1152 670.207 -107.378 696.442 -95.841C713.68 -88.6325 726.924 -103.965 745.266 -97.332C769.452 -88.5815 748.289 -69.9658 775.09 -57.284C802.805 -43.7227 794.223 7.79605 762.696 8.24071C733.26 8.68537 741.585 19.885 714.584 36.8225C687.584 53.7601 646.092 29.5772 654.363 -1.55898C662.633 -26.8578 654.702 -27.1589 643.862 -64.8149Z" stroke="#A6F400" stroke-width="2"/>
<path d="M654.485 -59.2017C646.992 -85.2399 676.476 -95.8614 698.435 -85.9607C713.454 -79.4113 725.515 -91.6816 740.678 -86.1973C762.52 -78.293 745.285 -63.6212 767.041 -52.5166C789.841 -40.407 784.366 3.30864 756.091 3.64214C730.206 3.97563 737.589 14.2247 714.487 27.7473C691.386 41.27 657.033 21.7379 663.236 -5.28654C669.44 -25.6397 663.624 -27.9404 654.485 -59.2017Z" stroke="#A6F400" stroke-width="2"/>
<path d="M665.108 -53.5529C659.305 -73.3288 682.746 -84.3094 700.429 -76.0447C713.228 -70.1545 724.107 -79.3625 736.091 -75.0269C755.588 -67.9688 742.283 -57.2408 758.993 -47.7136C776.879 -37.0556 774.51 -1.14307 749.486 -0.920738C727.153 -0.69841 733.594 8.60016 714.391 18.7078C695.188 28.8155 667.976 13.9344 672.111 -8.97842C676.246 -24.386 672.547 -28.6861 665.108 -53.5529Z" stroke="#A6F400" stroke-width="2"/>
<path d="M675.734 -47.8505C671.62 -61.3642 689.018 -72.7037 702.424 -66.0751C713.004 -60.8441 722.701 -66.9898 731.505 -63.8029C748.658 -57.5909 739.282 -50.8068 750.947 -42.8569C763.917 -33.6505 764.655 -5.54116 742.884 -5.43C724.102 -5.31883 729.601 3.02921 714.297 9.72193C698.993 16.4146 678.919 6.18437 680.987 -12.6167C683.055 -23.0786 681.472 -29.3783 675.734 -47.8505Z" stroke="#A6F400" stroke-width="2"/>
<path d="M-89.2785 -141.813C-96.9856 -220.418 -18.9738 -214.769 32.4463 -182.531C62.7191 -165.288 90.2007 -197.843 127.698 -176.455C165.195 -155.067 109.352 -117.83 166.511 -83.8524C223.669 -49.875 175.671 49.5321 121.966 41.4699C68.2609 33.4078 79.9131 53.5454 19.4454 84.5212C-41.0223 115.497 -121.463 43.9787 -88.8247 -11.1781C-56.1869 -66.335 -80.9355 -56.7225 -89.2785 -141.813Z" stroke="#A6F400" stroke-width="2"/>
<path d="M-79.6698 -135.057C-86.7809 -207.203 -14.6624 -202.94 32.8236 -173.043C61.0222 -156.828 86.816 -186.568 121.377 -166.855C156.708 -146.701 105.41 -112.679 157.866 -81.1167C210.43 -49.4085 166.825 42.8401 116.343 35.2235C66.1556 27.6579 77.0419 46.6982 20.9988 74.9747C-35.0443 103.251 -109.244 37.534 -79.3452 -13.9244C-49.5888 -64.5611 -71.911 -56.5576 -79.6698 -135.057Z" stroke="#A6F400" stroke-width="2"/>
<path d="M-70.061 -128.301C-76.5761 -193.989 -10.351 -191.11 33.2008 -163.555C59.3254 -148.369 83.4313 -175.294 115.055 -157.255C148.221 -138.335 101.467 -107.528 149.222 -78.3809C197.19 -48.9419 157.978 36.1483 110.72 28.9773C64.0502 21.9083 74.1708 39.8512 22.5522 65.4283C-29.0663 91.0055 -97.0251 31.0895 -69.8655 -16.6704C-42.9907 -62.787 -62.8864 -56.3925 -70.061 -128.301Z" stroke="#A6F400" stroke-width="2"/>
<path d="M-60.4503 -121.545C-66.3694 -180.773 -6.03763 -179.28 33.58 -154.067C57.6305 -139.909 80.0486 -164.018 108.736 -147.654C139.736 -129.967 97.527 -102.376 140.579 -75.6445C183.953 -48.4747 149.133 29.457 105.098 22.7316C61.9469 16.1592 71.3015 33.0047 24.1076 55.8825C-23.0863 78.7604 -84.8044 24.6456 -60.384 -19.4159C-36.3906 -61.0123 -53.8599 -56.2268 -60.4503 -121.545Z" stroke="#A6F400" stroke-width="2"/>
<path d="M-50.8415 -114.788C-56.1646 -167.558 -1.72619 -167.45 33.9573 -144.579C55.9337 -131.449 76.664 -152.742 102.415 -138.052C131.25 -121.6 93.5848 -97.2242 131.935 -72.9079C170.713 -48.0074 140.286 22.7659 99.4749 16.486C59.8416 10.4102 68.4304 26.1584 25.6611 46.3369C-17.1083 66.5153 -72.5856 18.2017 -50.9043 -22.1613C-29.7924 -59.2376 -44.8353 -56.061 -50.8415 -114.788Z" stroke="#A6F400" stroke-width="2"/>
<path d="M-41.2741 -107.78C-46.0011 -154.091 2.54394 -155.369 34.2932 -134.84C54.1956 -122.738 73.238 -141.216 96.0522 -128.201C122.721 -112.982 89.6013 -91.8216 123.249 -69.9207C157.433 -47.2894 131.398 16.3255 93.8104 10.4912C57.695 4.91196 65.5179 19.5628 27.1732 37.0419C-11.1716 54.5211 -60.4081 12.0087 -41.466 -24.6559C-23.2356 -57.212 -35.852 -55.6445 -41.2741 -107.78Z" stroke="#A6F400" stroke-width="2"/>
<path d="M-31.7597 -100.477C-35.8907 -140.329 6.76099 -142.992 34.5761 -124.805C52.4044 -113.731 69.7589 -129.394 89.6366 -118.053C114.14 -104.069 85.5647 -86.1231 114.51 -66.6375C144.099 -46.2754 122.457 10.181 88.0927 4.79228C55.4953 -0.290359 62.5524 13.2632 28.6322 28.0429C-5.28791 42.8227 -48.2837 6.11151 -32.0807 -26.8546C-16.7318 -54.8906 -26.9218 -54.9321 -31.7597 -100.477Z" stroke="#A6F400" stroke-width="2"/>
<path d="M-22.2479 -93.1566C-25.7829 -126.55 10.9754 -130.598 34.8564 -114.753C50.6105 -104.708 66.2773 -117.555 83.2183 -107.888C105.556 -95.1381 81.5254 -80.4079 105.769 -63.3376C130.763 -45.2448 113.513 4.05323 82.3724 -0.889955C53.293 -5.476 59.5842 6.9802 30.0887 19.0606C0.593103 31.141 -36.1619 0.231017 -22.6981 -29.0366C-10.2306 -52.5525 -17.9942 -54.2029 -22.2479 -93.1566Z" stroke="#A6F400" stroke-width="2"/>
<path d="M-12.7398 -85.8124C-15.6788 -112.747 15.1862 -118.181 35.1329 -104.677C48.813 -95.6604 62.7919 -105.692 76.7963 -97.6999C96.9685 -86.1835 77.4825 -74.6687 97.0239 -60.0137C117.422 -44.1902 104.566 -2.05055 76.6484 -6.54816C51.087 -10.6376 56.6123 0.721241 31.5414 10.1023C6.47043 19.4833 -24.0438 -5.62545 -13.3192 -31.1946C-3.73318 -50.1903 -9.07034 -53.4498 -12.7398 -85.8124Z" stroke="#A6F400" stroke-width="2"/>
<path d="M-3.23705 -78.4334C-5.58001 -98.9097 19.3916 -105.728 35.4042 -94.5665C47.0102 -86.5781 59.3013 -93.794 70.369 -87.4767C88.3756 -77.1942 73.4343 -68.8947 88.2735 -56.655C104.077 -43.1007 95.6132 -8.11951 70.9191 -12.1715C48.8757 -15.7644 53.6352 -5.5029 32.9888 1.1788C12.3425 7.86051 -11.9311 -11.4471 -3.94553 -33.3178C2.75898 -47.7934 -0.151758 -52.6618 -3.23705 -78.4334Z" stroke="#A6F400" stroke-width="2"/>
<path d="M6.26003 -71.0011C4.51309 -85.0187 23.5913 -93.2222 35.6698 -84.4026C45.2017 -77.4425 55.8049 -81.8429 63.9361 -77.2C79.777 -68.1515 69.3804 -63.0673 79.5174 -53.243C90.726 -41.9579 86.6548 -14.1351 65.1841 -17.7416C46.6587 -20.8379 50.6523 -11.6737 34.4306 -7.69136C18.2088 -3.70901 0.176027 -17.2154 5.42242 -35.3876C9.24544 -45.3431 8.76114 -51.8205 6.26003 -71.0011Z" stroke="#A6F400" stroke-width="2"/>
</svg>
