<svg width="375" height="712" viewBox="0 0 375 712" fill="none" xmlns="http://www.w3.org/2000/svg">
<path d="M496.325 -148.533C571.884 -171.532 581.671 -93.9309 560.163 -37.1793C549.203 -4.10892 586.523 16.4414 572.919 57.4098C559.314 98.3782 511.831 50.9385 489.745 113.658C467.659 176.378 360.76 148.845 358.114 94.6027C355.468 40.3602 338.012 55.7415 295.761 2.53764C253.509 -50.6662 307.831 -143.589 368.325 -122.423C428.819 -101.258 414.531 -123.636 496.325 -148.533Z" stroke="#A6F400"/>
<path d="M491.589 -137.784C560.932 -158.93 570.92 -87.379 550.934 -34.945C540.575 -4.11035 574.803 15.3381 562.264 53.0982C549.444 91.7007 506.006 48.0855 485.365 105.72C464.601 163.489 365.584 138.857 363.134 87.8623C360.693 37.1667 344.162 51.5816 305.427 2.18576C266.691 -47.2101 316.55 -132.874 372.88 -113.668C428.376 -94.4392 416.143 -114.754 491.589 -137.784Z" stroke="#A6F400"/>
<path d="M486.852 -127.034C549.979 -146.327 560.168 -80.8274 541.706 -32.7109C531.948 -4.11194 563.083 14.2347 551.609 48.7864C539.573 85.0231 500.181 45.2323 480.984 97.7822C461.543 150.6 370.407 128.868 368.154 81.1217C365.917 33.9731 350.312 47.4215 315.092 1.8337C279.873 -43.7541 325.27 -122.159 377.435 -104.912C427.933 -87.6208 417.754 -105.873 486.852 -127.034Z" stroke="#A6F400"/>
<path d="M482.115 -116.285C539.027 -133.725 549.415 -74.2754 532.477 -30.4765C523.32 -4.11322 551.363 13.1316 540.953 44.475C529.702 78.3458 494.356 42.3795 476.603 89.8443C458.484 137.71 375.23 118.879 373.174 74.3815C371.141 30.7799 356.461 43.2616 324.758 1.48195C293.054 -40.2977 333.989 -111.444 381.99 -96.156C427.489 -80.8022 419.365 -96.9909 482.115 -116.285Z" stroke="#A6F400"/>
<path d="M477.378 -105.536C528.074 -121.122 538.663 -67.7233 523.248 -28.242C514.691 -4.11441 539.642 12.0286 530.298 40.1636C519.831 71.6686 488.53 39.5267 472.222 81.9065C455.425 124.821 380.053 108.891 378.193 67.6413C376.364 27.5867 362.61 39.1019 334.423 1.13031C306.235 -36.8413 342.708 -100.729 386.544 -87.4C427.045 -73.9834 420.976 -88.1091 477.378 -105.536Z" stroke="#A6F400"/>
<path d="M472.387 -94.7784C516.867 -108.511 527.656 -61.1634 513.764 -25.9998C505.809 -4.10783 527.668 10.9334 519.388 35.86C509.705 64.9991 482.45 36.6817 467.587 73.9764C452.112 111.94 384.622 98.9105 382.958 60.9089C381.334 24.4013 368.505 34.95 343.834 0.786421C319.162 -33.3772 351.173 -90.0061 390.844 -78.6361C426.348 -67.1569 422.332 -79.2195 472.387 -94.7784Z" stroke="#A6F400"/>
<path d="M467.095 -84.0143C505.359 -95.8941 516.349 -54.5968 503.981 -23.7507C496.626 -4.09442 515.392 9.84495 508.178 31.5632C499.28 58.3365 476.07 33.8435 462.651 66.0532C448.498 99.0655 388.891 88.9368 387.423 54.1833C386.003 21.2226 374.1 30.8049 352.944 0.449369C331.788 -29.9062 359.337 -79.2763 394.844 -69.8655C425.349 -60.3236 423.388 -70.3231 467.095 -84.0143Z" stroke="#A6F400"/>
<path d="M461.784 -73.2493C493.833 -83.2759 505.023 -48.0291 494.178 -21.5006C487.424 -4.08007 503.098 8.75748 496.948 27.2674C488.835 51.6748 469.671 31.0063 457.696 58.131C444.866 86.192 393.14 78.9639 391.869 47.4587C390.653 18.045 379.675 26.6607 362.036 0.113261C344.396 -26.4342 367.483 -68.5455 398.825 -61.0939C424.332 -53.4893 424.425 -61.4258 461.784 -73.2493Z" stroke="#A6F400"/>
<path d="M456.451 -62.4833C482.284 -70.6566 493.675 -41.4605 484.353 -19.2495C478.2 -4.06465 490.782 7.67108 485.697 22.9726C478.368 45.0142 463.25 28.1701 452.719 50.2098C441.212 73.3195 397.368 68.9922 396.293 40.7351C395.281 14.8684 385.229 22.5176 371.105 -0.221791C356.982 -22.9612 375.606 -57.8136 402.784 -52.3212C423.293 -46.6539 425.44 -52.5274 456.451 -62.4833Z" stroke="#A6F400"/>
<path d="M451.083 -51.7155C470.7 -58.0355 482.292 -34.8901 474.493 -16.9968C468.941 -4.04754 478.431 6.58635 474.411 18.6795C467.866 38.3553 456.793 25.3357 447.707 42.2903C437.522 60.4487 401.56 59.0221 400.681 34.0132C399.874 11.6935 390.747 18.3762 380.139 -0.555148C369.532 -19.4865 383.694 -47.0801 406.708 -43.5469C422.218 -39.8169 426.42 -43.6273 451.083 -51.7155Z" stroke="#A6F400"/>
<path d="M-179.227 -85.5759C-205.559 -160.039 -128.469 -173.263 -70.8181 -154.295C-37.2937 -144.815 -18.421 -183.011 23.1112 -171.239C64.6433 -159.467 19.359 -109.925 82.9978 -90.6459C146.637 -71.3669 123.878 36.6497 69.8063 41.7016C15.7348 46.7536 31.8761 63.5093 -19.399 108.082C-70.6741 152.654 -165.918 102.513 -147.459 41.1387C-129.001 -20.2355 -150.722 -4.96861 -179.227 -85.5759Z" stroke="#A6F400"/>
<path d="M-58.4838 -34.7189C-61.4138 -41.7812 -50.9131 -54.252 -41.4531 -49.9163C-32.7904 -45.9461 -24.5152 -49.6227 -18.7604 -47.9866C-3.61017 -43.6795 -8.84317 -40.4618 -1.79013 -34.5723C6.79248 -27.4055 12.06 -7.42121 -6.41275 -6.1141C-21.6057 -5.03906 -16.5377 2.01834 -27.6829 6.09294C-38.8282 10.1675 -52.1239 5.51496 -53.1607 -9.13773C-53.5501 -14.6402 -53.6038 -22.9564 -58.4838 -34.7189Z" stroke="#A6F400"/>
<path d="M-168.278 -81.3213C-192.483 -149.657 -121.446 -162.812 -68.1765 -145.175C-36.9123 -136.196 -19.0029 -171.254 19.2767 -160.403C58.4105 -149.31 16.7672 -103.979 75.2619 -85.917C133.896 -67.7391 113.685 32.2746 62.8493 36.986C12.3122 41.6764 27.4469 57.5505 -20.18 98.4414C-67.807 139.332 -155.601 93.3262 -138.915 36.1994C-122.169 -20.0955 -141.921 -6.97259 -168.278 -81.3213Z" stroke="#A6F400"/>
<path d="M-157.329 -77.0667C-179.407 -139.275 -114.424 -152.362 -65.5348 -136.055C-36.5307 -127.576 -19.5848 -159.496 15.4423 -149.567C52.1778 -139.153 14.1755 -98.0328 67.526 -81.1882C121.155 -64.1114 103.492 27.8993 55.8925 32.2704C8.88977 36.5992 23.0178 51.5916 -20.961 88.8009C-64.9398 126.01 -145.284 84.1394 -130.37 31.26C-115.338 -19.9556 -133.12 -8.97662 -157.329 -77.0667Z" stroke="#A6F400"/>
<path d="M-146.381 -72.8116C-166.33 -128.892 -107.401 -141.911 -62.8931 -126.934C-36.1491 -118.957 -20.1666 -147.738 11.6081 -138.731C45.9451 -128.995 11.5839 -92.0862 59.7902 -76.4588C108.414 -60.4831 93.2985 23.5246 48.9357 27.5552C5.4674 31.5226 18.5887 45.6333 -21.7419 79.1609C-62.0725 112.689 -134.967 74.9531 -121.825 26.3212C-108.507 -19.8153 -124.319 -10.9801 -146.381 -72.8116Z" stroke="#A6F400"/>
<path d="M-135.432 -68.5563C-153.254 -118.51 -100.378 -131.46 -60.2512 -117.813C-35.7674 -110.337 -20.7483 -135.98 7.77386 -127.894C39.7126 -118.837 8.99241 -86.1395 52.0546 -71.7294C95.673 -56.8548 83.1055 19.15 41.979 22.8402C2.04513 26.446 14.1598 39.6751 -22.5226 69.5211C-59.2051 99.3671 -124.649 65.767 -113.28 21.3825C-101.675 -19.6747 -115.518 -12.9835 -135.432 -68.5563Z" stroke="#A6F400"/>
<path d="M-124.463 -64.0476C-140.157 -107.874 -93.3352 -120.755 -57.5893 -108.439C-35.3657 -101.463 -21.31 -123.968 3.95971 -116.804C33.5001 -108.425 6.42091 -79.9393 44.3389 -66.7464C82.9522 -52.9729 72.9326 15.029 35.0424 18.3787C-1.35711 21.623 9.75091 33.9704 -23.2834 60.1348C-56.3176 86.2992 -114.312 56.8345 -104.715 16.6973C-94.8239 -19.2806 -106.696 -14.7334 -124.463 -64.0476Z" stroke="#A6F400"/>
<path d="M-113.474 -59.2387C-127.041 -96.9377 -86.2729 -109.751 -54.908 -98.7644C-34.9445 -92.2895 -21.8523 -111.657 0.164968 -105.414C27.307 -97.7134 3.86885 -73.439 36.6427 -61.4633C70.2508 -48.7909 62.7791 11.208 28.1251 14.2173C-4.73994 17.1 5.36143 28.5658 -24.0247 51.0485C-53.4108 73.5313 -103.956 48.2019 -96.1308 12.3122C-87.953 -18.5865 -97.8556 -16.1832 -113.474 -59.2387Z" stroke="#A6F400"/>
<path d="M-102.484 -54.4131C-113.924 -85.9847 -79.2091 -98.7293 -52.2252 -89.0731C-34.5219 -83.0992 -22.3931 -99.3283 -3.62831 -94.0065C21.1153 -86.9849 1.31824 -66.9219 28.9479 -56.1634C57.551 -44.5922 52.6271 7.40385 21.2093 10.0727C-8.12129 12.5939 0.973405 23.178 -24.7645 41.9791C-50.5025 60.7802 -93.5974 39.5862 -87.545 7.94387C-81.0806 -17.8756 -89.0134 -17.6161 -102.484 -54.4131Z" stroke="#A6F400"/>
<path d="M-91.4923 -49.5637C-100.805 -75.008 -72.1432 -87.6842 -49.5403 -79.3581C-34.0971 -73.8851 -22.9317 -86.9761 -7.41946 -82.5757C14.9258 -76.2327 -1.23025 -60.3811 21.2553 -50.8398C44.8532 -40.3697 42.4772 3.62339 14.2957 5.95181C-11.5005 8.11146 -3.4125 17.8139 -25.5023 32.9333C-47.592 48.0528 -83.2372 30.9942 -78.9571 3.59928C-74.2061 -17.141 -80.1692 -19.0254 -91.4923 -49.5637Z" stroke="#A6F400"/>
<path d="M-80.4971 -44.6788C-87.682 -63.9958 -65.0741 -76.6035 -46.8521 -69.6075C-33.6691 -64.6354 -23.4671 -74.5883 -11.2074 -71.1094C8.73958 -65.445 -3.77547 -53.8047 13.5659 -45.4807C32.1587 -36.1116 32.3305 -0.121504 7.38528 1.86648C-14.8765 3.66459 -7.79514 12.4853 -26.2367 23.9232C-44.6784 35.361 -72.8737 22.4378 -70.3659 -0.70975C-67.3283 -16.3707 -71.3216 -20.3991 -80.4971 -44.6788Z" stroke="#A6F400"/>
<path d="M-69.4945 -39.7405C-74.552 -52.9302 -57.9976 -65.4694 -44.1567 -59.8036C-33.2338 -55.3324 -23.9952 -62.1472 -14.9879 -59.5897C2.56065 -54.6039 -6.31337 -47.1749 5.88383 -40.0681C19.4715 -31.8002 22.1912 -3.81303 0.482205 -2.16548C-18.2452 -0.728909 -12.1705 7.21016 -26.9639 14.9664C-41.7573 22.7226 -62.5028 13.9347 -61.7674 -4.96542C-60.4433 -15.5472 -62.4668 -21.7194 -69.4945 -39.7405Z" stroke="#A6F400"/>
<path d="M-236.805 512.601C-288.432 452.829 -221.443 412.455 -160.842 409.139C-126.167 405.767 -122.49 363.322 -79.5222 359.17C-36.5541 355.019 -60.7011 417.645 5.58981 412.44C71.8807 407.235 89.9966 516.126 41.4723 540.512C-7.05208 564.897 14.0806 574.629 -17.4551 634.806C-48.9909 694.984 -155.952 682.946 -161.097 619.063C-166.242 555.18 -180.917 577.306 -236.805 512.601Z" stroke="#A6F400"/>
<path d="M-225.058 512.579C-272.474 457.74 -211.097 419.632 -155.062 416.672C-122.674 413.656 -118.752 374.485 -79.1491 370.659C-38.6619 366.748 -60.9503 424.126 0.106267 419.66C61.3346 415.251 78.9108 515.761 33.2768 538.651C-12.087 561.413 7.78715 570.69 -21.6906 626.111C-51.1684 681.532 -149.685 670.634 -154.935 611.352C-159.828 552.824 -173.448 572.236 -225.058 512.579Z" stroke="#A6F400"/>
<path d="M-213.313 512.557C-256.517 462.65 -200.754 426.81 -149.283 424.205C-119.183 421.546 -115.016 385.648 -78.7778 382.147C-40.7714 378.477 -61.2012 430.608 -5.37906 426.88C50.7867 423.267 67.8232 515.395 25.0797 536.791C-17.1238 557.93 1.49186 566.752 -25.9279 617.416C-53.3477 668.08 -143.421 658.323 -148.776 603.642C-153.415 550.468 -165.982 567.166 -213.313 512.557Z" stroke="#A6F400"/>
<path d="M-201.565 512.535C-240.558 467.562 -190.409 433.988 -143.502 431.739C-115.689 429.436 -111.278 396.811 -78.4043 393.636C-42.8788 390.207 -61.4501 437.09 -10.8623 434.1C40.2408 431.283 56.7378 515.031 16.8846 534.931C-22.1585 554.447 -4.80131 562.815 -30.1631 608.721C-55.5249 654.628 -137.154 646.011 -142.614 595.932C-147.001 548.113 -158.513 562.097 -201.565 512.535Z" stroke="#A6F400"/>
<path d="M-189.818 512.514C-224.599 472.473 -180.063 441.166 -137.721 439.273C-112.195 437.325 -107.54 407.974 -78.0306 405.125C-44.9859 401.937 -61.6987 443.572 -16.3453 441.321C29.6953 439.3 45.6525 514.666 8.68975 533.072C-27.1929 550.964 -11.0942 558.877 -34.398 600.027C-57.7018 641.177 -130.887 633.7 -136.451 588.222C-140.586 545.757 -151.043 557.027 -189.818 512.514Z" stroke="#A6F400"/>
<path d="M-177.961 512.721C-208.53 477.613 -169.608 448.574 -131.831 447.035C-108.593 445.444 -103.692 419.367 -77.5478 416.843C-46.984 413.895 -61.8382 450.283 -21.7191 448.771C19.2588 447.546 34.6764 514.53 0.60404 531.441C-32.1182 547.711 -17.278 555.168 -38.5239 591.561C-59.7697 627.954 -124.511 621.618 -130.18 580.741C-134.062 543.63 -143.465 552.187 -177.961 512.721Z" stroke="#A6F400"/>
<path d="M-165.975 513.201C-192.333 483.026 -159.024 456.253 -125.812 455.071C-104.861 453.835 -99.7154 431.032 -76.936 428.833C-48.853 426.127 -61.8487 457.267 -26.964 456.493C8.95137 456.064 23.8293 514.667 -7.35266 530.083C-36.9145 544.729 -23.3328 551.732 -42.5207 583.368C-61.7085 615.004 -118.005 609.809 -123.78 573.532C-127.409 541.776 -135.757 547.619 -165.975 513.201Z" stroke="#A6F400"/>
<path d="M-153.984 513.696C-176.13 488.453 -148.435 463.948 -119.787 463.12C-101.124 462.241 -95.7333 442.711 -76.3186 440.838C-50.7165 438.372 -61.8536 464.265 -32.2033 464.229C-1.35054 464.597 12.9878 514.818 -15.3038 528.739C-41.7052 541.763 -29.3821 548.311 -46.5119 575.19C-63.6418 602.069 -111.495 598.013 -117.374 566.338C-120.75 539.937 -128.045 543.066 -153.984 513.696Z" stroke="#A6F400"/>
<path d="M-141.98 514.212C-159.915 493.902 -137.833 471.663 -113.75 471.192C-97.3736 470.669 -91.7385 454.412 -75.6886 452.865C-52.5673 450.64 -61.8459 471.284 -37.43 471.987C-11.6398 473.151 2.15885 514.991 -23.2424 527.417C-46.4833 538.817 -35.4187 544.911 -50.4905 567.033C-65.5624 589.155 -104.971 586.24 -110.956 559.166C-114.079 538.119 -120.319 538.534 -141.98 514.212Z" stroke="#A6F400"/>
<path d="M-129.961 514.759C-143.683 499.382 -127.215 479.411 -107.696 479.295C-93.6077 479.128 -87.7279 466.145 -75.0427 464.923C-54.4023 462.939 -61.8224 478.336 -42.6408 479.777C-21.9132 481.737 -8.65416 515.196 -31.165 526.127C-51.2455 535.904 -41.4394 541.542 -54.4533 558.908C-67.4671 576.273 -98.4322 574.498 -104.521 552.026C-107.392 536.333 -112.578 534.034 -129.961 514.759Z" stroke="#A6F400"/>
</svg>
