<svg width="1892" height="206" viewBox="0 0 1892 206" fill="none" xmlns="http://www.w3.org/2000/svg">
<path d="M221.433 196.858C216.539 183.548 213.299 176.016 208.242 172.214C202.315 167.741 193.876 168.566 177.318 171.408C193.66 165.381 201.318 161.84 203.97 154.484C206.051 148.769 205.055 140.689 202.749 127.324C207.63 140.584 210.883 148.166 215.877 151.932C221.867 156.441 230.256 155.628 246.864 152.773C232.316 158.16 224.667 161.539 221.294 167.387C217.92 173.236 218.784 181.617 221.433 196.858Z" fill="white" fill-opacity="0.12"/>
<path d="M1714.05 171.384C1700.08 168.968 1691.94 168.008 1686.11 170.486C1679.28 173.382 1675.77 181.103 1669.95 196.864C1672.91 179.697 1673.67 171.295 1668.62 165.321C1664.72 160.661 1657.22 157.484 1644.49 152.798C1658.42 155.201 1666.61 156.174 1672.37 153.732C1679.27 150.8 1682.76 143.128 1688.59 127.317C1685.98 142.61 1685.08 150.923 1688.46 156.769C1691.84 162.616 1699.53 166.058 1714.05 171.384Z" fill="white" fill-opacity="0.12"/>
<path d="M53.5036 78.8575C48.6091 65.5481 45.3689 58.016 40.3123 54.2137C34.3854 49.7408 25.9466 50.5665 9.38801 53.4083C25.7306 47.3811 33.3888 43.8405 36.0399 36.4843C38.1214 30.7693 37.1251 22.6891 34.8191 9.32413C39.7002 22.5839 42.9537 30.1657 47.9475 33.9316C53.9373 38.4408 62.3265 37.6285 78.9347 34.7733C64.3863 40.1602 56.7378 43.5388 53.3639 49.3873C49.9901 55.2359 50.8545 63.6173 53.5036 78.8575Z" fill="white" fill-opacity="0.12"/>
<path d="M1882.12 53.3835C1868.15 50.9675 1860.01 50.0076 1854.18 52.4856C1847.35 55.3821 1843.84 63.1031 1838.03 78.8641C1840.98 61.6975 1841.74 53.295 1836.69 47.3209C1832.79 42.6609 1825.29 39.4835 1812.56 34.7981C1826.49 37.2008 1834.68 38.1741 1840.44 35.7323C1847.34 32.7996 1850.83 25.1281 1856.66 9.31749C1854.05 24.6102 1853.15 32.9233 1856.53 38.7694C1859.91 44.6155 1867.6 48.0576 1882.12 53.3835Z" fill="white" fill-opacity="0.12"/>
</svg>
