<svg width="768" height="790" viewBox="0 0 768 790" fill="none" xmlns="http://www.w3.org/2000/svg">
<path d="M459.162 826.384C422.281 685.309 558.903 670.949 657.499 713.546C715.025 735.454 752.803 667.324 824.067 694.513C895.331 721.703 809.9 807.351 918.942 851.308C1027.98 895.265 974.751 1091.94 879.447 1094.2C784.142 1096.47 810.329 1129.55 715.025 1205.23C619.72 1280.91 459.162 1175.77 499.087 1064.75C539.012 953.722 499.087 979.099 459.162 826.384Z" stroke="#A6F400"/>
<path d="M477.807 835.68C443.891 706.209 569.905 691.184 660.995 730.75C714.625 751.435 750.328 688.98 816.011 714.041C883.159 739.663 804.626 818.003 904.811 859.037C1005.23 900.304 957.445 1082.52 867.85 1084.58C778.779 1086.64 803.313 1117.96 714.852 1187.31C626.392 1256.66 478.366 1160.14 514.661 1056.74C550.957 954.875 514.746 976.547 477.807 835.68Z" stroke="#A6F400"/>
<path d="M496.449 844.975C465.5 727.107 580.906 711.417 664.489 747.951C714.224 767.416 747.851 710.634 807.953 733.567C870.986 757.621 799.35 828.653 890.679 866.765C982.466 905.342 940.138 1073.1 856.251 1074.95C773.414 1076.8 796.294 1106.36 714.678 1169.39C633.061 1232.41 497.568 1144.51 530.234 1048.72C562.899 956.026 530.403 973.993 496.449 844.975Z" stroke="#A6F400"/>
<path d="M515.098 854.272C487.114 748.008 591.912 731.652 667.989 765.155C713.829 783.398 745.38 732.291 799.901 753.095C858.818 775.581 794.08 839.306 876.552 874.495C959.712 910.382 922.837 1063.68 844.659 1065.33C768.055 1066.97 789.282 1094.77 714.509 1151.47C639.737 1208.16 516.776 1128.88 545.812 1040.71C574.848 957.179 546.067 971.441 515.098 854.272Z" stroke="#A6F400"/>
<path d="M533.741 863.568C508.723 768.907 602.913 751.887 671.483 782.358C713.428 799.379 742.903 753.947 791.843 772.622C846.645 793.54 788.804 849.957 862.419 882.224C936.952 915.421 905.529 1054.26 833.06 1055.7C762.69 1057.14 782.263 1083.18 714.335 1133.55C646.407 1183.91 535.978 1113.25 561.384 1032.7C586.791 958.332 561.724 968.889 533.741 863.568Z" stroke="#A6F400"/>
<path d="M552.386 873.337C530.334 790.28 613.915 772.594 674.98 800.034C713.029 815.834 740.428 776.075 783.788 792.623C834.474 811.973 783.53 861.082 848.289 890.426C914.194 920.933 888.225 1045.31 821.464 1046.55C757.327 1047.78 775.247 1072.06 714.163 1116.1C653.079 1160.14 555.182 1098.09 576.959 1025.16C598.736 959.957 577.384 966.809 552.386 873.337Z" stroke="#A6F400"/>
<path d="M430.135 120.845C567.267 87.0298 638.256 -35.7291 589.103 -154.054C539.95 -272.379 389.27 -341.463 252.138 -307.648C115.006 -273.833 43.3522 -149.924 92.5049 -31.5988C141.658 86.7262 293.004 154.66 430.135 120.845Z" stroke="#A6F400" stroke-miterlimit="10"/>
<path d="M415.578 86.0511C553.402 52.0598 631.438 -55.2423 590.288 -154.328C549.138 -253.414 404.386 -306.761 266.562 -272.77C128.738 -238.779 50.0335 -130.32 91.1832 -31.2345C132.333 67.8512 277.754 120.042 415.578 86.0511Z" stroke="#A6F400" stroke-miterlimit="10"/>
<path d="M400.905 51.155C539.483 16.9283 624.667 -74.918 591.584 -154.708C558.501 -234.497 419.68 -272.016 281.102 -237.789C142.525 -203.562 56.6687 -110.551 89.7514 -30.7617C122.834 49.028 262.328 85.3817 400.905 51.155Z" stroke="#A6F400" stroke-miterlimit="10"/>
<path d="M386.1 16.0836C525.5 -18.4764 617.948 -94.8671 593.006 -155.266C568.065 -215.664 435.178 -237.198 295.778 -202.638C156.378 -168.078 63.2539 -90.511 88.1956 -30.1127C113.137 30.2857 246.7 50.6436 386.1 16.0836Z" stroke="#A6F400" stroke-miterlimit="10"/>
<path d="M371.488 -18.4297C511.775 -53.4955 611.338 -115.088 594.521 -156.163C577.703 -197.239 450.875 -202.244 310.587 -167.178C170.299 -132.112 69.676 -70.2548 86.4933 -29.1791C103.311 11.8966 231.2 16.6361 371.488 -18.4297Z" stroke="#A6F400" stroke-miterlimit="10"/>
<path d="M356.257 -55.4296C497.528 -91.3976 604.639 -137.542 596.155 -158.664C587.67 -179.785 466.803 -167.886 325.532 -131.918C184.26 -95.95 76.0811 -49.5337 84.5656 -28.4121C93.05 -7.29037 214.985 -19.4616 356.257 -55.4296Z" stroke="#A6F400" stroke-miterlimit="10"/>
<path d="M430.135 120.845C567.267 87.0298 638.256 -35.7291 589.103 -154.054C539.95 -272.379 389.27 -341.463 252.138 -307.648C115.006 -273.833 43.3522 -149.924 92.5049 -31.5988C141.658 86.7262 293.004 154.66 430.135 120.845Z" stroke="#A6F400" stroke-miterlimit="10"/>
<path d="M429.699 119.885C543.295 91.8519 595.422 -25.7666 546.537 -143.53C497.652 -261.293 366.266 -334.606 252.67 -306.573C139.074 -278.541 86.2847 -159.777 135.17 -42.0143C184.055 75.7489 316.103 147.917 429.699 119.885Z" stroke="#A6F400" stroke-miterlimit="10"/>
<path d="M429.105 118.849C519.248 96.5565 552.652 -15.9248 504.12 -133.087C455.587 -250.249 343.497 -327.725 253.353 -305.432C163.21 -283.139 129.15 -169.519 177.682 -52.3568C226.215 64.8053 338.962 141.142 429.105 118.849Z" stroke="#A6F400" stroke-miterlimit="10"/>
<path d="M428.264 117.738C495.088 101.137 509.988 -6.21211 461.944 -122.73C413.9 -239.249 321.106 -320.814 254.282 -304.212C187.457 -287.61 171.908 -179.129 219.952 -62.6107C267.996 53.9077 361.44 134.34 428.264 117.738Z" stroke="#A6F400" stroke-miterlimit="10"/>
<path d="M427.051 116.544C471.079 105.508 468.582 3.09335 421.254 -112.745C373.926 -228.583 299.688 -313.979 255.661 -302.943C211.633 -291.906 214.487 -188.616 261.816 -72.7782C309.144 43.0598 383.023 127.58 427.051 116.544Z" stroke="#A6F400" stroke-miterlimit="10"/>
<path d="M423.811 115.353C445.224 109.884 425.36 12.5753 379.23 -102.529C333.099 -217.633 278.17 -306.946 256.758 -301.477C235.345 -296.008 255.557 -197.829 301.687 -82.7243C347.818 32.38 402.398 120.822 423.811 115.353Z" stroke="#A6F400" stroke-miterlimit="10"/>
<path d="M419.509 114.032L261.156 -300.042" stroke="#A6F400" stroke-miterlimit="10"/>
</svg>
