<svg width="375" height="137" viewBox="0 0 375 137" fill="none" xmlns="http://www.w3.org/2000/svg">
<path d="M-179.61 197.802C-228.828 130.884 -159.527 94.5258 -98.3671 96.3227C-63.3032 95.8114 -57.6447 51.7937 -14.1967 51.1873C29.2513 50.5809 2.05436 113.902 69.0303 114.22C136.006 114.538 149.223 229.855 99.248 251.115C49.2734 272.374 70.0992 284.375 35.5768 344.496C1.05438 404.618 -106.069 382.759 -108.303 315.582C-110.537 248.405 -126.331 270.242 -179.61 197.802Z" stroke="#A6F400"/>
<path d="M-167.783 198.799C-212.989 137.399 -149.443 102.922 -92.895 104.694C-60.1504 104.356 -54.3964 63.7787 -14.3508 63.2202C26.5886 62.65 1.50469 120.651 63.1771 121.286C125.02 121.996 138.079 228.512 91.0834 248.46C44.3653 268.299 63.9452 279.715 31.7139 335.046C-0.517349 390.378 -99.1931 370.442 -101.745 308.062C-103.971 246.501 -118.578 265.595 -167.783 198.799Z" stroke="#A6F400"/>
<path d="M-155.958 199.796C-197.151 143.914 -139.361 111.317 -87.4248 113.064C-56.9994 112.9 -51.1499 75.7634 -14.5066 75.2528C23.9241 74.7189 0.953248 127.4 57.3221 128.351C114.031 129.453 126.934 227.167 82.917 245.806C39.4554 264.223 57.7893 275.054 27.8492 325.596C-2.0909 376.137 -92.3186 358.126 -95.188 300.543C-97.4069 244.596 -110.827 260.947 -155.958 199.796Z" stroke="#A6F400"/>
<path d="M-144.129 200.792C-181.31 150.429 -129.275 119.713 -81.9504 121.435C-53.8443 121.444 -47.8993 87.7481 -14.6584 87.2855C21.2638 86.7877 0.405857 134.148 51.4711 135.417C103.047 136.911 115.793 225.823 74.7547 243.151C34.5496 260.147 51.6375 270.394 23.9885 316.145C-3.66039 361.896 -85.44 345.809 -88.6271 293.024C-90.8385 242.692 -103.073 256.3 -144.129 200.792Z" stroke="#A6F400"/>
<path d="M-132.303 201.789C-165.472 156.944 -119.193 128.108 -76.4798 129.806C-50.6929 129.988 -44.6524 99.7331 -14.8139 99.3184C18.5997 98.8569 -0.145204 140.897 45.6165 142.483C92.0593 144.369 104.648 224.479 66.5888 240.496C29.6401 256.072 45.482 265.734 20.1242 306.695C-5.23355 347.656 -78.565 333.493 -82.0699 285.504C-84.2739 240.788 -95.3212 251.653 -132.303 201.789Z" stroke="#A6F400"/>
<path d="M-120.377 203.036C-149.532 163.709 -109.009 136.755 -70.9079 138.427C-47.4403 138.783 -41.3042 111.968 -14.8681 111.602C16.0368 111.176 -0.595061 147.896 39.8631 149.799C81.1726 152.077 93.6049 223.386 58.524 238.092C24.8319 252.246 39.4277 261.325 16.3611 297.495C-6.7055 333.666 -71.5889 321.427 -75.4115 278.236C-77.608 239.134 -87.4688 247.256 -120.377 203.036Z" stroke="#A6F400"/>
<path d="M-108.334 204.578C-133.478 170.769 -98.7105 145.695 -65.2207 147.343C-44.0722 147.872 -37.8407 124.498 -14.807 124.179C13.5894 123.79 -0.929504 155.19 34.2251 157.41C70.4013 160.08 82.6768 222.587 50.5746 235.983C20.139 248.716 33.4889 257.21 12.7134 288.59C-8.06202 319.97 -64.4974 309.655 -68.6377 271.261C-70.8267 237.775 -79.5008 243.153 -108.334 204.578Z" stroke="#A6F400"/>
<path d="M-96.2835 206.135C-117.414 177.845 -88.4028 154.652 -59.5246 156.275C-40.6954 156.977 -34.3684 137.044 -14.737 136.773C11.1507 136.42 -1.25516 162.499 28.5959 165.036C59.6388 168.099 71.7575 221.804 42.6341 233.889C15.4549 245.2 27.5588 253.11 9.07453 279.7C-9.40977 306.29 -57.397 297.9 -61.8551 264.303C-64.0366 236.431 -71.5241 239.066 -96.2835 206.135Z" stroke="#A6F400"/>
<path d="M-84.2228 207.716C-101.341 184.944 -78.0853 163.632 -53.8188 165.23C-37.3088 166.105 -30.8863 149.613 -14.6573 149.39C8.72185 149.073 -1.57104 169.833 22.9764 172.687C48.8861 176.141 60.848 221.044 34.7033 231.818C10.7806 241.709 21.6385 249.034 5.44539 270.834C-10.7477 292.634 -50.2869 286.168 -55.0628 257.368C-57.2367 235.112 -63.5377 235.003 -84.2228 207.716Z" stroke="#A6F400"/>
<path d="M258.842 221.023C199.237 163.164 261.573 115.848 322.188 107.508C356.685 101.206 354.987 56.8585 397.737 49.0766C440.487 41.2948 424.134 108.241 490.241 97.4809C556.347 86.7204 588.448 198.266 542.677 227.495C496.905 256.725 519.428 265.117 495.322 330.119C471.215 395.122 361.951 391.275 348.641 325.392C335.331 259.509 323.365 283.657 258.842 221.023Z" stroke="#A6F400"/>
<path d="M270.67 220.051C215.935 166.971 272.906 122.461 328.968 114.859C361.206 109.111 360.172 68.1415 399.574 60.9695C439.856 53.6382 424.707 114.988 485.636 105.417C546.745 95.8923 577.236 198.783 534.185 226.227C491.39 253.517 512.588 261.539 489.949 321.438C467.31 381.337 366.696 377.991 353.866 316.892C341.491 256.545 330.242 277.792 270.67 220.051Z" stroke="#A6F400"/>
<path d="M282.497 219.079C232.632 170.777 284.236 129.074 335.747 122.21C365.726 117.017 365.355 79.4244 401.41 72.8623C439.223 65.9814 425.279 121.735 481.029 113.354C537.14 105.064 566.022 199.3 525.692 224.959C485.874 250.309 505.746 257.96 484.575 312.756C463.403 367.553 371.439 364.707 359.089 308.392C347.65 253.582 337.118 271.927 282.497 219.079Z" stroke="#A6F400"/>
<path d="M294.328 218.106C249.332 174.583 295.572 135.686 342.53 129.56C370.251 124.921 370.542 90.7066 403.249 84.7542C438.595 78.3239 425.855 128.481 476.427 121.289C527.54 114.235 554.811 199.816 517.203 223.691C480.361 247.101 498.908 254.381 479.204 304.074C459.501 353.767 376.187 351.423 364.316 299.891C353.813 250.617 343.997 266.061 294.328 218.106Z" stroke="#A6F400"/>
<path d="M306.155 217.134C266.029 178.39 306.903 142.3 349.309 136.911C374.771 132.827 375.726 101.99 405.085 96.6475C437.963 90.6677 426.427 135.229 471.821 129.226C517.936 123.407 543.598 200.334 508.71 222.423C474.845 243.893 492.067 250.803 473.83 295.393C455.594 339.983 380.93 338.14 369.539 291.391C359.972 247.654 350.873 260.196 306.155 217.134Z" stroke="#A6F400"/>
<path d="M318.124 216.392C282.867 182.427 318.375 149.143 356.229 144.493C379.433 140.963 381.051 113.503 407.062 108.771C437.471 103.241 427.14 142.206 467.356 137.393C508.473 132.81 532.525 201.081 500.358 221.386C469.47 240.915 485.366 247.456 468.598 286.942C451.829 326.429 385.815 325.086 374.904 283.121C366.272 244.921 357.89 254.562 318.124 216.392Z" stroke="#A6F400"/>
<path d="M330.257 215.92C299.87 186.734 330.012 156.257 363.314 152.345C384.259 149.37 386.54 125.288 409.204 121.165C437.145 116.086 428.017 149.454 463.055 145.831C499.175 142.483 521.617 202.1 492.171 220.619C464.26 238.209 478.83 244.379 463.529 278.762C448.228 313.146 390.864 312.304 380.433 275.123C372.737 242.459 365.072 249.198 330.257 215.92Z" stroke="#A6F400"/>
<path d="M342.399 215.464C316.881 191.057 341.659 163.386 370.408 160.212C389.094 157.791 392.038 137.087 411.355 133.574C436.828 128.945 428.905 156.717 458.764 154.283C489.886 152.171 510.718 203.133 483.993 219.867C459.059 235.517 472.304 241.316 458.47 270.597C444.637 299.877 395.923 299.536 385.971 267.139C379.211 240.012 372.262 243.849 342.399 215.464Z" stroke="#A6F400"/>
<path d="M354.557 215.029C333.909 195.401 353.321 170.537 377.517 168.101C393.945 166.234 397.552 148.907 413.521 146.004C436.526 141.826 429.807 164.001 454.489 162.757C480.613 161.88 499.834 204.187 475.831 219.136C453.873 232.846 465.793 238.276 453.427 262.453C441.061 286.63 400.997 286.79 391.525 259.176C385.701 237.586 379.469 238.521 354.557 215.029Z" stroke="#A6F400"/>
<path d="M366.731 214.627C350.952 199.778 364.999 177.72 384.643 176.022C398.812 174.71 403.082 160.76 415.704 158.467C436.24 154.739 430.726 171.318 450.229 171.264C471.356 171.622 488.967 205.275 467.685 218.439C448.704 230.209 459.298 235.268 448.399 254.342C437.501 273.416 406.087 274.077 397.095 251.246C392.207 235.192 386.691 233.226 366.731 214.627Z" stroke="#A6F400"/>
</svg>
