<svg width="1172" height="960" viewBox="0 0 1172 960" fill="none" xmlns="http://www.w3.org/2000/svg">
<path d="M757.162 731.384C720.281 590.309 856.903 575.949 955.499 618.546C1013.02 640.454 1050.8 572.324 1122.07 599.513C1193.33 626.703 1107.9 712.351 1216.94 756.308C1325.98 800.265 1272.75 996.937 1177.45 999.203C1082.14 1001.47 1108.33 1034.55 1013.02 1110.23C917.72 1185.91 757.162 1080.77 797.087 969.747C837.012 858.722 797.087 884.099 757.162 731.384Z" stroke="#A6F400"/>
<path d="M962.28 841.175C958.024 827.738 977.956 806.062 993.983 815.313C1008.66 823.784 1023.6 818.07 1033.48 821.847C1059.47 831.79 1049.91 837.052 1061.53 848.861C1075.67 863.23 1082.42 900.856 1049.91 900.856C1023.18 900.856 1031.17 914.563 1011.15 920.636C991.135 926.71 968.431 916.372 968.431 889.153C968.431 878.932 969.367 863.554 962.28 841.175Z" stroke="#A6F400"/>
<path d="M775.807 740.68C741.891 611.209 867.905 596.184 958.995 635.75C1012.63 656.435 1048.33 593.98 1114.01 619.041C1181.16 644.663 1102.63 723.003 1202.81 764.037C1303.23 805.304 1255.45 987.518 1165.85 989.578C1076.78 991.637 1101.31 1022.96 1012.85 1092.31C924.392 1161.66 776.366 1065.14 812.661 961.736C848.957 859.875 812.746 881.547 775.807 740.68Z" stroke="#A6F400"/>
<path d="M794.449 749.975C763.5 632.107 878.906 616.417 962.489 652.951C1012.22 672.416 1045.85 615.634 1105.95 638.567C1168.99 662.621 1097.35 733.653 1188.68 771.765C1280.47 810.342 1238.14 978.097 1154.25 979.951C1071.41 981.805 1094.29 1011.36 1012.68 1074.39C931.061 1137.41 795.568 1049.51 828.234 953.723C860.899 861.026 828.403 878.993 794.449 749.975Z" stroke="#A6F400"/>
<path d="M813.098 759.272C785.114 653.008 889.912 636.652 965.989 670.155C1011.83 688.398 1043.38 637.291 1097.9 658.095C1156.82 680.581 1092.08 744.306 1174.55 779.495C1257.71 815.382 1220.84 968.678 1142.66 970.326C1066.05 971.974 1087.28 999.771 1012.51 1056.47C937.737 1113.16 814.776 1033.88 843.812 945.712C872.848 862.179 844.067 876.441 813.098 759.272Z" stroke="#A6F400"/>
<path d="M831.741 768.568C806.723 673.907 900.913 656.887 969.483 687.358C1011.43 704.379 1040.9 658.947 1089.84 677.622C1144.65 698.54 1086.8 754.957 1160.42 787.224C1234.95 820.421 1203.53 959.259 1131.06 960.701C1060.69 962.142 1080.26 988.178 1012.34 1038.55C944.407 1088.91 833.978 1018.25 859.384 937.701C884.791 863.332 859.724 873.889 831.741 768.568Z" stroke="#A6F400"/>
<path d="M850.386 778.337C828.334 695.28 911.915 677.594 972.98 705.034C1011.03 720.834 1038.43 681.075 1081.79 697.623C1132.47 716.973 1081.53 766.082 1146.29 795.426C1212.19 825.933 1186.22 950.312 1119.46 951.548C1055.33 952.784 1073.25 977.058 1012.16 1021.1C951.079 1065.14 853.182 1003.09 874.959 930.162C896.736 864.957 875.384 871.809 850.386 778.337Z" stroke="#A6F400"/>
<path d="M869.031 788.663C849.946 717.209 922.918 698.858 976.477 723.266C1010.63 737.845 1035.95 703.76 1073.73 718.179C1120.3 735.962 1076.26 777.763 1132.16 804.184C1189.44 832.002 1168.92 941.922 1107.87 942.952C1049.96 943.982 1066.23 966.495 1011.99 1004.21C957.751 1041.92 872.386 988.492 890.534 923.18C908.681 867.139 891.044 870.286 869.031 788.663Z" stroke="#A6F400"/>
<path d="M887.677 799.019C871.557 739.168 933.922 720.152 979.974 741.529C1010.23 754.886 1033.48 726.476 1065.68 738.766C1108.13 754.98 1070.98 789.474 1118.03 812.973C1166.68 838.101 1151.62 933.562 1096.27 934.386C1044.6 935.21 1059.22 955.962 1011.82 987.346C964.424 1018.73 891.591 973.921 906.109 916.228C920.627 869.351 906.705 868.793 887.677 799.019Z" stroke="#A6F400"/>
<path d="M906.325 809.42C893.172 761.173 944.928 741.492 983.474 759.837C1009.84 771.973 1031.01 749.237 1057.63 759.399C1095.97 774.045 1065.71 801.231 1103.9 821.807C1143.93 844.246 1134.31 925.248 1084.68 925.866C1039.24 926.484 1052.2 945.475 1011.65 970.531C971.099 995.588 910.799 959.396 921.687 909.322C932.576 871.608 922.368 867.346 906.325 809.42Z" stroke="#A6F400"/>
<path d="M924.971 819.888C914.784 783.244 955.932 762.898 986.971 778.212C1009.44 789.126 1028.54 772.064 1049.57 780.098C1083.8 793.176 1060.44 813.054 1089.77 830.708C1121.17 850.456 1117.01 917 1073.08 917.412C1033.88 917.824 1045.19 935.053 1011.48 953.782C977.772 972.511 930.004 944.937 937.263 902.481C944.522 873.932 938.029 865.964 924.971 819.888Z" stroke="#A6F400"/>
<path d="M943.622 830.453C936.4 805.413 966.94 784.401 990.474 796.684C1009.05 806.376 1026.07 794.989 1041.52 800.894C1071.63 812.404 1055.17 824.975 1075.65 839.706C1098.42 856.765 1099.71 908.849 1061.49 909.055C1028.53 909.261 1038.18 924.73 1011.31 937.131C984.45 949.532 949.214 930.576 952.843 895.739C956.473 876.354 953.694 864.681 943.622 830.453Z" stroke="#A6F400"/>
<path d="M387.163 271.462C530.968 241.421 619.198 108.381 584.74 -26.4611C550.282 -161.303 406.185 -246.884 262.38 -216.843C118.575 -186.802 29.519 -52.5145 63.9769 82.3271C98.4349 217.169 243.359 301.503 387.163 271.462Z" stroke="#A6F400" stroke-miterlimit="10"/>
<path d="M376.753 231.069C520.781 200.978 613.82 86.0011 585.073 -26.5087C556.325 -139.018 416.677 -206.456 272.649 -176.365C128.621 -146.273 34.7532 -30.0479 63.5007 82.4619C92.2482 194.972 232.724 261.161 376.753 231.069Z" stroke="#A6F400" stroke-miterlimit="10"/>
<path d="M366.312 190.643C510.58 160.483 608.454 63.5702 585.433 -26.5892C562.411 -116.748 427.212 -166.013 282.944 -135.852C138.677 -105.692 39.9729 -7.52759 62.9944 82.6318C86.0158 172.791 222.045 220.804 366.312 190.643Z" stroke="#A6F400" stroke-miterlimit="10"/>
<path d="M355.843 150.158C500.367 119.896 603.105 41.048 585.827 -26.7293C568.549 -94.5065 437.798 -125.547 293.273 -95.2855C148.749 -65.0241 45.1806 15.0799 62.4587 82.8571C79.7369 150.634 211.319 180.419 355.843 150.158Z" stroke="#A6F400" stroke-miterlimit="10"/>
<path d="M345.592 110.577C490.389 80.1569 597.829 18.6324 586.241 -26.9833C574.653 -72.599 448.425 -85.0323 303.628 -54.6118C158.831 -24.1914 50.2962 37.5631 61.8842 83.1788C73.4722 128.795 200.795 140.998 345.592 110.577Z" stroke="#A6F400" stroke-miterlimit="10"/>
<path d="M335.056 68.6961C480.152 37.9768 592.521 -5.48442 586.716 -28.5204C580.911 -51.5564 459.13 -45.4439 314.035 -14.7245C168.939 15.9948 55.4734 59.6883 61.2784 82.7242C67.0833 105.76 189.961 99.4155 335.056 68.6961Z" stroke="#A6F400" stroke-miterlimit="10"/>
<path d="M60.6172 84.135L587.232 -29.845" stroke="#A6F400" stroke-miterlimit="10"/>
<path d="M387.163 271.462C530.968 241.421 619.198 108.381 584.74 -26.4611C550.282 -161.303 406.185 -246.884 262.38 -216.843C118.575 -186.802 29.519 -52.5145 63.9769 82.3271C98.4349 217.169 243.359 301.503 387.163 271.462Z" stroke="#A6F400" stroke-miterlimit="10"/>
<path d="M387.099 271.166C506.678 246.18 575.319 117.399 540.921 -17.2411C506.523 -151.881 382.112 -241.396 262.533 -216.41C142.953 -191.423 73.4877 -61.3983 107.886 73.242C142.284 207.882 267.52 296.152 387.099 271.166Z" stroke="#A6F400" stroke-miterlimit="10"/>
<path d="M386.994 270.842C482.37 250.898 531.458 126.377 497.143 -8.04912C462.827 -142.475 358.102 -235.902 262.726 -215.958C167.349 -196.014 117.438 -70.2504 151.754 64.1757C186.07 198.602 291.618 290.786 386.994 270.842Z" stroke="#A6F400" stroke-miterlimit="10"/>
<path d="M386.821 270.494C458.032 255.577 487.628 135.316 453.432 1.11789C419.236 -133.08 334.197 -230.397 262.986 -215.48C191.775 -200.564 161.358 -79.0621 195.554 55.136C229.75 189.334 315.61 285.411 386.821 270.494Z" stroke="#A6F400" stroke-miterlimit="10"/>
<path d="M386.537 270.121C433.954 260.154 444.95 143.986 410.941 10.0276C376.931 -123.93 310.794 -224.951 263.378 -214.984C215.962 -205.016 205.222 -87.8352 239.232 46.1228C273.241 180.081 339.121 280.089 386.537 270.121Z" stroke="#A6F400" stroke-miterlimit="10"/>
<path d="M384.837 269.719C408.311 264.746 400.174 152.836 366.507 19.1371C332.84 -114.561 286.39 -219.419 262.917 -214.446C239.443 -209.473 247.834 -96.552 281.502 37.1466C315.169 170.845 361.364 274.692 384.837 269.719Z" stroke="#A6F400" stroke-miterlimit="10"/>
<path d="M383.411 269.287L264.428 -213.877" stroke="#A6F400" stroke-miterlimit="10"/>
</svg>
