<svg width="375" height="2120" viewBox="0 0 375 2120" fill="none" xmlns="http://www.w3.org/2000/svg">
<path d="M1607.11 1877.62C1565.56 1728.79 1076.83 1515.59 680.475 1576.96C346.524 1628.66 -140.195 1283.4 -471.561 1433.05" stroke="#A6F400" stroke-width="4"/>
<path d="M1190.11 1338.62C1148.56 1189.79 659.833 976.592 263.475 1037.96C-70.4757 1089.66 -557.195 744.405 -888.561 894.047" stroke="#A6F400" stroke-width="4"/>
<path d="M1200.79 566.095C1122.9 432.639 596.12 350.147 228.218 509.875C-81.7573 644.454 -640.038 433.7 -922.713 662.374" stroke="#A6F400" stroke-width="4"/>
<path d="M-1160.89 2113.67C-1064.72 2234.61 -531.553 2240.89 -190.283 2030.18C97.2516 1852.64 679.939 1981.37 926.995 1714.61" stroke="#A6F400" stroke-width="4"/>
<path d="M370.123 1917.75C365.218 1913.79 362.263 1911.66 359.466 1911.36C356.185 1911.01 353.156 1913.25 347.491 1918.12C352.346 1912.09 354.458 1908.99 353.789 1905.58C353.278 1902.92 351.053 1900.07 347.122 1895.5C352.011 1899.44 354.983 1901.59 357.747 1901.89C361.06 1902.24 364.074 1900.01 369.754 1895.13C365.437 1900.51 363.292 1903.54 363.341 1906.54C363.39 1909.54 365.633 1912.54 370.123 1917.75Z" fill="white"/>
<path d="M32.1232 1964.75C27.218 1960.79 24.2626 1958.66 21.4663 1958.36C18.185 1958.01 15.1558 1960.25 9.49078 1965.12C14.3461 1959.09 16.4578 1955.99 15.789 1952.58C15.2778 1949.92 13.0529 1947.07 9.12196 1942.5C14.0108 1946.44 16.9826 1948.59 19.7466 1948.89C23.0602 1949.24 26.0736 1947.01 31.7544 1942.13C27.437 1947.51 25.2921 1950.54 25.341 1953.54C25.3899 1956.54 27.6333 1959.54 32.1232 1964.75Z" fill="white"/>
<path d="M33.0069 1037.54C28.8588 1032.8 26.3161 1030.19 23.6128 1029.41C20.4417 1028.5 17.0708 1030.19 10.6508 1034C16.4746 1028.9 19.0897 1026.21 19.02 1022.74C18.9749 1020.03 17.2763 1016.84 14.1936 1011.66C18.3283 1016.39 20.8844 1019.01 23.5558 1019.78C26.7588 1020.7 30.1112 1019.03 36.5497 1015.2C31.3687 1019.75 28.7318 1022.37 28.2618 1025.34C27.7918 1028.3 29.4836 1031.64 33.0069 1037.54Z" fill="white"/>
<path d="M29.7529 568.29C25.6049 563.545 23.0622 560.934 20.3589 560.16C17.1878 559.247 13.8169 560.931 7.39685 564.744C13.2207 559.644 15.8358 556.956 15.7661 553.482C15.721 550.779 14.0224 547.584 10.9397 542.404C15.0744 547.131 17.6304 549.76 20.3019 550.529C23.5049 551.447 26.8573 549.776 33.2958 545.949C28.1148 550.499 25.4779 553.118 25.0079 556.081C24.5379 559.045 26.2297 562.386 29.7529 568.29Z" fill="white"/>
<path d="M357.646 1553.47C354.01 1548.32 351.75 1545.46 349.141 1544.41C346.081 1543.18 342.554 1544.51 335.775 1547.64C342.094 1543.16 344.972 1540.76 345.261 1537.3C345.495 1534.6 344.135 1531.25 341.603 1525.78C345.228 1530.91 347.5 1533.79 350.078 1534.83C353.169 1536.07 356.676 1534.75 363.474 1531.61C357.852 1535.6 354.959 1537.94 354.186 1540.84C353.413 1543.74 354.751 1547.23 357.646 1553.47Z" fill="white"/>
<path d="M32.8826 1458.71C29.2461 1453.56 26.9862 1450.7 24.3772 1449.65C21.3172 1448.41 17.7905 1449.74 11.0114 1452.87C17.3302 1448.4 20.2086 1446 20.4976 1442.53C20.7316 1439.84 19.3716 1436.49 16.8396 1431.02C20.4647 1436.15 22.736 1439.02 25.3139 1440.06C28.405 1441.31 31.912 1439.99 38.7108 1436.85C33.0882 1440.84 30.1953 1443.17 29.4221 1446.07C28.6488 1448.97 29.987 1452.47 32.8826 1458.71Z" fill="white"/>
<path d="M367.711 1039.61C362.683 1035.81 359.661 1033.78 356.857 1033.57C353.566 1033.32 350.609 1035.66 345.102 1040.7C349.763 1034.52 351.775 1031.36 350.998 1027.97C350.402 1025.33 348.088 1022.55 344.013 1018.11C349.025 1021.89 352.064 1023.95 354.836 1024.15C358.159 1024.4 361.1 1022.08 366.623 1017.02C362.479 1022.53 360.431 1025.63 360.576 1028.63C360.72 1031.63 363.058 1034.55 367.711 1039.61Z" fill="white"/>
<path d="M370.773 470.19C364.861 468.007 361.379 466.931 358.635 467.545C355.413 468.259 353.259 471.351 349.445 477.77C352.12 470.505 353.131 466.895 351.407 463.877C350.075 461.525 347.055 459.531 341.87 456.457C347.762 458.63 351.264 459.716 353.978 459.114C357.23 458.388 359.375 455.317 363.199 448.877C360.825 455.35 359.762 458.911 360.767 461.739C361.772 464.566 364.856 466.691 370.773 470.19Z" fill="white"/>
</svg>
