<svg width="1920" height="1553" viewBox="0 0 1920 1553" fill="none" xmlns="http://www.w3.org/2000/svg">
<g clip-path="url(#clip0_24_1603)">
<rect width="1920" height="1553" fill="#005DB4"/>
<path d="M1922.5 635C1843 502.5 1315.25 426.412 949.317 590.598C641 728.931 80.2005 524.974 -199.676 757.065" stroke="#A6F400" stroke-width="4"/>
<path d="M1921 117.5C1776 207.5 1042.28 205.839 749.998 187.5C437.81 167.911 -144.9 -46.4296 -424.777 185.661" stroke="#A6F400" stroke-width="4"/>
<path d="M-81 1235.08C1.74797 1365.58 531.213 1428.61 892.982 1255.44C1197.79 1109.53 1763.45 1299.58 2037.51 1060.65" stroke="#A6F400" stroke-width="4"/>
<path d="M137.414 666.675C124.479 660.863 116.829 657.91 110.575 658.864C103.233 659.971 97.92 666.58 88.3684 680.401C95.4926 664.506 98.3191 656.556 94.9164 649.516C92.2883 644.031 85.8169 639.091 74.6526 631.39C87.543 637.177 95.237 640.155 101.421 639.221C108.834 638.094 114.121 631.531 123.698 617.665C117.371 631.83 114.436 639.659 116.255 646.161C118.075 652.663 124.67 657.908 137.414 666.675Z" fill="white"/>
<path d="M431.121 165.809C422.162 154.817 416.648 148.749 410.629 146.799C403.569 144.498 395.858 148.024 381.125 156.099C394.618 145.083 400.707 139.243 400.82 131.424C400.929 125.343 397.358 118.027 390.829 106.139C399.759 117.089 405.302 123.2 411.249 125.136C418.38 127.451 426.049 123.953 440.824 115.849C428.82 125.677 422.687 131.36 421.4 137.988C420.113 144.616 423.657 152.26 431.121 165.809Z" fill="white"/>
<path d="M1554.41 203.675C1541.48 197.863 1533.83 194.91 1527.58 195.864C1520.23 196.971 1514.92 203.58 1505.37 217.401C1512.49 201.506 1515.32 193.556 1511.92 186.516C1509.29 181.031 1502.82 176.091 1491.65 168.39C1504.54 174.177 1512.24 177.155 1518.42 176.221C1525.83 175.094 1531.12 168.531 1540.7 154.665C1534.37 168.83 1531.44 176.659 1533.26 183.161C1535.08 189.663 1541.67 194.908 1554.41 203.675Z" fill="white"/>
<path d="M1031.41 589.675C1018.48 583.863 1010.83 580.91 1004.58 581.864C997.233 582.971 991.92 589.58 982.368 603.401C989.493 587.506 992.319 579.556 988.916 572.516C986.288 567.031 979.817 562.091 968.653 554.39C981.543 560.177 989.237 563.155 995.421 562.221C1002.83 561.094 1008.12 554.531 1017.7 540.665C1011.37 554.83 1008.44 562.659 1010.26 569.161C1012.08 575.663 1018.67 580.908 1031.41 589.675Z" fill="white"/>
<path d="M1832.26 591.925C1826.27 579.069 1822.42 571.833 1817.06 568.465C1810.78 564.501 1802.44 566.026 1786.18 570.236C1801.96 562.87 1809.3 558.704 1811.33 551.152C1812.93 545.284 1811.26 537.315 1807.85 524.188C1813.82 536.996 1817.69 544.28 1822.98 547.618C1829.33 551.613 1837.62 550.105 1853.93 545.877C1839.88 552.456 1832.54 556.46 1829.67 562.569C1826.79 568.678 1828.35 576.958 1832.26 591.925Z" fill="white"/>
<path d="M1821.41 1181.68C1808.48 1175.86 1800.83 1172.91 1794.58 1173.86C1787.23 1174.97 1781.92 1181.58 1772.37 1195.4C1779.49 1179.51 1782.32 1171.56 1778.92 1164.52C1776.29 1159.03 1769.82 1154.09 1758.65 1146.39C1771.54 1152.18 1779.24 1155.16 1785.42 1154.22C1792.83 1153.09 1798.12 1146.53 1807.7 1132.66C1801.37 1146.83 1798.44 1154.66 1800.26 1161.16C1802.08 1167.66 1808.67 1172.91 1821.41 1181.68Z" fill="white"/>
<path d="M995.414 1243.68C982.479 1237.86 974.829 1234.91 968.575 1235.86C961.233 1236.97 955.92 1243.58 946.368 1257.4C953.493 1241.51 956.319 1233.56 952.916 1226.52C950.288 1221.03 943.817 1216.09 932.653 1208.39C945.543 1214.18 953.237 1217.16 959.421 1216.22C966.834 1215.09 972.121 1208.53 981.698 1194.66C975.371 1208.83 972.436 1216.66 974.255 1223.16C976.075 1229.66 982.67 1234.91 995.414 1243.68Z" fill="white"/>
<path d="M84.4139 1330.68C71.4788 1324.86 63.8295 1321.91 57.5752 1322.86C50.2328 1323.97 44.92 1330.58 35.3684 1344.4C42.4926 1328.51 45.3191 1320.56 41.9164 1313.52C39.2883 1308.03 32.8169 1303.09 21.6526 1295.39C34.543 1301.18 42.237 1304.16 48.4214 1303.22C55.8337 1302.09 61.1213 1295.53 70.6981 1281.66C64.3714 1295.83 61.4359 1303.66 63.2555 1310.16C65.0751 1316.66 71.6695 1321.91 84.4139 1330.68Z" fill="white"/>
</g>
<defs>
<clipPath id="clip0_24_1603">
<rect width="1920" height="1553" fill="white"/>
</clipPath>
</defs>
</svg>
