<svg width="767" height="2688" viewBox="0 0 767 2688" fill="none" xmlns="http://www.w3.org/2000/svg">
<path d="M-171 1071.08C-88.252 1201.58 441.213 1264.61 802.982 1091.44C1107.79 945.533 1673.45 1135.58 1947.51 896.647" stroke="#A6F400" stroke-width="4"/>
<path d="M1711.11 2176.62C1669.56 2027.79 1180.83 1814.59 784.475 1875.96C450.524 1927.66 -36.195 1582.4 -367.561 1732.05" stroke="#A6F400" stroke-width="4"/>
<path d="M-566.396 2414.41C-485.878 2546.29 42.4401 2618.31 407.1 2451.31C714.342 2310.6 1276.7 2510.23 1554.78 2275.99" stroke="#A6F400" stroke-width="4"/>
<path d="M1526.92 792.171C1470.28 624.494 967.858 423.958 585.352 531.301C263.074 621.743 -251.443 268.833 -560.751 471.908" stroke="#A6F400" stroke-width="4"/>
<path d="M-588.461 -251.251C-558.604 -76.8022 -93.514 199.478 301.037 152.969C633.463 113.782 1086.79 542.463 1423.93 389.997" stroke="#A6F400" stroke-width="4"/>
<path d="M733.453 2412.84C725.482 2406.41 720.679 2402.95 716.135 2402.47C710.803 2401.89 705.881 2405.54 696.675 2413.44C704.565 2403.64 707.996 2398.61 706.91 2393.07C706.079 2388.75 702.463 2384.11 696.076 2376.69C704.02 2383.09 708.849 2386.58 713.341 2387.07C718.725 2387.64 723.622 2384.02 732.853 2376.09C725.838 2384.83 722.352 2389.76 722.432 2394.63C722.511 2399.51 726.157 2404.38 733.453 2412.84Z" fill="white"/>
<path d="M61.4527 2560.84C53.4817 2554.41 48.6792 2550.95 44.1352 2550.47C38.8031 2549.89 33.8806 2553.54 24.675 2561.44C32.5649 2551.64 35.9964 2546.61 34.9096 2541.07C34.0789 2536.75 30.4634 2532.11 24.0756 2524.69C32.02 2531.09 36.8491 2534.58 41.3407 2535.07C46.7252 2535.64 51.622 2532.02 60.8534 2524.09C53.8376 2532.83 50.352 2537.76 50.4315 2542.63C50.5111 2547.51 54.1565 2552.38 61.4527 2560.84Z" fill="white"/>
<path d="M748.453 1900.84C740.482 1894.41 735.679 1890.95 731.135 1890.47C725.803 1889.89 720.881 1893.54 711.675 1901.44C719.565 1891.64 722.996 1886.61 721.91 1881.07C721.079 1876.75 717.463 1872.11 711.076 1864.69C719.02 1871.09 723.849 1874.58 728.341 1875.07C733.725 1875.64 738.622 1872.02 747.853 1864.09C740.838 1872.83 737.352 1877.76 737.432 1882.63C737.511 1887.51 741.157 1892.38 748.453 1900.84Z" fill="white"/>
<path d="M60.4527 1739.84C52.4817 1733.41 47.6792 1729.95 43.1352 1729.47C37.8031 1728.89 32.8806 1732.54 23.675 1740.44C31.5649 1730.64 34.9964 1725.61 33.9096 1720.07C33.0789 1715.75 29.4634 1711.11 23.0756 1703.69C31.02 1710.09 35.8491 1713.58 40.3407 1714.07C45.7252 1714.64 50.622 1711.02 59.8534 1703.09C52.8376 1711.83 49.352 1716.76 49.4315 1721.63C49.5111 1726.51 53.1565 1731.38 60.4527 1739.84Z" fill="white"/>
<path d="M73.4527 1194.84C65.4817 1188.41 60.6792 1184.95 56.1352 1184.47C50.8031 1183.89 45.8806 1187.54 36.675 1195.44C44.5649 1185.64 47.9964 1180.61 46.9096 1175.07C46.0789 1170.75 42.4634 1166.11 36.0756 1158.69C44.02 1165.09 48.8491 1168.58 53.3407 1169.07C58.7252 1169.64 63.622 1166.02 72.8534 1158.09C65.8376 1166.83 62.352 1171.76 62.4315 1176.63C62.5111 1181.51 66.1565 1186.38 73.4527 1194.84Z" fill="white"/>
<path d="M731.143 1139.17C721.571 1135.52 715.932 1133.72 711.463 1134.67C706.216 1135.78 702.664 1140.77 696.361 1151.14C700.826 1139.37 702.529 1133.52 699.778 1128.59C697.652 1124.75 692.777 1121.46 684.403 1116.38C693.941 1120.01 699.614 1121.83 704.033 1120.89C709.33 1119.77 712.865 1114.81 719.184 1104.41C715.221 1114.89 713.435 1120.66 715.022 1125.27C716.608 1129.88 721.584 1133.39 731.143 1139.17Z" fill="white"/>
<path d="M735.221 521.863C726.954 515.818 721.992 512.586 717.431 512.322C712.077 512.004 707.333 515.876 698.514 524.209C705.929 514.047 709.118 508.855 707.769 503.371C706.734 499.102 702.903 494.642 696.169 487.528C704.409 493.548 709.398 496.805 713.908 497.072C719.313 497.387 724.033 493.543 732.877 485.182C726.284 494.241 723.037 499.332 723.348 504.199C723.659 509.065 727.532 513.759 735.221 521.863Z" fill="white"/>
<path d="M663.829 243.086C658.109 234.59 654.542 229.863 650.342 228.065C645.416 225.945 639.638 227.974 628.51 232.812C638.939 225.777 643.703 221.977 644.299 216.362C644.777 211.995 642.69 206.498 638.777 197.519C644.479 205.982 648.064 210.741 652.214 212.525C657.19 214.66 662.935 212.649 674.096 207.793C664.815 214.071 660.03 217.755 658.668 222.437C657.306 227.119 659.352 232.85 663.829 243.086Z" fill="white"/>
<path d="M101.221 165.863C92.9539 159.818 87.9923 156.586 83.4306 156.322C78.0773 156.004 73.3334 159.876 64.5136 168.209C71.9293 158.047 75.1177 152.855 73.7689 147.371C72.7342 143.102 68.9026 138.642 62.1693 131.528C70.409 137.548 75.3984 140.805 79.9077 141.072C85.3134 141.387 90.0328 137.543 98.8771 129.182C92.2842 138.241 89.0368 143.332 89.3478 148.199C89.6588 153.065 93.5316 157.759 101.221 165.863Z" fill="white"/>
<path d="M47.4789 491.129C42.1007 482.413 38.7243 477.548 34.5986 475.585C29.7605 473.271 23.9066 475.069 12.5958 479.462C23.2957 472.846 28.2066 469.238 29.0251 463.651C29.6764 459.307 27.8093 453.731 24.2552 444.604C29.6167 453.286 33.0098 458.185 37.0857 460.132C41.9735 462.462 47.7943 460.68 59.1382 456.271C49.6162 462.176 44.6887 465.667 43.1419 470.292C41.5951 474.916 43.4122 480.724 47.4789 491.129Z" fill="white"/>
</svg>
