<svg width="72" height="72" viewBox="0 0 72 72" fill="none" xmlns="http://www.w3.org/2000/svg">
<rect width="72" height="72" rx="36" fill="white"/>
<path d="M36 14C32.0852 14 28.9091 17.6953 28.9091 22.25V36C28.9091 40.5547 32.0852 44.25 36 44.25C39.9148 44.25 43.0909 40.5547 43.0909 36V22.25C43.0909 17.6953 39.9148 14 36 14ZM26.5455 32.5625C26.5455 31.4195 25.7551 30.5 24.7727 30.5C23.7903 30.5 23 31.4195 23 32.5625V36C23 43.657 27.8898 49.982 34.2273 50.9875V53.875H30.6818C29.6994 53.875 28.9091 54.7945 28.9091 55.9375C28.9091 57.0805 29.6994 58 30.6818 58H41.3182C42.3006 58 43.0909 57.0805 43.0909 55.9375C43.0909 54.7945 42.3006 53.875 41.3182 53.875H37.7727V50.9875C44.1102 49.982 49 43.657 49 36V32.5625C49 31.4195 48.2097 30.5 47.2273 30.5C46.2449 30.5 45.4545 31.4195 45.4545 32.5625V36C45.4545 42.0758 41.2222 47 36 47C30.7778 47 26.5455 42.0758 26.5455 36V32.5625Z" fill="#005DB4"/>
</svg>
