<svg width="128" height="442" viewBox="0 0 128 442" fill="none" xmlns="http://www.w3.org/2000/svg">
<path d="M303.91 185.148C325.312 175.426 339.295 121.009 297.582 127.278C290.742 128.305 279.131 127.657 265.124 125.044C252.293 122.651 247.241 92.7281 231.149 82.5425C205.913 66.5683 183.998 118.295 170.8 108.915C153.513 96.6301 148.009 62.2777 139.423 42.895C131.339 24.6483 117.197 12.407 102.161 7.0458C75.7808 -2.35976 46.6476 9.41067 42.6466 47.0808C40.6437 65.9382 44.9388 91.286 59.0301 123.717C65.3303 138.217 70.4669 150.974 74.5523 162.278C85.0672 191.374 56.1218 181.755 52.7316 215.259C50.7998 234.35 74.8646 256.084 60.2541 270.278C49.8652 280.371 37.3085 291.909 24.0594 308.709C0.791865 338.212 -4.98342 376.704 24.8075 384.254C38.8705 387.818 60.8591 384.487 92.6745 370.061C113.034 360.83 110.531 387.105 135.48 391.869C160.429 396.632 173.737 372.63 182.914 391.3L183.098 391.674C190.092 405.904 197.551 421.081 213.258 430.17C226.789 437.999 240.703 438.297 251.787 432.821C263.649 426.96 272.27 414.484 273.711 397.547C275.156 380.552 269.373 359.066 252.382 335.263C241.179 319.569 270.316 311.467 269.239 284.657C268.162 257.847 240.971 252.26 250.028 236.867C265.761 210.128 278.844 196.533 303.91 185.148Z" stroke="#A6F400" stroke-width="2"/>
<path d="M287.957 135.875C325.917 130.376 313.127 180.104 293.507 189.017C269.519 199.931 257.728 213.011 243.671 238.145C235.466 252.26 260.284 257.5 261.331 282.053C262.378 306.605 235.925 314.138 246.108 328.535C261.547 350.427 266.689 370.15 265.209 385.694C263.822 401.143 255.858 412.512 244.951 417.782C234.753 422.703 221.986 422.288 209.623 414.881C194.98 405.315 186.347 392.363 179.456 379.338C170.938 362.358 158.746 384.038 136.047 379.491C113.348 374.945 115.707 350.772 97.3446 358.968C68.5818 371.862 48.7501 374.732 36.0992 371.35C9.08412 364.373 14.4557 329.148 35.686 302.042C47.8012 286.494 59.2305 275.676 68.5476 266.151C81.784 253.08 59.8184 233.128 61.4887 215.557C64.4757 184.848 90.7471 193.4 81.1447 166.75C77.392 156.288 72.7107 144.527 66.9926 131.204C54.2276 101.175 50.7235 77.9483 52.9112 60.9206C56.6557 26.6825 83.2628 16.0337 107.353 24.6747C121.122 29.6359 134.066 40.8794 141.476 57.6079C149.601 75.9484 154.779 107.56 171.186 118.841C183.37 127.402 203.516 80.2952 226.683 94.7893C241.53 104.017 246.333 131.204 258.182 133.414C271.08 135.821 281.727 136.606 287.957 135.875Z" stroke="#A6F400" stroke-width="2"/>
<path d="M277.929 144.859C312.011 140.134 300.45 185.1 282.675 193.193C259.844 203.623 249.382 216.17 237.044 239.665C229.715 252.482 252.078 257.364 253.089 279.623C254.1 301.882 230.416 308.838 239.543 321.916C253.377 341.863 257.859 359.793 256.349 373.863C255.017 387.801 247.735 398.048 237.82 402.721C228.54 407.08 216.961 406.551 205.807 399.578C192.417 389.631 182.636 379.111 175.927 367.418C168.097 352.154 157.06 371.481 136.685 367.162C116.31 362.842 118.521 340.808 102.214 347.957C76.5964 359.303 58.9857 361.712 47.7884 358.518C23.6382 352.128 28.5926 320.22 47.7195 295.548C58.6632 281.274 68.929 271.19 77.1455 262.246C88.9662 250.315 69.1741 232.178 70.58 216.152C73.1581 188.283 96.6686 195.752 88.0136 171.588C84.6072 161.984 80.3981 151.238 75.2823 139.111C63.8891 111.529 61.1895 90.4591 63.5563 75.2859C67.0361 44.5299 91.0311 35.0151 112.751 42.8758C125.208 47.428 136.909 57.6556 143.62 72.8403C151.254 90.1107 156.085 118.934 171.555 129.192C182.683 136.92 201 94.5006 222.02 107.49C235.573 115.744 240.107 140.155 250.935 142.178C262.68 144.372 272.328 145.292 277.929 144.859Z" stroke="#A6F400" stroke-width="2"/>
<path d="M268.305 153.455C298.632 149.5 288.265 189.773 272.271 197.057C250.518 207.017 241.35 219.049 230.687 240.939C224.21 252.477 244.199 257.012 245.181 277.012C246.162 297.012 225.163 303.399 233.27 315.179C245.551 333.215 249.392 349.379 247.848 361.998C246.569 374.446 239.945 383.586 230.985 387.668C222.591 391.47 212.159 390.825 202.173 384.273C189.985 373.927 179.024 365.823 172.472 355.443C165.3 341.87 155.38 358.873 137.254 354.77C119.129 350.667 121.196 330.737 106.887 336.85C84.3216 346.661 68.8678 348.609 59.0827 345.596C37.7082 339.781 42.2587 311.14 59.3482 288.868C69.1579 275.847 78.2963 266.482 85.4411 258.106C95.8877 247.299 78.1948 230.945 79.3392 216.44C81.5139 191.367 102.35 197.769 94.6079 176.052C91.5342 167.291 87.7803 157.542 83.2467 146.592C73.1797 121.413 71.2709 102.465 73.8223 89.1234C77.0453 61.8023 98.5139 53.4102 117.944 60.506C129.133 64.658 139.636 73.8873 145.674 87.5528C152.847 103.781 157.352 129.862 171.941 139.115C182.055 146.024 198.602 108.228 217.554 119.737C229.862 127.031 234.148 148.704 243.993 150.544C254.629 152.532 263.313 153.589 268.305 153.455Z" stroke="#A6F400" stroke-width="2"/>
<path d="M258.652 162.461C285.223 159.288 276.054 194.796 261.844 201.255C241.169 210.724 233.295 222.22 224.312 242.465C218.688 252.702 236.304 256.886 237.259 274.592C238.213 292.297 219.9 298.101 226.987 308.564C237.718 324.657 240.919 339.028 239.342 350.174C238.119 361.11 232.153 369.125 224.15 372.608C216.641 375.845 207.357 375.084 198.538 368.963C187.551 358.235 175.405 352.559 169.008 343.511C162.492 331.652 153.691 346.298 137.816 342.417C121.94 338.537 123.862 320.747 111.551 325.809C92.0413 334.065 78.7458 335.548 70.3733 332.721C51.7752 327.487 55.9184 302.166 70.967 282.333C79.6409 270.589 87.6502 261.961 93.7217 254.17C102.792 244.506 87.197 229.962 88.078 217.003C89.8461 194.772 108.008 200.097 101.176 180.865C98.4337 172.962 95.1342 164.227 91.1815 154.473C82.4383 131.739 81.319 114.948 84.0542 103.461C87.0173 79.6238 105.958 72.3718 123.098 78.6925C133.02 82.4384 142.326 90.6543 147.692 102.777C154.405 117.936 158.588 141.228 172.299 149.463C181.399 155.542 196.172 122.438 213.055 132.447C224.12 138.771 228.16 157.668 237.023 159.323C246.549 161.102 254.269 162.296 258.652 162.461Z" stroke="#A6F400" stroke-width="2"/>
<path d="M248.577 171.434C271.334 169.038 263.379 199.781 250.983 205.418C231.43 214.397 224.867 225.356 217.581 243.955C212.821 252.893 228.024 256.72 228.947 272.131C229.87 287.542 214.282 292.765 220.333 301.909C229.486 316.057 232.039 328.634 230.431 338.305C229.263 347.729 223.968 354.622 216.939 357.505C210.333 360.18 202.216 359.303 194.585 353.617C184.825 342.511 171.523 339.263 165.297 331.546C159.454 321.403 151.79 333.695 138.2 330.039C124.61 326.383 126.384 310.734 116.099 314.748C99.6866 321.454 88.5785 322.473 81.6374 319.833C65.8578 315.184 69.5882 293.183 82.5656 275.789C90.0861 265.322 96.9498 257.431 101.936 250.223C109.611 241.702 96.1509 228.971 96.7684 217.56C98.1294 198.171 113.576 202.416 107.672 185.671C105.269 178.627 102.432 170.907 99.0706 162.35C91.674 142.065 91.3489 127.431 94.2634 117.799C96.9635 97.4451 113.335 91.3304 128.146 96.8731C136.779 100.211 144.864 107.412 149.545 117.991C155.782 132.077 159.63 152.579 172.431 159.792C180.495 165.039 193.466 136.627 208.242 145.134C218.038 150.485 221.819 166.606 229.68 168.075C238.075 169.643 244.814 170.971 248.577 171.434Z" stroke="#A6F400" stroke-width="2"/>
<path d="M238.954 180.02C257.954 178.397 251.193 204.438 240.579 209.264C222.101 217.772 216.832 228.216 211.225 245.208C207.318 252.865 220.145 256.345 221.039 269.493C221.933 282.641 209.032 287.294 214.062 295.138C221.661 307.371 223.573 318.18 221.931 326.397C220.815 334.329 216.178 340.112 210.105 342.403C204.385 344.519 197.416 343.526 190.953 338.261C182.396 326.754 167.905 325.927 161.833 319.526C156.649 311.077 150.103 321.04 138.764 317.601C127.425 314.162 129.056 300.62 120.77 303.595C107.414 308.763 98.4652 309.321 92.938 306.862C79.9368 302.787 83.2631 284.06 94.2013 269.07C100.587 259.858 106.322 252.688 110.235 246.048C116.535 238.653 105.175 227.708 105.53 217.82C106.487 201.233 119.257 204.409 114.266 190.115C112.195 183.915 109.814 177.194 107.035 169.816C100.966 151.937 101.434 139.43 104.534 131.633C106.978 114.72 120.821 109.731 133.34 114.507C140.706 117.444 147.592 123.645 151.6 132.702C157.376 145.746 160.899 163.5 172.821 169.707C179.871 174.134 191.072 150.353 203.778 157.377C212.329 161.767 215.862 175.145 222.741 176.431C230.026 177.792 235.8 179.258 238.954 180.02Z" stroke="#A6F400" stroke-width="2"/>
<path d="M229.305 189.01C244.544 188.167 238.982 209.436 230.154 213.437C212.748 221.447 208.777 231.348 204.854 246.687C201.802 253.041 212.254 256.167 213.121 267.018C213.988 277.869 203.777 281.936 207.786 288.46C213.833 298.748 215.104 307.761 213.428 314.502C212.367 320.92 208.388 325.577 203.272 327.269C198.438 328.821 192.617 327.712 187.322 322.882C179.966 311.003 164.278 312.595 158.359 307.526C153.83 300.792 148.404 308.398 139.318 305.184C130.232 301.969 131.717 290.571 125.434 292.498C115.138 296.113 108.351 296.206 104.239 293.934C94.0183 290.443 96.9373 275.04 105.832 262.494C111.081 254.562 115.685 248.133 118.522 242.081C123.443 235.831 114.183 226.7 114.274 218.361C114.823 204.62 124.915 206.719 120.834 194.915C119.096 189.574 117.169 183.87 114.972 177.69C110.228 162.263 111.489 151.916 114.776 145.975C116.96 132.548 128.272 128.699 138.499 132.699C144.596 135.229 150.284 140.415 153.62 147.927C158.939 159.894 162.141 174.855 173.187 180.042C179.223 183.637 188.648 164.553 199.285 170.077C206.592 173.497 209.88 184.097 215.776 185.197C221.951 186.349 226.76 187.95 229.305 189.01Z" stroke="#A6F400" stroke-width="2"/>
<path d="M219.675 197.732C231.149 197.66 226.78 214.275 219.736 217.475C203.394 225.04 200.72 234.457 198.479 248.231C196.281 253.319 204.352 256.105 205.189 264.716C206.026 273.328 198.507 276.837 201.492 282.076C205.98 290.471 206.605 297.736 204.892 303.038C203.882 307.977 200.56 311.536 196.401 312.638C192.454 313.635 187.781 312.406 183.657 307.985C177.505 295.666 160.608 299.698 154.84 295.936C150.97 290.883 146.662 296.175 139.833 293.169C133.003 290.164 134.347 280.847 130.069 281.736C122.836 283.819 118.216 283.45 115.522 281.354C108.087 278.431 110.605 266.268 117.459 256.094C121.573 249.398 125.047 243.671 126.808 238.17C130.352 233.03 123.198 225.666 123.026 218.831C123.171 207.861 130.58 208.89 127.416 199.511L127.335 199.253C125.955 194.822 124.512 190.188 122.93 185.269C119.52 172.211 121.581 163.967 125.059 159.85C126.989 149.838 135.769 147.105 143.7 150.347C148.527 152.481 153.013 156.678 155.674 162.684C160.532 173.641 163.408 185.889 173.58 190.08C178.6 192.861 186.257 178.369 194.82 182.417C200.881 184.882 203.921 192.76 208.834 193.678C213.898 194.624 217.742 196.369 219.675 197.732Z" stroke="#A6F400" stroke-width="2"/>
<path d="M209.59 206.669C217.248 207.373 214.095 219.202 208.868 221.575C193.665 228.636 192.3 237.497 191.754 249.602C190.421 253.383 196.077 255.809 196.882 262.115C197.687 268.422 192.894 271.344 194.842 275.257C197.754 281.696 197.731 287.158 195.99 290.979C195.037 294.4 192.388 296.831 189.204 297.334C186.162 297.768 182.658 296.427 179.723 292.447C174.801 279.776 156.772 286.22 151.18 283.792C147.986 280.46 144.816 283.393 140.273 280.618C135.729 277.843 136.924 270.679 134.67 270.522C130.533 271.054 128.098 270.223 126.834 268.318C122.217 265.983 124.32 257.154 129.101 249.434C132.059 244.024 134.388 239.044 135.064 234.137C137.213 230.147 132.194 224.605 131.76 219.327C131.499 211.213 136.192 211.164 133.956 204.284C132.891 200.64 131.885 196.944 130.863 193.132C128.798 182.542 131.648 176.466 135.3 174.207C136.965 167.689 143.175 166.096 148.775 168.555C152.311 170.279 155.576 173.455 157.551 177.91C161.93 187.776 164.468 197.217 173.721 200.381C177.703 202.328 183.554 192.543 190.007 195.086C194.796 196.576 197.576 201.67 201.484 202.401C205.415 203.136 208.276 205.011 209.59 206.669Z" stroke="#A6F400" stroke-width="2"/>
</svg>
